<svg viewBox="0 0 500 500" xmlns="http://www.w3.org/2000/svg">
    <path d="M 170 175 C 120 50 380 50 330 175 C 360 220 370 310 330 330 C 310 250 310 210 310 190 L 190 190 C 190 210 190 250 170 330 C 130 310 140 220 170 175 Z" fill="#78350F" />
    <circle cx="250" cy="175" r="70" fill="#FDBA74" />
    
    <rect x="170" y="110" width="160" height="15" fill="#F59E0B" rx="5" />
    
      <!-- Yeux géants mignons -->
      <circle cx="228" cy="175" r="22" fill="#1E293B" />
      <circle cx="222" cy="169" r="7" fill="#FFFFFF" />
      <circle cx="234" cy="181" r="3" fill="#FFFFFF" />

      <circle cx="272" cy="175" r="22" fill="#1E293B" />
      <circle cx="266" cy="169" r="7" fill="#FFFFFF" />
      <circle cx="278" cy="181" r="3" fill="#FFFFFF" />

      <ellipse cx="208" cy="200" rx="16" ry="9" fill="#FDA4AF" opacity="0.65" />
      <ellipse cx="292" cy="200" rx="16" ry="9" fill="#FDA4AF" opacity="0.65" />

      <path d="M238 205 Q250 217 L262 205" stroke="#1E293B" stroke-width="7" stroke-linecap="round" fill="none" />
    
  </svg>