<svg viewBox="0 0 500 500" xmlns="http://www.w3.org/2000/svg">
    <path d="M 160 170 C 130 110, 140 50, 250 50 C 360 50, 370 110, 340 170 C 375 220, 380 300, 335 320 C 310 240, 310 190, 310 170 L 190 170 C 190 190, 190 240, 165 320 C 120 300, 125 220, 160 170 Z" fill="#78350F" />
    <circle cx="250" cy="175" r="70" fill="#FDBA74" />
    
    <path d="M 175 125 C 205 105, 295 105, 325 125 L 330 142 C 290 135, 210 135, 170 142 Z" fill="#F59E0B" stroke="#1E293B" stroke-width="5" />
    
      <!-- Yeux géants mignons avec double reflet asymétrique (60% du visage) -->
      <circle cx="225" cy="175" r="26" fill="#1E293B" />
      <circle cx="217" cy="167" r="8.5" fill="#FFFFFF" />
      <circle cx="233" cy="183" r="4" fill="#FFFFFF" />

      <circle cx="275" cy="175" r="26" fill="#1E293B" />
      <circle cx="267" cy="167" r="8.5" fill="#FFFFFF" />
      <circle cx="283" cy="183" r="4" fill="#FFFFFF" />

      <!-- Blush rose kawaii -->
      <ellipse cx="205" cy="201" rx="18" ry="10" fill="#FDA4AF" opacity="0.65" />
      <ellipse cx="295" cy="201" rx="18" ry="10" fill="#FDA4AF" opacity="0.65" />

      <!-- Bouche en léger sourire curieux -->
      <path d="M238 207 Q250 219 L262 207" stroke="#1E293B" stroke-width="6.5" stroke-linecap="round" fill="none" />
    
  </svg>