<svg viewBox="0 0 500 500" xmlns="http://www.w3.org/2000/svg">
    <path d="M 170 175 C 120 50 380 50 330 175 C 360 220 370 310 330 330 C 310 250 310 210 310 190 L 190 190 C 190 210 190 250 170 330 C 130 310 140 220 170 175 Z" fill="#78350F" />
    <circle cx="250" cy="175" r="70" fill="#FDBA74" />
    
    <rect x="170" y="110" width="160" height="15" fill="#F59E0B" rx="5" />
    
      <!-- Yeux joyeux arqués -->
      <path d="M212 180 Q228 157 L244 180" stroke="#1E293B" stroke-width="9" stroke-linecap="round" fill="none" />
      <path d="M256 180 Q272 157 L288 180" stroke="#1E293B" stroke-width="9" stroke-linecap="round" fill="none" />

      <ellipse cx="208" cy="200" rx="18" ry="11" fill="#FDA4AF" opacity="0.75" />
      <ellipse cx="292" cy="200" rx="18" ry="11" fill="#FDA4AF" opacity="0.75" />

      <path d="M236 200 Q250 230 L264 200 Z" fill="#EF4444" stroke="#1E293B" stroke-width="6" stroke-linejoin="round" />
      <path d="M243 217 Q250 207 L257 217 Q250 227 L243 217" fill="#F472B6" />
    
  </svg>