<svg viewBox="0 0 500 500" xmlns="http://www.w3.org/2000/svg">
    <path d="M 170 175 C 120 50 380 50 330 175 C 360 220 370 310 330 330 C 310 250 310 210 310 190 L 190 190 C 190 210 190 250 170 330 C 130 310 140 220 170 175 Z" fill="#78350F" />
    <circle cx="250" cy="175" r="70" fill="#FDBA74" />
    
    <rect x="170" y="110" width="160" height="15" fill="#F59E0B" rx="5" />
    
      <path d="M215 180 h25" stroke="#1E293B" stroke-width="8" stroke-linecap="round" />
      <path d="M260 180 h25" stroke="#1E293B" stroke-width="8" stroke-linecap="round" />

      <ellipse cx="208" cy="200" rx="14" ry="8" fill="#FDA4AF" opacity="0.5" />
      <ellipse cx="292" cy="200" rx="14" ry="8" fill="#FDA4AF" opacity="0.5" />

      <ellipse cx="250" cy="200" rx="12" ry="7" fill="#1E293B" />
      <path d="M300 145 Q310 175 L290 175 Z" fill="#3B82F6" stroke="#1E293B" stroke-width="4" stroke-linejoin="round" />
    
  </svg>