<svg viewBox="0 0 500 500" xmlns="http://www.w3.org/2000/svg">
    <path d="M 160 170 C 130 110, 140 50, 250 50 C 360 50, 370 110, 340 170 C 375 220, 380 300, 335 320 C 310 240, 310 190, 310 170 L 190 170 C 190 190, 190 240, 165 320 C 120 300, 125 220, 160 170 Z" fill="#78350F" />
    <circle cx="250" cy="175" r="70" fill="#FDBA74" />
    
    <path d="M 175 125 C 205 105, 295 105, 325 125 L 330 142 C 290 135, 210 135, 170 142 Z" fill="#F59E0B" stroke="#1E293B" stroke-width="5" />
    
      <!-- Sourcils froncés et yeux tristes arqués vers le bas -->
      <path d="M212 185 Q225 199 L238 185" stroke="#1E293B" stroke-width="8" stroke-linecap="round" fill="none" />
      <path d="M262 185 Q275 199 L288 185" stroke="#1E293B" stroke-width="8" stroke-linecap="round" fill="none" />

      <!-- Bouche tremblante triste -->
      <path d="M232 213 Q250 199 L268 213" stroke="#1E293B" stroke-width="7" stroke-linecap="round" fill="none" />
      <!-- Larmes d'eau coulantes texturées -->
      <path d="M224 189 v38 c0 6, 8 6, 8 0 v-38z" fill="#60A5FA" />
      <path d="M268 189 v38 c0 6, 8 6, 8 0 v-38z" fill="#60A5FA" />
    
  </svg>