<svg viewBox="0 0 500 500" xmlns="http://www.w3.org/2000/svg">
    <path d="M 170 175 C 120 50 380 50 330 175 C 360 220 370 310 330 330 C 310 250 310 210 310 190 L 190 190 C 190 210 190 250 170 330 C 130 310 140 220 170 175 Z" fill="#78350F" />
    <circle cx="250" cy="175" r="70" fill="#FDBA74" />
    
    <rect x="170" y="110" width="160" height="15" fill="#F59E0B" rx="5" />
    
      <path d="M214 183 Q228 197 L242 183" stroke="#1E293B" stroke-width="8" stroke-linecap="round" fill="none" />
      <path d="M258 183 Q272 197 L286 183" stroke="#1E293B" stroke-width="8" stroke-linecap="round" fill="none" />

      <path d="M234 210 Q250 197 L266 210" stroke="#1E293B" stroke-width="7" stroke-linecap="round" fill="none" />
      <path d="M228 187 v40 c0 6, 10 6, 10 0 v-40z" fill="#60A5FA" />
      <path d="M262 187 v40 c0 6, 10 6, 10 0 v-40z" fill="#60A5FA" />
    
  </svg>