<svg viewBox="0 0 500 500" xmlns="http://www.w3.org/2000/svg">
    
      <path d="M 160 140 C 150 25 350 25 340 140 C 360 225 370 300 350 325 C 325 300 310 225 310 200 L 190 200 C 190 225 175 300 150 325 C 130 300 140 225 160 140 Z" fill="#78350F" />
      <rect x="170" y="70" width="160" height="20" fill="#DC2626" rx="5" />
    
    <circle cx="250" cy="140" r="75" fill="#FDBA74" />
    
    
      <!-- Sourcils levés -->
      <path d="M215 110 Q225 105 L235 115" stroke="#1E293B" stroke-width="6" stroke-linecap="round" fill="none" />
      <path d="M265 115 Q275 105 L285 110" stroke="#1E293B" stroke-width="6" stroke-linecap="round" fill="none" />
      <!-- Yeux plissés -->
      <path d="M215 140 Q225 125 L235 140" stroke="#1E293B" stroke-width="10" stroke-linecap="round" fill="none" />
      <path d="M265 140 Q275 125 L285 140" stroke="#1E293B" stroke-width="10" stroke-linecap="round" fill="none" />
      <!-- Blush -->
      <ellipse cx="205" cy="155" rx="12.5" ry="7.5" fill="#FDA4AF" opacity="0.7" />
      <ellipse cx="295" cy="155" rx="12.5" ry="7.5" fill="#FDA4AF" opacity="0.7" />
      <!-- Bouche riante -->
      <path d="M235 160 Q250 185 L265 160" fill="#EF4444" />
    
  </svg>