<svg viewBox="0 0 500 500" xmlns="http://www.w3.org/2000/svg">
    <path d="M 160 170 C 130 110, 140 50, 250 50 C 360 50, 370 110, 340 170 C 375 220, 380 300, 335 320 C 310 240, 310 190, 310 170 L 190 170 C 190 190, 190 240, 165 320 C 120 300, 125 220, 160 170 Z" fill="#78350F" />
    <circle cx="250" cy="175" r="70" fill="#FDBA74" />
    
    <path d="M 175 125 C 205 105, 295 105, 325 125 L 330 142 C 290 135, 210 135, 170 142 Z" fill="#F59E0B" stroke="#1E293B" stroke-width="5" />
    
      <!-- Yeux concentrés/plissés (effort) -->
      <path d="M210 179 L240 179" stroke="#1E293B" stroke-width="8.5" stroke-linecap="round" />
      <path d="M260 179 L290 179" stroke="#1E293B" stroke-width="8.5" stroke-linecap="round" />

      <ellipse cx="205" cy="201" rx="14" ry="8" fill="#FDA4AF" opacity="0.5" />
      <ellipse cx="295" cy="201" rx="14" ry="8" fill="#FDA4AF" opacity="0.5" />

      <ellipse cx="250" cy="201" rx="13" ry="7.5" fill="#1E293B" />
      <!-- Goutte de sueur bleue en relief 3D Flat -->
      <path d="M302 150 C315 180, 290 180, 292 165 Z" fill="#3B82F6" stroke="#1E293B" stroke-width="4.5" stroke-linejoin="round" />
    
  </svg>