<svg viewBox="0 0 500 500" xmlns="http://www.w3.org/2000/svg">
    <!-- Ombre de contact propre style Duolingo (le composant CharacterRenderer applique aussi son ombre de sol) -->
    <ellipse cx="250" cy="425" rx="85" ry="11" fill="#E2E8F0" />
    
      <!-- Jambes rentrées vers l'intérieur (tristesse) -->
      <path d="M 215 340 L 230 410" fill="none" stroke="#FDBA74" stroke-width="24" stroke-linecap="round" />
      <path d="M 285 340 L 270 410" fill="none" stroke="#FDBA74" stroke-width="24" stroke-linecap="round" />
      <path d="M 200 405 C 200 418, 240 418, 240 400 C 240 390, 215 390, 200 405 Z" fill="#B45309" />
      <path d="M 300 405 C 300 418, 260 418, 260 400 C 260 390, 285 390, 300 405 Z" fill="#B45309" />
      <!-- Bras repliés vers le corps (abattement) -->
      <path d="M 145 220 Q 120 280, 140 330" fill="none" stroke="#FDBA74" stroke-width="20" stroke-linecap="round" />
      <path d="M 355 220 Q 380 280, 360 330" fill="none" stroke="#FDBA74" stroke-width="20" stroke-linecap="round" />
    
    
      <!-- Tunique affaissée -->
      <path d="M 175 220 C 155 250, 135 320, 155 345 C 180 358, 320 358, 345 345 C 365 320, 345 250, 325 220 Z" fill="#EA580C" />
      <path d="M 155 345 C 180 358, 320 358, 345 345 C 335 315, 165 315, 155 345 Z" fill="#B45309" opacity="0.25" />
    
    
      <!-- Reliefs musculaires pectoraux / abdominaux organiques -->
      <path d="M 190 235 C 215 242, 285 242, 310 235" stroke="#B45309" stroke-width="5" stroke-linecap="round" fill="none" opacity="0.45" />
      <path d="M 250 238 L 250 295" stroke="#B45309" stroke-width="4.5" stroke-linecap="round" fill="none" opacity="0.45" />
      <!-- Abdos en courbes douces -->
      <path d="M 225 265 Q 250 270 275 265" stroke="#B45309" stroke-width="4" stroke-linecap="round" fill="none" opacity="0.35" />
      <path d="M 225 285 Q 250 290 275 285" stroke="#B45309" stroke-width="4" stroke-linecap="round" fill="none" opacity="0.35" />
      <!-- Bracelets de force dorés courbés sur les bras -->
      <rect x="110" y="270" width="30" height="22" rx="6" fill="#F59E0B" stroke="#1E293B" stroke-width="4.5" transform="rotate(-10 110 270)" />
      <rect x="360" y="270" width="30" height="22" rx="6" fill="#F59E0B" stroke="#1E293B" stroke-width="4.5" transform="rotate(10 360 270)" />
    
  </svg>