<svg viewBox="0 0 500 500" xmlns="http://www.w3.org/2000/svg">
    <!-- Ombre de contact propre style Duolingo (le composant CharacterRenderer applique aussi son ombre de sol) -->
    <ellipse cx="250" cy="425" rx="85" ry="11" fill="#E2E8F0" />
    
      <!-- Jambes en plein mouvement asymétrique de course -->
      <path d="M 210 330 Q 165 375, 185 410" fill="none" stroke="#FDBA74" stroke-width="24" stroke-linecap="round" />
      <path d="M 155 405 C 155 418, 195 420, 195 405 C 195 392, 170 392, 155 405 Z" fill="#B45309" transform="rotate(-15 155 405)" />
      
      <path d="M 285 330 Q 325 360, 290 415" fill="none" stroke="#FDBA74" stroke-width="24" stroke-linecap="round" />
      <path d="M 270 410 C 270 423, 310 425, 310 410 C 310 398, 285 398, 270 410 Z" fill="#B45309" transform="rotate(15 270 410)" />
      
      <!-- Bras fléchis de façon dynamique -->
      <path d="M 145 210 Q 100 240, 130 285" fill="none" stroke="#FDBA74" stroke-width="20" stroke-linecap="round" />
      <path d="M 355 210 Q 380 180, 360 145" fill="none" stroke="#FDBA74" stroke-width="20" stroke-linecap="round" />
    
    
      <!-- Tunique penchée vers l'avant (dynamisme de la course) -->
      <g transform="skewX(-8 250 280)">
        <path d="M 175 210 C 150 245, 125 315, 150 350 C 175 365, 325 365, 350 350 C 375 315, 350 245, 325 210 Z" fill="#EA580C" />
        <path d="M 150 350 C 175 365, 325 365, 350 350 C 340 310, 160 310, 150 350 Z" fill="#B45309" opacity="0.25" />
      </g>
    
    
      <!-- Reliefs musculaires pectoraux / abdominaux organiques -->
      <path d="M 190 235 C 215 242, 285 242, 310 235" stroke="#B45309" stroke-width="5" stroke-linecap="round" fill="none" opacity="0.45" />
      <path d="M 250 238 L 250 295" stroke="#B45309" stroke-width="4.5" stroke-linecap="round" fill="none" opacity="0.45" />
      <!-- Abdos en courbes douces -->
      <path d="M 225 265 Q 250 270 275 265" stroke="#B45309" stroke-width="4" stroke-linecap="round" fill="none" opacity="0.35" />
      <path d="M 225 285 Q 250 290 275 285" stroke="#B45309" stroke-width="4" stroke-linecap="round" fill="none" opacity="0.35" />
      <!-- Bracelets de force dorés courbés sur les bras -->
      <rect x="110" y="270" width="30" height="22" rx="6" fill="#F59E0B" stroke="#1E293B" stroke-width="4.5" transform="rotate(-10 110 270)" />
      <rect x="360" y="270" width="30" height="22" rx="6" fill="#F59E0B" stroke="#1E293B" stroke-width="4.5" transform="rotate(10 360 270)" />
    
  </svg>