<?xml version="1.0" encoding="UTF-8"?>
<!-- Generator: visioncortex VTracer 0.6.12 -->
<svg version="1.1" xmlns="http://www.w3.org/2000/svg" width="1024" height="1024">
<path d="M0 0 C337.9 0 675.8 0 1024 0 C1024 337.9 1024 675.8 1024 1024 C686.1 1024 348.2 1024 0 1024 C0 686.1 0 348.2 0 0 Z M543 77 C543 77.7 543 78.3 543 79 C542.3 78.6 541.6 78.3 540.8 77.9 C532.1 73.8 524.2 72 514.8 75 C506.4 78.8 499.9 84.5 496 92.9 C495 96 495 96 495 99 C494.6 99 494.6 99 492.7 98.9 C483.3 98.5 477.2 100.3 469.8 106.1 C462.1 113.3 460.4 121 460 131.3 C460 132.2 460 133.1 460 134 C459.5 134.1 459.5 134.1 457 134.6 C451.1 136.3 446.7 140.1 443.6 145.3 C440.3 152.8 439.7 159.9 442.5 167.6 C443 168.7 443.5 169.9 444 171 C443.3 171.2 442.6 171.4 441.9 171.6 C437.1 173.9 434.2 177.8 431.6 182.4 C429.9 189.6 431 195.1 434 201.7 C434.9 203.9 435.7 205.7 436 208 C434.1 211.1 434.1 211.1 432 214 C430 220.1 430.4 225.3 433.1 231.2 C435.5 235.7 438.5 239.4 443 242 C444 242 445 242 446 242 C445.7 243 445.3 244 445 245 C444.5 251.3 445.2 255.9 449 261 C452.8 264.6 456.9 267.4 462 269 C456.7 275 448.3 277.7 440.5 278.9 C437 279 437 279 434.8 278 C427.4 275.3 417.8 275.9 410.4 278.1 C405.5 280.4 402 282.7 398.7 287.1 C395.2 291.5 391 292.6 385.8 294.1 C374.2 297.6 365.3 304.6 359.2 315 C354.9 323.4 352.9 330.3 352.9 339.8 C353 350.8 351.8 359.5 347 369.4 C342.9 377.9 339.8 386.8 336.8 395.8 C336.3 397.2 335.8 398.7 335.3 400.1 C332.1 409.3 329.3 418.6 326.6 427.9 C325.8 430.7 325 433.4 324.2 436.1 C323.4 438.8 322.7 441.4 321.9 444 C321.5 445.4 321.1 446.7 320.7 448 C318.6 455.3 316.5 462.6 315 470 C314.8 471 314.6 472 314.4 473 C308.5 505 325.1 532.9 341.2 559.4 C341.6 560.2 342.1 561 342.6 561.9 C344 564 344 564 346.4 566.7 C349.1 572.3 347.8 578 347 584 C346.8 585.3 346.7 586.5 346.5 587.8 C346.1 591.7 345.5 595.7 345 599.6 C344.6 602.2 344.3 604.8 343.9 607.4 C343.8 608.6 343.6 609.7 343.5 610.9 C342.3 620.7 341.9 630.4 342 640.2 C342 641.3 342 642.5 342 643.6 C342 646.1 342 648.6 342 651 C342.1 655.6 342.1 660.2 342.1 664.8 C342.1 665.5 342.1 666.1 342.1 666.8 C342.1 667.5 342.1 668.2 342.1 668.9 C342.2 678 342.2 687 342.3 696.1 C342.4 702.3 342.4 708.5 342.4 714.6 C342.4 717.9 342.5 721.1 342.5 724.3 C342.8 746.5 340 767.3 332.4 788.2 C328.1 800.1 324.4 811.6 324.7 824.3 C324.7 825.1 324.7 826 324.7 826.8 C324.8 838.6 328.5 851.5 337 860 C338 860.7 339 861.3 340 862 C340.3 864.5 340.4 866.8 340.4 869.3 C340.4 870.8 340.4 872.3 340.4 873.8 C340.4 876.1 340.4 878.4 340.4 880.8 C340.4 883 340.5 885.3 340.5 887.6 C340.5 888.3 340.5 889 340.5 889.7 C340.5 892.8 340.6 894.5 342.7 896.9 C345.4 898.2 347.8 898.7 350.8 899.1 C351.3 899.2 351.3 899.2 354.1 899.6 C355.2 899.8 356.4 900 357.6 900.1 C359.8 900.5 362.1 900.8 364.4 901.1 C365.4 901.3 366.4 901.4 367.4 901.6 C370 902 370 902 373 903 C372.6 904.1 372.2 905.2 371.7 906.4 C371.2 907.9 370.6 909.3 370.1 910.8 C369.8 911.6 369.5 912.3 369.2 913 C369 913.8 368.7 914.5 368.4 915.2 C368.2 915.9 367.9 916.5 367.7 917.2 C366.3 920.9 365.8 923.9 365.8 927.9 C365.8 928.9 365.8 929.9 365.8 931 C366 934.1 366.7 936.2 368 939 C366.5 940.2 364.9 941.5 363.4 942.7 C360.9 945 361 946.3 360.8 949.8 C360.8 953.6 361.5 956 364 959 C367.2 961 369.7 961.3 373.5 961.3 C374.6 961.3 375.7 961.3 376.8 961.3 C377.4 961.3 377.4 961.3 380.5 961.3 C381.8 961.3 383 961.3 384.4 961.3 C387.9 961.4 391.4 961.4 394.9 961.4 C397.1 961.4 399.2 961.4 401.4 961.4 C409.1 961.4 416.7 961.4 424.4 961.4 C431.5 961.4 438.6 961.5 445.7 961.5 C451.8 961.5 458 961.6 464.1 961.6 C467.7 961.6 471.4 961.6 475 961.6 C479.1 961.6 483.2 961.6 487.3 961.6 C488.5 961.6 489.7 961.6 490.9 961.6 C500 961.6 500 961.6 503.7 958.6 C506.4 955.5 506.9 954.7 507.3 950.7 C506.9 946.4 505.7 945.3 503 942 C503.2 939.8 503.2 939.8 504 937 C504.5 932.1 504.5 928.2 502.4 923.6 C497.8 918.7 494.2 916.9 487.6 916.6 C487.2 916.6 487.2 916.6 485 916.6 C482 916 482 916 473 911 C487.5 910.7 502 910.3 517 910 C515.7 913.6 514.4 917.3 513 921 C512.4 928.1 513.3 933.4 516 940 C514.5 941.2 512.9 942.5 511.4 943.7 C509.3 945.6 509 946.9 508.7 949.8 C509.1 953.8 510.5 955.8 513 959 C516.4 961.3 517.7 961.3 521.7 961.3 C522.9 961.3 524.1 961.3 525.3 961.3 C526 961.3 526 961.3 529.3 961.3 C530.7 961.3 532.1 961.3 533.4 961.3 C537.2 961.4 541 961.4 544.8 961.4 C547.1 961.4 549.5 961.4 551.9 961.4 C560.1 961.4 568.3 961.4 576.6 961.4 C584.2 961.4 591.9 961.5 599.6 961.5 C606.2 961.5 612.8 961.6 619.4 961.6 C623.3 961.6 627.2 961.6 631.2 961.6 C634.9 961.6 638.6 961.6 642.3 961.6 C644.3 961.6 646.3 961.6 648.3 961.6 C658.1 961.6 658.1 961.6 661.8 958.6 C664.4 955.6 664.9 954.7 665.4 950.8 C665 946.5 663.9 945.7 661 942.7 C659.6 940.3 660 938.9 660.4 936.1 C661.2 931.5 660.7 928.7 658.3 924.7 C653.5 918.5 645.7 917.2 638.5 915.4 C631.6 913.6 625.3 911.2 618.8 908.3 C617.9 907.9 616.9 907.5 615.9 907.1 C613.6 906 611.3 905 609 904 C611.3 903.4 613.7 902.7 616 902.1 C616.7 901.9 617.4 901.8 618.1 901.6 C621.7 900.6 625.3 899.7 628.9 898.8 C632 898 632 898 633 897 C633.1 894.8 633.1 892.6 633.1 890.4 C633.1 890 633.1 890 633.1 888.2 C633.1 885.9 633.1 883.5 633.1 881.2 C633.1 880.4 633.1 879.6 633.1 878.8 C633.1 857.8 632.6 836.9 632 816 C632.8 815.9 633.7 815.9 634.6 815.8 C647.7 814.9 663.7 813.4 673 802.9 C675.4 799.4 676.1 797 676.2 792.9 C676.2 792.1 676.2 791.3 676.3 790.4 C676.3 789.5 676.3 788.6 676.3 787.7 C676.3 786.8 676.4 785.9 676.4 785 C676.4 782.1 676.5 779.2 676.6 776.3 C676.6 774.4 676.6 772.4 676.7 770.4 C676.8 765.6 676.9 760.8 677 756 C678.1 755.5 679.2 754.9 680.3 754.4 C681.8 753.6 683.3 752.9 684.7 752.2 C685.1 752 685.1 752 686.9 751.1 C697 746.1 705.7 739.7 710 729 C712.7 715.7 710.7 701.3 709.8 687.9 C709.2 679.3 708.8 670.8 708.6 662.2 C708.2 647.8 707.3 633.4 706.4 619 C705.5 605.1 704.7 591.3 704.1 577.4 C701.9 529.8 701.9 529.8 695 514.2 C692.6 508.7 691.7 502.9 690.6 497 C688.1 484.1 684.7 471.4 681.1 458.8 C675.2 438.5 670.7 418.2 667 397.4 C658.6 351.5 658.6 351.5 643.1 334.7 C639 329.7 639.1 324.8 639.4 318.5 C640.1 314.4 641.4 312.2 643.9 308.9 C647.8 302.1 644.4 292.4 642.6 285.4 C641.7 280.2 642.5 276 644.5 271.3 C646.5 266.2 646.6 261.2 646.8 255.8 C647.4 247.3 648.5 240.9 652.7 233.4 C654 231 654 231 654.4 228.8 C654.6 228.2 654.8 227.6 655 227 C657.3 225.9 657.3 225.9 660.1 225.1 C666.5 223 670.8 220.6 674.3 214.8 C676.5 210 677.1 206.1 676.9 200.8 C676.7 196.5 676.9 194.4 679.8 191.1 C680.3 190.7 680.9 190.2 681.4 189.7 C686 184.8 686.6 179.6 686.5 173.2 C686.5 172.4 686.5 171.6 686.5 170.8 C686.2 162 683.2 157.1 677.2 150.9 C676.1 149.9 675.1 149 674 148 C674.3 147.1 674.7 146.2 675 145.2 C677.6 135.9 676.5 128.1 671.8 119.6 C666.8 112.2 660.5 109.4 652 107 C651.3 107 650.7 107 650 107 C649.9 106.3 649.8 105.6 649.7 104.9 C648 93.5 643.2 85.1 634 78 C623 72.3 611.6 69.8 599.4 73.3 C596.7 74.3 594.6 75.2 592.1 76.8 C591.4 77.2 590.7 77.6 590 78 C587 76.9 585 75.2 582.8 73.1 C576.4 67.6 570.3 66.4 562 66.7 C554.5 67.5 548 71.4 543 77 Z " fill="none" transform="translate(0,0)"/>
<path d="M0 0 C2.8 2.2 5.4 4.5 8 7 C10.9 5.9 13.7 4.7 16.5 3.4 C25.9 -0.4 36.4 -0.3 45.9 3.1 C51.5 5.5 55.8 8.5 60 13 C60.9 13.9 61.8 14.9 62.8 15.9 C67.3 22.2 69.4 28.2 70 36 C71.3 36.2 72.6 36.4 73.9 36.6 C81.5 38.4 87 42.2 91.4 48.6 C96.2 56.2 97.3 63.5 95.5 72.3 C95.1 73.9 94.6 75.5 94 77 C94.5 77.5 95.1 78 95.6 78.5 C96 78.8 96 78.8 97.8 80.5 C98.1 80.8 98.1 80.8 99.9 82.5 C104.9 88.5 106.7 94.1 106.6 101.9 C106.6 102.7 106.5 103.5 106.5 104.3 C106.3 110.5 105.1 115.2 101 120 C100.3 120.6 99.6 121.2 98.8 121.9 C97 124 97 124 96.8 126.7 C96.8 127.6 96.9 128.6 97 129.6 C97.2 136.6 96 142.2 91.6 147.8 C88.1 151.1 85 152.3 80.4 153.6 C76.5 154.8 75.3 155.5 73.3 159 C72 162.3 71 165.6 70 169 C69.7 169.6 69.3 170.2 69 170.9 C67.8 173.4 67.7 175.3 67.5 178.1 C67.5 178.6 67.5 178.6 67.3 181 C67.2 183.1 67.1 185.1 67 187.1 C66.5 193.3 65.5 198.2 62.8 203.8 C61.1 208.4 62.5 212.8 63.5 217.4 C66.9 232.8 66.9 232.8 63.9 237.9 C63.4 238.5 63 239.1 62.5 239.8 C59 244.6 59.2 249.6 59.4 255.4 C60.2 260.1 61.8 262.3 64.9 265.7 C80.7 283.5 83.8 309.5 88.1 331.9 C88.5 334.2 89 336.5 89.4 338.9 C89.6 339.7 89.7 340.4 89.9 341.2 C94.1 362.9 99.5 384.1 105.7 405.3 C108.5 414.8 110.8 424.3 112.5 434 C113.4 439.1 114.9 443.3 117.1 447.9 C126.6 469.1 123.8 499 124.9 521.9 C125.3 528.9 125.6 536 126 543 C126.1 545.4 126.2 547.9 126.3 550.3 C126.7 557.6 127.1 564.9 127.8 572.3 C128.1 576.8 128.3 581.4 128.5 586 C128.5 587 128.6 588 128.6 589 C128.8 592.2 128.9 595.3 129 598.4 C129.9 622.1 129.9 622.1 130.8 632.4 C131.1 636.2 131.2 640 131.2 643.8 C131.2 644.5 131.2 645.2 131.2 645.9 C131.3 655.4 128.5 662.9 122.2 670 C115.6 676.5 107.4 680.1 99 684 C98.3 684.3 97.7 684.7 97 685 C97 686.2 97 687.4 97 688.7 C96.9 693.2 96.8 697.7 96.7 702.2 C96.7 704.1 96.7 706.1 96.7 708 C96.6 710.8 96.6 713.6 96.5 716.4 C96.5 717.3 96.5 718.2 96.5 719.1 C96.3 725.6 95.1 729.8 90.4 734.6 C81.6 741.4 69 743.8 58.1 744.6 C57.5 744.6 57.5 744.6 54.6 744.8 C53.8 744.9 52.9 744.9 52 745 C52 746.1 52.1 747.3 52.1 748.5 C52.6 768.2 53.1 787.9 53.2 807.7 C53.2 809.3 53.3 810.9 53.3 812.5 C53.3 814.8 53.3 817 53.3 819.3 C53.3 819.9 53.3 819.9 53.4 823.1 C53.3 823.6 53.3 823.6 53 826 C50.2 827.9 48.8 828.4 45.6 829 C44.8 829.2 43.9 829.4 43.1 829.5 C42.2 829.7 41.3 829.9 40.4 830.1 C38.7 830.4 37 830.8 35.2 831.1 C34.5 831.2 33.7 831.4 32.9 831.6 C31 832 31 832 29 833 C51.2 843.2 51.2 843.2 60.9 845.4 C67.9 846.9 73.5 848.2 78.4 853.7 C80.6 858.2 81.9 863.2 80.4 868.1 C80.2 868.7 80.1 869.4 80 870 C81.3 871.5 82.5 872.9 83.8 874.4 C85 876 85 876 85.6 879.5 C84.8 884.1 83.3 885.7 80 889 C77.4 890.3 75.4 890.1 72.4 890.1 C71.8 890.2 71.8 890.2 68.8 890.2 C67.5 890.2 66.2 890.2 64.8 890.2 C63.4 890.2 62 890.2 60.6 890.2 C56.9 890.2 53.1 890.2 49.3 890.2 C46.9 890.2 44.6 890.2 42.2 890.3 C34.8 890.3 27.4 890.3 20 890.3 C11.5 890.3 2.9 890.3 -5.6 890.4 C-12.2 890.4 -18.8 890.4 -25.4 890.4 C-29.4 890.4 -33.3 890.4 -37.2 890.5 C-40.9 890.5 -44.7 890.5 -48.4 890.5 C-50.4 890.5 -52.4 890.5 -54.4 890.5 C-55.6 890.5 -56.8 890.5 -58 890.5 C-59.1 890.5 -60.1 890.5 -61.2 890.5 C-64.7 889.9 -66.4 888.5 -69 886 C-71.3 882.7 -71.5 879.9 -71 876 C-69.1 873 -66.5 870.5 -64 868 C-64.5 866.9 -65 865.8 -65.5 864.6 C-69 855.1 -66.5 848.7 -63 839 C-77.5 839.3 -92 839.7 -107 840 C-97 845.6 -97 845.6 -92.4 845.5 C-85.8 845.8 -81.5 848.3 -77 853.2 C-75.2 858.2 -75.4 863.7 -76.8 868.8 C-76.8 869.5 -76.9 870.3 -77 871 C-76.4 871.8 -75.7 872.6 -75.1 873.4 C-73 876 -73 876 -72.4 879.4 C-73.2 884.1 -74.7 885.7 -78 889 C-80.6 890.3 -82.4 890.1 -85.2 890.1 C-85.8 890.1 -85.8 890.1 -88.6 890.2 C-89.2 890.2 -89.2 890.2 -92.3 890.2 C-93.5 890.2 -94.8 890.2 -96.1 890.2 C-99.7 890.2 -103.2 890.2 -106.7 890.2 C-108.9 890.2 -111.1 890.2 -113.3 890.2 C-120.2 890.2 -127 890.2 -133.9 890.2 C-141.8 890.2 -149.8 890.3 -157.7 890.3 C-163.8 890.3 -170 890.3 -176.1 890.3 C-179.8 890.3 -183.4 890.3 -187.1 890.3 C-191.2 890.4 -195.3 890.4 -199.3 890.4 C-200 890.4 -200 890.4 -203 890.4 C-204.1 890.4 -205.3 890.4 -206.4 890.4 C-207.4 890.4 -208.3 890.4 -209.3 890.4 C-213.1 889.8 -215.9 888.4 -218.3 885.3 C-219.3 881.8 -219.6 878.6 -219 875 C-216.9 871.7 -215.2 870.2 -212 868 C-212.2 867.6 -212.2 867.6 -213 865.8 C-216.4 856.4 -213.3 848 -209.4 839.2 C-208.3 836.8 -207.5 834.6 -207 832 C-209.2 831.5 -211.5 831.1 -213.7 830.6 C-214.4 830.5 -215 830.3 -215.7 830.2 C-221.2 829.1 -226.7 828.3 -232.3 827.6 C-235.4 826.9 -236.8 826.3 -239 824 C-239.4 821.4 -239.5 819.2 -239.4 816.6 C-239.4 815.2 -239.5 813.7 -239.5 812.2 C-239.5 809.9 -239.4 807.6 -239.4 805.2 C-239.4 803 -239.4 800.7 -239.4 798.5 C-239.4 797.8 -239.4 797.1 -239.4 796.4 C-239.4 794.4 -239.4 794.4 -240 791 C-242.4 788.7 -242.4 788.7 -245 787 C-254.7 773.8 -256.5 758.9 -255 743 C-252.9 730.8 -248.9 718.7 -244.5 707.1 C-238.4 689.9 -237.4 672.4 -237.7 654.3 C-237.7 650.4 -237.7 646.6 -237.8 642.7 C-237.8 635.2 -237.9 627.7 -237.9 620.1 C-238 609.9 -238.1 599.7 -238.1 589.5 C-238.2 585.8 -238.2 582.1 -238.2 578.3 C-238.4 555.4 -236.1 532.9 -232.6 510.2 C-231.3 501.2 -232.7 497.1 -237.7 489.6 C-265.3 446.9 -265.3 446.9 -267 425 C-267.1 424.1 -267.2 423.2 -267.2 422.3 C-268.1 402.2 -261.1 381.8 -255.2 362.8 C-254.1 359.4 -253.1 356 -252.1 352.7 C-238.2 307.2 -238.2 307.2 -230.2 291.6 C-227.4 285.4 -227.4 279.8 -227.5 273.2 C-227.3 257.6 -224 245.8 -213.2 234 C-206.6 227.8 -198.5 223.7 -189.7 221.6 C-185.8 220.6 -184.1 219.4 -181.6 216.2 C-177 210.4 -171.2 206.7 -163.8 205.7 C-156.6 205.2 -149.7 205 -143 208 C-135.1 207.9 -125.5 205.2 -119.6 199.8 C-119.1 199.2 -118.5 198.6 -118 198 C-118.7 197.7 -119.3 197.5 -120 197.2 C-126.5 194.3 -130.5 191.2 -134 185 C-134.9 182.3 -135.1 180.7 -135.1 178 C-135.1 177.3 -135.1 176.6 -135.1 175.9 C-135 174 -135 174 -134 171 C-134.3 170.9 -134.3 170.9 -135.8 170.7 C-140.4 169.3 -143.8 165.9 -146.3 161.9 C-148.9 156.7 -150.1 151.8 -149 146 C-148.1 143.8 -147.2 141.8 -146 139.8 C-144.9 137.8 -144.3 136.2 -144 134 C-144.9 132.2 -145.9 130.5 -147 128.8 C-149.6 124.3 -149.6 119.1 -149 114 C-147.2 107.9 -143.3 103.5 -138 100 C-137.3 100 -136.7 100 -136 100 C-136.5 98.9 -137 97.8 -137.5 96.6 C-140.3 88.9 -139.7 81.8 -136.4 74.3 C-133.3 69.1 -128.9 65.3 -123 63.6 C-122.5 63.5 -122.5 63.5 -120 63 C-120 62.1 -120 61.2 -120 60.3 C-119.5 49.5 -117.6 42.1 -109.7 34.6 C-101.7 28.1 -95.1 27.5 -85 28 C-85 27.2 -84.9 26.4 -84.9 25.6 C-82.7 16.8 -76.4 10.4 -69 5.7 C-62.6 2.4 -56.1 2 -49 3 C-44.8 4.3 -40.9 6 -37 8 C-36.9 7.7 -36.9 7.7 -36.2 6.2 C-33.7 1.6 -28.8 -1.1 -24.2 -3.4 C-15.6 -5 -7.6 -4.9 0 0 Z M-31 9.3 C-32.8 11.5 -34.4 13.7 -36 16 C-40 15.2 -42.6 13.3 -46 11 C-52.1 9 -58.7 9.3 -64.8 11.1 C-71.5 15.1 -76.6 19.4 -79 27 C-79.4 29.7 -79.7 32.3 -80 35 C-81.2 34.9 -82.4 34.9 -83.7 34.8 C-99.3 34.3 -99.3 34.3 -104.6 38.6 C-110.1 44.1 -113.2 49.3 -113.2 57.1 C-113.2 60.5 -112.8 63.7 -112 67 C-113.5 68.5 -115.1 68.4 -117.2 68.8 C-122.8 70 -126.4 72.3 -130.4 76.5 C-132.8 81.7 -132.8 86.4 -132 92 C-130.9 94.9 -129.5 97.3 -128 100 C-129 103 -129 103 -130.7 104 C-131.4 104.2 -132 104.5 -132.8 104.8 C-136.8 106.8 -140.2 108.7 -142 113 C-143 119 -142.9 124.3 -139.6 129.5 C-139.1 130.1 -138.7 130.7 -138.2 131.3 C-136.8 133.3 -136.2 134.6 -136 137 C-137.2 138.8 -137.2 138.8 -138.9 140.6 C-142.3 144.8 -142.8 148.1 -142.5 153.4 C-141.5 158.6 -139.1 161.2 -135 164.2 C-132.7 165.6 -130.4 166.8 -128 168 C-128.1 168.9 -128.2 169.7 -128.4 170.6 C-129.4 180.1 -129.4 180.1 -127.4 184.6 C-123 189 -119.3 191.4 -113 192 C-107.4 181.6 -107.4 181.6 -107 176 C-107.6 175.7 -108.2 175.4 -108.8 175.1 C-116.9 170.9 -121.7 165.5 -125 157 C-127.4 147.5 -127 136.7 -121.9 128.2 C-118.6 123.8 -114.3 120.5 -108.8 119.7 C-102.5 119.4 -97.8 120.9 -92.8 124.7 C-83.9 136.4 -87.9 154.2 -89.6 167.6 C-91.1 178.5 -93.4 188 -98 198 C-101.8 206.2 -103.7 213.3 -101 222.2 C-99.1 224.9 -97.3 226.5 -94.8 228.5 C-92.6 230.3 -92.6 230.3 -91 232 C-90.9 235 -90.9 235 -92 238 C-94.1 244 -94.4 248.8 -93 255 C-90.7 259.4 -88.2 262.4 -84 265 C-81.4 265.7 -78.8 266.2 -76.1 266.6 C-74 267 -74 267 -73 268 C-72.7 269.8 -72.4 271.7 -72.2 273.6 C-70.9 281.3 -69.3 286.6 -63 291.5 C-56 295.7 -48.4 294.6 -40.8 293 C-39.5 292.7 -38.3 292.3 -37 292 C-36.6 292.6 -36.2 293.2 -35.9 293.8 C-31.2 301.2 -26.7 305.9 -18 308 C-11 308.9 -5 307.9 1 304 C4.6 300.7 7.1 297.8 8 293 C8.7 293 9.3 293 10 293 C10.2 293.6 10.5 294.2 10.8 294.9 C12.3 297.5 13.1 298.1 16 299 C22.3 299.6 26.7 298.6 32 295 C35.8 291.1 38 287.3 38.1 281.8 C38.1 281.3 38.1 281.3 38 278.5 C38.2 275 38.2 275 39 272 C41.4 270.1 43.5 269.2 46.5 268.3 C50.1 266.4 51.7 263.8 53 260 C53.4 256.2 53.1 252.4 52.8 248.6 C52.6 244.4 52.6 241.9 55.4 238.6 C56.3 237.8 57.1 236.9 58 236 C60.6 228.2 57.9 220.7 56 213 C54 213 54 213 52.2 214.7 C46.7 221.3 43.7 227.9 41 236 C40.3 236 39.7 236 39 236 C38.9 235.1 38.7 234.2 38.6 233.3 C36.8 223.6 34.3 215.1 26.4 208.8 C23 207 23 207 20.1 207.6 C18 209 18 209 17 210 C8.4 211 3.9 209.1 -2.8 203.8 C-3.5 203.2 -4.3 202.6 -5 202 C-10.7 199.2 -19.3 200.5 -25.2 202.2 C-37.9 206.6 -46 214 -52 226 C-52 226.7 -52 227.3 -52 228 C-53.3 227.7 -54.6 227.3 -56 227 C-56.2 226 -56.4 224.9 -56.6 223.9 C-59 210.4 -61.7 200.3 -70.1 189.3 C-81 174.7 -79.6 161.2 -77.8 143.8 C-77.6 141.7 -77.4 139.6 -77.2 137.6 C-76.1 127.4 -76.1 127.4 -75 124 C-73.3 122.6 -73.3 122.6 -71.2 121.2 C-66.5 117.8 -63.9 114.6 -62 109 C-61.5 103 -62.4 99.5 -65 94.1 C-66.2 91.5 -66.7 88.9 -67 86 C-66.3 86 -65.6 86.1 -64.9 86.1 C-58.1 86.4 -52.8 85.7 -47 82 C-41 76.2 -39.5 69 -39 61 C-37.2 60.3 -37.2 60.3 -35 60 C-33 61.4 -33 61.4 -31 63.3 C-27.1 67.1 -24.2 69.3 -18.7 69.3 C-12.3 69.2 -8 66.8 -3 63 C-1.7 62.6 -0.3 62.3 1 62 C1.1 62.6 1.2 63.2 1.4 63.9 C3.4 72.2 7.4 77.7 14.3 82.7 C20.7 86.3 26.8 87.1 34 86 C39.8 84.3 45.8 81.5 49.1 76.2 C51.4 71.9 52.8 67.7 54 63 C55 63 56 63 57 63 C57.2 67 57.2 70.1 55.4 73.7 C54 77 54 77 53.9 79.2 C55.8 82.3 57.8 83.4 61 85 C66.6 85.9 70.3 85.3 75 82 C76 82 77 82 78 82 C77.6 84.9 77.2 85.8 74.9 87.8 C74.3 88.2 73.7 88.6 73 89 C73.5 91.8 74.1 94.4 75 97.1 C80 113.6 78.6 131 77 148 C82.6 146.6 86.1 144.1 89.1 139.1 C90.1 136.8 90.2 135.1 90.2 132.6 C90.2 131.8 90.2 131 90.2 130.2 C90 128 90 128 89 124.9 C89 122 89 122 90.6 120.4 C92.1 119.2 93.5 118 95 116.8 C98.9 113.3 99.7 109.4 100.3 104.3 C100.6 98 99.9 93.1 96 88 C93.5 85.4 91 83 88 81 C87.3 81 86.7 81 86 81 C87.9 73.4 87.9 73.4 89 70 C89.5 63.9 90 57.8 86.4 52.6 C85.9 52.1 85.5 51.5 85 51 C84.5 50.4 84 49.8 83.4 49.1 C77.8 43.5 71.7 42.2 64 41 C64 40.3 64 39.6 64 38.9 C63.4 29 60.3 21.3 52.9 14.5 C44.6 8 35.3 7.1 25.1 7.7 C19.1 8.5 13.2 11.8 9 16 C8 16 7 16 6 16 C4.6 14.4 4.6 14.4 3.2 12.2 C-0.2 7.5 -3.4 4.9 -9 3 C-17.8 2.2 -24.9 2.5 -31 9.3 Z M-34 70 C-34.4 70.8 -34.8 71.6 -35.1 72.4 C-39.6 81.7 -42.8 86.6 -52.6 90.1 C-54.8 90.9 -56.9 91.9 -59 93 C-58.7 93.7 -58.3 94.5 -58 95.2 C-55.8 103.6 -56.1 111.2 -60.3 118.8 C-62.2 121.2 -64.1 122.7 -66.7 124.4 C-70.3 127 -71.7 128.6 -72.5 133 C-72.7 135 -72.9 137 -73 139 C-73.1 140.3 -73.2 141.6 -73.3 142.9 C-73.5 145.5 -73.6 148.1 -73.8 150.7 C-74 154 -74 154 -74.5 156 C-75.2 158.9 -75.2 161.8 -75.2 164.8 C-75.3 165.9 -75.3 167.1 -75.3 168.3 C-74.6 176.4 -71.1 181.6 -66.1 187.8 C-59.1 196.8 -55.1 205.7 -53 217 C-49.3 213.5 -49.3 213.5 -47.9 211.4 C-40.9 201.8 -29.1 198.5 -18 196.7 C-16.3 196.5 -14.7 196.2 -13 196 C-12.8 194.7 -12.5 193.5 -12.3 192.2 C-11.5 188.8 -11.3 188.2 -8.4 186 C-8 185.8 -8 185.8 -6 185 C-6.3 185.7 -6.7 186.4 -7 187.2 C-8.1 190.2 -8.5 191.9 -8 195 C-5.8 196.9 -5.8 196.9 -2.9 198.6 C0.3 200.4 3.4 202.2 6.2 204.5 C9 206 9 206 12.6 206.1 C16 205 16 205 18.3 202.6 C25.9 186.3 22.6 165.7 18 149 C19.3 149 20.6 149 22 149 C25.1 160.4 25.1 160.4 25.5 166.1 C26 170 26 170 27.3 171.7 C29 173 29 173 32 173 C32.3 172.2 32.6 171.4 32.9 170.6 C34 168 34 168 35 167 C42.2 166.5 42.2 166.5 44.9 168.1 C46.4 170.7 46.7 173.1 47 176 C48.5 175.8 48.5 175.8 56 175 C55.7 176 55.3 177 55 178 C47.3 181.2 39.1 181.1 31.3 178 C29.9 177.3 28.4 176.7 27 176 C26.9 176.6 26.9 177.2 26.8 177.8 C26.6 180.6 26.3 183.4 26.1 186.1 C26 187.1 25.9 188 25.8 189 C25.4 193.7 24.9 198.4 24 203 C24.4 203.2 24.4 203.2 26.6 204.5 C33.1 208.9 37.4 214.7 40 222 C40.7 222 41.3 222 42 222 C43.2 220.4 43.2 220.4 44.6 218.1 C46.9 214.5 49.4 211.3 52.1 208.1 C56 203.4 58.1 198.7 60 193 C60.3 192 60.7 191 61 190 C61.2 187.3 61.3 184.6 61.4 181.9 C61.7 175.7 62.4 170 64 164 C63 163.9 62 163.7 60.9 163.6 C49 161.7 38.1 158.9 30.3 148.9 C27.4 144.6 26.4 141.1 27 136 C28.5 133.4 29.9 131.1 32 129 C36.3 129.1 38.4 129.4 41.6 132.4 C42 133 42 133 44.1 135.6 C49 141.4 54 144.8 60.8 148.2 C64.1 150.1 66.4 152.2 69 155 C73.2 134.7 76.8 112.6 67.6 93.1 C65.7 90.6 64.8 90.3 61.7 89.9 C57.3 89.2 54.7 87.5 51 85 C48 85.4 45.6 86.6 42.9 88 C35.6 91.8 27 92.7 19 90.5 C9 86.7 2.6 80.6 -2 71 C-4.3 71.5 -6.3 72.1 -8.5 73.1 C-15.2 74.9 -22.3 75.3 -28.6 72 C-29.7 71.3 -30.9 70.7 -32 70 C-32.7 70 -33.3 70 -34 70 Z M-117.2 131.3 C-121.2 137.4 -121.8 144 -121 151 C-119.2 158.7 -116.2 164.1 -110 169 C-107.4 170.3 -105.4 170.2 -102.5 170.2 C-101.5 170.2 -100.5 170.2 -99.5 170.2 C-97 170 -97 170 -95 168 C-93.5 160.2 -93.8 152 -93.7 144.1 C-93.7 143.6 -93.7 143.6 -93.6 140.8 C-93.5 132.8 -93.5 132.8 -95.9 128.8 C-99.2 126 -101 125.1 -105.4 124.6 C-110.7 125.2 -113.6 127.5 -117.2 131.3 Z M33 133 C30.9 136.2 30.7 136.8 31.1 140.4 C31.2 141.1 31.3 141.9 31.3 142.6 C33.3 149.4 39.2 152.3 45 155.5 C51.3 158.6 57 159.2 64 159 C63.7 156.1 63.5 154.5 61.3 152.4 C60.9 152.2 60.9 152.2 59.1 151.1 C58.3 150.6 57.4 150 56.6 149.5 C54.9 148.5 53.2 147.5 51.4 146.6 C45.7 143.4 42.2 140.3 38.6 134.8 C38.1 134.2 37.5 133.6 37 133 C35.7 133 34.4 133 33 133 Z M-100 176 C-100.1 176.3 -100.1 176.3 -100.6 177.7 C-110.4 203.4 -110.4 203.4 -118.9 207.9 C-120.6 208.6 -122.3 209.3 -124 210 C-124.8 210.3 -125.6 210.6 -126.4 211 C-128.3 211.7 -130.1 212.3 -132 213 C-132 213.7 -132 214.3 -132 215 C-130.5 216.4 -130.5 216.4 -128.5 218.1 C-121.6 224 -116.2 230.4 -111.4 238.1 C-111.1 238.7 -110.8 239.2 -110.4 239.8 C-103 252.4 -97.9 266.1 -93 279.8 C-92.3 281.9 -91.5 284 -90.8 286 C-90.3 287.3 -89.9 288.5 -89.4 289.7 C-83.5 303.2 -65.6 313.6 -52.2 318.9 C-37.3 324.1 -21.7 325.5 -7.1 318.6 C-2 316 2.2 313.4 6 309 C5.7 308.3 5.3 307.7 5 307 C4.7 307.2 4.7 307.2 3.3 308.1 C2.6 308.5 1.9 309 1.1 309.4 C0.4 309.9 -0.3 310.3 -1.1 310.8 C-7.1 314.5 -15.1 313.8 -22 313 C-30.3 310.4 -35.3 305.2 -40 298 C-40.5 298.2 -41 298.3 -41.5 298.5 C-49.1 300.1 -58.5 300.7 -65.2 296.4 C-67.2 294.7 -67.2 294.7 -69 293 C-69.5 292.5 -70 292 -70.5 291.5 C-75.7 286.1 -77.2 279.2 -78 272 C-78.6 271.9 -79.3 271.7 -79.9 271.6 C-86.1 269.9 -90.9 268.1 -95 263 C-100.2 254 -99.9 245.4 -97.4 235.6 C-97.3 235.1 -97.1 234.5 -97 234 C-97.5 233.6 -97.9 233.3 -98.4 232.9 C-104 228.5 -106.4 224.9 -107.5 218 C-108.2 208.1 -105.3 200.7 -101.3 191.8 C-98.8 186.4 -97.4 181.9 -97 176 C-98 176 -99 176 -100 176 Z M-172 216 C-172.8 216.5 -173.6 217.1 -174.5 217.6 C-175 218.1 -175.5 218.5 -176 219 C-176 219.7 -176 220.3 -176 221 C-176.7 221 -177.3 221 -178 221 C-178.4 221.8 -178.9 222.6 -179.3 223.4 C-181 226 -181 226 -183.5 226.9 C-184.4 227.1 -185.4 227.2 -186.4 227.4 C-197.8 229.9 -207.3 235.3 -214 245 C-219.1 253.4 -221.4 261.2 -221 271 C-217.1 267.4 -213.9 263.4 -210.7 259.2 C-208.6 256.4 -206.3 253.7 -204 251 C-205.3 251 -206.6 251 -208 251 C-206.2 247.1 -206.2 247.1 -204 246 C-189.8 244.7 -178.8 248.1 -167.6 257 C-133.6 285.4 -127.9 334.5 -121.3 375.7 C-119.2 388.6 -117.1 401.5 -113 414 C-112.8 414.8 -112.5 415.5 -112.2 416.3 C-108.6 427.5 -104.1 438 -98.1 448.1 C-97.4 449.3 -96.7 450.6 -96 451.9 C-93.6 456.3 -91.1 460.8 -86.1 462.7 C-81.8 463.8 -77.4 464.3 -73 464.7 C-65.2 465.8 -59.5 469.7 -54 475 C-53.5 474.6 -52.9 474.2 -52.4 473.8 C-48.2 470.9 -44.5 468.7 -39.7 467.1 C-35.5 465.5 -33.9 464 -32 459.9 C-30.8 457.7 -29.5 456.1 -27.8 454.3 C-27.3 453.8 -26.8 453.2 -26.3 452.7 C-19.2 447.5 -13.3 446.6 -4.8 447.3 C4.1 447.7 4.1 447.7 7.4 445.2 C8.8 442.9 8.8 442.9 9.9 440.4 C11.7 436.6 14.8 434.6 18 432 C21.1 429.1 23.2 426.8 25 423 C24.1 422.8 23.3 422.6 22.4 422.4 C-16.4 413 -46.9 384.5 -67.4 351.1 C-78.5 332.2 -86.9 312.5 -94.3 292 C-96 287.4 -97.7 282.9 -99.4 278.3 C-99.6 277.8 -99.6 277.8 -100.6 275 C-109.3 251.5 -120.5 225 -144.7 213.6 C-153.8 210.3 -163.9 210.4 -172 216 Z M-202 258 C-202.6 258.5 -203.2 259 -203.8 259.5 C-228.2 281.4 -236.8 324.9 -246 355 C-246.3 356.1 -246.7 357.1 -247 358.2 C-251.4 372.7 -255.5 387.2 -258.6 402 C-258.9 403.5 -259.2 405 -259.6 406.5 C-262.6 425.7 -257 441.1 -248.2 457.8 C-246.9 460.2 -245.7 462.6 -244.5 465 C-233 487.7 -218.7 508.8 -202.2 528.2 C-202 528.5 -202 528.5 -200.7 530 C-199.5 531.4 -198.3 532.7 -197 534 C-196.3 534 -195.7 534 -195 534 C-194.9 532.9 -194.8 531.8 -194.6 530.7 C-191.8 508.7 -181.3 490.7 -167 474 C-166.1 472.9 -165.3 471.8 -164.4 470.8 C-153.6 458.5 -138.4 448.1 -122 446 C-125.8 440.5 -130 435.9 -134.8 431.2 C-137.3 428.7 -139.7 426 -142 423.2 C-144.5 420.4 -147.1 417.6 -149.7 414.8 C-150.2 414.2 -150.6 413.7 -151.1 413.2 C-152.4 411.8 -153.7 410.4 -155 409 C-155.7 408.3 -156.3 407.5 -157 406.8 C-165.7 399.1 -183.5 401.3 -194.2 401.8 C-199.6 402.2 -204.2 403.6 -209 406 C-209.4 406.2 -209.4 406.2 -211.4 407.2 C-213.3 408.1 -215.1 409 -217 410 C-217.7 410 -218.3 410 -219 410 C-218 407.3 -217.3 406.2 -214.8 404.6 C-204.2 400 -194.8 397.7 -183.2 397.7 C-182.8 397.7 -182.8 397.7 -180.6 397.7 C-175 397.7 -170.3 398.5 -165 400 C-162 400.1 -162 400.1 -160 400 C-166.8 390.6 -176.5 386.8 -187.6 384.5 C-193.4 383.7 -199.2 383.8 -205 384 C-204.7 383 -204.3 382 -204 381 C-186.2 380.3 -170.9 383 -157 395 C-156.9 394.1 -156.7 393.3 -156.6 392.4 C-154.3 377.1 -152 361.9 -148.8 346.8 C-148.1 343.6 -147.5 340.3 -147 337 C-146.5 337.2 -146.5 337.2 -144 338 C-143.7 345.8 -144.9 353.1 -146.3 360.8 C-146.8 363.3 -147.2 365.9 -147.7 368.5 C-147.9 369.8 -148.1 371 -148.4 372.3 C-149.3 377.5 -150.1 382.7 -150.8 387.9 C-150.9 388.3 -150.9 388.3 -151.2 390.4 C-152.9 402.7 -152.9 402.7 -150.5 406.2 C-149.8 406.7 -149.1 407.3 -148.4 407.9 C-145.7 410.4 -143.1 412.9 -140.8 415.7 C-137.6 419.3 -134.4 422.9 -131.1 426.4 C-130.1 427.5 -129.1 428.6 -128 429.7 C-126.1 431.8 -124.2 433.9 -122.3 435.9 C-121.5 436.8 -120.7 437.7 -119.9 438.6 C-119.2 439.3 -118.5 440.1 -117.7 440.9 C-114.9 444.3 -114 446.2 -113.9 450.8 C-113.4 455.8 -110.4 458.4 -106.6 461.5 C-102.5 463.9 -99.6 463.6 -95 463 C-95.2 462.7 -95.2 462.7 -96.3 460.9 C-97.6 459 -98.8 457 -100.1 455 C-101.2 453.3 -102.3 451.5 -103.5 449.7 C-117.6 428.1 -123.1 400.3 -127 375.2 C-127.9 369.5 -128.8 363.7 -129.8 357.9 C-129.9 357.3 -129.9 357.3 -130.4 354.5 C-136.1 320.3 -144.4 280.9 -173.8 258.9 C-185.1 251.4 -191.8 248.4 -202 258 Z M56 266 C55.6 266.5 55.3 266.9 54.9 267.4 C50.6 272.8 50.6 272.8 46.7 274.2 C46.2 274.5 46.2 274.5 44 276 C43.5 278.7 43.4 281.3 43.3 284 C42.7 290 40.3 295 35.8 298.9 C30.5 302.5 26.2 304.1 19.8 304.6 C18.7 304.6 17.6 304.7 16.5 304.8 C15.7 304.9 14.9 304.9 14 305 C12.8 308.3 11.8 311.7 11 315.1 C5.7 338.4 -2.6 364.9 -19 383 C-20 383.3 -21 383.7 -22 384 C-21 379.9 -19.3 376.9 -16.9 373.6 C-6.7 359.4 6 335.9 6 318 C3.7 319.1 1.5 320.3 -0.7 321.4 C-1.2 321.7 -1.2 321.7 -3.7 323 C-4.7 323.5 -5.6 324 -6.6 324.6 C-20.3 330.4 -38.3 329.9 -52.1 324.8 C-62.4 320.5 -72.1 314.8 -81 308 C-81.3 308.7 -81.7 309.3 -82 310 C-81.1 312.6 -80 315.1 -78.9 317.7 C-78.5 318.5 -78.2 319.3 -77.8 320.1 C-59.7 359.3 -31.1 397.9 10.8 413.5 C16.1 415.5 21 417.1 26.8 417.1 C27.5 417.1 28.3 417 29.2 417 C29.8 417 30.4 417 31 417 C32.8 408.5 34.5 400.1 36.3 391.6 C36.7 389.5 37.1 387.4 37.6 385.2 C39.9 374.4 40.3 364 40 353 C40.7 353.2 40.7 353.2 44 354 C44.7 371.7 42.9 387.8 39 405 C38.6 406.7 38.2 408.5 37.8 410.2 C37.6 411.5 37.3 412.7 37 414 C41.8 412.9 43.6 411.3 46.6 407.6 C48.9 405 51.6 403.2 54.4 401.3 C54.9 400.9 54.9 400.9 57.6 399.1 C62.5 396.1 67.3 393.9 73 393 C69.5 397 64.7 399.2 60.2 401.9 C57 404 54.6 406.2 52 409 C53 409 54.1 409 55.1 408.9 C74 408.6 87.9 413.6 103 425 C102.4 419 101.2 413.2 99.7 407.4 C99.5 406.5 99.2 405.6 99 404.7 C96.8 396.2 94.5 387.8 91.9 379.4 C87.1 363.2 84.2 346.5 81 330 C79.7 323.3 78.4 316.7 77 310 C76.9 309.3 76.7 308.6 76.6 307.9 C73.6 294 68.5 274.3 56 266 Z M31 426 C30.7 426.7 30.3 427.3 30 428 C30.8 428.2 30.8 428.2 35 429 C35 430 35 431 35 432 C34.4 432.1 33.9 432.2 33.3 432.3 C24.3 433.9 18.4 437.7 13 445 C13.3 445.7 13.7 446.3 14 447 C14.6 446.7 14.6 446.7 17.4 445 C25.2 441.6 34.9 441.5 43 443.9 C45.6 445.1 47.7 446.4 50 448 C50.4 448.3 50.4 448.3 52.2 449.5 C64.3 459.2 69.6 475.6 71.7 490.5 C73.4 505.6 73.2 520.8 73.1 536 C73.1 537.3 73.1 538.5 73.1 539.8 C73.1 554.7 73 569.7 72.4 584.6 C71.9 597.8 71.7 611 71.4 624.2 C71.4 624.8 71.4 624.8 71.4 627.8 C71 648.2 70.9 668.6 71 689 C116.3 670.6 116.3 670.6 123 658 C124.7 652.6 124.2 646.8 124.2 641.1 C124.2 640 124.2 638.9 124.2 637.8 C124.2 627.5 123.5 617.3 122.8 607 C121.9 593.3 121.2 579.7 120.6 566 C120.4 562.5 120.3 559 120.1 555.5 C119.5 542.9 119 530.3 118.5 517.7 C116.9 478.8 116.9 478.8 114 462 C113.8 460.8 113.6 459.6 113.4 458.4 C110.5 444.9 103 430.7 91.2 422.8 C72.3 411.7 47.8 410.3 31 426 Z M28 448 C30.2 450.4 32.6 452.1 35.2 454 C47.1 463.2 52.1 479.5 54 494 C55.8 510.6 56.4 527.6 52.6 543.9 C52 546.8 52 548.3 53 551 C54.6 549.6 56.2 548.2 57.8 546.8 C58.6 546 59.5 545.2 60.4 544.4 C61.3 543.6 62.1 542.8 63 542 C63.7 541.5 64.4 540.9 65.1 540.4 C67.8 537 67.5 533.7 67.5 529.6 C67.5 528.7 67.5 527.9 67.5 527.1 C67.5 525.3 67.4 523.6 67.4 521.8 C67.4 519.2 67.4 516.5 67.4 513.9 C67.3 493.9 65.9 471.3 51.6 455.9 C46 450.9 39.3 447.8 31.8 447.9 C30.5 448 29.3 448 28 448 Z M-28 463 C-28.7 465.2 -28.7 465.2 -29 467 C-21.2 469.6 -21.2 469.6 -17 468 C-16 466.7 -15 465.4 -14 464 C-11.8 463.2 -11.8 463.2 -10 463 C-13.6 472.1 -18.2 476.7 -27 481 C-30.4 482.2 -33.9 483.3 -37.4 484.2 C-40 485 -40 485 -41 486 C-41.5 490.2 -41.4 492.3 -39.1 495.9 C-34.9 498.7 -31.9 498.5 -27 498 C-23.7 497.2 -20.6 496.2 -17.4 495 C-16.6 494.7 -15.8 494.4 -15 494.1 C-13 493.4 -11 492.7 -9 492 C-9.6 494.3 -9.6 494.3 -11 497 C-14.1 498.5 -14.1 498.5 -17.8 499.8 C-19 500.2 -20.3 500.6 -21.5 501 C-24.3 501.8 -27.1 502.5 -30 503 C-28.9 505.9 -28.2 507.8 -26 510 C-18.6 510.9 -12.7 509.9 -6 507 C-4 506.6 -2 506.3 0 506 C-0.6 507.8 -0.6 507.8 -2 510 C-5 511.5 -5 511.5 -8.6 512.8 C-9.8 513.2 -11 513.6 -12.2 514 C-13.1 514.4 -14.1 514.7 -15 515 C-15 516.3 -15 517.6 -15 519 C-13.3 520.7 -11.2 520.2 -8.9 520.2 C-3.6 520.2 0.1 519.1 5 517 C6.3 517 7.6 517 9 517 C9 518 9 519 9 520 C5.4 521.6 1.7 523.3 -2 525 C-2 525.7 -2 526.3 -2 527 C2.5 529.2 7.8 528.3 12.4 526.9 C23.4 522.8 31 515 37 505.2 C39.9 500.7 43.3 498.4 48 496 C47 482 43.1 468.2 32.5 458.5 C28.4 455.4 24.4 452.7 19.1 453.3 C18.6 453.4 18.6 453.4 16 454 C11 454.4 6.4 454 1.5 453 C-10.9 450.6 -20 452.5 -28 463 Z M-152 467 C-152.8 467.7 -153.7 468.4 -154.6 469.2 C-160.4 474.2 -165.8 479.5 -170 486 C-170 487 -170 488 -170 489 C-168.1 490.6 -168.1 490.6 -165.2 492.3 C-159.3 496.2 -153.4 500.1 -147.5 504.2 C-146.6 504.8 -145.8 505.4 -144.9 506 C-138.6 510.3 -134.7 514.6 -130.8 521.1 C-123.7 532.3 -115.1 543.7 -102 548 C-98.2 548.4 -94.7 548.2 -91 547 C-91 546.3 -91 545.7 -91 545 C-95.4 542 -95.4 542 -98 542 C-98.3 540.4 -98.7 538.7 -99 537 C-91.5 539.7 -91.5 539.7 -88.6 541.7 C-84.8 543.6 -81.1 543.6 -77 543 C-76 542.3 -75 541.7 -74 541 C-74 540.3 -74 539.7 -74 539 C-76.2 537.4 -78.6 536 -80.9 534.6 C-83.3 532.8 -83.7 531.9 -84 529 C-80.8 529.6 -78.6 530.7 -75.9 532.5 C-71.2 535.6 -66.8 536.9 -61 536 C-58.5 534 -58.5 534 -57 532 C-58.3 528.1 -59.9 527.5 -63.4 525.4 C-68.8 522.2 -68.8 522.2 -71 520 C-71 519 -71 518 -71 517 C-67.2 517.6 -64.6 519.4 -61.4 521.5 C-56 525.1 -51.7 526.9 -45 526 C-42.5 524.6 -42.5 524.6 -41 522 C-40.7 518.6 -40.8 515.4 -41 512 C-43 511 -43 511 -46.1 510.9 C-54.5 509.7 -60.4 501.7 -65.3 495.4 C-65.8 494.6 -66.4 493.8 -67 493 C-67.5 492.4 -67.9 491.8 -68.4 491.1 C-70.2 488.5 -71 487.3 -71 484 C-67.2 484.5 -65.5 486.2 -63 489 C-62.3 487.8 -61.6 486.5 -60.9 485.2 C-60.5 484.6 -60.1 483.9 -59.7 483.1 C-59 481 -59 481 -59.7 478.9 C-63.8 472.7 -68.7 471.2 -75.7 469.5 C-80.1 468.8 -84.2 469 -88.6 469.3 C-98.1 469.9 -105.8 470.3 -113.2 463.8 C-115.3 461.9 -117.1 460 -119 458 C-123.9 453.2 -123.9 453.2 -127.5 452.5 C-137 454.3 -144.9 460.8 -152 467 Z M-52.4 480.4 C-56 485 -58.7 490 -58 496 C-55 500.3 -51.6 503.6 -46.5 505 C-45.7 505 -44.9 505 -44 505 C-43 502.4 -42.7 500.7 -43.8 498.1 C-44.5 496.7 -45.3 495.3 -46 493.9 C-47.2 491.7 -47.7 489.5 -48 487 C-49 487 -50 487 -51 487 C-46.9 482.1 -42.9 480.5 -36.8 478.8 C-35.2 478.2 -33.6 477.7 -32 477.2 C-31.6 477.1 -31.6 477.1 -29.8 476.6 C-28 476 -28 476 -26 475 C-26 474.3 -26 473.7 -26 473 C-35.9 469.7 -45.5 472.8 -52.4 480.4 Z M-175 493 C-182 505.6 -189.1 518.4 -189.2 533.2 C-189.2 534 -189.2 534.9 -189.2 535.8 C-189 538 -189 538 -187 540 C-172.3 538.6 -160.8 526.1 -151 516 C-150 515 -149 514 -148 513 C-149.4 509.5 -151.1 508 -154.2 505.9 C-154.6 505.6 -154.6 505.6 -156.7 504.2 C-157.6 503.6 -158.5 503 -159.4 502.4 C-161.1 501.3 -162.8 500.1 -164.5 499 C-165.3 498.5 -166 498 -166.8 497.5 C-168.3 496.5 -169.8 495.4 -171.2 494.3 C-173 493 -173 493 -175 493 Z M-38 503 C-37.7 504.3 -37.3 505.5 -37 506.8 C-35.5 513.6 -34.4 520.2 -37.9 526.4 C-38.6 527.3 -39.3 528.1 -40 529 C-42.1 534.4 -39.5 540 -38.1 545.2 C-37.7 546.4 -37.4 547.6 -37.1 548.8 C-32.6 564.6 -26.2 580.5 -11.2 588.9 C-4.4 592.3 5.1 592.3 12.4 589.9 C23.2 584.9 30.5 575.8 35 565 C34 563 34 563 30.9 561.4 C20.5 555.5 17 543.6 13 533 C11.7 533.2 11.7 533.2 5 534 C5.2 535 5.4 536 5.7 537 C8.4 550.3 11.7 566.9 4.5 579.2 C1.8 582.5 -0.8 584.3 -5 585 C-3.5 582.3 -1.9 579.9 0.1 577.6 C6.9 568.6 4.2 555.9 2.8 545.4 C2.7 545 2.7 545 2.4 542.8 C1.8 539 1.5 536.6 -0.9 533.5 C-3.2 531.8 -5.6 530.4 -8 529 C-8.2 528.7 -8.2 528.7 -9 527 C-10.7 526.3 -10.7 526.3 -12.8 525.6 C-17.2 524.1 -19.7 522 -22.2 518 C-24.2 515.8 -25.3 515.4 -27.9 514.3 C-31.6 512.6 -32.9 511 -34.5 507.2 C-35 505.8 -35.5 504.4 -36 503 C-36.7 503 -37.3 503 -38 503 Z M42 507 C40.4 509.2 39 511.4 37.5 513.7 C33.5 519.8 29.3 523.8 23.1 527.6 C21.1 528.9 19.6 530.3 18 532 C19.4 535.1 20.8 538.1 22.2 541.2 C22.6 542.1 23 542.9 23.4 543.8 C25.7 548.8 27.8 552.4 32 556 C32.3 556.3 32.7 556.7 33 557 C36.3 557.4 36.3 557.4 40 557 C45.5 552.2 48.1 543.7 48.8 536.6 C49.2 530.4 49.1 524.2 49.1 518 C49.1 516.5 49.1 515.1 49 513.6 C49 510.1 49 506.5 49 503 C45.7 503 44.4 504.8 42 507 Z M-225 509 C-233.6 545.4 -232.8 583.8 -231.5 620.9 C-231.1 632.1 -230.8 643.3 -230.8 654.5 C-230.8 656.1 -230.7 657.7 -230.7 659.3 C-230.5 674.4 -232.7 688.4 -236.8 702.9 C-237.1 703.8 -237.3 704.7 -237.6 705.6 C-239.6 712.7 -241.7 719.7 -244 726.7 C-244.7 728.8 -245.3 730.9 -246 733 C-246.2 733.6 -246.4 734.3 -246.6 734.9 C-250.3 747.8 -249.9 764.9 -244 777 C-241 782.3 -237.9 785.9 -232 788 C-194.7 794.2 -151.3 779.3 -119.1 761.2 C-117.1 760.1 -115.2 759 -113.2 757.9 C-97.9 749.6 -84.1 738.8 -71.2 727 C-69.5 725.4 -67.7 723.9 -65.8 722.4 C-62.9 719.9 -60.5 717.2 -58 714.3 C-55.8 711.8 -53.6 709.4 -51.3 707 C-23.3 676.1 -3 636.8 9 597 C8.4 597 8.4 597 5.5 596.9 C3.9 596.8 2.4 596.7 0.8 596.6 C0 596.6 -0.7 596.6 -1.5 596.5 C-5.8 596.3 -9.1 595.8 -13 594 C-14 594 -15 594 -16 594 C-16.3 594.8 -16.5 595.6 -16.8 596.5 C-20.1 606.1 -24.2 615 -29 624 C-29.2 624.4 -29.2 624.4 -30.1 626.1 C-39.4 643.9 -50.7 660.1 -64 675 C-64.8 675.9 -65.6 676.8 -66.4 677.8 C-71.6 683.9 -71.6 683.9 -75 685 C-71.7 679.6 -68 674.8 -63.9 670 C-44.3 647.3 -28.8 620.3 -19 592 C-19.7 591.4 -20.3 590.8 -21 590.2 C-28.8 582.3 -34 572.8 -39 563 C-41.7 564.3 -41.9 565.7 -43.2 568.4 C-43.6 569.3 -44 570.2 -44.5 571.2 C-44.9 572.2 -45.4 573.2 -45.9 574.2 C-57.3 598.6 -71.6 620.8 -88 642 C-88.7 642.9 -89.4 643.8 -90.1 644.8 C-94.6 650.5 -99.4 655.8 -104.4 661.1 C-106.2 663.1 -107.9 665.1 -109.6 667.2 C-111.5 669.4 -113.3 671.3 -115.6 673.2 C-117.9 675.2 -120.2 677.1 -122.3 679.2 C-143.4 699.2 -172.4 718 -201 724 C-202 724.2 -202.9 724.4 -203.9 724.6 C-210.2 725.9 -216.6 726.5 -223 727 C-221 724 -221 724 -217.6 723.2 C-216.2 723 -214.8 722.8 -213.4 722.6 C-190.7 719 -170 709.6 -151 697 C-150.4 696.6 -149.7 696.2 -149.1 695.7 C-128.3 681.9 -109.1 663.8 -94 644 C-92.9 642.7 -91.9 641.4 -90.8 640 C-74.1 619.2 -60.4 596.4 -48.6 572.4 C-47.8 570.7 -46.9 568.9 -46 567.1 C-42.2 559.3 -40.8 554 -43.4 545.5 C-44.7 541.3 -45.5 537.3 -46 533 C-47.6 532.7 -49.3 532.3 -51 532 C-51.6 532.9 -52.1 533.9 -52.7 534.8 C-55.1 538.1 -56.3 539.4 -60 541 C-61.4 541.2 -62.8 541.3 -64.2 541.4 C-65.4 541.6 -66.7 541.8 -68 542 C-69.2 543.9 -69.2 543.9 -70 546 C-73.9 548.3 -78.1 548.3 -82.6 548.6 C-85.5 549.1 -86.7 550.3 -89 552 C-91.6 552.7 -91.6 552.7 -94.2 553.2 C-95.1 553.3 -96 553.5 -97 553.7 C-97.6 553.8 -98.3 553.9 -99 554 C-99 554.7 -99 555.3 -99 556 C-99.6 556.3 -100.2 556.5 -100.8 556.8 C-103 558 -104.2 559.1 -105.8 560.9 C-127.1 582.6 -160.8 598 -191.2 598.3 C-199.7 598.4 -207.3 596.8 -215 593 C-215 592.3 -215 591.7 -215 591 C-211.3 591.5 -208 592.3 -204.5 593.6 C-183.1 600.1 -158.4 589.9 -139.6 580 C-138.4 579.3 -137.2 578.7 -136 578 C-135 577.4 -133.9 576.9 -132.8 576.3 C-122.1 570.4 -111.5 562.9 -104 553 C-104.6 552.7 -105.2 552.5 -105.8 552.2 C-121.1 545 -131 533.5 -138.6 518.7 C-139.1 518.2 -139.5 517.6 -140 517 C-144 517 -144 517 -146.7 519.5 C-147.8 520.6 -148.8 521.7 -149.9 522.9 C-159.3 532.7 -172.4 544.7 -186.7 545.6 C-195.4 545 -200.7 538.6 -206.2 532.4 C-210.2 527.6 -213.9 522.7 -217.6 517.8 C-218.1 517 -218.7 516.3 -219.2 515.6 C-219.4 515.3 -219.4 515.3 -220.6 513.7 C-222 512 -223.4 510.5 -225 509 Z M62.8 550 C58.2 554 53.3 557 48.1 560 C43.2 563.2 39.9 566.5 37.6 571.8 C35.6 576.1 33.3 579.3 29.9 582.7 C28.3 586.6 29.9 590.1 31 594 C31.2 594.9 31.5 595.8 31.7 596.7 C32.3 598.6 32.8 600.5 33.4 602.5 C45.9 647 48.9 692 51 738 C52.6 738 54.2 738 55.8 738 C56.3 738 56.3 738 58.5 738 C67.5 737.9 80.4 735.7 87.2 729.6 C89 727 89 727 89.6 724.4 C88.8 721.2 87.7 720.8 85 719 C83.3 718.2 81.6 717.4 79.9 716.6 C73.6 713.7 69.2 711.3 66 705 C64.9 701.5 64.9 698.3 64.9 694.7 C64.9 693.4 64.9 692.1 64.9 690.7 C64.9 689.3 64.9 687.8 64.9 686.4 C64.9 685.7 64.9 684.9 64.9 684.2 C64.9 663.4 65.5 642.6 66.1 621.8 C66.2 615.5 66.4 609.2 66.6 602.8 C66.6 602.4 66.6 602.4 66.6 600.2 C67.1 582.4 67.1 564.7 67 547 C65.2 547 64 548.8 62.8 550 Z M16 594 C14.2 597.6 13.1 601.5 11.9 605.4 C2.2 635.5 -12.1 664.5 -31 690 C-31.4 690.6 -31.8 691.1 -32.2 691.7 C-35.1 695.5 -38 699.3 -41 703 C-41.4 703.5 -41.9 704.1 -42.3 704.6 C-55.9 721.4 -71.3 736.6 -89 749 C-89.3 749.2 -89.3 749.2 -90.9 750.4 C-100.2 756.9 -109.9 762.7 -120 768 C-120.7 768.4 -121.5 768.8 -122.3 769.2 C-142.6 779.8 -165.4 787.9 -188 792 C-189.2 792.2 -190.3 792.4 -191.6 792.7 C-205.2 794.8 -219.2 794.2 -233 794 C-233 798.3 -233 802.6 -233.1 806.9 C-233.1 808.2 -233.1 809.4 -233.1 810.7 C-233.1 811.8 -233.1 813 -233.1 814.2 C-233.1 815.3 -233.1 816.4 -233.1 817.5 C-233 820 -233 820 -232 821 C-162.9 835.3 -87.1 837.5 -17 831.3 C-14.2 831 -11.4 830.8 -8.5 830.6 C2.1 829.8 12.7 828.2 23.2 826.6 C23.9 826.5 24.6 826.4 25.3 826.2 C32.8 825.1 39.9 823.7 47 821 C47.8 743.8 46.9 665.4 24 591 C20.5 591 18.9 591.9 16 594 Z M81.1 690.7 C80.5 690.9 80.5 690.9 77.9 692.2 C74.8 694.1 73 695.9 71 699 C70.8 701.9 70.8 701.9 72 705 C76.2 709.2 83.9 715 90 715 C90 706.1 90 697.2 90 688 C86.3 688 84.3 689.1 81.1 690.7 Z M-200 832 C-201 834.5 -201.9 837 -202.9 839.6 C-203 839.9 -203 839.9 -203.7 841.7 C-208.5 854.3 -208.5 854.3 -207.8 860.2 C-207.7 861 -207.7 861.8 -207.6 862.7 C-206.9 865.5 -206.2 867 -204 869 C-200.9 869.4 -200.9 869.4 -197.3 869.2 C-196.1 869.2 -195 869.2 -193.7 869.1 C-192.8 869.1 -191.9 869 -191 869 C-190.9 868.4 -190.9 868.4 -190.4 865.2 C-188 854.5 -181.7 845.6 -172.7 839.4 C-171.3 838.6 -169.9 837.7 -168.5 836.9 C-168 836.6 -167.5 836.3 -167 836 C-167 835.7 -167 835.3 -167 835 C-170.9 834.6 -174.8 834.1 -178.7 833.7 C-180.7 833.5 -182.6 833.3 -184.6 833.1 C-185.9 832.9 -187.1 832.8 -188.4 832.7 C-189.5 832.5 -190.7 832.4 -191.9 832.3 C-194.6 832 -197.3 831.9 -200 832 Z M-11.6 849.3 C-15.5 855.5 -19 861.6 -19 869 C-10.4 869 -1.8 869 7 869 C7.7 867.2 7.7 867.2 11 858 C15.3 849.9 20.5 844.7 29 841 C25 837 19.3 834.8 13.7 834.4 C4 834.8 -6.1 841.6 -11.6 849.3 Z M-177 850.3 C-180.6 855.1 -186 862.9 -186 869 C-180.1 869 -174.1 869 -168 869 C-167.3 867.5 -166.6 866 -165.9 864.4 C-160.1 853.2 -152.6 848.5 -141 844 C-133.2 841.7 -125.1 840.5 -117 840 C-117.2 839.7 -117.2 839.7 -118 838 C-124.4 837.7 -130.8 837.4 -137.1 837.1 C-139.6 837 -142.1 836.9 -144.5 836.7 C-157.7 836.1 -168 840.6 -177 850.3 Z M-15.7 836.2 C-16.6 836.2 -17.5 836.3 -18.5 836.3 C-19.5 836.4 -20.4 836.5 -21.5 836.6 C-22.5 836.6 -23.5 836.7 -24.5 836.8 C-27.8 837 -31 837.2 -34.2 837.4 C-36.4 837.6 -38.6 837.7 -40.8 837.9 C-46.2 838.2 -51.6 838.6 -57 839 C-57.5 840.6 -58 842.2 -58.5 843.8 C-58.7 844.7 -59 845.6 -59.3 846.5 C-61 852.7 -61.3 859.5 -58.1 865.2 C-56 868 -56 868 -54 869 C-51.9 869.1 -49.8 869.1 -47.7 869.1 C-47.1 869.1 -47.1 869.1 -43.9 869.1 C-42.6 869.1 -41.2 869.1 -39.9 869.1 C-38.5 869.1 -37.2 869.1 -35.9 869 C-32.6 869 -29.3 869 -26 869 C-25.8 868.4 -25.6 867.9 -25.5 867.3 C-21.5 855.2 -16.8 845.4 -7 837 C-10 836.1 -12.5 835.9 -15.7 836.2 Z M21.2 852.1 C17.9 856.5 13 863.3 13 869 C18.2 869.1 23.4 869.2 28.6 869.2 C30.4 869.2 32.2 869.3 34 869.3 C36.5 869.4 39.1 869.4 41.6 869.4 C42.4 869.4 43.2 869.4 44 869.5 C49.5 869.5 49.5 869.5 52 867.2 C53.5 863.9 53.4 861.5 53 858 C51.1 855.6 49.7 854.3 47 853 C44.8 852.8 42.6 852.6 40.4 852.4 C39.2 852.4 38 852.3 36.8 852.2 C36.3 852.2 36.3 852.2 34 852 C33.7 851 33.3 850 33 849 C35 848.8 35 848.8 45 848 C36.6 841.7 28.8 846.4 21.2 852.1 Z M-158.8 862 C-160.2 864.3 -160.5 866.3 -161 869 C-157.4 869 -153.7 869 -150.1 869.1 C-149 869.1 -148 869.1 -146.9 869.1 C-145.9 869.1 -144.9 869.1 -143.9 869.1 C-143 869.1 -142.1 869.1 -141.1 869.1 C-139 869 -139 869 -138 868 C-138.1 864.6 -138.1 864.6 -139 861 C-141.6 859.3 -141.6 859.3 -144 858 C-144 856.7 -144 855.4 -144 854 C-142.7 854.6 -141.4 855.2 -140.1 855.8 C-139.4 856.1 -138.7 856.4 -137.9 856.7 C-135.6 858.3 -135 859.4 -134 862 C-133.6 864.3 -133.3 866.7 -133 869 C-131 869 -129 869 -127.1 869.1 C-126 869.1 -124.9 869.1 -123.7 869.1 C-121 869 -121 869 -120 868 C-119.6 865.2 -119.6 865.2 -120 862 C-122.2 859.4 -124 857.5 -127 856 C-127.6 853.9 -127.6 853.9 -128 852 C-120.7 854.2 -120.7 854.2 -117.6 857.7 C-115.7 861.6 -115.3 864.7 -115 869 C-111 869 -107.1 869 -103 869 C-101.6 862.8 -101.6 862.8 -103.5 859.2 C-106.5 856.5 -109.1 855.8 -113 855 C-112.7 854 -112.3 853 -112 852 C-106.7 852.4 -103.8 853.3 -100 857 C-98.8 859.4 -98.7 861.4 -98.4 864.1 C-98.4 865 -98.3 865.9 -98.2 866.9 C-98.1 867.6 -98.1 868.3 -98 869 C-95.9 869.1 -93.8 869.2 -91.7 869.2 C-90.5 869.3 -89.3 869.3 -88.1 869.4 C-85 869 -85 869 -83.1 867.2 C-81.4 863.9 -81.5 861.6 -82 858 C-84.2 855.4 -85.9 853.5 -89 852 C-90.6 851.9 -92.3 851.8 -93.9 851.8 C-98.3 851.4 -101.4 850.5 -105.2 848.4 C-121.9 840.3 -147.2 848.5 -158.8 862 Z M-211 875 C-213 878 -213 878 -212.8 880.1 C-212 882 -212 882 -210 884 C-207.8 884.3 -207.8 884.3 -204.9 884.3 C-203.8 884.3 -202.8 884.3 -201.7 884.3 C-200.5 884.3 -199.3 884.3 -198.1 884.3 C-197.4 884.3 -197.4 884.3 -194.3 884.3 C-190.9 884.3 -187.4 884.3 -184 884.3 C-180.4 884.3 -176.9 884.3 -173.3 884.3 C-167.3 884.3 -161.3 884.3 -155.3 884.3 C-148.3 884.2 -141.4 884.3 -134.4 884.3 C-128.5 884.3 -122.5 884.3 -116.5 884.3 C-113 884.3 -109.4 884.3 -105.9 884.3 C-101.9 884.3 -97.9 884.3 -93.9 884.3 C-93.4 884.3 -93.4 884.3 -90.3 884.3 C-89.3 884.3 -88.2 884.3 -87.1 884.3 C-86.1 884.3 -85.2 884.3 -84.2 884.3 C-82 884 -82 884 -80 882 C-79.8 879.5 -79.8 879.5 -80 877 C-82.6 874.4 -83.5 874.7 -87.1 874.7 C-87.7 874.7 -87.7 874.7 -90.4 874.7 C-91 874.7 -91 874.7 -94 874.7 C-95.3 874.7 -96.5 874.7 -97.8 874.7 C-101.3 874.7 -104.7 874.7 -108.2 874.7 C-111.1 874.7 -113.9 874.7 -116.8 874.7 C-123.6 874.7 -130.4 874.7 -137.2 874.7 C-144.2 874.7 -151.2 874.7 -158.2 874.7 C-164.2 874.6 -170.2 874.6 -176.2 874.6 C-179.8 874.6 -183.4 874.6 -187 874.6 C-191 874.6 -195 874.6 -199 874.6 C-199.6 874.6 -199.6 874.6 -202.6 874.6 C-203.7 874.6 -204.8 874.6 -205.9 874.6 C-206.8 874.6 -207.8 874.6 -208.7 874.6 C-209.1 874.7 -209.1 874.7 -211 875 Z M-64 877 C-64.2 879.5 -64.2 879.5 -64 882 C-61.4 884.6 -60.2 884.3 -56.5 884.3 C-56 884.3 -56 884.3 -53 884.3 C-51.7 884.3 -50.5 884.3 -49.1 884.3 C-47.8 884.3 -46.4 884.3 -45.1 884.3 C-41.4 884.3 -37.7 884.3 -34 884.3 C-30.1 884.3 -26.3 884.3 -22.4 884.3 C-16 884.3 -9.5 884.3 -3 884.3 C4.5 884.2 12 884.3 19.5 884.3 C25.9 884.3 32.3 884.3 38.8 884.3 C42.6 884.3 46.5 884.3 50.3 884.3 C53.9 884.3 57.5 884.3 61.1 884.3 C63.1 884.3 65.1 884.3 67 884.3 C67.6 884.3 67.6 884.3 70.5 884.3 C71 884.3 71 884.3 73.6 884.3 C76 884 76 884 78 882 C78.2 879.5 78.2 879.5 78 877 C75.4 874.4 74.2 874.7 70.5 874.7 C69.4 874.7 68.2 874.7 67 874.7 C65.7 874.7 64.5 874.7 63.1 874.7 C61.8 874.7 60.4 874.7 59.1 874.7 C55.4 874.7 51.7 874.7 48 874.7 C44.1 874.7 40.3 874.7 36.4 874.7 C30 874.7 23.5 874.7 17 874.7 C9.5 874.8 2 874.7 -5.5 874.7 C-11.9 874.7 -18.3 874.7 -24.8 874.7 C-28.6 874.7 -32.5 874.7 -36.3 874.7 C-39.9 874.7 -43.5 874.7 -47.1 874.7 C-49.1 874.7 -51.1 874.7 -53 874.7 C-54.2 874.7 -55.3 874.7 -56.5 874.7 C-57 874.7 -57 874.7 -59.6 874.7 C-62 875 -62 875 -64 877 Z " fill="#0A0A0C" transform="translate(580,71)"/>
<path d="M0 0 C3.1 2.9 5.6 6 8.1 9.4 C11.5 14 15 18.5 18.7 22.9 C19.1 23.5 19.6 24 20 24.5 C25 30.4 30 35.3 37.8 36.6 C55.3 36.1 70.8 18.7 82 7 C86.2 8.5 87.5 11.1 89.7 14.9 C97.3 27.7 106.6 38.8 121 44 C104.7 65.6 72.7 80.7 46.4 85.3 C35.5 86.7 26.1 86.6 15.6 82.9 C13 82 13 82 10 82 C10 82.7 10 83.3 10 84 C11.6 84.7 13.1 85.3 14.7 85.9 C15.6 86.3 16.4 86.7 17.3 87 C38.7 94.8 63.9 85.3 83.4 76.3 C97.6 69.4 110.7 60.6 121.7 49.2 C124 47 124 47 126 47 C126 46.3 126 45.7 126 45 C126.7 44.9 127.4 44.8 128 44.7 C128.9 44.5 129.8 44.4 130.8 44.2 C131.6 44 132.5 43.9 133.4 43.7 C136 43 136 43 138 41.5 C140.4 39.7 142 39.6 144.9 39.4 C151.8 38.9 151.8 38.9 155 37 C155.3 36.3 155.5 35.7 155.8 35 C157 33 157 33 159.2 32.3 C159.6 32.3 159.6 32.3 161.8 32 C166.2 31.3 168.8 30.4 172 27 C173.3 24.7 173.3 24.7 174 23 C175.6 23.3 177.3 23.7 179 24 C179.2 25 179.4 25.9 179.6 26.9 C179.9 28.2 180.2 29.4 180.4 30.8 C180.7 32 181 33.3 181.2 34.5 C181.6 36.4 182.1 38.2 182.6 40 C183.8 45.7 182.9 50 180.4 55.2 C180.1 55.8 180.1 55.8 178.7 58.7 C178.1 60 177.5 61.2 176.9 62.4 C176.2 63.7 175.6 65 175 66.3 C168.9 78.6 162.2 90.4 155 102 C154.6 102.6 154.3 103.2 153.9 103.8 C137.1 131.1 113.8 159 88 178 C87.4 178.4 86.8 178.9 86.2 179.4 C62.6 196.8 36.7 211.2 7 214.4 C6 214.6 5 214.8 4 215 C3.3 216 2.7 217 2 218 C31.8 215 59 204.2 83 186 C84.1 185.2 85.2 184.4 86.2 183.6 C93 178.6 99.2 173.2 105.3 167.5 C107.5 165.5 109.6 163.6 111.8 161.8 C114.9 159.2 117.5 156.3 120.1 153.2 C122.2 150.8 124.4 148.4 126.7 146 C133 139.1 138.5 131.6 144 124 C144.5 123.3 145 122.6 145.6 121.9 C152.6 112.2 159.1 102.4 165 92 C165.4 91.3 165.8 90.6 166.2 89.9 C172.8 78.5 178.5 66.9 184 55 C185 55 186 55 187 55 C187.3 55.6 187.3 55.6 188.7 58.4 C196.6 73.8 196.6 73.8 203 80 C204 81 205 82 206 83 C199.1 101.9 190.7 120.6 179 137 C178.2 138.2 177.4 139.4 176.5 140.6 C172 147 167.3 153.2 162.2 159.3 C152.3 171.4 152.3 171.4 150 176 C170.3 165 185.5 134.8 196 115 C196.4 114.3 196.7 113.7 197.1 113 C201.9 103.9 205.8 94.8 209 85 C211.8 85.5 214.3 86.1 217 87 C218.3 87.1 219.7 87.2 221 87.3 C221.8 87.4 222.5 87.4 223.3 87.4 C224.1 87.5 224.9 87.5 225.7 87.6 C226.1 87.6 226.1 87.6 228.1 87.7 C230.1 87.8 232 87.9 234 88 C229.2 103.6 223.1 118.3 216 133 C215.8 133.4 215.8 133.4 214.9 135.4 C202.8 160.6 186.9 183.8 167.6 204.2 C165 207 165 207 162.9 209.7 C161.2 211.8 159.5 213.5 157.4 215.2 C155.2 217.1 153 219 150.9 221 C138.7 232.5 124.6 241.8 110 250 C109.7 250.2 109.7 250.2 108.1 251.1 C81.6 266.2 53.1 274.7 23 279 C22.3 279.1 21.5 279.2 20.8 279.3 C9.8 280.8 -3.5 281.9 -13.3 276 C-20.2 269.3 -22.9 259 -23.3 249.7 C-23.5 238.1 -22.8 228.1 -19 217 C-17.8 213.5 -16.7 209.9 -15.6 206.4 C-15.3 205.4 -15 204.5 -14.7 203.6 C-12.5 197 -10.7 190.4 -9.1 183.6 C-8.9 182.8 -8.7 181.9 -8.5 181.1 C-6.7 173.4 -5.8 165.9 -5.9 158 C-5.9 157.3 -5.9 156.5 -5.9 155.8 C-5.9 153.3 -5.9 150.9 -5.9 148.5 C-5.9 147.7 -5.9 146.8 -5.9 146 C-5.9 134.6 -6.1 123.3 -6.5 111.9 C-7.8 74.8 -8.6 36.4 0 0 Z " fill="#4278A3" transform="translate(355,580)"/>
<path d="M0 0 C4.6 2.7 8.3 6.7 10.6 11.4 C14.1 10.8 16.7 9.3 19.7 7.4 C27.9 2.3 36.9 2.6 46.3 3.8 C53.9 5.8 59.9 11.6 64.3 17.9 C67.7 23.9 68.5 29.6 68.6 36.4 C69.5 36.6 70.3 36.7 71.2 36.8 C79.1 38.4 84.3 40.2 89.6 46.4 C90.1 47 90.5 47.5 91 48 C94.6 53.2 94.3 59.4 93.6 65.4 C93 67.1 92.3 68.8 91.6 70.4 C91.2 72.4 90.9 74.4 90.6 76.4 C91.3 76.6 92 76.8 92.7 76.9 C97.7 79.5 101.4 83.9 103.8 88.9 C105.8 95.2 105.4 102.5 102.8 108.6 C101.3 110.9 99.5 112.3 97.4 114.1 C95.2 115.8 95.2 115.8 93.6 117.4 C93.6 120.3 93.6 120.3 94.6 123.4 C95.2 128.9 95 133.3 92 137.9 C89.6 140.6 86.9 141.9 83.6 143.4 C83 143.4 82.3 143.4 81.6 143.4 C81.7 142.7 81.8 142 81.8 141.3 C83.4 123.6 84 106.5 78.6 89.4 C78.3 87.8 77.9 86.1 77.6 84.4 C78.5 83.8 79.3 83.2 80.1 82.6 C81 81.9 81.8 81.2 82.6 80.4 C82.6 79.4 82.6 78.5 82.6 77.4 C80.5 77.9 78.7 78.4 76.8 79.5 C73.1 81.1 69.5 81 65.6 80.4 C62.4 78.8 60.4 77.7 58.6 74.6 C58.6 71.8 59.7 69.8 60.9 67.3 C62 64.4 61.8 61.5 61.6 58.4 C60.6 58.4 59.6 58.4 58.6 58.4 C58.4 59.2 58.2 60 57.9 60.9 C53.9 73.8 53.9 73.8 47.6 77.6 C40 81.6 32.3 83.1 23.9 80.6 C16.6 77.4 10.6 72.1 7.5 64.6 C6.7 62.2 6.1 59.9 5.6 57.4 C1.4 59.2 -2.5 61 -6.4 63.4 C-11.1 65 -15.9 65.5 -20.6 63.5 C-23.7 61.6 -26.1 59.7 -28.6 57.1 C-29.2 56.5 -29.8 56 -30.4 55.4 C-32.5 55.8 -32.5 55.8 -34.4 56.4 C-34.4 56.8 -34.4 56.8 -34.6 58.8 C-35.6 65.6 -36.6 71.3 -41.4 76.4 C-46.3 80.2 -51 81.6 -57.1 81.5 C-58.1 81.5 -59.1 81.5 -60.1 81.5 C-60.8 81.5 -61.6 81.4 -62.4 81.4 C-62 85.3 -61 88.3 -59.3 91.8 C-57 97 -56.3 100.9 -58 106.5 C-60.6 112.3 -64.7 116.6 -70.4 119.4 C-72.6 126.4 -72.9 133.9 -73.5 141.1 C-73.5 141.7 -73.5 141.7 -73.7 144.3 C-75.1 162.8 -74.5 173.8 -62.7 188.6 C-57.8 194.8 -55.3 200.7 -53.8 208.4 C-53.5 209.6 -53.3 210.7 -53 211.9 C-52.4 215.4 -51.9 218.9 -51.4 222.4 C-50.1 222.8 -48.7 223.1 -47.4 223.4 C-47.1 222.7 -46.8 222 -46.5 221.2 C-42.4 211.4 -35.1 203.6 -25.4 199.2 C-17.8 196.3 -10.4 195.6 -2.4 196.4 C1.1 198.2 1.1 198.2 3.6 200.4 C8.1 204 10.8 205.6 16.6 205.7 C17.4 205.7 18.3 205.7 19.2 205.8 C22.1 205.4 23.3 204.2 25.6 202.4 C30.4 203.5 34 206.3 36.9 210.2 C41 216.8 42.3 223.9 43.6 231.4 C44.3 231.4 44.9 231.4 45.6 231.4 C45.9 230.6 46.2 229.8 46.4 228.9 C49.2 221 52.5 214.4 58.6 208.4 C59.3 208.4 59.9 208.4 60.6 208.4 C64.9 225.3 64.9 225.3 62.3 231.7 C60.6 234.4 60.6 234.4 59 235.9 C56.5 238.7 57.5 242.6 57.7 246.2 C57.7 247 57.8 247.8 57.8 248.6 C58 254.4 57.2 257.7 53.6 262.4 C51.1 263.8 51.1 263.8 48.4 264.6 C45.8 265.7 45.8 265.7 43.6 267.4 C42.8 270.8 42.7 273.8 42.7 277.2 C42.5 283 40.3 286.8 36.2 290.8 C31.1 294.1 26.7 295.2 20.6 294.4 C17.7 293.1 17.7 293.1 15.6 291.4 C15.3 290.4 15 289.5 14.6 288.4 C14 288.4 13.3 288.4 12.6 288.4 C12.5 288.8 12.5 288.8 11.9 290.6 C9.1 296.9 5.5 300.2 -0.9 302.7 C-8 304.7 -14.4 303.8 -21 300.8 C-26.3 297.7 -29.8 292.9 -32.4 287.4 C-33.6 287.8 -34.9 288.1 -36.1 288.4 C-43.8 290.1 -51.4 291.2 -58.4 286.9 C-65.6 281.3 -66.8 274.6 -68 265.9 C-68.4 263.4 -68.4 263.4 -69.4 262.4 C-70.9 262.2 -72.5 262 -74 261.8 C-79.5 260.7 -82.9 258.8 -86.4 254.4 C-90.1 248.5 -89.8 242.2 -88.4 235.4 C-88 234.8 -87.6 234.1 -87.3 233.4 C-86 230.7 -86.4 229.3 -87.4 226.4 C-89.2 224.6 -89.2 224.6 -91.3 222.9 C-95.3 219.8 -96.8 217.2 -97.9 212.2 C-98.3 204.4 -95.6 198 -92.5 191 C-88.2 181.2 -86 171.5 -84.7 160.9 C-84.6 160.4 -84.6 160.4 -84.3 157.7 C-83.6 151.3 -83.1 144.9 -83 138.4 C-83 137.7 -83 137 -83 136.3 C-83 129.9 -84.7 124.6 -88.7 119.6 C-93.4 115.9 -98.1 114.9 -104 115 C-109.8 116.1 -114.1 119.9 -117.8 124.3 C-122.1 132.9 -123 143 -120.2 152.2 C-116.5 161.6 -111.6 167.1 -102.4 171.4 C-103.4 177.6 -105 182.2 -108.4 187.4 C-115.2 186.1 -119.5 184.4 -123.8 178.6 C-125.2 173.6 -124.4 168.5 -123.4 163.4 C-124 163.1 -124.6 162.8 -125.2 162.5 C-130.7 159.7 -134.5 157.1 -137.4 151.4 C-138 146.7 -138.4 142.3 -136 138.1 C-134.3 136 -134.3 136 -132.6 134.2 C-131.4 132.4 -131.4 132.4 -131.5 130.4 C-132.4 128.3 -133.5 126.8 -134.9 124.9 C-138.3 119.7 -138.5 114.5 -137.4 108.4 C-134.4 102.5 -129.2 100 -123.4 97.4 C-123.7 96.7 -124 96 -124.2 95.2 C-124.6 94.3 -125 93.4 -125.4 92.4 C-125.5 92.1 -125.5 92.1 -126.4 90.1 C-128.5 84.2 -128.4 77.7 -125.9 72 C-120.7 66.7 -115.8 63.9 -108.4 63.4 C-107.2 59.7 -107.2 59.7 -108.4 57.4 C-109.4 49.7 -107.7 43.8 -103.4 37.4 C-100.2 33.9 -96.1 30.7 -91.3 30.2 C-90.9 30.2 -90.9 30.2 -89 30.2 C-88.2 30.2 -87.4 30.3 -86.6 30.3 C-85.8 30.3 -85 30.3 -84.1 30.3 C-83.3 30.3 -82.4 30.3 -81.6 30.3 C-79.5 30.4 -77.4 30.4 -75.4 30.4 C-75.3 29.8 -75.2 29.2 -75.1 28.5 C-73.6 20 -71.1 14.1 -64.1 8.7 C-58.3 4.6 -51.3 4.7 -44.4 5.4 C-40.5 6.7 -37.3 8.5 -34.4 11.4 C-32.4 11.3 -32.4 11.3 -30.4 10.4 C-29 8.7 -29 8.7 -27.6 6.6 C-21.2 -2.3 -10.1 -4.5 0 0 Z M-27.4 219.4 C-28.4 220.2 -29.4 221 -30.5 221.9 C-33.6 224.6 -35 226.5 -36.4 230.4 C-36.3 235.7 -35.2 238.7 -31.4 242.4 C-26.1 246.2 -20.6 246.1 -14.4 245.4 C-10.3 244 -8.8 241.7 -6.5 238.2 C-5 236.1 -5 236.1 -3.4 234.4 C0.9 233.8 4.5 234.4 8.6 235.4 C8.7 236.5 8.8 237.5 8.9 238.6 C9.8 243.4 11.5 246.7 15.4 249.8 C20 251.1 24.1 251.1 28.4 249.2 C31.7 246.6 33.3 244.4 34.6 240.4 C35.4 233.3 34.3 228.6 30.6 222.4 C30 222.4 29.3 222.4 28.6 222.4 C28.4 221.9 28.2 221.3 27.9 220.7 C24.5 214.7 18 212.4 11.6 210.4 C7.8 209.9 4.1 209.9 0.2 209.9 C-0.8 209.9 -1.8 210 -2.9 210 C-12.8 210.2 -20.7 211.6 -27.4 219.4 Z " fill="#7F786F" transform="translate(575.375,75.5625)"/>
<path d="M0 0 C9.6 31.9 15.8 63.7 18.8 96.9 C18.9 98.4 19.1 99.9 19.2 101.5 C20.8 118 21.6 134.6 22.1 151.2 C22.1 153.3 22.2 155.3 22.3 157.4 C23 181.6 23.3 205.8 23 230 C15.2 232.9 7.4 234.3 -0.8 235.6 C-1.4 235.7 -2.1 235.8 -2.8 235.9 C-13.6 237.6 -24.3 239 -35.2 239.8 C-38.2 240 -41.3 240.3 -44.3 240.6 C-113.2 246.2 -188.1 244.4 -256 230 C-257 229 -257 229 -257.1 226.5 C-257.1 225.4 -257.1 224.3 -257.1 223.2 C-257.1 222 -257.1 220.9 -257.1 219.7 C-257.1 218.4 -257.1 217.2 -257.1 215.9 C-257.1 214.7 -257.1 213.5 -257 212.2 C-257 209.1 -257 206.1 -257 203 C-256.2 203 -255.5 203 -254.7 203 C-200.1 204 -148.7 186.1 -105.7 152.3 C-104.2 151.2 -102.8 150.1 -101.3 148.9 C-87.4 138.2 -74.5 125 -64 111 C-63.1 109.8 -62.2 108.6 -61.2 107.5 C-40.8 81.1 -24.2 51 -13.8 19.4 C-13.6 18.8 -13.6 18.8 -12.7 16.1 C-12 14.1 -11.4 12.1 -10.8 10.1 C-8.7 3.5 -8.7 3.5 -4.9 0.9 C-2 0 -2 0 0 0 Z " fill="#4279A5" transform="translate(604,662)"/>
<path d="M0 0 C2.3 0.8 2.3 0.8 4.6 1.8 C5.4 2 6.2 2.3 7 2.6 C24.6 10.2 37.5 29.1 44.5 46.3 C48.1 55.5 50.9 64.8 53.1 74.4 C53.6 76.8 54.2 79.2 54.8 81.5 C57.7 94.1 60 106.6 62 119.4 C66.5 148.7 72.3 178.9 89.6 203.8 C90.6 205.3 91.6 206.9 92.6 208.4 C92.9 209 92.9 209 94.6 211.8 C90.1 212.3 87.2 212.6 83.1 210.3 C77.8 206 76.1 203 75.3 196.4 C73.2 188.2 64.6 181.6 58.7 175.8 C56.2 173.4 53.9 170.7 51.7 168 C50 166.2 48.3 164.5 46.5 162.9 C45.9 162.3 45.4 161.8 44.8 161.2 C43.7 160.2 42.6 159.2 41.4 158.2 C38.8 155.6 37.7 153.7 37.4 150 C37.6 146.2 38 142.5 38.6 138.8 C38.7 137.9 38.9 137.1 39 136.3 C40.1 128.9 41.4 121.5 42.7 114 C43.2 111.2 43.7 108.4 44.1 105.5 C44.2 105.1 44.2 105.1 44.6 103 C45.5 97.5 45.8 92.3 45.6 86.8 C45.1 86.6 45.1 86.6 42.6 85.8 C38.7 105 35.5 124.3 32.6 143.8 C32.1 143.3 31.6 142.9 31 142.5 C30.3 142 29.6 141.4 28.9 140.9 C28.2 140.4 27.5 139.8 26.7 139.3 C14.3 130.3 0.5 129.2 -14.4 129.8 C-14.7 130.7 -15 131.7 -15.4 132.8 C-14.5 132.7 -13.7 132.7 -12.8 132.6 C0.6 132.3 15.5 134.1 25.7 143.7 C27.4 145.6 27.4 145.6 29.6 148.8 C28 148.6 26.4 148.5 24.8 148.3 C23.9 148.2 23 148.2 22.1 148.1 C19.6 147.8 19.6 147.8 16.6 146.8 C1.8 145.5 -16.2 145.9 -28.4 155.8 C-28.7 156.7 -29 157.7 -29.4 158.8 C-24.2 157.1 -19.2 155 -14.2 152.9 C-2.5 148.2 15.8 148.9 27.8 152.3 C33.9 155.4 38.2 160.6 42.6 165.8 C42.9 166.1 42.9 166.1 44.5 167.9 C45.6 169.1 46.7 170.4 47.8 171.6 C50.2 174.4 52.7 177.1 55.1 179.8 C67.6 193.3 67.6 193.3 67.6 194.8 C66.8 194.9 66.1 195 65.3 195.1 C51.7 197.7 41.8 204 32 213.5 C29.6 215.8 29.6 215.8 27.1 217.7 C24.1 220.2 21.8 223 19.4 226.1 C18.9 226.7 18.4 227.3 17.9 227.9 C5.2 244.6 -2.8 261.8 -5.4 282.8 C-9.4 281.2 -11.7 278.5 -14.3 275.2 C-14.5 275 -14.5 275 -15.7 273.5 C-29.7 256.5 -41.8 238 -52.3 218.7 C-53.4 216.8 -54.4 214.8 -55.5 212.9 C-60 204.7 -63.9 196.4 -67.4 187.8 C-67.5 187.4 -67.5 187.4 -68.4 185.4 C-73.9 170.7 -70.2 153.3 -66.4 138.8 C-66.1 137.8 -65.9 136.8 -65.6 135.8 C-62.6 124.4 -59.3 113.2 -55.5 102.1 C-54.1 98 -52.8 94 -51.7 89.9 C-43.8 61.8 -33.8 27.8 -12.4 6.8 C-12 6.4 -12 6.4 -10.3 4.5 C-7 1.1 -4.9 -0.9 0 0 Z " fill="#4278A3" transform="translate(390.375,322.25)"/>
<path d="M0 0 C4.1 2.4 7.7 5.2 11.3 8.3 C12 8.9 12.6 9.5 13.3 10.1 C31.4 26.8 39.2 53.3 47.3 75.7 C60 110.4 75.4 141.9 100.3 169.3 C101 170.1 101.8 171 102.5 171.8 C119.8 190.1 142.7 203.1 167.3 208.3 C164.4 213.9 161.3 217.4 156.2 221 C152.9 223.4 150.7 226.2 149.3 230 C147.3 232.3 147.3 232.3 145.3 232.6 C142.8 232.6 140.3 232.5 137.7 232.3 C128.5 232 122.5 232.9 115.3 239 C112 242.1 109.4 245.3 107.3 249.3 C95.4 248.8 84.8 239.1 77 230.9 C59.2 210 50 184.8 43.8 158.5 C43.3 156.2 42.7 153.9 42.1 151.7 C39.6 141.8 37.3 132 35.1 122.1 C33.7 115.8 32 109.8 30 103.7 C29.3 101.3 29.3 101.3 29.3 98.3 C28.3 98.3 27.3 98.3 26.3 98.3 C26.5 99.3 26.8 100.4 27 101.4 C28 105.3 28.9 109.2 29.8 113.1 C30.2 114.8 30.6 116.6 31 118.3 C33.3 127.9 35.6 137.5 37.7 147.1 C41.9 165.5 46.5 184 54.3 201.3 C54.8 202.5 55.3 203.7 55.9 204.9 C64 222.1 76.1 238.3 93 247.9 C95.5 249.4 97.3 251.2 99.3 253.3 C97.7 254.3 96.1 255.3 94.5 256.3 C93.6 256.9 92.7 257.4 91.8 258 C89.3 259.3 89.3 259.3 86.3 259.3 C84.9 258.2 84.9 258.2 83.3 256.6 C76.8 250.9 69.6 249.4 61.2 248.8 C55.5 248.1 53.1 246.9 49.6 242.4 C48.1 240.1 46.7 237.7 45.3 235.3 C45.1 235 45.1 235 44.1 233.3 C27.7 206 23 174.8 17.9 143.8 C11.8 106.7 3.9 64.7 -27.7 40.3 C-38.6 32.7 -48.4 30.1 -61.7 31.3 C-64.7 33.3 -64.7 33.3 -65.7 36.3 C-64.4 36.7 -63.1 37 -61.7 37.3 C-62.2 37.8 -62.7 38.2 -63.2 38.7 C-68.1 43.5 -72.2 48.5 -76.1 54.2 C-76.6 54.9 -77.2 55.6 -77.7 56.3 C-78 56.3 -78.4 56.3 -78.7 56.3 C-79.6 44.6 -75.2 34.1 -67.7 25.3 C-60.8 17.6 -50 12.9 -39.8 12.1 C-26.8 11.8 -16.8 15.1 -6.7 23.3 C-5.7 24.1 -4.7 24.8 -3.7 25.6 C-0.5 28.4 1.9 31.5 4.3 34.9 C4.7 35.6 5.2 36.2 5.6 36.8 C8.8 41.4 11.6 46.3 14.1 51.3 C15.3 53.3 15.3 53.3 17.3 54.3 C13.4 38.4 3 24.4 -10.7 15.3 C-18.3 11 -26.2 9 -34.7 7.3 C-33.3 3.9 -31.9 2.5 -28.8 0.6 C-28.1 0.2 -27.4 -0.2 -26.7 -0.6 C-18.8 -4.8 -7.9 -3.7 0 0 Z M57.3 151.3 C58.5 157.6 60.3 163.3 62.9 169.1 C63.3 169.9 63.6 170.7 64 171.5 C67.1 178.3 70.8 184.3 75.3 190.3 C75.6 190.7 75.6 190.7 77.2 192.9 C87.9 206.8 101.8 220.6 119.3 225.3 C120.6 225.3 121.9 225.3 123.3 225.3 C123.3 224.3 123.3 223.3 123.3 222.3 C122.3 221.8 121.2 221.4 120.2 220.9 C90.5 206.6 71.7 182 60.3 151.3 C59.3 151.3 58.3 151.3 57.3 151.3 Z " fill="#BFB9A6" transform="translate(437.69921875,285.67578125)"/>
<path d="M0 0 C12.7 6.4 21.1 16.1 26.3 29.4 C29.1 38.1 31.1 47 32 56.1 C32.1 56.9 32.2 57.7 32.3 58.5 C33.5 70.9 33.8 83.4 34.3 95.8 C34.6 101.7 34.9 107.6 35.1 113.5 C35.2 115.8 35.3 118.1 35.4 120.4 C36 134.8 36.7 149.1 37.4 163.5 C37.6 166.1 37.7 168.7 37.8 171.3 C38 174.9 38.2 178.5 38.4 182.1 C38.4 183.1 38.5 184.1 38.5 185.2 C38.8 190.2 39.1 195.3 39.5 200.3 C40.1 207.1 40.2 213.9 40.2 220.8 C40.3 222.1 40.3 223.4 40.3 224.7 C40.4 234.6 39 240.7 32.2 248 C22.4 256.9 8.7 261.1 -3.4 265.9 C-6.6 267.2 -9.8 268.6 -13 270 C-13.1 248.4 -13 226.8 -12.6 205.2 C-12.6 204.6 -12.6 204.6 -12.5 201.6 C-12.2 188.4 -11.9 175.2 -11.4 162.1 C-10.9 147 -10.9 132 -10.9 117 C-10.9 116.4 -10.9 116.4 -10.9 113.3 C-10.8 54.1 -10.8 54.1 -27 34.9 C-34.5 27.7 -41.8 23.6 -52.2 23.6 C-52.9 23.6 -53.7 23.6 -54.5 23.6 C-60.6 23.7 -65.6 25 -71 28 C-68.8 21.8 -65.4 19 -59.8 15.7 C-49.6 11.2 -35.3 11.1 -24.8 14.6 C-13.8 19.5 -5.7 27.8 -1.1 38.8 C2.9 50.2 5 62 6 74 C6.1 74.9 6.2 75.8 6.2 76.8 C8.8 107.8 9.1 138.9 10 170 C10.7 170 11.3 170 12 170 C12.4 144.9 12 119.8 10.7 94.7 C10.6 93.5 10.6 92.3 10.5 91 C9.9 77.8 8.9 64.9 6 52 C5.8 50.9 5.6 49.8 5.3 48.7 C3.2 38.3 -1.7 26.2 -10 19.4 C-21.3 11.9 -30.8 8.8 -44.4 8.9 C-45.3 8.9 -46.2 8.9 -47.2 9 C-49.5 9 -51.7 9 -54 9 C-51 4.6 -47.7 2.4 -42.9 0.2 C-42.3 -0.1 -41.7 -0.4 -41 -0.7 C-28.8 -6.5 -12.2 -6 0 0 Z " fill="#BFB9A6" transform="translate(664,490)"/>
<path d="M0 0 C5 2 5 2 7.3 3.1 C13.2 5.1 20.4 5.1 26.1 2.5 C27 2 28 1.5 29 1 C30 1 31 1 32 1 C33.3 3 33.3 3 34.7 5.6 C37.7 10.9 40.8 13.9 46 17 C46.7 17.4 47.3 17.8 48 18.2 C55.4 22.3 64.8 22.5 72.9 20.2 C76.2 18.7 79 17 82 15 C84.9 15.4 87.2 16.5 89.8 17.9 C92.7 19.5 94.4 20.1 97.8 20.6 C101 22 101 22 102.3 24.2 C103.4 27.1 104.2 30 105 33 C105.2 33.8 105.5 34.5 105.7 35.3 C108.7 47.3 107.3 60.3 105.6 72.4 C105.5 73.3 105.4 74.2 105.2 75.2 C104.3 81.6 104.3 81.6 102 85 C101.3 84.1 100.6 83.2 99.9 82.2 C97.2 78.9 94.2 77.2 90.3 75.3 C83.8 71.9 79.9 68.1 75.4 62.2 C72.3 59.3 70.2 59 66 59 C63.7 61.2 62.4 63.2 61 66 C61 71.6 62.1 76.1 65 81 C64.2 81.8 63.4 82.5 62.6 83.3 C60 86 60 86 58 89 C57.3 85.7 56.7 82.4 56 79 C54.7 79 53.4 79 52 79 C52.3 80.1 52.6 81.1 52.9 82.2 C56.9 97.9 59.4 117.4 52.3 132.6 C50 135 50 135 46.8 136.2 C42.1 135.9 40 134.4 36.3 131.7 C34.1 130.1 31.8 128.8 29.4 127.4 C26.1 125.4 26.1 125.4 25.4 122.5 C26 119.9 26.9 117.5 28 115 C25.6 116 25.6 116 23 118 C22 120.7 21.5 123.2 21 126 C20 126.1 19 126.3 18 126.4 C6.3 128.2 -4.5 131.3 -13 140 C-13.7 140 -14.3 140 -15 140 C-14.7 139.4 -14.4 138.9 -14.1 138.3 C-12.6 135.1 -12.3 132 -11.8 128.5 C-11 126 -11 126 -9 123.6 C-5.9 119.5 -6.5 115.3 -6.5 110.3 C-6 107 -6 107 -4.3 104.6 C-1.5 102.6 -0.1 102.6 3.3 102.8 C7.7 103 11.6 102.7 16 102 C17 102 18 102 19 102 C20 101.7 21 101.3 22 101 C23.1 98.6 23.1 98.6 24 96 C24.2 95.5 24.2 95.5 25 93 C24.5 92.8 24.5 92.8 22 92 C22.3 91.9 22.3 91.9 23.9 91.2 C26 90 26 90 27 87 C27.1 85.1 27.1 83.2 27.1 81.3 C27.1 80.3 27 79.3 27 78.3 C27 77.5 27 76.8 27 76 C26.3 75.7 25.7 75.3 25 75 C25.6 74.8 26.2 74.5 26.8 74.3 C32.6 71.9 36.1 69.8 39 64 C39.3 60.5 39.3 57.8 38.1 54.6 C35.2 52.4 33.1 52.5 29.5 52.6 C25.9 53.2 22.9 54.5 19.6 56 C13.2 58.5 6.7 59 -0.1 59.3 C-6.9 59.6 -12.2 60.1 -18 64 C-19.4 66.7 -19.1 69 -19 72 C-16.4 73.3 -13.7 74.6 -11 76 C-11.7 79.3 -12.3 82.6 -13 86 C-12.3 86.3 -11.7 86.7 -11 87 C-12 87 -13 87 -14 87 C-13.5 88 -13 89 -12.4 90 C-10.6 94.4 -11 97.4 -12 102 C-12.7 103 -13.3 104 -14 105 C-14.3 108 -14.4 111 -14.6 114.1 C-15.1 117.4 -16.1 118.4 -18 121 C-18.7 124.2 -18.7 124.2 -19.1 127.7 C-19.3 129.8 -19.6 131.9 -20 134 C-20.7 134.3 -21.3 134.7 -22 135 C-22.2 134.6 -22.2 134.6 -23 132.8 C-25.8 126.7 -28.9 121.5 -33.2 116.2 C-40.7 106.8 -41.8 100.1 -41 88 C-40.9 87.7 -40.9 87.7 -40.5 86.1 C-39.9 83.7 -39.7 81.4 -39.5 79 C-39.5 78 -39.4 77.1 -39.3 76.1 C-39.1 74.1 -39 72.1 -38.8 70.1 C-38.8 69.1 -38.7 68.1 -38.6 67.2 C-38.6 66.7 -38.6 66.7 -38.4 64.5 C-37.8 60.9 -37.1 57.9 -34.2 55.6 C-33.6 55.1 -32.9 54.7 -32.2 54.3 C-27.3 50.8 -24.7 46.8 -23 41 C-22.2 34.4 -22.7 28.3 -25 22 C-24.2 21.7 -23.4 21.5 -22.6 21.2 C-21.5 20.9 -20.4 20.5 -19.3 20.2 C-18.8 20 -18.8 20 -16.1 19.2 C-10.7 17.1 -7.7 15.2 -4.8 10.1 C-4.3 9.3 -3.8 8.4 -3.3 7.6 C-2 5.1 -1 2.6 0 0 Z M40 28 C41 31 41 31 43.9 32.6 C45.1 33.2 46.4 33.7 47.6 34.2 C48.3 34.5 48.9 34.7 49.6 35 C56.8 37.7 63.4 37.6 71 37 C71.3 35.7 71.7 34.4 72 33 C71.5 33 71.5 33 68.8 32.9 C61.5 32.7 55.5 32.4 48.9 28.9 C45.9 27.5 43.3 27.7 40 28 Z M17 38 C17 39 17 40 17 41 C17.6 41 18.2 41 18.8 40.9 C21.5 40.9 24.2 40.8 26.9 40.8 C27.9 40.7 28.8 40.7 29.7 40.6 C37.7 40.5 43.1 42.7 49.9 46.8 C55.3 48.9 61 48.1 66.8 47.8 C72.5 47.6 76.3 48.1 81.3 51.1 C83 52 83 52 87 52 C85.1 47.6 82.8 46 78.6 43.9 C72.8 42.4 67.1 43 61.1 43.2 C54.3 43.3 49.7 42.4 44 38.4 C39.7 35.4 35.1 35.8 30.1 35.8 C29.4 35.8 28.7 35.8 27.9 35.8 C23.8 35.8 20.7 36.2 17 38 Z " fill="#E8A582" transform="translate(546,141)"/>
<path d="M0 0 C0.8 35.3 0.8 35.3 -4 52 C-4.1 52.6 -4.1 52.6 -4.8 55.3 C-7.9 66.8 -12.1 78 -16 89.2 C-17 92.1 -18 95 -19 98 C-14.6 94.4 -13.1 90.1 -11.1 85 C-10.8 84.1 -10.4 83.2 -10.1 82.3 C-3.6 65.3 0.5 47.9 4 30 C4.7 30 5.3 30 6 30 C12 59.4 6.2 85.2 0 114 C-6.5 114.3 -11.5 113.6 -17.6 111.5 C-18.4 111.2 -19.2 111 -20 110.7 C-38 104.2 -52.3 93.1 -66 80 C-66.8 79.3 -67.5 78.6 -68.3 77.9 C-79.5 67.3 -88.4 54.3 -96 41 C-96.7 39.8 -97.5 38.5 -98.2 37.3 C-102.4 30.1 -106.2 22.7 -109.6 15.1 C-110 14.3 -110.3 13.6 -110.7 12.8 C-111.5 10.9 -112.3 8.9 -113 7 C-112.7 6.3 -112.3 5.7 -112 5 C-111.5 5.3 -111.5 5.3 -109.2 6.9 C-89.8 20.4 -70.7 27.9 -46.7 24.5 C-40.7 23.1 -35.6 20.4 -30.3 17.3 C-28 16 -28 16 -25 15 C-29.2 35 -36.4 54.7 -48.2 71.5 C-53 78.3 -53 78.3 -53 81 C-42.1 76.4 -35.3 57.7 -30.9 47.4 C-25.3 33.7 -21.7 19.5 -18.5 5.1 C-18 3 -18 3 -17 2 C-15 1.8 -13.1 1.6 -11.1 1.5 C-7.4 1.2 -3.7 0 0 0 Z " fill="#4477A0" transform="translate(611,374)"/>
<path d="M0 0 C2.3 1.7 4.3 3.3 6.4 5.2 C8 6.7 9.7 8.1 11.3 9.6 C12.4 10.5 13.5 11.5 14.5 12.5 C20 17.2 25.8 16.5 32.7 16.1 C43.4 15.7 54.2 15.3 62.8 22.7 C63.8 23.8 64.9 24.9 66 26 C65 29 64 31.9 63 35 C62 35 61 35 60 35 C59 33.7 58 32.3 57 31 C56 31 55 31 54 31 C55.6 39.7 64.2 49.2 71 54.6 C75.1 57.4 77.9 58.5 83 58 C84.6 59.6 84.2 61.5 84.3 63.8 C84.3 67.1 84.2 68.7 82.5 71.6 C78.9 73.6 75.9 73.8 72 73 C66.3 70.8 61.7 67.8 57 64 C56 64 55 64 54 64 C54.3 67 54.9 67.9 57.2 69.9 C58.1 70.4 59 71 59.9 71.6 C60.8 72.2 61.6 72.8 62.6 73.4 C63.4 73.9 64.2 74.5 65 75 C65.5 75.3 65.5 75.3 68 77 C66.8 79.5 66 81 64 83 C56.9 83.9 52 81.7 46 78 C45.3 77.3 44.7 76.7 44 76 C43 76 42 76 41 76 C41.3 78.9 41.8 79.8 44.1 81.7 C44.9 82.2 45.7 82.7 46.6 83.2 C47.4 83.8 48.2 84.3 49.1 84.8 C49.7 85.2 50.3 85.6 51 86 C50.8 86.5 50.8 86.5 50 89 C46.5 90.8 42.8 90.6 39 90 C36.5 88.9 34.3 87.6 32 86.2 C30 85 28.3 84.4 26 84 C26.2 86.4 26.2 86.4 27 89 C29.4 90.2 29.4 90.2 32 91 C32.7 91.3 33.3 91.7 34 92 C34 92.7 34 93.3 34 94 C28.1 96 23.6 95.6 18 92.9 C6.5 86.6 -1.8 76.1 -8 64.7 C-13.5 55.2 -24.1 49.8 -33 44 C-35.3 42.5 -37.5 41 -39.8 39.5 C-40.3 39.2 -40.3 39.2 -42.8 37.5 C-43.5 37 -44.3 36.5 -45 36 C-44.5 31.8 -41.9 29.1 -39.2 25.9 C-38.8 25.4 -38.3 24.8 -37.8 24.2 C-29.6 14.9 -13.5 -2.3 0 0 Z " fill="#EFAB84" transform="translate(455,524)"/>
<path d="M0 0 C19.5 14 22.7 49.2 26.4 70.8 C29.7 89.4 33.8 107.6 39.4 125.7 C41.5 132.1 43.3 138.6 44.9 145.1 C45 145.5 45 145.5 45.6 147.6 C46.5 151.5 47.3 155 47 159 C46.6 158.6 46.2 158.3 45.7 157.9 C33.4 148 19.4 142.7 3.6 142.9 C2.8 142.9 2.1 142.9 1.3 143 C-0.4 143 -2.2 143 -4 143 C-0.4 139.2 3.1 136.5 7.6 133.9 C14.5 129.8 14.5 129.8 17 127 C6.7 129.3 -1.8 134.2 -9 142 C-12.1 144.9 -14.7 147.2 -19 148 C-18.7 146.8 -18.4 145.5 -18.1 144.2 C-11.6 114.7 -7.9 85.1 -6 55 C-6.5 55.2 -6.5 55.2 -9 56 C-10 66.2 -11 76.5 -12 87 C-13.6 83.8 -14.3 82.2 -14.8 78.9 C-14.8 78.5 -14.8 78.5 -15.1 76.5 C-15.2 75.6 -15.4 74.8 -15.5 73.9 C-15.6 73 -15.7 72.2 -15.9 71.2 C-16.3 68.4 -16.7 65.6 -17.1 62.8 C-17.3 60.9 -17.6 59 -17.9 57.1 C-19.1 48.3 -19.1 48.3 -19.7 44.3 C-19.9 42.7 -20.1 41.2 -20.3 39.7 C-21.1 34.3 -21.1 34.3 -19.9 31.6 C-19.3 31 -18.8 30.4 -18.2 29.8 C-14.1 25.2 -12.9 21.6 -12.9 15.5 C-12.5 10.5 -12.5 10.5 -10.3 8.4 C-8.9 7.5 -7.5 6.8 -6 6.1 C-3.2 4.6 -1.7 2.5 0 0 Z " fill="#BEB8A6" transform="translate(636,337)"/>
<path d="M0 0 C0.3 0 0.7 0 1 0 C1.1 18.6 1 37.2 0.6 55.8 C0.6 56.3 0.6 56.3 0.5 58.5 C0.3 64.9 0.2 71.2 0 77.6 C-1.1 118.9 -1.1 118.9 -1.2 137 C-1.2 138.5 -1.3 139.9 -1.3 141.4 C-1.5 156.7 -1.5 156.7 4.2 163.7 C7.5 166.4 10.9 168.3 14.8 170.2 C21.9 173.9 21.9 173.9 23 175 C23.5 177.2 23.5 177.2 23 180 C17.9 187.1 8.8 188.8 0.7 190.5 C-2.9 191 -6.6 191 -10.2 191 C-10.7 191 -10.7 191 -12.9 191 C-13.3 191 -13.3 191 -15 191 C-15 190.7 -15 190.7 -15.1 189.1 C-17.9 128.9 -17.9 128.9 -22 104 C-22.2 102.7 -22.4 101.5 -22.6 100.2 C-25.4 83.5 -29.3 67.3 -34.2 51.2 C-34.4 50.5 -34.6 49.9 -34.8 49.2 C-35.3 47.4 -35.8 45.7 -36.4 43.9 C-37.3 39.7 -36.6 37.9 -34.3 34.3 C-33.6 33.3 -32.9 32.3 -32.2 31.2 C-29.8 27.8 -27.8 24.7 -26.3 20.8 C-24 15.7 -19.1 13.7 -14.4 11 C-9.2 8 -4.3 4.3 0 0 Z " fill="#938D7C" transform="translate(646,618)"/>
<path d="M0 0 C5 0.8 9.8 1 14.6 -0.4 C20.5 -0.7 25.4 2.5 29.7 6.2 C36.4 13.3 39.7 21.5 42.1 30.8 C42.2 31.1 42.2 31.1 42.6 32.8 C43.5 36.6 44.2 39.7 42.7 43.4 C40.9 44.9 40.9 44.9 38.6 46.1 C34.6 48.5 32.6 50.8 30.3 54.8 C24.8 64.1 16.7 71.1 6.2 74.2 C-3 75.1 -3 75.1 -6.3 73.4 C-6.3 72.8 -6.3 72.1 -6.3 71.4 C-2.7 69.8 1 68.1 4.7 66.4 C4.7 65.5 4.7 64.5 4.7 63.4 C1.6 63.9 -1.1 64.4 -4 65.5 C-8.7 66.9 -13.4 66.6 -18.3 66.4 C-19 65.1 -19.6 63.8 -20.3 62.4 C-19.5 62.1 -18.6 61.8 -17.8 61.4 C-16.7 61 -15.6 60.5 -14.5 60.1 C-13.4 59.6 -12.3 59.2 -11.2 58.7 C-8.3 57.4 -8.3 57.4 -5.3 55.4 C-5 54.5 -4.6 53.5 -4.3 52.4 C-11.9 54.3 -11.9 54.3 -15 55.6 C-20.1 56.9 -25.1 57.2 -30.3 56.4 C-33 54.1 -33 54.1 -34.3 51.4 C-34.3 50.8 -34.3 50.1 -34.3 49.4 C-33.1 49.1 -31.9 48.8 -30.7 48.4 C-29.1 48 -27.5 47.5 -26 47.1 C-25.2 46.9 -24.4 46.6 -23.6 46.4 C-22.8 46.2 -22.1 46 -21.3 45.7 C-21 45.6 -21 45.6 -19.2 45.1 C-17.3 44.4 -17.3 44.4 -14.3 42.4 C-13.6 40.3 -13.6 40.3 -13.3 38.4 C-14.5 38.9 -15.7 39.3 -16.9 39.8 C-18.5 40.3 -20.1 40.9 -21.7 41.4 C-22.1 41.6 -22.1 41.6 -24.1 42.3 C-29.5 44.2 -34.6 45.4 -40.3 44.4 C-43.4 42.4 -43.4 42.4 -45.3 39.4 C-45.8 35.8 -45.8 35.8 -45.3 32.4 C-42.2 30.4 -39.8 29.7 -36.2 28.7 C-26.8 25.9 -20.3 21.9 -15.3 13.4 C-14.9 12.1 -14.6 10.8 -14.3 9.4 C-18.2 10.7 -20.1 12 -22.3 15.4 C-26 14.8 -29.6 14.2 -33.3 13.4 C-31.5 6.9 -26.6 2.8 -20.9 -0.5 C-13.7 -2.6 -7.3 -1.4 0 0 Z " fill="#EDAB85" transform="translate(584.29296875,524.55078125)"/>
<path d="M0 0 C0.7 0 1.3 0 2 0 C2.3 0.7 2.5 1.4 2.8 2 C5.4 7.9 7.2 10.8 13.2 13.1 C15.8 14.4 16.6 16.5 18 19 C20.8 21.1 23.8 22.7 27.2 23.5 C29.8 24.2 31.1 26 33 28 C33.8 28.4 34.7 28.8 35.5 29.2 C39.6 32.1 39.6 36 40.5 40.7 C41.1 44.7 41.5 48 41 52 C38.2 54.7 36 55.5 32.2 55.6 C27.5 55.4 24.9 54.4 21.6 51.1 C16.3 44.2 13.4 36.5 12 28 C11 28 10 28 9 28 C15.1 51.6 15.1 51.6 25 58 C31 60 36.2 58.9 42 57 C42.4 64 41.6 68.9 38 75 C35.8 77.4 35.8 77.4 34 79 C33.8 79.5 33.8 79.5 33 82 C39.6 79.7 41.9 77.2 45.1 70.9 C46.4 66.8 46.3 63 46.3 58.8 C46.3 57.9 46.3 57 46.3 56.1 C46.2 47.5 44.8 39.4 43 31 C44.3 30.8 44.3 30.8 51 30 C51.2 30.6 51.2 30.6 52.3 33.4 C56.9 45.3 61.2 54.9 73 61 C68.9 71.7 62.7 80.1 52.8 85.9 C45.1 89 36.5 89.4 28.7 86.9 C16.5 81.3 10 71.1 5 59 C2.6 52.1 0.7 45.1 -1 38 C-1.3 36.8 -1.6 35.6 -2 34.4 C-3.5 27.8 -3.5 27.8 -1.2 23.9 C-0.5 23.3 0.3 22.7 1 22 C4.2 15.6 1.7 6.5 0 0 Z " fill="#B9B3A1" transform="translate(542,574)"/>
<path d="M0 0 C1 0 2 0 3 0 C1.9 7.1 -0.2 13.1 -3.1 19.7 C-7.1 29.1 -9.1 37.4 -6.3 47.5 C-4.2 52.2 -1.1 55 3 58 C2.9 58.5 2.7 59.1 2.6 59.6 C0.1 69.4 -0.2 78 5 87 C9.5 92.6 15.2 94.4 22 96 C22 96.3 22 96.3 22.3 97.9 C24.1 108.3 27.3 114.7 36 121 C39.8 123.5 43.6 123.3 48 123.2 C48.7 123.2 49.4 123.2 50.2 123.2 C53.6 123.2 56.7 123.1 60 122 C60.4 122.6 60.8 123.2 61.1 123.8 C65.7 130.2 70.4 134.6 78 137 C86.6 138.4 95.1 138.3 102.4 133.2 C103 132.8 103.5 132.4 104 132 C104.7 131.7 105.3 131.3 106 131 C102.9 138.2 94.9 142.1 88 145 C72.6 150.5 55.1 146.6 40.8 139.8 C33.9 136.2 28 131.8 22 127 C21.4 126.5 20.7 126.1 20.1 125.6 C12.4 119.6 9.7 112.1 6.7 103.2 C-12.2 48.9 -12.2 48.9 -32 39 C-32 38.3 -32 37.7 -32 37 C-31 36.6 -30 36.2 -28.9 35.9 C-27.5 35.3 -26.2 34.8 -24.8 34.3 C-24.5 34.2 -24.5 34.2 -22.8 33.6 C-14.3 30.3 -9.6 23.8 -6 15.7 C-5 13.3 -4.1 10.9 -3.2 8.5 C-2.9 7.7 -2.6 6.9 -2.2 6 C-1.5 4 -0.7 2 0 0 Z " fill="#E6A887" transform="translate(480,247)"/>
<path d="M0 0 C1.2 -0 2.3 -0 3.5 -0 C4.8 -0 6.1 -0 7.4 -0 C8.8 -0 10.1 -0 11.5 -0 C15.2 -0 18.8 -0 22.5 -0 C26.4 -0 30.2 -0 34.1 -0 C40.6 -0 47.1 -0 53.5 -0 C61 0 68.5 0 76 -0 C82.4 -0 88.9 -0 95.3 -0 C99.1 -0 103 -0 106.8 -0 C110.4 -0 114 -0 117.7 -0 C119.6 -0 121.6 -0 123.5 -0 C124.7 -0 125.9 -0 127.1 0 C128.1 0 129.1 0 130.1 0 C132.5 0.3 132.5 0.3 134.5 2.3 C134.8 4.8 134.8 4.8 134.5 7.3 C131.9 9.9 130.7 9.5 127.1 9.5 C126.5 9.5 126.5 9.5 123.5 9.5 C122.3 9.5 121 9.5 119.7 9.5 C118.3 9.5 117 9.5 115.6 9.5 C111.9 9.5 108.2 9.5 104.5 9.5 C100.7 9.5 96.8 9.5 93 9.5 C86.5 9.5 80 9.5 73.5 9.5 C66 9.5 58.5 9.5 51 9.5 C44.6 9.5 38.2 9.5 31.8 9.5 C27.9 9.5 24.1 9.5 20.2 9.5 C16.6 9.5 13 9.5 9.4 9.5 C7.4 9.5 5.5 9.5 3.5 9.5 C2.9 9.5 2.9 9.5 0 9.5 C-1 9.5 -2 9.5 -3.1 9.5 C-5.5 9.3 -5.5 9.3 -7.5 7.3 C-7.7 4.8 -7.7 4.8 -7.5 2.3 C-4.8 -0.4 -3.7 0 0 0 Z " fill="#766E67" transform="translate(523.466064453125,945.7460327148438)"/>
<path d="M0 0 C-0.6 0.5 -1.1 1 -1.7 1.5 C-11 10 -15.3 20.2 -19 32 C-23.6 32.1 -28.1 32.2 -32.7 32.3 C-33.3 32.3 -33.3 32.3 -36.6 32.4 C-37.2 32.4 -37.2 32.4 -40.4 32.5 C-41.5 32.5 -42.7 32.5 -43.9 32.6 C-48 31.8 -49.4 30.2 -52 27 C-53 23.9 -53.2 21.7 -53.2 18.4 C-53.3 17.5 -53.3 16.5 -53.3 15.5 C-53 12.3 -52.4 9.8 -51.5 6.8 C-51.2 5.9 -50.9 5 -50.6 4.1 C-50.4 3.4 -50.2 2.7 -50 2 C-43.5 1.5 -37 1.1 -30.6 0.7 C-28.4 0.5 -26.2 0.4 -24 0.2 C-20.8 -0 -17.6 -0.2 -14.5 -0.4 C-13.5 -0.5 -12.5 -0.6 -11.5 -0.7 C-10.5 -0.7 -9.6 -0.8 -8.7 -0.8 C-7.9 -0.9 -7.1 -0.9 -6.2 -1 C-4 -1 -2.1 -0.6 0 0 Z " fill="#EBA985" transform="translate(573,908)"/>
<path d="M0 0 C4.4 3 7.5 6.1 9.1 11.2 C9.2 12.3 9.2 13.4 9.3 14.6 C9.3 15.5 9.4 16.4 9.4 17.4 C9.8 25.7 9.8 25.7 7.4 29.7 C4.9 31.9 3.7 32.5 0.4 32.9 C-2.7 32.6 -2.7 32.6 -5.6 30.6 C-8.4 26.7 -8.5 24.3 -8.7 19.6 C-16.2 16.5 -22.7 16.2 -30.7 16.6 C-30.7 17 -30.7 17 -30.6 19.4 C-30.7 22.6 -30.7 22.6 -33.2 25.4 C-36.5 27.9 -39.5 28.2 -43.6 28 C-47.4 27.2 -50 25.3 -52.7 22.6 C-53.5 15.1 -52.2 9.7 -47.7 3.6 C-36.3 -6.7 -13.2 -6.8 0 0 Z M-44.7 6.6 C-44.1 7.9 -43.4 9.2 -42.7 10.6 C-37 8.7 -37 8.7 -34.6 7.5 C-25.5 4.5 -13.4 5.6 -4.8 9.3 C-2.1 11 -0.3 12.8 1.3 15.6 C2.6 15.2 3.9 14.9 5.3 14.6 C4.8 10.2 2.5 8.3 -0.7 5.6 C-13.2 -1.9 -33 -2.8 -44.7 6.6 Z " fill="#E5AA88" transform="translate(596.7421875,289.4453125)"/>
<path d="M0 0 C1.1 -0 2.2 -0 3.3 -0 C4.5 -0 5.7 -0 6.9 -0 C7.5 -0 7.5 -0 10.7 -0 C14.2 -0 17.6 -0 21.1 -0 C24 -0 26.8 -0 29.7 -0 C36.5 -0 43.3 -0.1 50.1 -0.1 C57.1 -0.1 64.1 -0.1 71.1 -0.1 C77.1 -0.1 83.1 -0.1 89.1 -0.1 C92.7 -0.1 96.3 -0.1 99.9 -0.1 C103.9 -0.1 107.9 -0.1 111.9 -0.1 C113.1 -0.1 114.3 -0.1 115.6 -0.1 C116.7 -0.1 117.7 -0.1 118.9 -0.1 C119.8 -0.1 120.8 -0.1 121.7 -0.1 C124 0.1 124 0.1 126 2.1 C126.2 4.6 126.2 4.6 126 7.1 C123.4 9.7 122.5 9.4 118.9 9.4 C118.4 9.4 118.4 9.4 115.7 9.4 C114.5 9.4 113.3 9.4 112.1 9.4 C110.8 9.4 109.6 9.4 108.3 9.4 C104.9 9.4 101.5 9.4 98 9.4 C95.2 9.4 92.3 9.4 89.5 9.4 C82.8 9.5 76 9.5 69.3 9.4 C62.4 9.4 55.4 9.5 48.5 9.5 C42.5 9.5 36.6 9.5 30.6 9.5 C27.1 9.5 23.5 9.5 20 9.5 C16 9.5 12 9.5 8.1 9.5 C6.9 9.5 5.7 9.5 4.5 9.5 C3.4 9.5 2.3 9.5 1.2 9.5 C0.3 9.5 -0.7 9.5 -1.6 9.5 C-4 9.1 -4 9.1 -5.8 7.8 C-7 6.1 -7 6.1 -6.8 3.5 C-5.5 -0.6 -4.1 0 0 0 Z " fill="#766E67" transform="translate(374.00413513183594,945.8662872314453)"/>
<path d="M0 0 C8.8 -0.5 15.1 1.1 22.1 6.7 C37.8 21.8 39.1 44.7 39.6 65.2 C39.6 66.1 39.7 66.9 39.7 67.8 C39.7 69.6 39.8 71.3 39.9 73.1 C40.7 88.3 40.7 88.3 36.6 93.6 C33 97.6 28.9 100.8 24 103 C24.8 95.8 24.8 95.8 25.5 92.6 C27.6 82.1 27.3 71.6 27 61 C27 60.6 27 60.6 27 58.8 C26.5 41.5 22.7 20.7 10 8 C7.4 6 4.7 4.1 1.9 2.3 C1.3 1.9 0.7 1.4 0 1 C0 0.7 0 0.3 0 0 Z " fill="#4C789C" transform="translate(608,519)"/>
<path d="M0 0 C3.7 1.6 7.2 1.7 11.2 1.9 C14.9 2.3 16.8 3.7 19.6 6.2 C21.2 9.2 20.9 11.8 20.6 15.2 C19.5 17.4 19.5 17.4 17.6 19.2 C14.5 19.6 14.5 19.6 10.9 19.4 C10.4 19.4 10.4 19.4 7.4 19.3 C6.5 19.3 5.6 19.2 4.6 19.2 C4.6 18.5 4.6 17.8 4.6 17.2 C4.2 11.7 3.9 8.1 -0.4 4.2 C-3.4 2.1 -5.7 2 -9.4 2.2 C-9.7 3.2 -10 4.1 -10.4 5.2 C-9.3 5.4 -8.2 5.6 -7.1 5.9 C-2.9 7.3 -1.5 8.2 0.6 12.2 C0.4 16 0.4 16 -0.4 19.2 C-4.3 19.2 -8.3 19.2 -12.4 19.2 C-12.6 17.6 -12.8 16.1 -13.1 14.5 C-14 9.6 -15.3 7.1 -19.4 4.2 C-22.7 2.9 -22.7 2.9 -25.4 2.2 C-25.2 3.9 -25.2 3.9 -24.4 6.2 C-22.4 7.6 -20.4 8.9 -18.4 10.2 C-17 12.9 -17.2 15.1 -17.4 18.2 C-18.4 19.2 -18.4 19.2 -21.1 19.3 C-22.2 19.3 -23.3 19.2 -24.4 19.2 C-25.5 19.2 -26.6 19.2 -27.8 19.2 C-28.6 19.2 -29.5 19.2 -30.4 19.2 C-30.5 18.6 -30.6 18 -30.7 17.3 C-32.2 9.1 -32.2 9.1 -36.4 6.2 C-39.1 4.9 -39.1 4.9 -41.4 4.2 C-41.4 5.5 -41.4 6.8 -41.4 8.2 C-41 8.4 -41 8.4 -38.9 9.5 C-36.4 11.2 -36.4 11.2 -35.5 14.8 C-35.5 15.9 -35.4 17 -35.4 18.2 C-36.4 19.2 -36.4 19.2 -38.5 19.3 C-39.4 19.3 -40.3 19.3 -41.3 19.3 C-42.3 19.3 -43.3 19.3 -44.3 19.3 C-45.3 19.2 -46.4 19.2 -47.4 19.2 C-48.5 19.2 -49.5 19.2 -50.6 19.2 C-53.2 19.2 -55.8 19.2 -58.4 19.2 C-57.3 13.2 -55 10.1 -50.4 6.2 C-35.6 -3.2 -16.2 -8.6 0 0 Z " fill="#DCA485" transform="translate(477.37109375,920.8359375)"/>
<path d="M0 0 C4.8 1.6 8.4 4.3 12.4 7.3 C13.7 8.3 14.9 9.2 16.2 10.2 C16.8 10.6 17.5 11.1 18.1 11.6 C21 13.8 24 15.9 27 18 C21.2 31 5.5 40.9 -7.1 46.5 C-9.4 47.1 -10.8 46.8 -13 46 C-14.6 44.4 -14.2 42.9 -14.2 40.8 C-14 28.4 -9.7 18.4 -3.9 7.8 C-2.6 5.2 -1.3 2.6 0 0 Z " fill="#2A4E68" transform="translate(405,564)"/>
<path d="M0 0 C0.7 0 1.3 0 2 0 C2.1 4.2 2.1 8.4 2.1 12.6 C2.1 14.1 2.1 15.5 2.2 16.9 C2.4 38.5 2.4 38.5 -2.5 47.6 C-2.9 48.4 -3.3 49.2 -3.8 50 C-5 52 -5 52 -7 54 C-10.3 54.4 -10.3 54.4 -14 54 C-18.3 50.4 -20.7 46.4 -23.2 41.6 C-23.5 40.9 -23.9 40.3 -24.2 39.6 C-26.2 35.8 -27.8 32.1 -29 28 C-28.4 27.6 -27.9 27.3 -27.3 26.9 C-19 21.5 -13.2 16.6 -7.6 8.3 C-5.7 5.5 -3.5 3.3 -1 1 C-0.7 0.7 -0.3 0.3 0 0 Z " fill="#294E68" transform="translate(627,574)"/>
<path d="M0 0 C-2.2 1.7 -4.5 3.3 -6.9 4.8 C-15.2 10.7 -19.5 19.2 -22 29 C-30.6 29 -39.2 29 -48 29 C-47.2 23.4 -46.7 20.7 -44.2 15.9 C-43.7 14.9 -43.2 13.9 -42.7 12.9 C-32.8 -4.1 -16.9 -8.9 0 0 Z " fill="#7D776D" transform="translate(609,911)"/>
<path d="M0 0 C3.7 2 5.7 3.5 8 7 C8.2 9.5 8.2 9.5 8.2 12.4 C8.2 13.4 8.2 14.5 8.2 15.6 C8.2 16.2 8.2 16.2 8.2 19 C8.2 20.1 8.2 21.2 8.2 22.3 C8.1 41.9 8.1 41.9 5 45 C0.4 45.9 -4.1 46 -8.4 43.8 C-14.3 38.9 -16.6 33.1 -19 26 C-19.6 19.4 -19.2 12.9 -16 7 C-11.2 1.7 -7.3 -0.6 0 0 Z M-12 12 C-12 12.7 -12 13.3 -12 14 C-11.5 14 -11.5 14 -8.8 13.8 C-5 14 -5 14 -2.6 15.7 C-0.8 18.3 0.1 19.7 0 23 C-1.6 24.7 -3.3 26.4 -5 28 C-5.3 30.8 -5.3 30.8 -5 33 C-3.7 33.3 -2.4 33.7 -1 34 C-0.8 33.1 -0.5 32.1 -0.3 31.1 C1 28 1 28 3.6 26.6 C4 26.5 4 26.5 6 26 C5.6 20.2 4.9 16.6 1 12 C-1.6 10 -3.3 9.1 -6.6 8.6 C-9.4 9.1 -10.3 9.7 -12 12 Z " fill="#E4A787" transform="translate(478,196)"/>
<path d="M0 0 C11.1 0.6 22 1.6 33 3 C30.9 5.2 28.7 6.9 26.2 8.7 C17.9 14.9 10.7 23.5 9.2 34.1 C9.1 35.1 9.1 36 9 37 C6.9 37.1 4.8 37.2 2.7 37.2 C1.5 37.3 0.3 37.3 -0.9 37.4 C-4 37 -4 37 -5.9 35.3 C-8.6 29.8 -8.5 24 -6.9 18.2 C-6.3 16.4 -5.7 14.7 -5 13 C-4.8 12.4 -4.8 12.4 -3.7 9.5 C-2.5 6.3 -1.3 3.2 0 0 Z " fill="#E7A886" transform="translate(380,903)"/>
<path d="M0 0 C1 0 2 0 3 0 C8.2 16.8 12.4 33.7 16.3 50.8 C17.7 57.2 19.3 63.6 21 70 C21.2 70.6 21.3 71.3 21.5 72 C27.1 93.3 36 112.9 50 130 C50.6 130.8 51.2 131.6 51.8 132.4 C54.3 135.4 57.1 137.7 60.1 140 C60.4 140.2 60.4 140.2 61.9 141.3 C66.6 144.9 71.6 147.6 77 150 C78.3 150.7 79.7 151.3 81 152 C78.2 153.6 78.2 153.6 75 155 C73.1 154.2 73.1 154.2 71 153 C70.3 152.6 69.5 152.2 68.8 151.8 C62 148 56.6 143.3 51 138 C50.3 137.4 49.6 136.8 48.9 136.2 C26.2 115.2 17.5 81 11 52 C10.9 51.3 10.7 50.7 10.6 50 C9 43 7.4 35.9 5.9 28.8 C5.5 27.3 5.2 25.8 4.9 24.3 C4.7 23.6 4.6 22.9 4.4 22.2 C3.2 16.9 1.9 11.6 0.5 6.4 C0 4 0 4 0 0 Z " fill="#2D291E" transform="translate(464,384)"/>
<path d="M0 0 C2.8 0.2 5.5 0.3 8.3 0.4 C13.7 0.6 19 0.9 24.4 1.2 C24.6 1.5 24.6 1.5 25.4 3.2 C24.9 3.2 24.9 3.2 22.3 3.5 C8.3 4.9 -7.9 7.5 -18 18.4 C-21.2 22.6 -23.4 27.4 -25.6 32.2 C-31.6 32.2 -37.5 32.2 -43.6 32.2 C-39.9 19.3 -32.9 9.8 -21.2 3.2 C-14.2 -0.3 -7.8 -0.6 0 0 Z " fill="#7C756C" transform="translate(437.61328125,907.83984375)"/>
<path d="M0 0 C16.3 -0.4 30.2 1.5 43 13 C56.9 29.2 59.6 51.2 60.8 71.7 C60.8 72.8 60.9 73.9 61 75.1 C61.2 78.8 61.4 82.5 61.6 86.2 C61.6 87.4 61.7 88.7 61.8 90 C63.1 114 63.4 138 63 162 C62.7 162 62.3 162 62 162 C61.7 155.7 61.3 149.5 61 143 C60.7 143 60.3 143 60 143 C59.7 136.7 59.3 130.5 59 124 C58.7 124 58.3 124 58 124 C57.9 122.9 57.9 121.7 57.8 120.6 C53.9 31 53.9 31 36.2 14.2 C31.9 10.6 27.3 8.7 22 7 C21 6.7 20 6.3 19 6 C17.6 5.9 16.2 5.8 14.8 5.7 C14 5.6 13.2 5.6 12.3 5.6 C11.5 5.5 10.7 5.5 9.8 5.4 C9 5.4 8.1 5.4 7.3 5.3 C5.2 5.2 3.1 5.1 1 5 C0.7 3.4 0.3 1.7 0 0 Z " fill="#2F2B21" transform="translate(614,498)"/>
<path d="M0 0 C1.3 1 2.6 2 4 3 C2 3.2 2 3.2 -8 4 C-7.7 5 -7.3 6 -7 7 C-6.1 7 -5.2 7.1 -4.3 7.1 C-3.2 7.2 -2 7.2 -0.8 7.3 C0.3 7.4 1.5 7.4 2.7 7.5 C6.2 8 8.2 8.9 11 11 C12.5 14.1 12.2 16.6 12 20 C11 22.2 11 22.2 9 24 C6.1 24.4 3.5 24.5 0.6 24.4 C-0.2 24.4 -1 24.4 -1.9 24.4 C-4.5 24.4 -7.1 24.3 -9.7 24.2 C-11.5 24.2 -13.2 24.2 -15 24.2 C-19.3 24.2 -23.7 24.1 -28 24 C-25.1 14.9 -22.6 7.8 -13.9 3 C-13.3 2.6 -12.6 2.3 -12 2 C-11.2 1.6 -10.3 1.1 -9.4 0.7 C-6.1 -0.2 -3.4 -0.3 0 0 Z " fill="#E2A685" transform="translate(621,916)"/>
<path d="M0 0 C3.3 2.7 3.9 4.3 4.5 8.4 C3.8 13.6 1.6 16.6 -2.3 20 C-13.2 27.9 -29.4 27.4 -42.2 25.4 C-52.4 23.4 -52.4 23.4 -56 20 C-56.6 17.1 -56.6 17.1 -56 14 C-53.1 10.3 -50.5 8.4 -46 7 C-43.5 6.8 -41 6.6 -38.6 6.6 C-29.6 6.1 -20.3 5.3 -12.2 1.3 C-8 -0.4 -4.4 -0.9 0 0 Z M-11.9 6.3 C-22 10.4 -32.4 11.1 -43.2 11.6 C-46.4 12.1 -48.4 13 -51 15 C-51 16 -51 17 -51 18 C-38.3 22.5 -20.5 24 -8 18.3 C-4.7 16.2 -3 14.4 -1 11 C-0.7 7.6 -0.7 7.6 -1 5 C-5.5 3.7 -7.8 4.4 -11.9 6.3 Z " fill="#130B09" transform="translate(582,193)"/>
<path d="M0 0 C0.8 0.3 0.8 0.3 5 2 C5 2.7 5 3.3 5 4 C8.2 6.1 10.3 6.5 14 7 C14 7.7 14 8.3 14 9 C14.7 9 15.3 9 16 9 C18.2 13.6 18.8 18 17.5 22.9 C16.3 27.8 16.4 32.6 18.2 37.2 C19 40 19 40 17.2 43.4 C16.5 44.2 15.8 45.1 15 46 C14.3 46 13.7 46 13 46 C12.7 45.4 12.4 44.7 12.2 44.1 C8.7 36.6 4.7 30.5 -3 27 C-2.9 26.2 -2.7 25.4 -2.6 24.6 C-1.3 16.4 -0.5 8.3 0 0 Z " fill="#D29C7F" transform="translate(607,247)"/>
<path d="M0 0 C0.3 0.7 0.7 1.3 1 2 C0.8 2.3 0.8 2.3 0.1 4.1 C-1.4 8.1 -1.9 11.8 -1 16 C2.2 19.4 5 20.3 9.6 20.5 C12.8 20.3 14.1 19.9 17.1 18.4 C19.5 15.4 19.3 13.8 19 10 C20.8 8.2 23.5 8.8 26 8.8 C31.6 8.8 37.1 9.1 42 12 C43 15 43 15 43.3 17.9 C44.1 21.6 45 22.9 48 25 C50.9 25.6 50.9 25.6 54 25 C56.8 23 58.7 21.4 59.4 17.9 C59.5 15.5 59.4 13.1 59.3 10.7 C59.3 9.9 59.3 9 59.2 8.2 C59.2 6.1 59.1 4.1 59 2 C63.1 5.9 64.1 9.3 64.3 14.9 C64.2 20.2 62.9 23.7 59.5 27.8 C56.4 30.3 52.9 30.3 49.1 30.3 C45.5 29.8 43.6 28.4 41 26 C38.8 22 38 19.6 38 15 C33.9 14 30.2 13.3 26 14 C24.2 15.9 22.8 17.9 21.4 20 C19.5 22.7 18.2 23.9 15 25 C8.3 25.9 3.1 25.5 -2.4 21.4 C-4.7 19.4 -6 17.9 -7 15 C-6.9 8.6 -4.5 4.5 0 0 Z " fill="#150A06" transform="translate(546,296)"/>
<path d="M0 0 C0.5 3.9 0.2 5.7 -1.8 9.1 C-7.9 15.4 -15.7 16.2 -24 16.4 C-33.1 16.5 -41.4 16 -50 13 C-49.8 11.1 -49.8 11.1 -49 9 C-46.2 7.3 -43.8 6.7 -40.6 6.4 C-39.7 6.4 -38.9 6.3 -38 6.2 C-37.2 6.1 -36.3 6.1 -35.4 6 C-25.4 5.1 -16.5 4 -7.3 -0.3 C-4.5 -1.1 -2.8 -0.8 0 0 Z " fill="#7B766E" transform="translate(581,198)"/>
<path d="M0 0 C1.3 0.2 2.6 0.3 3.9 0.5 C8.8 1 13.6 1.2 18.4 1.1 C19.3 1.1 20.1 1.1 20.9 1.1 C26.7 1.1 32.3 0.7 38 0 C39.7 3.5 39.4 7.2 39 11 C37.9 13.9 37.9 13.9 36 16 C32.8 17.3 32.8 17.3 30 18 C29.5 16.9 29.1 15.8 28.6 14.6 C27 11 27 11 25 9 C21.6 8.6 21.6 8.6 18 9 C15.2 11.7 13.7 14.6 12 18 C10.4 17.2 8.8 16.5 7.2 15.7 C6.4 15.3 5.5 14.8 4.6 14.4 C2.2 13.1 0.1 11.8 -2 10 C-2.5 5.9 -1.9 3.5 0 0 Z " fill="#F9F7F5" transform="translate(535,217)"/>
<path d="M0 0 C3 1.4 5.5 3 8.1 4.9 C12.9 8.1 17.5 9.6 23 11 C25 11.7 27 12.3 29 13 C28.7 16.7 28.5 19.3 26.4 22.4 C23.3 24.5 20.7 24.7 17 25 C16.7 23.9 16.4 22.8 16.1 21.6 C15 18 15 18 13 16 C11.1 15.7 11.1 15.7 9 15.8 C8.3 15.7 7.6 15.7 6.9 15.7 C5 16 5 16 3 18 C2.4 20.1 2.4 20.1 2 22 C-0.9 21.4 -1.9 21.1 -4 19 C-6.2 7.4 -6.2 7.4 -3.9 3 C-2.6 1.6 -2.6 1.6 0 0 Z " fill="#F6F4F2" transform="translate(610,222)"/>
<path d="M0 0 C1 0 2 0 3 0 C3.5 1.1 3.9 2.2 4.4 3.3 C11 18.8 18.6 33.5 30 46 C30.8 46.9 31.7 47.8 32.5 48.8 C42.1 58.9 53.1 65.8 66 71 C66 72 66 73 66 74 C54 72.8 43.7 66 35 58 C34 57.1 33.1 56.3 32.1 55.4 C17.3 41.6 5.4 22.6 0 3 C0 2 0 1 0 0 Z " fill="#312D21" transform="translate(495,437)"/>
<path d="M0 0 C1 0.4 1.9 0.8 2.9 1.2 C10.5 4.4 17.7 7 26 8 C25.7 8.7 25.3 9.3 25 10 C23.9 10 22.8 9.9 21.6 9.9 C20.1 9.9 18.7 9.8 17.2 9.8 C16.4 9.8 15.7 9.8 15 9.7 C9.6 9.7 9.6 9.7 7 11.1 C5.5 14 5.6 16.6 5.5 19.9 C5.4 24.8 5 28 2 32 C1 32.7 0 33.3 -1 34 C-1.9 37.1 -2.5 40.1 -3.1 43.2 C-4 46 -4 46 -6.1 47.4 C-6.7 47.6 -7.4 47.8 -8 48 C-8.9 43.5 -8.9 39.9 -8.2 35.4 C-8.2 34.8 -8.2 34.8 -7.8 32 C-7 29 -7 29 -5.5 27 C-3.5 24.3 -3.6 22.4 -3.5 19.1 C-3.2 14.3 -2.3 11.3 0 7 C0.1 4.7 0.1 2.3 0 0 Z " fill="#B6CBD6" transform="translate(534,233)"/>
<path d="M0 0 C6.1 9.2 4 22.8 2 33 C1.8 33.8 1.7 34.6 1.5 35.5 C-7.4 79.9 -7.4 79.9 -18 92 C-18.7 92 -19.3 92 -20 92 C-19.4 87.8 -18.4 84 -16.9 80 C-16.7 79.4 -16.7 79.4 -15.6 76.5 C-15.4 75.9 -15.4 75.9 -14.2 72.9 C-5.5 49 -1 25.4 0 0 Z " fill="#051728" transform="translate(612,380)"/>
<path d="M0 0 C2.1 0 2.1 0 5 1 C6.2 2.6 6.2 2.6 7.5 4.6 C11 9.6 15.6 12.2 20.8 15.1 C29.8 20.3 29.8 20.3 30.9 23.8 C30.9 24.5 31 25.2 31 26 C19.9 26.6 10.7 23 2 16 C-0.8 12.8 -1.9 10 -2.4 5.8 C-2 3 -2 3 0 0 Z " fill="#7B756D" transform="translate(613,204)"/>
<path d="M0 0 C0 8.9 0 17.8 0 27 C-16.2 20.5 -16.2 20.5 -19 15 C-19.2 12.1 -19.2 12.1 -18 9 C-13.3 4.3 -6.8 0 0 0 Z " fill="#B6B1A2" transform="translate(670,759)"/>
<path d="M0 0 C18.2 2.9 32 10.6 43.3 25.4 C53.6 40.3 53.6 40.3 53 48 C48.7 46.6 47.8 43.4 45.9 39.6 C38 25.2 28.3 13.7 12.2 8.5 C7.2 7.1 2.2 6.4 -3 6 C-2 4 -1 2 0 0 Z " fill="#2E2B21" transform="translate(402,292)"/>
<path d="M0 0 C0 0.7 0 1.3 0 2 C-4.5 4.1 -8.9 5.5 -13.6 6.9 C-18.8 8.4 -21.8 9.7 -25 14 C-24 14 -23 14 -22 14 C-21.8 14.7 -21.6 15.4 -21.4 16.1 C-21.2 17 -20.9 17.9 -20.6 18.8 C-20.4 19.7 -20.1 20.6 -19.9 21.5 C-19 24 -19 24 -17 27 C-17.4 29.7 -17.4 29.7 -18 32 C-22.7 32 -25.1 30.4 -28.4 27.4 C-32 23.6 -32 23.6 -32.2 19.5 C-29 10.3 -25.3 5 -16.7 0.1 C-11.1 -1.6 -5.6 -1.9 0 0 Z " fill="#6F7E86" transform="translate(554,544)"/>
<path d="M0 0 C3 2.5 4.8 5.3 6 9 C7.6 9 9.3 9 11 9 C10.9 10.9 10.9 10.9 10 13 C1.2 16.7 -8.9 16.3 -17.6 12.8 C-21.5 11 -24.8 8.9 -28 6 C-28 5 -28 4 -28 3 C-24.1 3.6 -21.1 4.8 -17.7 6.6 C-16.8 7 -15.9 7.5 -15 7.9 C-14.3 8.3 -13.7 8.6 -13 9 C-12.6 8.1 -12.1 7.1 -11.7 6.2 C-8.6 0.4 -6.8 -1.1 0 0 Z " fill="#0B0A0B" transform="translate(560,225)"/>
<path d="M0 0 C3.5 0.3 3.5 0.3 21 2 C22.6 6.7 22.4 11.3 22.5 16.2 C22.6 17.2 22.6 18.2 22.7 19.3 C22.8 25 22.3 28.3 18.5 32.7 C17.3 33.9 16.2 35 15 36 C12.7 33.7 12.1 32.1 11.9 28.9 C11.9 28.1 11.9 27.4 11.9 26.6 C11.9 25.8 11.9 25 11.9 24.3 C12 22 12.4 20.1 13 18 C13.2 13.8 13 10.1 12 6 C11.3 6 10.7 6 10 6 C10 5.3 10 4.7 10 4 C9.1 4.1 8.2 4.2 7.2 4.2 C4 4 4 4 0 0 Z " fill="#B7CAD0" transform="translate(611,250)"/>
<path d="M0 0 C0.7 0 1.4 0 2.1 0 C9 0.2 15 1.7 20.4 6 C24.9 8.1 29.2 7.5 34 7.2 C49.4 6.9 49.4 6.9 55.3 12.4 C56.5 14.5 56.5 14.5 57.3 16.4 C53.4 16.4 52.8 16.3 49.7 14.4 C44.7 11.7 40.2 12.2 34.6 12.5 C25 12.8 19.4 11.7 11.3 6.4 C8.4 5.4 6.5 5.3 3.4 5.3 C2.5 5.3 1.6 5.3 0.6 5.3 C0.1 5.3 0.1 5.3 -2.4 5.3 C-3.4 5.3 -4.4 5.3 -5.4 5.3 C-7.8 5.3 -10.2 5.4 -12.7 5.4 C-12.7 4.4 -12.7 3.4 -12.7 2.4 C-8.5 0.3 -4.6 -0 0 0 Z " fill="#29100B" transform="translate(575.6875,176.625)"/>
<path d="M0 0 C1.9 1.9 1.9 1.9 3.9 4.9 C3.6 7.1 3.6 7.1 2.9 8.9 C-0.2 8.6 -1.1 7.9 -3.2 5.6 C-10.3 -1.1 -19.6 -0.7 -28.8 -0.4 C-33.2 -0.2 -36.6 0.9 -40.3 3.3 C-42.1 3.9 -42.1 3.9 -44.3 3.1 C-44.6 2.9 -44.6 2.9 -46.1 1.9 C-45.1 -1.1 -45.1 -1.1 -43.4 -2.2 C-42.7 -2.5 -42 -2.9 -41.3 -3.2 C-40.6 -3.5 -40 -3.9 -39.3 -4.2 C-27 -9 -10.7 -7.2 0 0 Z " fill="#1E0C08" transform="translate(598.0625,296.0625)"/>
<path d="M0 0 C1.6 0 3.3 0 5 0 C4.7 1.1 4.4 2.3 4.1 3.4 C3 8.1 2.8 12.6 2.6 17.4 C2.2 26.7 -0.1 34 -5 42 C-5.7 41.7 -6.3 41.3 -7 41 C-7 33.1 -7 25.2 -7 17 C-8.3 16.7 -9.6 16.3 -11 16 C-10.4 15.9 -10.4 15.9 -7.6 15.2 C-6.4 14.8 -5.2 14.4 -4 14 C-3.7 13 -3.3 12 -3 11 C-3.7 10.7 -4.3 10.3 -5 10 C-4.5 9.6 -4.1 9.3 -3.6 8.9 C-1.4 6.2 -0.8 3.4 0 0 Z " fill="#DCA88C" transform="translate(639,235)"/>
<path d="M0 0 C1 0 2 0 3 0 C3.1 8 2.8 15.9 2.1 23.9 C2 24.9 1.9 25.9 1.9 27 C1.2 34.7 0.3 42.4 -1 50 C-1.3 50 -1.7 50 -2 50 C-2.9 46.2 -3.1 42.6 -3.1 38.7 C-3.1 37.6 -3 36.6 -3 35.4 C-3 35 -3 35 -3 33 C-3.6 32.9 -4.3 32.8 -4.9 32.6 C-5.6 32.4 -6.3 32.2 -7 32 C-8.5 29 -8.2 26.3 -8 23 C-7.3 22.3 -6.7 21.7 -6 21 C-5.3 23.3 -4.7 25.6 -4 28 C-3 25 -2.7 22.6 -2.5 19.5 C-2.4 18.4 -2.3 17.4 -2.2 16.3 C-2.1 14 -1.9 11.7 -1.8 9.5 C-1.7 8.4 -1.6 7.3 -1.5 6.2 C-1.4 5.3 -1.4 4.3 -1.3 3.3 C-1 1 -1 1 0 0 Z " fill="#333129" transform="translate(627,392)"/>
<path d="M0 0 C1 0 2 0 3 0 C3.4 1.1 3.7 2.1 4.1 3.2 C10.3 20.9 10.3 20.9 18 26 C20.3 26.3 20.3 26.3 22.9 26.2 C23.8 26.3 24.6 26.3 25.5 26.3 C28.1 26 29.8 25.3 32 24 C32.2 24.8 32.2 24.8 33 29 C28.1 31.4 24.6 32.7 19 32 C10.7 28.4 6.6 22.9 3.2 14.6 C1.4 9.6 0.3 5.2 0 0 Z " fill="#2E2A1F" transform="translate(551,602)"/>
<path d="M0 0 C3 3 2.9 6.6 3.5 10.6 C3.7 11.4 3.8 12.3 3.9 13.2 C4.2 15 4.5 16.8 4.8 18.6 C5.2 21.4 5.6 24.1 6.1 26.9 C6.3 28.6 6.6 30.4 6.9 32.1 C7 33 7.1 33.8 7.2 34.7 C7.4 35.4 7.5 36.2 7.6 37 C7.7 37.7 7.8 38.4 7.9 39.1 C8 41.2 7.6 42.9 7 45 C6 45 5 45 4 45 C3.7 41 3.3 37.1 3 33 C2.3 33 1.7 33 1 33 C1 31.8 1.1 30.5 1.1 29.2 C1.1 23.4 0.1 17.8 -1 12 C-1.3 16.6 -1.7 21.2 -2 26 C-2.3 26 -2.7 26 -3 26 C-3.1 22 -3.1 18.1 -3.2 14.1 C-3.2 13 -3.2 11.9 -3.3 10.7 C-3.3 9.6 -3.3 8.6 -3.3 7.4 C-3.3 6.5 -3.3 5.5 -3.3 4.4 C-3.2 3.6 -3.1 2.8 -3 2 C-2 1.3 -1 0.7 0 0 Z " fill="#353C3D" transform="translate(614,371)"/>
<path d="M0 0 C5.3 0.3 8.4 1.1 12 5 C13.9 8.6 15 11.8 15 15.9 C13.6 18.8 11.9 18.8 9 20 C8.2 22.6 8.2 22.6 8 25 C6.7 24.7 5.4 24.3 4 24 C4.5 17.5 4.5 17.5 7.1 15.1 C7.7 14.7 8.3 14.4 9 14 C8.7 11 8.1 9.2 6.4 6.7 C3.2 4.4 0.8 4.7 -3 5 C-1.1 1.1 -1.1 1.1 0 0 Z " fill="#250D08" transform="translate(469,205)"/>
<path d="M0 0 C4.4 -0.4 7 -0.1 10.9 1.9 C17.5 5.2 24.8 4.8 32 5 C31.7 6.3 31.3 7.6 31 9 C22.5 9.6 15.5 9.4 7.6 6.2 C7 5.9 6.3 5.7 5.7 5.4 C3.9 4.6 3.9 4.6 1 3 C0.7 2 0.3 1 0 0 Z " fill="#240B07" transform="translate(586,169)"/>
<path d="M0 0 C0.3 0 0.7 0 1 0 C1 14.5 1 29 1 44 C0 43.7 -1 43.3 -2 43 C-2 37.2 -2.1 31.4 -2.1 25.6 C-2.1 23.6 -2.1 21.6 -2.2 19.7 C-2.2 16.8 -2.2 14 -2.2 11.2 C-2.2 10.3 -2.2 9.4 -2.2 8.5 C-2.2 6.3 -2.1 4.2 -2 2 C-1.3 1.3 -0.7 0.7 0 0 Z " fill="#1C190E" transform="translate(675,617)"/>
<path d="M0 0 C-4.6 4.9 -4.6 4.9 -8 6 C-8 5.3 -8 4.7 -8 4 C-9.1 4.3 -10.2 4.7 -11.4 5 C-15.6 6.1 -19.5 6 -23.8 5.7 C-26 6 -26 6 -27.8 7.6 C-29.4 10.7 -29.5 13.3 -29.7 16.8 C-29.8 17.9 -29.8 19.1 -29.9 20.3 C-29.9 21.2 -30 22.1 -30 23 C-30.7 23 -31.3 23 -32 23 C-31.9 20.4 -31.9 17.8 -31.8 15.2 C-31.7 14.5 -31.7 13.8 -31.7 13 C-31.6 9.7 -31.2 7.4 -29.5 4.5 C-26 2.4 -22.7 2.6 -18.8 2.8 C-18.4 2.8 -18.4 2.8 -16.5 2.8 C-14.7 2.9 -12.8 2.9 -11 3 C-12 2.8 -12 2.8 -17 2 C-17 1.7 -17 1.3 -17 1 C-14.5 0.6 -12.1 0.3 -9.6 -0.1 C-8.9 -0.2 -8.2 -0.3 -7.5 -0.4 C-2.2 -1.1 -2.2 -1.1 0 0 Z " fill="#CDB6AA" transform="translate(570,239)"/>
<path d="M0 0 C0 3 0 3 -1.4 5.2 C-3.3 8.5 -3.5 11.3 -4 15 C-4.8 17 -4.8 17 -6 19 C-6.7 20.2 -7.4 21.5 -8.1 22.8 C-8.7 23.8 -9.4 24.9 -10 26 C-12 23 -12 23 -12 19 C-11 18.3 -10 17.7 -9 17 C-8.3 14.4 -8.3 14.4 -7.7 11.2 C-6.8 7.1 -6.1 4.4 -2.8 1.8 C-1.9 1.2 -1 0.6 0 0 Z " fill="#CDB7AB" transform="translate(538,262)"/>
</svg>
