<svg viewBox="0 0 500 500" xmlns="http://www.w3.org/2000/svg">
    <path d="M 165 150 C 160 50 340 50 335 150 Z" fill="#CBD5E1" />
    <circle cx="250" cy="135" r="75" fill="#FED7AA" />
    <path d="M 175 160 C 175 275 325 275 325 160 Z" fill="#E2E8F0" />
    
      <!-- Sourcils inquiets -->
      <path d="M215 115 Q225 120 L235 110" stroke="#1E293B" stroke-width="6" stroke-linecap="round" fill="none" />
      <path d="M265 110 Q275 120 L285 115" stroke="#1E293B" stroke-width="6" stroke-linecap="round" fill="none" />
      <!-- Yeux -->
      <circle cx="225" cy="135" r="10" fill="#1E293B" />
      <circle cx="222" cy="132" r="3" fill="#FFFFFF" />
      <circle cx="275" cy="135" r="10" fill="#1E293B" />
      <circle cx="272" cy="132" r="3" fill="#FFFFFF" />
      <!-- Blush -->
      <ellipse cx="205" cy="150" rx="9" ry="5" fill="#FDA4AF" opacity="0.5" />
      <ellipse cx="295" cy="150" rx="9" ry="5" fill="#FDA4AF" opacity="0.5" />
      <!-- Bouche inquiète + Sueur -->
      <path d="M235 160 h30" stroke="#1E293B" stroke-width="9" stroke-linecap="round" />
      <path d="M305 100 Q315 135 L295 135" fill="#3B82F6" opacity="0.8" />
    
  </svg>