<svg viewBox="0 0 500 500" xmlns="http://www.w3.org/2000/svg">
    <path d="M 170 170 C 160 80, 340 80, 330 170 Z" fill="#CBD5E1" />
    <circle cx="250" cy="175" r="70" fill="#FED7AA" />
    <path d="M 175 185 C 175 290, 325 290, 325 185 C 300 290, 200 290, 175 185 Z" fill="#CBD5E1" stroke="#E2E8F0" stroke-width="2" />
    
    
      <!-- Sourcils froncés et yeux tristes arqués vers le bas -->
      <path d="M212 185 Q225 199 L238 185" stroke="#1E293B" stroke-width="8" stroke-linecap="round" fill="none" />
      <path d="M262 185 Q275 199 L288 185" stroke="#1E293B" stroke-width="8" stroke-linecap="round" fill="none" />

      <!-- Bouche tremblante triste -->
      <path d="M232 213 Q250 199 L268 213" stroke="#1E293B" stroke-width="7" stroke-linecap="round" fill="none" />
      <!-- Larmes d'eau coulantes texturées -->
      <path d="M224 189 v38 c0 6, 8 6, 8 0 v-38z" fill="#60A5FA" />
      <path d="M268 189 v38 c0 6, 8 6, 8 0 v-38z" fill="#60A5FA" />
    
  </svg>