<svg viewBox="0 0 100 100" xmlns="http://www.w3.org/2000/svg">
    
      <path d="M 33 30 C 32 10 68 10 67 30 Z" fill="#CBD5E1" />
    
    <circle cx="50" cx="50" cy="27" r="15" fill="#FED7AA" />
    
      <path d="M 35 32 C 35 55 65 55 65 32 Z" fill="#E2E8F0" />
    
    
      <!-- Sourcils inquiets -->
      <path d="M43 23 Q45 24 L47 22" stroke="#1E293B" stroke-width="1.2" stroke-linecap="round" fill="none" />
      <path d="M53 22 Q55 24 L57 23" stroke="#1E293B" stroke-width="1.2" stroke-linecap="round" fill="none" />
      <!-- Yeux écarquillés -->
      <circle cx="45" cy="27" r="2" fill="#1E293B" />
      <circle cx="44.4" cy="26.4" r="0.6" fill="#FFFFFF" />
      <circle cx="55" cy="27" r="2" fill="#1E293B" />
      <circle cx="54.4" cy="26.4" r="0.6" fill="#FFFFFF" />
      <!-- Blush discret -->
      <ellipse cx="41" cy="30" rx="1.8" ry="1" fill="#FDA4AF" opacity="0.5" />
      <ellipse cx="59" cy="30" rx="1.8" ry="1" fill="#FDA4AF" opacity="0.5" />
      <!-- Bouche inquiète et goutte de sueur -->
      <path d="M47 32 h6" stroke="#1E293B" stroke-width="1.8" stroke-linecap="round" />
      <path d="M61 20 Q63 27 L59 27" fill="#3B82F6" opacity="0.8" />
    
  </svg>