<svg viewBox="0 0 500 500" xmlns="http://www.w3.org/2000/svg">
    <path d="M 170 170 C 160 80, 340 80, 330 170 Z" fill="#CBD5E1" />
    <circle cx="250" cy="175" r="70" fill="#FED7AA" />
    <path d="M 175 185 C 175 290, 325 290, 325 185 C 300 290, 200 290, 175 185 Z" fill="#CBD5E1" stroke="#E2E8F0" stroke-width="2" />
    
    
      <!-- Yeux joyeux arqués expressifs -->
      <path d="M208 179 Q225 155 L242 179" stroke="#1E293B" stroke-width="9" stroke-linecap="round" fill="none" />
      <path d="M258 179 Q275 155 L292 179" stroke="#1E293B" stroke-width="9" stroke-linecap="round" fill="none" />

      <!-- Blush plus prononcé de joie -->
      <ellipse cx="205" cy="201" rx="20" ry="12" fill="#FDA4AF" opacity="0.75" />
      <ellipse cx="295" cy="201" rx="20" ry="12" fill="#FDA4AF" opacity="0.75" />

      <!-- Bouche de joie ouverte avec langue rose style Duolingo -->
      <path d="M234 203 Q250 235 L266 203 Z" fill="#EF4444" stroke="#1E293B" stroke-width="6" stroke-linejoin="round" />
      <path d="M242 221 Q250 211 L258 221 Q250 231 L242 221" fill="#F472B6" />
    
  </svg>