<svg viewBox="0 0 500 500" xmlns="http://www.w3.org/2000/svg">
    <!-- Ombre nette au sol -->
    <ellipse cx="250" cy="450" rx="90" ry="12" fill="#E2E8F0" />
    
      <!-- Jambes pliées vers l'extérieur -->
      <path d="M210 340 L180 395" fill="none" stroke="#FED7AA" stroke-width="20" stroke-linecap="round" />
      <path d="M160 390 h40 c5 0, 5 15, 0 15 h-40 z" fill="#451A03" transform="rotate(-15 160 390)" />
      <path d="M290 340 L320 395" fill="none" stroke="#FED7AA" stroke-width="20" stroke-linecap="round" />
      <path d="M300 390 h40 c5 0, 5 15, 0 15 h-40 z" fill="#451A03" transform="rotate(15 300 390)" />
      <!-- Bras levés en signe de victoire -->
      <path d="M140 220 Q90 145, 80 120" fill="none" stroke="#FED7AA" stroke-width="20" stroke-linecap="round" />
      <path d="M360 220 Q410 145, 420 120" fill="none" stroke="#FED7AA" stroke-width="20" stroke-linecap="round" />
    
    
      <rect x="145" y="200" width="210" height="150" rx="40" fill="#78350F" />
    
    
      <!-- Petite colombe plate mignonne -->
      <path d="M110 200 c5 -15, 25 -15, 30 0 v15 h-30z" fill="#FFFFFF" stroke="#1E293B" stroke-width="4" />
      <path d="M140 205 L155 195 L145 210 Z" fill="#FBBF24" /> <!-- Bec -->
      <circle cx="125" cy="205" r="2" fill="#1E293B" /> <!-- Oeil colombe -->
    
  </svg>