<svg viewBox="0 0 500 500" xmlns="http://www.w3.org/2000/svg">
    <path d="M 172 170 C 140 80, 360 80, 328 170 Z" fill="#EA580C" />
    <circle cx="250" cy="175" r="70" fill="#FDBA74" />
    
    <path d="M 195 125 L 210 90 L 235 110 L 250 85 L 265 110 L 290 90 L 305 125 Z" fill="#F59E0B" stroke="#1E293B" stroke-width="4" />
    
      <!-- Sourcils froncés et yeux tristes arqués vers le bas -->
      <path d="M212 185 Q225 199 L238 185" stroke="#1E293B" stroke-width="8" stroke-linecap="round" fill="none" />
      <path d="M262 185 Q275 199 L288 185" stroke="#1E293B" stroke-width="8" stroke-linecap="round" fill="none" />

      <!-- Bouche tremblante triste -->
      <path d="M232 213 Q250 199 L268 213" stroke="#1E293B" stroke-width="7" stroke-linecap="round" fill="none" />
      <!-- Larmes d'eau coulantes texturées -->
      <path d="M224 189 v38 c0 6, 8 6, 8 0 v-38z" fill="#60A5FA" />
      <path d="M268 189 v38 c0 6, 8 6, 8 0 v-38z" fill="#60A5FA" />
    
  </svg>