<svg viewBox="0 0 500 500" xmlns="http://www.w3.org/2000/svg">
    <path d="M 172 170 C 140 80, 360 80, 328 170 Z" fill="#EA580C" />
    <circle cx="250" cy="175" r="70" fill="#FDBA74" />
    
    <path d="M 195 125 L 210 90 L 235 110 L 250 85 L 265 110 L 290 90 L 305 125 Z" fill="#F59E0B" stroke="#1E293B" stroke-width="4" />
    
      <!-- Yeux joyeux arqués expressifs -->
      <path d="M208 179 Q225 155 L242 179" stroke="#1E293B" stroke-width="9" stroke-linecap="round" fill="none" />
      <path d="M258 179 Q275 155 L292 179" stroke="#1E293B" stroke-width="9" stroke-linecap="round" fill="none" />

      <!-- Blush plus prononcé de joie -->
      <ellipse cx="205" cy="201" rx="20" ry="12" fill="#FDA4AF" opacity="0.75" />
      <ellipse cx="295" cy="201" rx="20" ry="12" fill="#FDA4AF" opacity="0.75" />

      <!-- Bouche de joie ouverte avec langue rose style Duolingo -->
      <path d="M234 203 Q250 235 L266 203 Z" fill="#EF4444" stroke="#1E293B" stroke-width="6" stroke-linejoin="round" />
      <path d="M242 221 Q250 211 L258 221 Q250 231 L242 221" fill="#F472B6" />
    
  </svg>