<svg viewBox="0 0 500 500" xmlns="http://www.w3.org/2000/svg">
    <!-- Ombre de contact propre style Duolingo (le composant CharacterRenderer applique aussi son ombre de sol) -->
    <ellipse cx="250" cy="425" rx="85" ry="11" fill="#E2E8F0" />
    
      <!-- Jambes rentrées vers l'intérieur (tristesse) -->
      <path d="M 215 340 L 230 410" fill="none" stroke="#FDBA74" stroke-width="24" stroke-linecap="round" />
      <path d="M 285 340 L 270 410" fill="none" stroke="#FDBA74" stroke-width="24" stroke-linecap="round" />
      <path d="M 200 405 C 200 418, 240 418, 240 400 C 240 390, 215 390, 200 405 Z" fill="#64748B" />
      <path d="M 300 405 C 300 418, 260 418, 260 400 C 260 390, 285 390, 300 405 Z" fill="#64748B" />
      <!-- Bras repliés vers le corps (abattement) -->
      <path d="M 145 220 Q 120 280, 140 330" fill="none" stroke="#FDBA74" stroke-width="20" stroke-linecap="round" />
      <path d="M 355 220 Q 380 280, 360 330" fill="none" stroke="#FDBA74" stroke-width="20" stroke-linecap="round" />
    
    
      <!-- Tunique affaissée -->
      <path d="M 175 220 C 155 250, 135 320, 155 345 C 180 358, 320 358, 345 345 C 365 320, 345 250, 325 220 Z" fill="#E2E8F0" />
      <path d="M 155 345 C 180 358, 320 358, 345 345 C 335 315, 165 315, 155 345 Z" fill="#64748B" opacity="0.25" />
    
    
      <g id="harp" transform="translate(115, 255) rotate(12)">
        <path d="M 0 0 C 15 -10, 45 -5, 52 12 C 55 25, 42 68, 42 68 C 42 68, 15 65, 0 45 Z" fill="none" stroke="#F59E0B" stroke-width="7.5" />
        <!-- Barre centrale et cordes -->
        <line x1="0" y1="0" x2="42" y2="68" stroke="#F59E0B" stroke-width="7.5" />
        <line x1="12" y1="5" x2="12" y2="50" stroke="#D97706" stroke-width="2.5" />
        <line x1="22" y1="7" x2="22" y2="55" stroke="#D97706" stroke-width="2.5" />
        <line x1="32" y1="9" x2="32" y2="60" stroke="#D97706" stroke-width="2.5" />
      </g>
    
  </svg>