<svg viewBox="0 0 500 500" xmlns="http://www.w3.org/2000/svg">
    <!-- Ombre nette au sol -->
    <ellipse cx="250" cy="450" rx="90" ry="12" fill="#E2E8F0" />
    
      <!-- Jambes pliées vers l'extérieur -->
      <path d="M210 340 L180 395" fill="none" stroke="#FDBA74" stroke-width="20" stroke-linecap="round" />
      <path d="M160 390 h40 c5 0, 5 15, 0 15 h-40 z" fill="#64748B" transform="rotate(-15 160 390)" />
      <path d="M290 340 L320 395" fill="none" stroke="#FDBA74" stroke-width="20" stroke-linecap="round" />
      <path d="M300 390 h40 c5 0, 5 15, 0 15 h-40 z" fill="#64748B" transform="rotate(15 300 390)" />
      <!-- Bras levés en signe de victoire -->
      <path d="M140 220 Q90 145, 80 120" fill="none" stroke="#FDBA74" stroke-width="20" stroke-linecap="round" />
      <path d="M360 220 Q410 145, 420 120" fill="none" stroke="#FDBA74" stroke-width="20" stroke-linecap="round" />
    
    
      <rect x="145" y="200" width="210" height="150" rx="40" fill="#E2E8F0" />
    
    
      <g id="harp" transform="translate(120, 260) rotate(10)">
        <path d="M 0 0 L 50 10 L 40 70 C 10 70, 0 40, 0 0 Z" fill="none" stroke="#F59E0B" stroke-width="8" />
        <line x1="10" y1="5" x2="10" y2="65" stroke="#D97706" stroke-width="2" />
        <line x1="20" y1="7" x2="20" y2="65" stroke="#D97706" stroke-width="2" />
        <line x1="30" y1="9" x2="30" y2="65" stroke="#D97706" stroke-width="2" />
      </g>
    
  </svg>