<?xml version="1.0" encoding="UTF-8"?>
<!-- Generator: visioncortex VTracer 0.6.12 -->
<svg version="1.1" xmlns="http://www.w3.org/2000/svg" width="1024" height="1024">
<path d="M0 0 C337.9 0 675.8 0 1024 0 C1024 337.9 1024 675.8 1024 1024 C686.1 1024 348.2 1024 0 1024 C0 686.1 0 348.2 0 0 Z M516 92 C511.9 97.7 512.5 103.6 513.5 110.3 C513.7 111.2 513.8 112.1 514 113 C513.4 112.6 512.9 112.2 512.3 111.8 C497.3 101.6 480.6 96.6 463 93 C462.2 92.8 461.4 92.6 460.6 92.5 C438.5 88.6 415.5 92.3 396.8 104.4 C391.9 108.2 388.1 113.2 386 119 C385.3 124.3 385.6 129.7 386 135 C385 135.2 384 135.3 383 135.5 C356.2 140.3 329.6 148.8 312 171 C306 180.6 304.1 188.7 305 200 C306.6 206.3 309.3 211.5 314 216 C315.6 216.7 317.3 217.4 319 218 C318.3 218.8 317.6 219.7 316.9 220.6 C302.3 238.5 293.1 256.4 295 280 C297.1 291.7 302.8 301 311.9 308.5 C320.2 314.3 328.1 315.2 338 315 C338 315.8 337.9 316.6 337.9 317.5 C337.5 327.3 338.8 335.4 345.1 343.3 C352.9 351.4 362 354 373 355 C373 356.2 373.1 357.3 373.1 358.5 C373.9 383.5 379.6 404.8 398.2 422.6 C408 431 420.8 438.6 433.4 441.6 C433.9 441.7 434.5 441.9 435 442 C435.3 442.7 435.7 443.3 436 444 C435.7 444.1 435.7 444.1 434.2 444.7 C431.3 446.4 430.4 447.9 429 451 C428.8 454.8 428.8 454.8 429 458 C427.8 458 426.5 457.9 425.2 457.9 C422 457.9 419.8 458.1 417 460 C417.3 461.6 417.7 463.3 418 465 C421 465 423.9 465 427 465 C426.1 466 425.1 467.1 424.2 468.1 C420.8 472.1 418.3 475.7 417.6 481 C418.1 485 419.4 487 422 490 C425.2 491.4 425.2 491.4 428 492 C427.7 492.7 427.3 493.3 427 494 C426.8 495.4 426.7 496.9 426.6 498.4 C426.5 499.3 426.5 500.2 426.4 501.1 C426.3 502.1 426.2 503.1 426.2 504.1 C425.1 516.7 423.4 529.1 421.4 541.6 C421.3 542.1 421.3 542.1 420.8 544.9 C418.2 561.5 414.8 577.6 410 593.7 C408.3 599.3 406.8 604.8 405.2 610.4 C405.1 610.9 405.1 610.9 404.4 613.5 C402.4 620.5 400.5 627.6 398.8 634.7 C398.2 637 397.6 639.4 396.9 641.7 C395.5 646.9 395.3 651 397.2 656.2 C399.1 659.2 401.1 661 404 663 C402.9 670 401 676.6 398.8 683.4 C394.4 696.9 393.1 715.2 398.7 728.6 C401.5 733.9 404.6 739 408 744 C405.3 761.5 397.7 782.5 386 796 C375 808.7 372.2 823.3 369.2 839.3 C365 862.3 358 883 349 904.5 C348.4 905.9 347.8 907.3 347.2 908.8 C346.4 910.5 345.7 912.3 345 914 C343.9 917.2 343.6 919.6 344 923 C345.6 926 347.9 928.5 351 930 C353.2 930.2 353.2 930.2 355.9 930.3 C356.3 930.3 356.3 930.3 358.5 930.4 C361.9 929.8 362.8 928.7 365 926 C366.3 923.4 367.3 920.7 368.3 918 C368.6 917.2 368.9 916.4 369.2 915.6 C370.2 913 371.2 910.4 372.1 907.8 C373.5 904.2 374.8 900.7 376.2 897.1 C376.5 896.2 376.8 895.3 377.2 894.4 C379 889.5 380.9 884.7 383 879.9 C388.4 867.4 391.8 855.2 393.9 841.8 C395.8 830.4 399.4 820.7 405.8 811.1 C406.7 809.7 407.6 808.4 408.4 807 C408.7 806.7 408.7 806.7 409.8 805 C417.7 792.4 424.2 779 428.3 764.7 C430.2 758.1 430.2 758.1 432 755 C434.7 753.8 436.6 753.5 439.5 753.5 C442.4 752.9 442.8 752.3 444.7 750 C445.4 749 446.2 748 447 747 C447 747.6 447 747.6 447 750.5 C446.9 754.8 446.9 759.1 446.9 763.5 C446.9 765.3 446.9 767.2 446.8 769 C446.8 778.8 446.9 788.5 447.8 798.3 C447.9 798.7 447.9 798.7 448 800.6 C448.9 808.7 450.9 816.2 457 822 C463.5 826 463.5 826 467 826 C466.7 830.1 466.3 832.5 463.9 835.9 C461 840.7 462.4 844.2 463.6 849.4 C464 852.2 464.1 854.8 464 857.6 C463.9 860.9 464 862.9 465 866 C464.2 866.3 463.4 866.6 462.6 866.9 C460 868 460 868 459 869 C457.4 869.1 455.8 869.3 454.2 869.4 C447.8 870.4 442.4 872.9 436.6 875.8 C436.2 876 436.2 876 434 877.1 C422 883.3 422 883.3 420.1 888.3 C420.1 888.9 420 889.4 420 890 C419.4 890.1 418.9 890.1 418.3 890.2 C411.6 891.3 407.3 893.7 403 899 C400.3 904 398.5 909.3 398 915 C397.9 915.7 397.9 916.4 397.8 917.2 C397.6 921 397.8 923.6 399.3 927.2 C410.2 938.6 428.5 940.7 443.5 941.4 C457.1 941.7 470 940.8 483.4 938.2 C484.1 938.1 484.7 938 485.4 937.9 C495.1 936 504.5 933.6 514 931 C513.9 932.2 513.9 933.4 513.8 934.6 C513.8 938.8 514.6 941.5 517 945 C521.6 948.6 526 950.2 531.5 951.6 C532.3 951.8 533.1 952 533.9 952.3 C571.8 962 614.4 955 648.9 937 C653.1 934.3 656.4 931.8 658 927 C658.1 925.3 658.2 923.7 658.2 922 C658.2 921.1 658.2 920.3 658.2 919.4 C658 917 658 917 656 914 C655.8 911.8 655.7 909.5 655.7 907.3 C655.4 900.7 654 895.1 651.8 888.9 C650 883.5 649.4 878.4 649.4 872.7 C649 870 649 870 647 868.1 C645 866 645 866 644.5 862.6 C644.6 861.4 644.6 860.1 644.6 858.9 C644.6 857.6 644.7 856.4 644.7 855.1 C645 852 645 852 647 850 C647.5 846.6 647.5 843.4 647 840 C645 837.3 645 837.3 643 835 C642.4 831.4 642.4 831.4 643 828 C645.3 825.9 645.3 825.9 648 824 C652.2 817 652.2 809.5 650.5 801.7 C650.1 800 649.6 798.4 649.2 796.7 C645.8 783.6 645.4 771.1 645.7 757.6 C645.7 755.5 645.7 753.4 645.8 751.3 C645.8 746.2 645.9 741.1 646 736 C648 736 650 736.1 652 736.1 C654.7 736 656 735.1 657.9 733.2 C658.2 733 658.2 733 659.7 731.7 C661.2 729.8 661.6 728.4 662 726 C663.2 726.1 664.4 726.1 665.6 726.2 C671 726.2 675.1 724.6 679.3 721.1 C682.8 716.9 683.2 714.1 682.9 708.7 C682.7 701.6 682.7 701.6 685 698.4 C688 693.4 687.9 688.7 687 683 C685.7 679.7 684 676.9 682 674 C684.6 674.3 687.3 674.7 690 675 C690.3 673.4 690.7 671.7 691 670 C687.1 667.8 684.5 666.8 680 667 C680.3 666.4 680.6 665.8 680.9 665.1 C683.4 659.4 685.3 654.3 684 648 C681.9 643.3 679.8 640.1 675 638 C675.3 637.5 675.7 637 676 636.5 C677.4 632.9 677.7 629.7 677 626 C675.2 621.8 673.1 618.8 669.3 616.2 C667 614 667 614 666.5 611 C667.2 602 667.2 602 669.6 599 C671.4 597.5 671.4 597.5 673.3 596.3 C675.6 594.5 676.2 592.8 677 590 C677.2 587.2 677.2 587.2 677.2 584.4 C677.2 583.5 677.2 582.6 677.2 581.6 C677 579 677 579 676.3 576.9 C676.2 576.2 676.1 575.6 676 575 C678.4 571.9 678.4 571.9 681 569 C683 565 682.5 559.9 681.4 555.7 C680.4 553.1 679.3 550.5 678 548 C678.9 548.5 679.8 549 680.7 549.6 C684.2 551.1 685.4 551.1 689 550 C688.9 547.7 688.9 547.7 688 545 C684.3 542.6 682.4 542 678 542 C678.3 541.3 678.7 540.7 679 540 C679.5 534.5 679.4 531.3 676 527 C676.3 524.3 676.3 524.3 677 521 C677.6 515.7 677.5 512.2 674.4 507.8 C673 505.8 673 505.8 672 504 C672.7 501.1 672.7 501.1 674 498 C674.7 493.6 675.1 489.6 672.6 485.8 C671.5 484.5 670.3 483.1 669.2 481.8 C668 480 668 480 668.6 476.6 C669 475.8 669.5 474.9 670 474 C672 470 671.5 465.3 671 461 C668.8 455.3 664.9 451.5 660 448 C659.3 448 658.7 448 658 448 C658.3 447 658.7 446 659 445 C659.7 440.8 659.9 437.4 657.5 433.7 C653 428.5 653 428.5 650 427 C648.5 426.9 646.9 426.9 645.4 426.9 C645 426.9 645 426.9 642.9 427 C642.3 427 641.6 427 641 427 C641 425.9 641.1 424.9 641.1 423.8 C641 420.3 640.5 418.2 639 415 C640.6 414.3 642.3 413.7 644 413 C643.7 411.4 643.3 409.7 643 408 C636.4 408.9 636.4 408.9 633.8 409.6 C632 410 632 410 630.3 409.5 C627.3 408.8 624.4 408.9 621.2 408.9 C620.7 408.9 620.7 408.9 617.7 409 C616.8 409 615.9 409 615 409 C614.8 408.2 614.5 407.5 614.3 406.7 C612.8 403.5 611.5 402.6 608.5 400.8 C607.7 400.2 606.9 399.7 606.1 399.2 C601.2 396.3 596.7 396.4 591 397 C588.6 397.9 586.3 399.1 584 400.2 C582 401 582 401 578.4 400.2 C577.6 399.8 576.8 399.4 576 399 C576.7 397.7 577.3 396.4 578 395 C578.5 395 578.5 395 580.9 395.1 C593 395.4 602.5 394 612 386 C614.6 383.1 616 381 616 377 C616.5 377.2 616.5 377.2 619.3 378.5 C626.2 381 633.1 381.1 639.8 378.2 C641.2 377.5 642.6 376.8 644 376 C644.5 375.7 644.5 375.7 647.2 374.2 C654.4 368.5 658.2 360.9 660 352 C660.4 344.8 660.6 337.8 658 331 C658.9 331.1 659.9 331.2 660.8 331.2 C669 331.2 676.4 327.5 682.3 321.9 C690.8 312.4 691.6 302.4 691 290 C689.8 276.3 680.6 263.3 671 254 C671.3 253.8 671.3 253.8 673 252.9 C679.9 248.9 684.3 245.7 687 238 C688.2 230 686.6 223.6 682 217 C675.9 210.2 667.8 206.7 659 205 C655.5 204.9 655.5 204.9 653 205 C653.3 204.5 653.5 204 653.8 203.5 C654.2 202.8 654.5 202.1 654.9 201.4 C655.2 200.8 655.6 200.1 655.9 199.4 C660 190.1 661 178.3 657.5 168.6 C654.9 163.1 651.1 158.5 647 154 C646.4 153.4 645.8 152.7 645.2 152.1 C633.4 140.5 615.9 137.1 600 136 C600.5 135.6 601 135.1 601.5 134.6 C606 130.3 608.6 127.4 609.4 121.1 C608.8 116.5 606.4 113.8 603.6 110.2 C598.8 106.6 592.8 106.3 587 107 C579.4 109 573.9 113 568 118 C566.7 119 565.3 120 564 121 C563.8 119.8 563.6 118.5 563.4 117.2 C561.1 106.8 554 96.1 544.9 90.2 C535.2 84.3 524.2 83 516 92 Z " fill="#FEFEFE" transform="translate(0,0)"/>
<path d="M0 0 C7.9 3.8 13.4 8.5 17.9 15.9 C18.3 16.5 18.7 17.1 19.1 17.7 C22.3 22.9 25.2 27.8 25.2 34 C25.8 33.5 26.4 33 27 32.5 C36.1 25 45.1 19 57.2 20 C63.1 21.8 65.7 24.2 69.2 29 C71 32.6 70.3 36.3 69.2 40 C67.2 43 64.8 45.5 62.2 48 C61.9 48.4 61.6 48.7 61.2 49 C61.8 49.1 62.4 49.2 62.9 49.2 C84.3 51.7 84.3 51.7 94.2 57 C94.7 57.3 94.7 57.3 96.9 58.5 C105.9 63.5 112 70.1 117.2 79 C117.4 79.3 117.4 79.3 118.2 80.8 C122.3 89.5 121.2 101.1 118.3 109.9 C117.2 113 116.1 115.3 114.2 118 C114.8 118.1 115.4 118.1 116 118.1 C126 118.8 135 122 142.2 129 C147.6 136.1 149 142.2 148.2 151 C146.4 157.8 142 161.5 136.2 165 C134.9 165.7 133.6 166.4 132.2 167 C132.8 167.6 133.3 168.2 133.9 168.8 C146.3 182 152.6 195.4 152.4 213.5 C151.8 223.9 147.6 230.5 140.5 237.8 C134.5 242.5 126.7 244.7 119.2 244 C119.5 244.9 119.9 245.8 120.2 246.7 C123.1 256.9 121.9 268.3 116.9 277.5 C111.9 285.3 105.3 290.9 96.2 293 C89.1 293.7 83.7 293 77.2 290 C77.1 290.6 77 291.2 76.8 291.8 C75.4 296.9 72.8 300.1 68.4 302.8 C59.8 307.2 51.7 309.8 42.2 307 C41.2 306.7 40.2 306.4 39.2 306 C38.7 306.7 38.3 307.3 37.8 308 C36.2 310 36.2 310 35.2 311 C35.5 312 35.9 313 36.2 314 C34.2 317 34.2 317 32 317.8 C28.5 319.4 26.5 321.6 23.9 324.3 C21.8 326.4 19.7 328.3 17.2 330 C16.2 330 15.2 330 14.2 330 C13.9 330.7 13.6 331.4 13.2 332 C12.6 332 11.9 332 11.2 332 C11.2 332.7 11.2 333.4 11.2 334 C8.9 335.6 6.6 337 4.1 338.4 C3.5 338.8 2.8 339.2 2.2 339.6 C0.8 340.4 -0.5 341.1 -1.8 341.9 C-3.1 342.7 -4.4 343.4 -5.7 344.2 C-9.1 346.2 -12.4 347.8 -16.1 349 C-19.7 350.3 -23.3 351.7 -26.9 353.2 C-34.1 356.1 -41.1 357.3 -49 357 C-50.8 357 -50.8 357 -52.8 358 C-54.2 358.2 -55.6 358.2 -57.1 358.3 C-57.9 358.3 -58.8 358.3 -59.7 358.3 C-60.2 358.3 -60.2 358.3 -62.6 358.4 C-63.6 358.4 -64.6 358.4 -65.6 358.4 C-68.7 358.5 -71.8 358.6 -74.9 358.6 C-77 358.7 -79.1 358.7 -81.2 358.7 C-86.4 358.8 -91.6 358.9 -96.8 359 C-96.5 358.1 -96.1 357.1 -95.8 356 C-97.8 356 -99.7 356 -101.8 356 C-101.8 355.4 -101.8 354.7 -101.8 354 C-103.1 354 -104.4 353.9 -105.8 353.8 C-110.7 353.2 -114.7 351.7 -119.1 349.5 C-119.8 349.2 -120.6 348.8 -121.3 348.5 C-139.4 339.4 -154.2 324.8 -160.7 305.4 C-164.5 293 -165.3 280.9 -165.8 268 C-166.6 268 -167.4 267.9 -168.2 267.8 C-179.2 266.5 -188.4 263.2 -195.4 254.3 C-200.7 245.9 -201.3 237.8 -200.8 228 C-201.4 228.1 -202 228.1 -202.6 228.2 C-214.1 228.5 -223.3 225.1 -231.7 217.2 C-241.7 206.6 -244.4 194.4 -244 180.3 C-243.2 162.7 -233.6 148.2 -222.8 135 C-221.8 133.7 -220.8 132.4 -219.8 131 C-220.5 130.9 -221.2 130.7 -221.9 130.5 C-227.6 127.6 -231.3 121.4 -233.3 115.4 C-235.4 105.2 -233.8 95.8 -228.6 87 C-227.1 84.9 -225.5 83 -223.8 81 C-223 80.2 -222.2 79.3 -221.4 78.4 C-203.7 59.7 -177.9 51 -152.8 48 C-152.8 47.5 -152.8 47.5 -153 44.9 C-153.4 35.8 -153.1 29.1 -146.8 22 C-133.1 8.1 -114.1 4.8 -95.4 4.5 C-70.6 4.6 -45.1 11.4 -24.8 26 C-25 25.2 -25.1 24.4 -25.3 23.6 C-26.3 16.3 -26.7 11 -22.3 4.8 C-16.4 -2.2 -8.4 -2.9 0 0 Z M-141.4 26.5 C-146.3 32.7 -147.1 37 -146.3 44.7 C-145.8 47.1 -144.9 48.9 -143.8 51 C-143.8 52 -143.8 53 -143.8 54 C-144.3 54.1 -144.9 54.2 -145.5 54.3 C-173 57.8 -202.4 64.5 -220.7 87.4 C-226.4 95.6 -227.7 103.1 -226.8 113 C-225.1 119.3 -221.1 123.4 -215.8 127 C-214.5 127.7 -213.1 128.4 -211.8 129 C-212.3 133.4 -213.6 135.3 -216.7 138.4 C-229.3 151.9 -237.6 167.9 -237.3 186.6 C-236.9 195.4 -234.3 203.1 -228.8 210 C-227.8 210.7 -226.8 211.4 -225.8 212 C-226 211.2 -226.2 210.4 -226.4 209.5 C-230.9 190.9 -228.8 175.5 -219.6 158.8 C-213.7 149.4 -206.9 140.1 -198.2 133.3 C-197.7 132.9 -197.3 132.5 -196.8 132 C-196.8 131.4 -196.8 130.7 -196.8 130 C-196.1 129.7 -196.1 129.7 -192.8 128 C-192.8 127.4 -192.8 126.7 -192.8 126 C-193.4 125.9 -193.4 125.9 -196.4 125.3 C-201.5 124 -205.2 121.9 -208.7 117.9 C-211 111.8 -210.4 105.9 -208.2 99.9 C-201.1 84.3 -184 77.3 -168.9 71.5 C-155.5 66.8 -142 64.7 -127.8 64 C-127.9 63.8 -127.9 63.8 -128.2 62.4 C-130.2 54.3 -131.3 47.3 -127 39.8 C-120 29.3 -108.5 25.2 -96.7 22.6 C-75.3 19.2 -52.2 24.6 -32.5 32.8 C-30.6 33.6 -28.7 34.3 -26.8 35 C-26.5 34.9 -26.5 34.9 -24.8 34 C-54.7 13.8 -112.3 -4.5 -141.4 26.5 Z M-129.2 126 C-138.5 136.7 -142.4 145 -141.6 159.3 C-141.2 172.5 -143.6 180.6 -152.6 190.6 C-160.2 197.4 -167.2 199.9 -177.5 199.6 C-181.5 198.9 -184.1 197.6 -187.3 195.1 C-188.8 194 -188.8 194 -190.8 194 C-191.5 192.7 -192.1 191.4 -192.8 190 C-193.3 189.1 -193.9 188.1 -194.4 187.2 C-197.1 180.9 -196.9 172.8 -195 166.3 C-194 164.2 -192.9 162.1 -191.8 160 C-190.5 157.1 -190.5 157.1 -189.8 155 C-190.1 154.4 -190.4 153.7 -190.8 153 C-193.1 153.2 -193.1 153.2 -195.8 154 C-197.6 156.2 -197.6 156.2 -199 158.9 C-199.5 159.8 -200 160.7 -200.6 161.6 C-204.2 168.9 -203.8 178.5 -202.1 186.3 C-199.1 194.9 -195.1 199.8 -187.1 204 C-182.3 206.2 -178 207.4 -172.8 207 C-172.9 208.1 -173 209.1 -173 210.1 C-173 219.1 -169.4 228 -166.8 236.6 C-166.5 237.7 -166.1 238.9 -165.7 240.1 C-165 242.4 -164.3 244.7 -163.6 247.1 C-160.3 258 -158.6 268.6 -158.4 279.9 C-157.6 301.6 -149.3 318.4 -133.6 333.1 C-122.4 342.6 -107.9 347.7 -93.8 351 C-93.4 351.1 -93.4 351.1 -91.6 351.6 C-84.1 353.3 -76.8 353.4 -69.2 353.4 C-68.5 353.4 -67.8 353.4 -67.1 353.4 C-32.2 353.2 -1.4 338.1 24.2 315 C24.9 314.4 25.6 313.8 26.3 313.2 C42.8 297.6 51 277.6 56.2 256 C57.1 256.2 57.9 256.4 58.8 256.5 C67.7 257.9 76.7 258.7 84.4 253.5 C91.7 247.7 97.5 240.4 99.2 231 C100.2 221.4 100.4 212 94.2 204 C89.2 198.7 84.8 195.3 77.3 194.8 C73.4 194.9 70 195.8 66.2 197 C65.6 194.7 64.9 192.4 64.2 190 C62.6 190 60.9 190 59.2 190 C59.2 190.3 59.2 190.3 59.2 191.8 C58.4 217.6 58.4 217.6 52.9 225.2 C50.2 227 50.2 227 47.2 227.7 C43.1 226.8 41.8 225.3 39.2 222 C33.5 212.3 32.6 201 34.8 190 C36.6 184.6 36.6 184.6 38.2 183 C38.3 181.4 38.3 179.7 38.2 178 C37.2 177.7 36.2 177.4 35.2 177 C34.9 177.2 34.9 177.2 33.2 178 C33.2 178.7 33.2 179.4 33.2 180 C31.9 180.7 30.5 181.4 29.2 182 C28.4 182.6 27.5 183.1 26.6 183.7 C20.9 186 15.4 186 9.5 184.2 C0.7 180.3 -3.1 174.4 -6.5 165.6 C-8.7 159.3 -9.6 153.2 -10.1 146.6 C-10.5 141.4 -10.5 141.4 -12.3 139.1 C-12.6 138.9 -12.6 138.9 -13.8 138 C-15.6 138.6 -15.6 138.6 -17.8 140 C-18.7 142.5 -19.5 144.7 -20.2 147.2 C-22.9 156.2 -27.1 162.5 -34.8 168 C-40.2 170.5 -45 170.9 -50.8 170 C-55.1 168.5 -58.9 166.4 -62.8 164 C-63.1 163.9 -63.1 163.9 -64.9 162.9 C-69.6 159.9 -72.2 155.8 -75 151.1 C-76.8 149 -76.8 149 -79.5 148.8 C-80.3 148.9 -81 148.9 -81.8 149 C-82.9 152.4 -82.6 154.1 -81.4 157.3 C-78.7 165.5 -78.1 176 -81.4 184.2 C-84.3 189.6 -88.4 193 -94 195.5 C-103.4 196.9 -111 195.6 -118.8 190 C-119.4 189.6 -120 189.2 -120.7 188.7 C-128.4 182.8 -133.2 173.6 -134.8 164 C-135.9 151.9 -133.9 142.3 -126.3 132.7 C-124.8 131 -124.8 131 -123.1 129.5 C-122.7 129 -122.2 128.5 -121.8 128 C-122.1 125.9 -122.1 125.9 -122.8 124 C-126.8 124 -126.8 124 -129.2 126 Z " fill="#622512" transform="translate(538.7890625,86.953125)"/>
<path d="M0 0 C0.7 0 1.3 0 2 0 C3.2 1.9 4.3 3.8 5.3 5.7 C7.8 10.1 10.1 13.7 14 17 C14.4 17.4 14.4 17.4 16.3 19.1 C19.7 21.5 23.1 22.8 27 24 C27.6 24.2 28.2 24.4 28.8 24.6 C32.1 25.2 35.4 25.1 38.8 25.1 C39.4 25.1 40.1 25.1 40.9 25 C42.6 25 44.3 25 46 25 C46.2 25.7 46.3 26.5 46.5 27.2 C51.4 48.4 51.4 48.4 59 54 C62.6 55.8 66 56.3 70 56 C74.8 54.4 77.4 52.3 80 48 C84.1 38.8 84.7 29.9 85 20 C91.2 17.3 96.4 15.6 103 17.6 C109.8 20.6 114.3 25.7 117.7 32.2 C119.2 36.5 119.5 39.8 119.4 44.2 C119.4 44.6 119.4 44.6 119.4 46.5 C119.1 56.2 116.1 65.2 109 72 C102.5 76.6 97.7 79.1 89.8 79.1 C88.4 79.1 87.1 79.1 85.8 79.1 C82.4 79 79.3 78.6 76 78 C75.9 78.6 75.7 79.1 75.6 79.7 C67 112.9 48.5 138.3 19 156.1 C-2.2 168.4 -24.2 175.4 -48.8 175.3 C-49.5 175.3 -50.1 175.3 -50.8 175.3 C-60.6 175.2 -69.6 174.9 -79 172 C-79.7 171.8 -80.5 171.5 -81.2 171.3 C-102.2 164.6 -120.5 154.3 -131 134 C-135.7 123.6 -138.2 113.9 -138.4 102.5 C-139.1 86.1 -142.9 71.4 -148 55.9 C-148.1 55.3 -148.1 55.3 -149.1 52.2 C-149.5 51.2 -149.9 50.1 -150.2 49 C-151 46.2 -151.2 43.9 -151 41 C-150.3 40.9 -149.5 40.7 -148.8 40.6 C-136.9 37.9 -126.8 33.6 -119 24 C-118 22.4 -117 20.7 -116 19 C-115.3 19 -114.7 19 -114 19 C-113.7 19.4 -113.7 19.4 -112.2 21.2 C-106.8 27.9 -97.6 33.7 -89 35 C-79.1 35.9 -69.9 36 -61 31 C-60.7 31.7 -60.4 32.4 -60 33.2 C-59.6 34.1 -59.2 35 -58.8 35.9 C-58.3 36.9 -57.9 37.8 -57.5 38.7 C-56 41 -56 41 -53.8 41.8 C-53.2 41.9 -52.6 41.9 -52 42 C-52.6 39 -53.3 37.6 -55 35 C-55.7 29.9 -55.7 29.9 -55 27 C-52.2 24.6 -52.2 24.6 -50.6 23.5 C-46.3 19.5 -45 12.6 -44 7 C-40.9 7.5 -38.5 8.2 -35.6 9.6 C-28 12.5 -19 12.1 -11.4 9.3 C-7.4 7.5 -4.9 5.3 -2 2 C-1.3 2 -0.7 2 0 2 C0 1.3 0 0.7 0 0 Z M-48 23.1 C-49.6 26.2 -49.4 28.5 -49 32 C-45.7 38.3 -38.5 40.6 -32.2 43.1 C-28.1 44.3 -24.2 44.3 -19.9 44.3 C-19.5 44.3 -19.5 44.3 -17.3 44.3 C-9.5 44.2 -1.7 43.4 5 39 C5.2 36.4 5.2 36.4 5 34 C3.4 32.4 1.7 32.7 -0.5 32.6 C-12.8 31.7 -22.9 30.6 -33.7 24.2 C-38.4 21.5 -42.9 20.4 -48 23.1 Z M88.4 39 C84.6 44.7 83.9 49.5 83.9 56.3 C83.9 57.4 84 58.4 84 59.6 C84 60.4 84 61.2 84 62 C85.7 62.4 87.3 62.7 89 63 C90.6 61.4 90.2 59.3 90.3 57 C90.9 50.2 92.5 44.6 97.3 39.6 C100.5 37.7 103.4 36.9 107 36 C106.7 34.4 106.3 32.7 106 31 C98 30.1 93.4 32.7 88.4 39 Z M-108.8 33.7 C-109 34.1 -109 34.1 -110.4 36 C-111 36.8 -111.6 37.6 -112.2 38.5 C-112.8 39.3 -113.4 40.1 -114 41 C-120.2 49.2 -127.8 53.7 -137 58 C-136.1 62.9 -136.1 62.9 -135 64 C-123.8 64.9 -113.6 61.1 -105 54 C-101.5 50.5 -98.1 46.9 -97 42 C-97.2 35.9 -97.2 35.9 -99.8 33.1 C-103.2 31.4 -105.9 30.9 -108.8 33.7 Z M7.9 60.8 C7.2 61.6 6.4 62.4 5.7 63.2 C-1.3 70.5 -7.1 73.1 -17.2 73.4 C-23.1 73.5 -27.2 72.6 -32.1 69 C-34.7 67.6 -36.2 68.2 -39 69 C-39.8 71.1 -39.8 71.1 -40 74 C-36.1 80.4 -29.7 83.8 -22.5 85.6 C-16.7 86.5 -10.6 86.5 -5 85 C-5 85.3 -5 85.7 -5 86 C-1.4 86.3 2.3 86.7 6 87 C5.2 87.2 4.3 87.4 3.4 87.6 C-4 89.7 -10.1 91.8 -15 98 C-16.4 101.6 -16.3 103.1 -15.1 106.6 C-11.4 110.8 -6.8 112.7 -1.3 113.3 C5.2 113.5 12.1 112.9 18 110 C19.3 110.1 20.6 110.2 21.9 110.2 C25.1 110.3 25.8 110.1 28.5 108.2 C30.7 103.5 31 99.1 30 94 C28.3 91.2 26.7 90 24 88 C23.3 88 22.7 88 22 88 C21.9 87.5 21.9 87.5 21.6 84.8 C21.4 83.4 21.2 82 21.1 80.6 C21 80.3 21 80.3 20.8 78.5 C20.1 73.2 20.1 73.2 19 71 C17.4 70.3 15.7 69.6 14 69 C14.7 68 15.3 67 16 66 C16.2 63.4 16.2 63.4 16 61 C15.3 60.3 14.7 59.7 14 59 C10 59 10 59 7.9 60.8 Z M-91 76 C-95 80.2 -95 80.2 -95 83 C-101.6 86.6 -108.4 89.6 -116 88 C-119 86.6 -121.7 85 -124.5 83.2 C-127 82 -127 82 -129.3 82.3 C-129.9 82.5 -130.4 82.8 -131 83 C-131.9 86.7 -132.3 88.4 -130.6 91.9 C-130 92.6 -129.5 93.3 -129 94 C-130 94.3 -131 94.7 -132 95 C-133.4 97.8 -133.4 97.8 -134 101 C-132.8 103.2 -132.8 103.2 -131 105 C-124.8 106.3 -116.9 105 -111 103 C-110.5 102.5 -110 102 -109.5 101.5 C-107.5 99.5 -106.1 99.5 -103.3 99.2 C-96.7 98 -92.3 95.2 -88.4 89.8 C-86 85.7 -84.5 82.8 -85 78 C-85.7 77.3 -86.3 76.7 -87 76 C-88.3 76 -89.6 76 -91 76 Z M-71 79 C-72 80 -72 80 -72.1 81.8 C-72.1 82.6 -72.1 83.3 -72.1 84.1 C-72 85.4 -72 86.7 -72 88 C-72.5 88.1 -73.1 88.1 -73.6 88.2 C-77.7 89.6 -80.8 92.4 -83.4 95.9 C-84.7 100.3 -84.4 103.9 -82.9 108.2 C-80.5 111.8 -78.9 113.2 -75 115 C-68.5 115.8 -63.4 115.9 -58 112 C-56.6 109.9 -56.6 109.9 -56 108 C-56.3 107.3 -56.7 106.7 -57 106 C-57.6 106.1 -58.2 106.3 -58.8 106.4 C-59.5 106.6 -60.2 106.8 -61 107 C-61.6 107.2 -62.2 107.4 -62.8 107.6 C-67.2 108.4 -71.7 108.4 -76 107 C-76.5 99.7 -76.5 99.7 -74.4 96.8 C-72 95 -72 95 -68.8 93.3 C-66 91 -66 91 -65.5 88.9 C-65.5 84.6 -65.6 82.6 -68 79 C-69 79 -70 79 -71 79 Z M24 119 C23.4 120.4 22.7 121.8 22.1 123.2 C21.7 124 21.3 124.8 21 125.6 C18.9 130.7 18.5 135.5 19 141 C20.1 143.6 20.1 143.6 22 145 C25.9 145.8 27.5 145.3 30.9 143.2 C33.9 138.6 33.8 134.3 33 129 C32.3 128 31.7 127 31 126 C30.3 126 29.7 126 29 126 C28.9 125.4 28.7 124.8 28.6 124.2 C28.1 122.4 27.6 120.7 27 119 C26 119 25 119 24 119 Z M-67 133 C-67.6 133.4 -68.3 133.8 -68.9 134.2 C-71.9 136.4 -72.9 137.8 -73.9 141.3 C-73.9 142.2 -74 143.1 -74 144 C-71.8 144.8 -71.8 144.8 -69 145 C-66.6 142.8 -66.6 142.8 -64 140 C-56.5 134.9 -49.9 134.2 -41 135 C-36.2 136.3 -32.1 138.2 -28 141 C-25.3 140.6 -25.3 140.6 -23 140 C-23.1 137.7 -23.1 137.7 -24 135 C-26.6 133.2 -26.6 133.2 -29.9 131.8 C-30.9 131.2 -32 130.7 -33.1 130.2 C-43.8 125.7 -57.5 126.2 -67 133 Z " fill="#F69B73" transform="translate(519,265)"/>
<path d="M0 0 C1 0 2 0 3 0 C7 5.3 7 5.3 7 8 C7.5 8.2 8.1 8.5 8.6 8.8 C11.6 10.3 14.3 12.1 17 14 C16.7 15.3 16.3 16.6 16 18 C10.4 18.2 10.4 18.2 7 16 C6.3 16.3 5.7 16.7 5 17 C4.7 15 4.3 13 4 11 C2.4 12 0.7 13 -1 14 C-0.8 14.6 -0.6 15.1 -0.4 15.7 C11.8 55.1 13.6 111.2 -5 149 C-22.1 176.1 -59.5 187.2 -88.9 193.9 C-100.9 196.2 -100.9 196.2 -106.1 193.1 C-117.7 182 -124 162.5 -124.4 146.8 C-124.4 135.2 -124.4 135.2 -122 130 C-118.9 127.1 -116 126.3 -111.9 125.4 C-110.7 125.2 -109.5 124.9 -108.2 124.6 C-107 124.3 -105.7 124 -104.4 123.8 C-92.8 121.1 -81.9 117.9 -71 113 C-70 112.6 -69.1 112.2 -68.1 111.8 C-64.7 110.3 -62.6 109.1 -60.8 105.7 C-58.5 99 -56.9 92.5 -55.8 85.5 C-55.7 85 -55.7 85 -55.3 82.4 C-54.1 74.9 -53.5 67.5 -53.4 60 C-53.3 55.5 -52.9 52.5 -50 49 C-48 47.8 -48 47.8 -45.9 47 C-42.2 45.3 -42.2 45.3 -40.5 42.2 C-40.3 41.5 -40.2 40.8 -40 40 C-40.3 40 -40.7 40 -41 40 C-41.3 40.6 -41.5 41.2 -41.8 41.8 C-43 44.1 -44 45.4 -46 47 C-48.4 47.5 -48.4 47.5 -51.1 47.7 C-51.9 47.8 -52.8 47.8 -53.7 47.9 C-55.1 48 -56.6 48 -58 48 C-58 50.6 -58 53.3 -58 56 C-58.3 56 -58.7 56 -59 56 C-59 53.7 -59 51.4 -59 49 C-60.3 48.7 -61.6 48.3 -63 48 C-62.7 46.4 -62.3 44.7 -62 43 C-61.6 42.9 -61.6 42.9 -59.5 42.6 C-58.4 42.4 -57.3 42.2 -56.2 42.1 C-55.1 41.9 -54 41.7 -52.9 41.5 C-50 41 -50 41 -47 40 C-47.9 36.9 -48.7 34.4 -50.6 31.9 C-52 30 -52 30 -52 26 C-49 26 -46.1 26 -43 26 C-43.2 25.4 -43.3 24.7 -43.5 24.1 C-43.6 23.7 -43.6 23.7 -44.1 21.6 C-44.2 21.2 -44.2 21.2 -44.8 19.2 C-44.8 18.8 -44.8 18.8 -45 17 C-44.3 16.3 -43.7 15.7 -43 15 C-40.7 15.3 -38.9 16 -36.8 17.1 C-32.9 18.4 -29.1 18.2 -25 18 C-23.6 15.3 -23.7 12.9 -23.4 9.9 C-23.4 9.3 -23.4 9.3 -23.2 6.6 C-23.1 5.7 -23.1 4.9 -23 4 C-21.3 3.3 -21.3 3.3 -19 3 C-16.9 4.4 -16.9 4.4 -14.6 6.4 C-10.4 9.9 -10.4 9.9 -6.4 10.4 C-5.6 10.3 -4.8 10.1 -4 10 C-3.8 9.4 -3.6 8.7 -3.4 8.1 C-3.1 7.2 -2.8 6.4 -2.6 5.6 C-2.3 4.7 -2 3.9 -1.8 3.1 C-1 1 -1 1 0 0 Z " fill="#335856" transform="translate(636,459)"/>
<path d="M0 0 C3.7 0.2 5.5 0.4 8.1 3.1 C10 5 10 5 12.3 5 C15 4 15 4 18.1 1.9 C22.8 -0.9 27.7 -0.8 33 0 C38.4 2.5 40.5 5.8 43 11 C43 11.7 43 12.3 43 13 C43.4 12.8 43.4 12.8 45.5 12 C49.7 10.8 52.7 10.7 57 11 C58 11.7 59 12.3 60 13 C60 14 60 15 60 16 C61.6 16.3 63.3 16.7 65 17 C65.3 21 65.7 24.9 66 29 C66.9 29 66.9 29 71.2 28.8 C75.6 28.8 78.5 29 82 32 C83 33 83 33 83.1 34.9 C83.1 39.1 83 42.9 82 47 C82.5 47.2 83 47.4 83.6 47.7 C88.6 50 92.1 52.1 95 57 C95.9 62.5 95.9 66.6 92.9 71.4 C92.3 72.2 91.7 73.1 91 74 C91.3 79.2 94 81.4 97.5 84.9 C99.4 87.5 99.4 88.9 99 92 C97.7 93.3 96.3 94.7 95 96 C94.4 98.4 94.4 98.4 95 101 C97.4 103.6 97.4 103.6 100 106 C101.3 110 101.4 113.8 101 118 C99.6 120.3 99.6 120.3 98 122 C97.3 123.3 96.6 124.6 96 126 C95.8 125.6 95.8 125.6 94.8 123.7 C92.8 120.8 91.1 119.6 88 118 C88.2 117.4 88.3 116.8 88.5 116.1 C89.4 110.2 90.2 103.3 87 98 C86.3 97.6 85.6 97.2 84.9 96.8 C83 95 83 95 82.7 91.8 C82.7 90.6 82.8 89.3 82.9 88.1 C83.3 80.2 83.3 80.2 81 77 C80.3 76.7 79.7 76.3 79 76 C79 75.3 79 74.7 79 74 C80.3 73.3 81.6 72.7 83 72 C82.7 70.1 82.7 70.1 82 68 C80.3 66.7 80.3 66.7 78.2 65.6 C74.1 63.3 72.2 61.1 70 57 C70 56.3 70 55.7 70 55 C68.2 55.5 68.2 55.5 66 57 C65.3 58.9 65.3 58.9 64.6 61.1 C63.3 64.8 63.3 64.8 60.4 66.4 C55.8 65.8 53.5 63.6 50.1 60.6 C48 59 48 59 44 59 C44 59.8 44 60.7 44.1 61.5 C44.1 62.6 44.1 63.7 44.1 64.8 C44.1 65.9 44.2 67 44.2 68.1 C44 71 44 71 42 74 C36.3 75.2 32 73.7 27 71 C25.7 71.3 24.4 71.7 23 72 C23.2 73.5 23.2 73.5 24 81 C21 81 18.1 81 15 81 C16.4 84.5 17.7 87.6 19.8 90.8 C20.2 91.5 20.6 92.2 21 93 C20.8 93.5 20.8 93.5 20 96 C15.1 97.8 10.2 98.5 5 99 C5 100.3 5 101.6 5 103 C5.5 103.2 5.5 103.2 8 104 C8.5 113.3 7.7 122.4 6.7 131.6 C6.6 132.8 6.5 133.9 6.3 135.1 C4 156 4 156 -2 161 C-11.7 166.1 -22.1 169 -32.6 171.7 C-34.6 172.2 -36.5 172.7 -38.4 173.2 C-40.3 173.7 -42.3 174.2 -44.2 174.6 C-50 176.2 -55.3 178 -60 182 C-61.4 184.5 -61.4 184.5 -62 186.8 C-62.2 187.6 -62.4 188.4 -62.6 189.2 C-62.7 189.5 -62.7 189.5 -63 191 C-64.3 191 -65.6 191 -67 191 C-67.2 186.6 -67.1 183.8 -65 180 C-64.9 177.2 -64.9 177.2 -65 175 C-65.7 175 -66.3 175 -67 175 C-69.1 171.6 -69.6 169 -69 165 C-67.4 163.3 -65.7 161.6 -64 160 C-62.9 157.5 -62.9 157.5 -63 155 C-63.6 154.2 -64.3 153.4 -64.9 152.6 C-67 150 -67 150 -67.5 146.6 C-66.8 141.5 -64.7 138.5 -60.9 135.2 C-59 134 -59 134 -56 133 C-56.9 127.2 -56.9 127.2 -58 125 C-59.2 113.7 -59.2 113.7 -56 109.5 C-52.4 106.5 -47.9 103 -43 103 C-43.3 102.5 -43.6 102 -43.9 101.5 C-46.7 96.4 -47.8 92.9 -47 87 C-44.1 82.6 -40.9 80.6 -36.2 78.2 C-35.1 77.6 -33.9 77 -32.7 76.4 C-31.8 75.9 -30.9 75.5 -30 75 C-30.6 72.4 -31.2 70.6 -32.6 68.1 C-34.2 64.6 -34.6 62.8 -34 59 C-31.9 55.7 -31.9 55.7 -29 53 C-25.2 52.1 -25.2 52.1 -22 52 C-22.2 51.4 -22.2 51.4 -23 48.6 C-24.1 44 -24.9 39.6 -24 35 C-20.7 30.8 -17.6 28.3 -12.3 27.4 C-11.2 27.3 -10.1 27.1 -9 27 C-8.3 25.4 -8.3 25.4 -8 23 C-8.5 22.1 -8.9 21.1 -9.4 20.2 C-11.4 16.2 -12 14.4 -11 10 C-7.9 6.7 -4.5 3.8 -1 1 C-0.7 0.7 -0.3 0.3 0 0 Z M13 24 C13.3 25.6 13.7 27.3 14 29 C16.3 29.7 18.6 30.3 21 31 C20.5 31.6 20 32.1 19.4 32.7 C18 35 18 35 18.3 37.8 C18.5 38.5 18.8 39.2 19 40 C19.6 39.7 20.2 39.4 20.8 39.1 C22.8 38.1 24.9 37 27 36 C28.3 37 29.6 38 31 39 C30.7 39.6 30.3 40.2 30 40.8 C29 43 29 43 29 47 C29.4 46.9 29.4 46.9 31.2 46.5 C34 46 34 46 38 46 C40.2 48.5 40.2 48.5 42 51 C43.3 50.7 44.6 50.3 46 50 C45.4 46 43.3 43.3 41 40 C42.6 39.7 44.3 39.3 46 39 C46.3 37.7 46.7 36.4 47 35 C43.9 33.8 42.8 34.1 39.6 35.2 C36 36 36 36 33.1 34.2 C31 32 31 32 30 30 C31.3 29.3 32.6 28.7 34 28 C33.7 26.7 33.3 25.4 33 24 C30 24.6 28.6 25.3 26 27 C23.3 26.7 21.3 26.2 18.9 24.9 C17 24 17 24 13 24 Z M-18 87 C-19.9 90 -20.2 92.2 -20.1 95.8 C-20.1 96.5 -20.1 97.3 -20.1 98.2 C-20 98.8 -20 99.4 -20 100 C-18.4 100.3 -16.7 100.7 -15 101 C-15 100.3 -14.9 99.6 -14.9 98.9 C-14.8 98 -14.8 97.1 -14.7 96.2 C-14.6 95.3 -14.6 94.4 -14.5 93.5 C-13.9 90.6 -13.3 89.8 -11 88 C-10.1 87.5 -9.2 87 -8.3 86.5 C-7.5 86 -6.8 85.5 -6 85 C-6 84 -6 83 -6 82 C-11.7 81.3 -14 83 -18 87 Z M-42 136 C-44.5 139.8 -44.2 141.5 -43.6 145.8 C-43 148 -43 148 -40.9 150.6 C-37.3 152.4 -35 152.5 -31 152 C-28.6 150.8 -28.6 150.8 -27 149 C-27 147.7 -27 146.4 -27 145 C-27.7 145.1 -28.4 145.3 -29.1 145.4 C-32.1 146 -35 146.5 -38 147 C-38 143.7 -38 140.4 -38 137 C-39.3 136.7 -40.6 136.3 -42 136 Z " fill="#EACDA5" transform="translate(569,404)"/>
<path d="M0 0 C1.2 2.3 2.3 4.6 3.3 7 C5.5 10.9 7.7 13.3 12.1 14.7 C14.1 15.2 16 15.6 18 16 C18.2 16.7 18.3 17.4 18.5 18.2 C20 24 21.5 28.2 25 33 C25 33.7 25 34.3 25 35 C25.8 35.3 26.6 35.6 27.4 35.9 C30 37 30 37 32 38 C32.3 44.1 31.3 49.6 30.1 55.6 C29.5 58.3 29 61 28.5 63.7 C28.1 65.5 27.7 67.3 27.4 69.1 C26.8 73.2 26.8 77.2 26.8 81.4 C26.8 81.8 26.8 81.8 26.8 84 C26.9 89.6 27.2 95 28 100.4 C30.8 120.3 30.8 120.3 26 128 C25.5 128.4 25.5 128.4 22.9 130.4 C19.8 133.1 19.6 133.5 19.1 137.3 C19.1 138.5 19 139.7 19 141 C16.7 141.3 14.4 141.7 12 142 C12.2 141 12.2 141 13 136 C12.1 136.2 11.2 136.4 10.2 136.6 C9 136.9 7.8 137.2 6.5 137.4 C5.3 137.7 4.1 138 2.8 138.2 C-4.5 139.7 -11.5 140.2 -18.9 140.2 C-19.8 140.2 -20.6 140.2 -21.5 140.2 C-27.6 140.1 -33.1 139.6 -39 138 C-39 139.6 -39 141.3 -39 143 C-41.6 143.3 -44.3 143.7 -47 144 C-46.7 141.4 -46.3 138.7 -46 136 C-46.4 135.9 -46.4 135.9 -48.6 135.2 C-54.9 132.9 -58.7 129.9 -62 124 C-68.4 104 -72.7 58.3 -63 39 C-62.4 39 -61.9 39.1 -61.3 39.1 C-55.9 39.4 -52.4 38.7 -47.7 36 C-46 35 -46 35 -43 34 C-41.8 31.4 -41.8 31.4 -41 29 C-40.2 29 -39.4 29.1 -38.6 29.1 C-38 29.1 -38 29.1 -35.3 29.2 C-34.8 29.2 -34.8 29.2 -32.1 29.3 C-27.6 28.9 -25.1 27.1 -21.9 23.9 C-20.1 21.2 -19.3 19 -18.3 15.9 C-16.6 11.3 -16.6 11.3 -14 10 C-12.4 9.6 -10.9 9.2 -9.3 8.8 C-5.1 7.3 -2.6 3.6 0 0 Z " fill="#472111" transform="translate(513,690)"/>
<path d="M0 0 C2.5 2.1 3.8 3.7 4.3 7 C4.5 11.5 3.7 13.5 1 17 C0.3 23.2 0.3 23.2 2.5 25.9 C4.3 28.4 4.2 29.4 4 32.4 C3.9 36.6 4.4 40.1 5.4 44.1 C7.4 51.7 7.7 59.2 8 67 C8.6 66.6 9.3 66.2 9.9 65.8 C12.8 64.1 15.7 62.3 18.6 60.6 C19.6 60 20.5 59.3 21.6 58.7 C26.8 55.5 30.8 53.3 37 53 C38 52.7 39 52.3 40 52 C40.1 51 40.3 50 40.4 49 C40.6 47.7 40.8 46.4 40.9 45.1 C41.1 43.8 41.3 42.6 41.5 41.3 C42 38 42 38 43 36 C43.3 33.2 43.3 33.2 43 30 C42.7 29.6 42.7 29.6 41 27.8 C38.4 24.2 38.4 21.7 38.6 17.3 C39 15 39 15 40.6 12.3 C43.4 10.8 44.7 11.2 47.9 11.7 C67 14.3 88.2 11.6 106 4.4 C108.7 3.9 109.8 4.5 112 6 C114.2 9.3 114.3 10.3 114.2 14.1 C114.3 14.5 114.3 14.5 114.3 16.7 C114 19 114 19 112 21 C111.7 24.1 111.7 24.1 111.6 27.9 C111.6 29.1 111.6 30.3 111.5 31.6 C112.1 35.6 113.2 36.3 116 39 C116.4 41.7 116.4 41.7 116.4 44.8 C116.7 50.3 117.7 54.7 119.5 59.9 C121.9 66.7 122.6 72.8 122.8 80 C123 83 123 83 125 86 C125.3 88.3 125.3 88.3 125.3 90.8 C125.3 91.6 125.3 92.5 125.4 93.3 C124.8 97.8 123.3 100.9 119.8 103.8 C105.3 112.1 89.3 117.7 73 121 C72.1 121.2 71.3 121.4 70.4 121.5 C48.8 126 26.6 127.2 5 122 C4.3 121.8 3.6 121.7 2.9 121.5 C-13.4 117.8 -13.4 117.8 -17.9 111.2 C-19.3 107.2 -19.1 104.2 -19 100 C-19.6 100.2 -20.3 100.3 -20.9 100.5 C-95.1 119.1 -95.1 119.1 -126.6 101.6 C-133.4 97.2 -133.4 97.2 -135 93 C-135.5 88 -135 82.9 -134 78 C-131.4 77.2 -131.4 77.2 -128 77 C-126.6 78.2 -125.3 79.3 -124 80.5 C-112.3 89.2 -93 91 -79 90 C-76.3 89.6 -73.8 89.1 -71.1 88.4 C-68.4 87.9 -65.8 87.9 -63 88 C-66.7 76.2 -66.7 76.2 -72 72 C-73 71.2 -74 70.3 -75 69.4 C-84.5 63 -96.1 62.3 -107.2 61.4 C-111 61 -111 61 -112 60 C-112.3 57.6 -112.3 57.6 -112 55 C-107.7 50.2 -101 47.1 -95.2 44.2 C-94.5 43.9 -93.7 43.5 -92.9 43.1 C-87.4 40.4 -82.4 38.9 -76.4 38.4 C-73.6 37.9 -72.2 36.8 -70 35 C-69.3 35 -68.7 35 -68 35 C-68.3 34 -68.7 33 -69 32 C-69 29.5 -69 27 -68.9 24.6 C-68.8 20 -68.8 17 -71 13 C-70.7 8.8 -70.3 6.5 -68 3 C-66 2.5 -66 2.5 -63.8 2.2 C-63.4 2.2 -63.4 2.2 -61.5 2 C-59 2 -59 2 -56.2 2.5 C-41.1 4.9 -24.4 3.8 -9.5 0.7 C-6.2 0 -3.3 -0.3 0 0 Z M-11.6 7.4 C-28.6 11.8 -46.8 10.7 -64 8 C-64 10 -64 12 -64 14 C-61.6 15 -59.3 15.9 -56.9 16.9 C-56.2 17.1 -55.5 17.4 -54.9 17.7 C-37.1 24.8 -21.1 20.3 -4 13 C-2 11 -2 11 -1.9 8.4 C-1.9 7.6 -2 6.8 -2 6 C-5.7 6 -8.1 6.5 -11.6 7.4 Z M95.5 14 C84 17.8 72.8 18.3 60.8 18.1 C59.3 18.1 57.7 18.1 56.2 18.1 C52.5 18.1 48.7 18 45 18 C45 20 45 22 45 24 C48 25.4 51 26.7 54 28 C54.8 28.4 55.7 28.8 56.5 29.2 C68.2 34.2 77.1 31 88.6 26.6 C104 20.3 104 20.3 108 16 C108.2 13.3 108.2 13.3 108 11 C103.6 11 99.7 12.6 95.5 14 Z M-63 22 C-63 25 -63 27.9 -63 31 C-44.6 37.6 -22.3 39.7 -3 36 C-2 35 -2 35 -1.9 32.4 C-2 31.6 -2 30.8 -2 30 C-2.8 30 -3.5 30.1 -4.3 30.1 C-22.6 30.6 -39.2 30 -56.4 23.3 C-60 22 -60 22 -63 22 Z M94.1 29.4 C93.3 29.7 92.6 30 91.9 30.3 C88.6 31.8 85.2 33.3 82 35 C82 35.3 82 35.7 82 36 C86.1 37 89.9 37.1 94.1 37.1 C94.7 37.1 94.7 37.1 97.7 37.1 C101 37 101 37 105 36 C105 32.7 105 29.4 105 26 C100.9 26 97.7 27.7 94.1 29.4 Z M50 33 C49.7 34.4 49.3 35.8 49 37.2 C48.8 38 48.6 38.7 48.4 39.5 C48 42.1 48 44.4 48 47 C58.3 49.4 67.8 50.5 78.4 50.4 C78.8 50.4 78.8 50.4 80.5 50.4 C90.6 50.3 100.2 49.7 110 47 C110 45.4 110 43.7 110 42 C109.7 42 109.7 42 108 42.1 C89.1 42.6 71.9 41.4 54.3 34 C52 33 52 33 50 33 Z M-63.7 39.5 C-64.1 40 -64.6 40.5 -65 41 C-64.5 41.3 -63.9 41.5 -63.4 41.8 C-45.7 50.5 -35.2 58.7 -28.7 77.9 C-28.4 78.6 -28.2 79.3 -28 80 C-27 79.8 -27 79.8 -22 79 C-21.6 77.8 -21.3 76.7 -20.9 75.5 C-17.2 64.4 -12.3 53.9 -6 44 C-5.7 43.3 -5.3 42.7 -5 42 C-5.5 42 -5.5 42 -7.9 42.1 C-25.4 42.4 -41.9 42.6 -59 38 C-62 38 -62 38 -63.7 39.5 Z M-99 54 C-99 54.3 -99 54.7 -99 55 C-98.6 55.1 -98.6 55.1 -96.6 55.5 C-83.2 58.4 -69.9 61.8 -61.6 73.4 C-57.5 80 -56.7 86.3 -57 94 C-57.6 94 -58.2 94 -58.9 93.9 C-59.3 93.9 -59.3 93.9 -61.4 93.9 C-62.3 93.9 -63.1 93.8 -63.9 93.8 C-66.6 94 -68.7 94.4 -71.2 95 C-76.2 96.2 -81 96.3 -86.1 96.2 C-86.5 96.3 -86.5 96.3 -88.6 96.3 C-94.1 96.3 -98.7 95.5 -104 94 C-105.6 93.7 -107.1 93.5 -108.7 93.2 C-114.3 92.2 -119.2 89.8 -124.3 87.2 C-127 86 -127 86 -129 86 C-128.8 90.1 -128.7 92.3 -125.8 95.2 C-98 110.7 -57.9 103.8 -29 95.8 C-27 95.2 -25 94.6 -23 94 C-21.7 93.6 -20.3 93.2 -19 92.9 C-18 92.6 -17 92.3 -16 92 C-15.9 92.4 -15.9 92.4 -15.6 94.3 C-15 97 -15 97 -13 100 C-12.7 102 -12.6 104 -12.4 106.1 C-11.9 108.6 -11.1 109.4 -9 111 C8.4 118.9 27.3 118.6 46 118 C46.9 118 47.9 117.9 48.9 117.9 C70.6 117 102.9 111.1 119 95 C119.1 91.9 119.1 91.9 119 89 C115.2 90.4 111.7 92.1 108.1 93.9 C95.7 100.2 95.7 100.2 89 100 C88.9 99.6 88.9 99.6 88.3 97.7 C84 83.9 77.3 73.3 64.2 66.2 C54.8 61.9 43.4 57.7 33 60 C28 62.1 23.5 65 19 68 C19 68.3 19 68.7 19 69 C20 69.1 21 69.1 22 69.2 C36.9 70.6 51.8 75.5 61.9 87.2 C65.9 92.9 69 98.9 69 106 C68.2 106.2 68.2 106.2 64 107 C63.8 105.7 63.6 104.4 63.4 103.1 C61.3 93.8 55.8 88 48.1 82.8 C37.5 76.6 28.6 75.5 16.6 75.9 C11.7 76.1 8.5 75.9 4 74 C1.1 74.5 1.1 74.5 -1.9 75.6 C-2.9 75.9 -3.8 76.2 -4.9 76.6 C-7.4 77.7 -9.1 78.8 -11.3 80.5 C-15.4 83.5 -19.6 84.6 -24.4 85.8 C-24.9 85.9 -24.9 85.9 -26.9 86.5 C-29 87 -31 87.5 -33 88 C-33.1 87 -33.3 86.1 -33.4 85.1 C-34.9 76.6 -36.9 70.1 -42 63 C-42.6 62.1 -43.2 61.2 -43.8 60.2 C-52.6 51.2 -65.2 46.3 -77.6 45.4 C-85.7 45.4 -92.2 49.8 -99 54 Z M-2 48 C-14 68.2 -14 68.2 -14 76 C-9.2 75.4 -5.3 74.2 -1 72 C1.8 68.3 1.3 63.9 1.2 59.4 C1.2 58.7 1.2 57.9 1.2 57.1 C1.2 53.8 1 51.1 0 48 C-0.7 48 -1.3 48 -2 48 Z M48 53 C48 53.7 48 54.3 48 55 C49.2 55.4 50.3 55.7 51.6 56.1 C65.9 60.5 79.4 66.1 87.1 79.9 C89.2 84.2 91.2 88.6 93 93 C94.3 93 95.6 93 97 93 C97.1 91.9 97.3 90.8 97.4 89.6 C99 78.7 101.8 69.1 106 59 C106.7 57.3 107.3 55.7 108 54 C95.6 54.9 95.6 54.9 90.3 55.6 C75.9 57 62.2 55.6 48 53 Z M112 60 C107.1 69 103.2 78.6 104 89 C108.6 88.5 111.5 87 115 84 C115.8 81 115.7 78.2 115.5 75.1 C115.5 74.7 115.5 74.7 115.5 72.7 C115.3 68.1 114.7 64.3 113 60 C112.7 60 112.3 60 112 60 Z " fill="#36160A" transform="translate(533,831)"/>
<path d="M0 0 C1.4 1.4 1.4 1.4 2.8 3.3 C6.4 7.7 9.8 9.7 15.6 10.3 C22.6 10.5 28.6 9.7 34.2 5.2 C36 4 36 4 37.9 4.2 C40.3 5.1 41.3 6.1 43.1 7.9 C48.4 12.6 54.8 13.7 61.8 14.4 C67.3 13.7 71.3 12.1 74.9 7.8 C75.6 6.9 76.3 6 77 5 C82.8 6.9 82.8 6.9 85 8 C85 9.3 84.9 10.6 84.9 11.9 C84.8 16.7 84.8 21.6 84.7 26.4 C84.7 28.5 84.7 30.6 84.6 32.7 C84.3 46.1 85.4 58.2 88.9 71.3 C90.9 79.1 91.9 87.5 87.7 94.8 C85.9 97.2 84.6 98.3 82 100 C81.3 103.6 81.3 103.6 81 107 C79 107.7 77 108.3 75 109 C75 107.4 75 105.7 75 104 C74 104.3 73 104.5 72 104.8 C54.4 109.4 38.1 110.3 20 110 C20.3 111.6 20.7 113.3 21 115 C18.7 115 16.4 115 14 115 C13.7 112.7 13.3 110.4 13 108 C12.7 108 12.7 108 10.9 107.8 C6.3 106.5 2.6 104.3 -0.2 100.3 C-1.3 98.3 -2.2 96.2 -3 94 C-3.3 93.2 -3.7 92.3 -4 91.5 C-8 80.1 -9.3 67.9 -11 56 C-11.2 54.8 -11.4 53.6 -11.5 52.3 C-12.2 47.2 -12.1 42.1 -12.1 36.9 C-12.1 35.9 -12.1 34.9 -12.1 33.8 C-12.1 30.5 -12.1 27.3 -12.1 24 C-12.1 21.8 -12.1 19.5 -12 17.3 C-12 11.9 -12 6.4 -12 1 C-10.6 0.8 -9.1 0.7 -7.7 0.5 C-6.9 0.4 -6.1 0.3 -5.3 0.2 C-3 0 -3 0 0 0 Z " fill="#462111" transform="translate(561,728)"/>
<path d="M0 0 C0.1 0.6 0.2 1.2 0.4 1.9 C0.5 2.7 0.7 3.5 0.9 4.3 C1 5.1 1.2 5.9 1.4 6.7 C2 9 2 9 4 12 C3.5 15.5 3.5 15.5 2 17 C0.6 17.3 -0.8 17.5 -2.2 17.8 C-6.8 18.8 -9.3 19.9 -12 24 C-12.5 27.1 -12.3 29.9 -12 33 C-12 33.4 -12 33.4 -11.8 35.4 C-11.5 37.2 -11.3 39.1 -11 41 C-11.5 41.2 -12.1 41.3 -12.6 41.5 C-15.9 42.6 -18.4 43.5 -21 45.8 C-22.4 48.8 -22.5 50.7 -22 54 C-21.1 55.8 -21.1 55.8 -19.9 57.6 C-18 61 -18 61 -18 63 C-19.6 66.2 -22.2 67 -25.4 68.5 C-32.9 72.2 -32.9 72.2 -35 76 C-35.5 81.6 -35.2 84.3 -32 89 C-32 90 -32 91 -32 92 C-32.7 92.3 -33.4 92.6 -34 92.9 C-43.9 97.6 -43.9 97.6 -46 102 C-46.6 107.8 -46.8 112.8 -44 118 C-44 120.6 -44 120.6 -45 123 C-47 124 -49 125 -51 126 C-53.8 129.3 -54.9 131.3 -55.5 135.6 C-54.9 139.6 -53.5 140.9 -51 144 C-50.9 146.5 -50.9 146.5 -52 149 C-52.4 149.4 -52.4 149.4 -54.6 151.4 C-57 154 -57 154 -57.4 157.1 C-57.1 159.5 -56.7 161.7 -56 164 C-55.3 164 -54.7 164 -54 164 C-52.9 168 -53.1 169.4 -55 173 C-55.4 175.3 -55.7 177.7 -56 180 C-54.7 180 -53.4 180 -52 180 C-52 184.3 -52 188.6 -52 193 C-52.3 193 -52.7 193 -53 193 C-53 191 -53 189 -53 187 C-54.2 187 -55.5 187.1 -56.8 187.1 C-60.5 187.1 -64 186.7 -67.8 186 C-76.8 184.4 -85.6 183 -93.5 188.5 C-95.2 190.2 -96.1 191.8 -97 194 C-96.7 193.9 -96.7 193.9 -95.2 193.1 C-87.4 189.4 -87.4 189.4 -83 190 C-82.8 190.8 -82.8 190.8 -82 195 C-83.2 195.6 -84.3 196.2 -85.5 196.8 C-87 197.6 -88.6 198.4 -90.1 199.2 C-90.5 199.4 -90.5 199.4 -92.4 200.4 C-101 204.8 -107 209.9 -111 219 C-111.6 222.1 -111.5 223.8 -111 227 C-109.5 229 -109.5 229 -108 230 C-107.8 229.2 -107.6 228.4 -107.4 227.5 C-105.2 222 -102 217.3 -97 214 C-94.3 214.4 -94.3 214.4 -92 215 C-92.6 218.8 -94.2 220.5 -96.9 223.2 C-101.1 227.9 -103.8 231.8 -104.1 238.1 C-103.9 242 -103.2 243.8 -100.4 246.5 C-100 246.7 -100 246.7 -98 248 C-97.9 247.4 -97.7 246.7 -97.6 246.1 C-95.9 239.9 -93.8 234.5 -89 230 C-86.8 229.3 -86.8 229.3 -85 229 C-84.4 230.7 -84.4 230.7 -84 233 C-85 235 -85 235 -86.4 237.1 C-89.3 241.3 -90.2 244.4 -90.2 249.6 C-90.2 250.5 -90.2 251.5 -90.2 252.5 C-90 255 -90 255 -88 257 C-85.6 257.4 -85.6 257.4 -83 257 C-80.9 254.9 -79.4 252.6 -77.8 250.1 C-73.9 244 -70 242.4 -63.2 240.5 C-55.2 238.1 -49.5 235.4 -44 229 C-43.3 228.3 -42.7 227.7 -42 227 C-41 229.3 -40 231.6 -39 234 C-39.5 234.4 -40 234.8 -40.5 235.2 C-43.5 237.7 -45.7 239.6 -46.6 243.5 C-46.7 248.4 -46.2 252.1 -43 256 C-41 258 -41 258 -38.4 258.9 C-36 260 -36 260 -35.1 262 C-35 264 -35 264 -36 266 C-36.1 268.1 -36.2 270.2 -36.2 272.4 C-36.3 273.5 -36.3 274.7 -36.3 275.8 C-36 279.3 -35.6 280.7 -33 283 C-30.1 283.6 -30.1 283.6 -26.8 283.8 C-25.7 283.8 -24.6 283.9 -23.5 283.9 C-22.7 283.9 -21.9 284 -21 284 C-20.9 284.4 -20.9 284.4 -20.7 286.6 C-18.9 299.7 -18.9 299.7 -13.9 305.4 C-9.7 307.7 -5.7 307.7 -1 307 C-0.3 306.6 0.4 306.3 1.1 305.9 C3 305 3 305 5.1 305.1 C7.6 306.3 8.1 307.5 9.4 309.9 C11.7 313.8 13.5 315.6 18 317 C24.1 317.8 28.8 316.1 34 313 C34.9 312.1 35.8 311.1 36.8 310.2 C39 308 39 308 41.4 307.8 C44.7 309.3 46.3 311.5 48.5 314.3 C52 318.3 56.2 319.7 61.4 320.3 C69 320.6 69 320.6 72.4 317.9 C75 315 76.5 312.5 78 309 C80.9 309.4 82.1 310.1 84.3 312.1 C87 314 87 314 90.6 314.6 C94 314 94 314 96.3 311.9 C98 309 99 306.2 100 303 C100.4 303 100.4 303 102.7 303.1 C103.9 303.1 105 303.2 106.2 303.2 C106.8 303.2 106.8 303.2 109.8 303.3 C113 303 113 303 115.4 301.9 C118.4 298.2 117 293.2 116.8 288.7 C117 284.4 118.1 283 121 280 C122.5 276.9 122.6 274.3 122 271 C119.4 265.3 116.3 260.4 111 257 C111.5 252.5 113.2 250.4 116 247 C118.5 242.6 118.6 238 118 233 C116.5 229.9 115.4 229.2 112.3 227.8 C111.9 227.6 111.9 227.6 110 227 C110.2 226 110.3 225.1 110.5 224.1 C112 212.8 112 212.8 110 209.2 C107.9 206.6 105.7 204.8 103 203 C104.3 201.7 105.6 200.4 107 199 C112.6 200.6 115.1 204.3 118.3 208.9 C119.7 213.1 119.6 217.4 118 221.5 C117.7 222 117.3 222.5 117 223 C117.6 223.3 118.2 223.5 118.8 223.8 C122.6 225.9 124.3 229.1 126 233 C127.5 239.9 124.9 245.8 122 252 C124 252.2 126 252.4 128 252.6 C130 253 130 253 133 255 C132.7 256.6 132.3 258.3 132 260 C129.4 259.7 126.7 259.3 124 259 C124.4 259.5 124.7 260 125.1 260.5 C129.2 266.9 130.2 272.5 129 280 C127 283.4 127 283.4 125.9 285 C124.6 287.9 124.9 290.4 125 293.5 C125.2 299.4 124.7 302.4 121 307 C115.5 311.1 110.7 311.1 104 311 C103.8 311.7 103.6 312.4 103.4 313.2 C101.6 316.8 99.6 319.2 96 321 C90 322 85.2 321.3 80 318 C79.8 318.6 79.6 319.1 79.4 319.7 C77.2 323.4 74 326.1 70.1 327.8 C62.3 328.5 54 328.1 47.7 323.2 C46.3 322 45 320.7 43.8 319.3 C42 318 42 318 40 318.2 C38 319 36.3 319.9 34.5 321 C28.7 324.6 22.6 324.7 16 324 C10.6 322.3 6.6 319.3 3 315 C3 314.3 3 313.7 3 313 C2 313.3 1 313.7 0 314 C-3 314 -5.9 314 -9 314 C-9 325.5 -9 337.1 -9 349 C-9.3 349 -9.7 349 -10 349 C-10 337.5 -10 325.9 -10 314 C-11.6 313.7 -13.3 313.3 -15 313 C-20.8 310.2 -23.4 305.8 -26 300 C-26.7 296.9 -26.9 294.2 -27 291 C-28.2 291 -29.4 290.9 -30.6 290.9 C-35.7 290.2 -38.8 288 -42 284 C-43.3 281.3 -44.2 278.9 -45 276 C-45.4 276.5 -45.8 277.1 -46.2 277.6 C-49.4 281.7 -51.5 284.2 -56.7 285.3 C-59 285.9 -59 285.9 -61 287 C-62.4 289.7 -63.2 292.3 -64 295.3 C-65.5 299.4 -67.6 301.3 -71 304 C-73.8 304.9 -75.6 305.1 -78.5 305.1 C-79.3 305.1 -80 305.1 -80.8 305.1 C-83 305 -83 305 -86 304 C-86.2 304.7 -86.3 305.4 -86.5 306.2 C-89.1 311 -93.9 313.3 -99 315 C-104.2 315.4 -107.6 314.9 -112 312 C-115 308 -115.3 305.1 -115.2 300.2 C-115.2 299 -115.1 297.9 -115.1 296.7 C-115.1 295.8 -115 294.9 -115 294 C-115.7 294 -116.3 294 -117 294 C-116.9 294.7 -116.8 295.4 -116.7 296.1 C-115.8 302.7 -115.8 307.1 -119 313 C-121.6 314.2 -121.6 314.2 -124 315 C-125.2 317 -125.2 317 -126 319 C-137.1 315.7 -137.1 315.7 -139.6 311.8 C-140.1 310.8 -140.5 309.9 -141 309 C-141.3 309 -141.7 309 -142 309 C-149.3 283.7 -149.3 283.7 -146 277 C-144.7 277 -143.4 277 -142 277 C-141.9 277.6 -141.8 278.1 -141.7 278.7 C-137 304 -137 304 -131 310 C-128.1 310.2 -128.1 310.2 -125 310 C-122.2 305.7 -122.6 302 -123 297 C-123.6 295 -124.3 293 -125 291 C-124.8 288.7 -124.8 288.7 -124 286 C-123.9 285.3 -123.7 284.6 -123.6 283.9 C-122.9 279.8 -122.2 277.2 -119.8 273.8 C-118 271 -118 271 -118.4 268.7 C-118.5 268.2 -118.5 268.2 -119 266 C-119.1 264.1 -119.2 262.3 -119.2 260.4 C-119.2 259.5 -119.2 258.6 -119.2 257.6 C-119 254.9 -118.4 253.3 -117 251 C-116.3 251 -115.7 251 -115 251 C-115.3 247.7 -115.6 244.4 -115.9 241.1 C-116 240.2 -116.1 239.3 -116.2 238.3 C-116.3 237.4 -116.4 236.5 -116.5 235.6 C-116.5 234.7 -116.6 233.9 -116.7 233.1 C-117 231 -117 231 -118 229 C-118.9 219.9 -118.4 212.5 -113 205 C-108.9 201 -108.9 201 -106 201 C-106.4 199.9 -106.7 198.8 -107.1 197.7 C-107.6 194.3 -107.1 193.1 -105.1 190.2 C-98.9 183.1 -92.5 177.6 -82.8 176.8 C-76.1 176.8 -69.6 177.7 -63 179 C-62.8 177.1 -62.6 175.2 -62.4 173.2 C-62.3 172.2 -62.1 171.1 -62 170 C-62 166.8 -62.5 165.7 -64 163 C-64.7 157.9 -65.1 153.4 -61.9 149.2 C-61.6 148.9 -61.6 148.9 -60 147 C-60.8 143.8 -60.8 143.8 -61.4 142 C-62.7 137.5 -63 132.3 -61.1 127.9 C-60.1 126.3 -59 124.6 -58 123 C-58 121.7 -58 120.4 -58 119 C-58.7 118.3 -59.3 117.7 -60 117 C-60.3 114 -60.4 111 -60.6 108 C-61 104.7 -62.2 102.9 -64 100 C-64.4 97.8 -64.4 97.8 -64.4 95.6 C-64.8 91.1 -66 88.5 -69 85 C-70.9 83.5 -72.9 82.3 -75 81 C-74.1 75.2 -74.1 75.2 -73 73 C-72.5 68.2 -72.1 63.6 -74.9 59.4 C-77 57 -77 57 -79 56 C-78.5 53 -77.9 50.7 -76.5 47.9 C-74.2 42.9 -74.3 37.4 -74 32 C-74.3 32 -74.3 32 -75.7 32 C-95.2 32.2 -95.2 32.2 -104 31 C-104 30.7 -104 30.3 -104 30 C-103 30 -102.1 29.9 -101.1 29.9 C-97.6 29.8 -94 29.7 -90.5 29.6 C-89 29.6 -87.4 29.5 -85.9 29.5 C-83.7 29.4 -81.5 29.4 -79.3 29.3 C-78.6 29.3 -77.9 29.3 -77.2 29.3 C-74.2 29.2 -71.9 29 -69 28 C-66.7 28.3 -64.3 28.6 -62 29 C-62 29.3 -62 29.7 -62 30 C-63.6 30 -65.3 30 -67 30 C-66.9 30.5 -66.9 30.5 -66.4 32.8 C-65.7 37.9 -66.4 42.9 -67 48 C-65.8 48.8 -64.5 49.6 -63.2 50.4 C-62.6 50.9 -61.9 51.3 -61.1 51.8 C-54 55.8 -44 54.8 -36.4 52.8 C-32.7 51.6 -31 50.3 -29 47 C-28.9 46.5 -28.9 46.5 -28.6 43.9 C-28 41 -28 41 -26.1 39.1 C-24 38 -24 38 -22 38 C-20 34.7 -19.8 32 -19.6 28.1 C-19.2 23 -18.7 19.9 -15 16 C-8.3 11 -8.3 11 -5 11 C-5.4 8.1 -5.4 8.1 -6 5 C-6.3 4.8 -6.3 4.8 -8 4 C-7.3 4 -6.7 4 -6 4 C-5.7 3 -5.3 2 -5 1 C-3 0 -3 0 0 0 Z M-70 250 C-72.1 252.5 -73.4 254.8 -74.8 257.8 C-76 260 -76 260 -78.9 262.1 C-83.8 263.5 -87.9 263.8 -92.8 261.9 C-95 260 -95 260 -96.4 257 C-98.5 253 -100.8 252.5 -105 251 C-106 250.3 -107 249.7 -108 249 C-108.1 249.4 -108.1 249.4 -108.8 251.3 C-110 254 -110 254 -111.6 255.4 C-113 257 -113 257 -113.4 259.9 C-113 263.3 -112.1 265.2 -110 268 C-109.3 268 -108.7 268 -108 268 C-108.2 270.7 -108.4 272.4 -110.4 274.4 C-111.9 275.6 -113.4 276.8 -115 278 C-116.4 280.8 -116.3 282.9 -116 286 C-113.9 288.6 -111.8 290.1 -109 292 C-108.8 295.3 -109.1 298.5 -109.3 301.8 C-109 305 -109 305 -107.2 307.4 C-105 309 -105 309 -101.6 309.1 C-94.9 307.1 -91.5 302.7 -88 297 C-87.6 297.2 -87.6 297.2 -85.5 298.1 C-81 299.3 -78.6 299.1 -74 298 C-70.6 294.8 -69.1 291.5 -68 287 C-67.9 284.7 -67.9 282.3 -68 280 C-67.4 280 -66.8 280.1 -66.2 280.1 C-62.1 280.3 -59.5 280.2 -55.7 278.5 C-51.3 274.4 -49.6 270.1 -48 264.4 C-48 260.7 -48.9 259 -50.9 255.9 C-52.8 252.5 -53.3 248.8 -54 245 C-59.1 245 -65.6 247.6 -70 250 Z " fill="#6A3E25" transform="translate(558,415)"/>
<path d="M0 0 C0.9 0 1.8 0.1 2.7 0.1 C8.9 0.4 15.1 0.8 21.4 1.2 C22.8 1.3 24.2 1.4 25.6 1.5 C28.9 1.8 32.3 2 35.7 2.2 C35.8 4.2 35.8 6.1 35.8 8 C35.9 9 35.9 10.1 35.9 11.2 C35.7 14.9 34.6 17.4 32.7 20.5 C31.6 22.4 31.2 24.1 30.7 26.2 C31.3 26.5 31.9 26.7 32.5 26.9 C35.5 28.7 36.4 30 37.7 33.2 C38.3 38.7 38.1 43.3 35.7 48.2 C35.7 49.2 35.7 50.2 35.7 51.2 C36.6 51.8 37.5 52.4 38.5 53.1 C42.1 55.5 43.7 57.3 45.7 61.2 C46.1 63.5 46.3 65.7 46.4 68 C46.7 70.2 46.7 70.2 48.2 72.6 C50.5 76.5 50.2 80.1 50.3 84.5 C50.8 87.5 51.4 88.4 53.7 90.2 C52.6 92.5 51.4 94.7 50.1 96.9 C47.8 102.5 47.9 108.3 50 114.1 C50.2 115.1 50.5 116.2 50.7 117.2 C50.4 117.6 50.4 117.6 48.9 119.5 C45.6 123.7 46.1 128.1 46.7 133.2 C47.1 133.9 47.4 134.5 47.8 135.2 C49.1 138.2 48.5 140.3 47.9 143.5 C47.7 144 47.7 144 47.2 146.8 C47.1 147.6 46.9 148.4 46.7 149.2 C40.3 149.4 40.3 149.4 37.4 148.8 C29.3 147.2 20.9 147.8 13.9 152.5 C11.4 154.5 9 156.9 6.7 159.2 C3.1 155.9 2.5 152.9 2.3 148.1 C2.3 140.4 6.3 136.1 11.1 130.4 C12.7 128.2 12.7 128.2 12.7 124.2 C12.3 124.1 12.3 124.1 10.4 123.5 C7.3 122.1 6.4 121.2 4.7 118.2 C4.8 114.9 5.3 111.7 5.8 108.4 C5.7 104.4 4.3 103.3 1.7 100.2 C1.2 96.1 2 92.4 4.3 88.9 C4.8 88.4 5.2 87.8 5.7 87.2 C5.7 85.9 5.7 84.6 5.7 83.2 C5.1 83.1 4.5 82.9 3.8 82.7 C3.4 82.5 3.4 82.5 1.3 81.9 C0.9 81.7 0.9 81.7 -1.2 81.1 C-3.3 80.2 -3.3 80.2 -4.3 78.2 C-4.4 73.4 -4.2 69 -3.3 64.2 C-4.3 64.4 -5.4 64.5 -6.5 64.6 C-10.3 64.2 -10.3 64.2 -13.3 62.3 C-15.8 58.5 -15.5 56.6 -14.8 52.2 C-14.3 50.2 -14.3 50.2 -13.3 48.2 C-13.2 46.3 -13.2 44.2 -13.3 42.2 C-15.3 41.8 -17.3 41.3 -19.3 40.9 C-21.3 40.2 -21.3 40.2 -23.3 38.2 C-23.4 34.2 -23.1 32.3 -20.5 29.1 C-17.6 26.1 -14.7 23.6 -11.3 21.2 C-12.1 16.5 -12.1 16.5 -13.3 14.2 C-13.6 11.4 -13.6 11.4 -13.3 8.2 C-11 5.6 -11 5.6 -8.3 3.2 C-8 3 -8 3 -6.4 1.6 C-4 0 -2.8 -0.1 0 0 Z M13.7 58.2 C11.3 61.2 9.9 63.4 9.2 67.2 C9.9 71.1 11.2 73.3 13.7 76.2 C15.1 76.6 16.4 76.9 17.7 77.2 C18.4 78.9 19.1 80.6 19.7 82.2 C22.7 84.2 22.7 84.2 25.7 84.2 C25.7 82.6 25.7 81 25.7 79.2 C25.1 78.9 24.4 78.6 23.7 78.2 C23.6 77.6 23.6 77 23.5 76.3 C23.2 75.6 23 75 22.7 74.2 C19.7 73 19.7 73 16.7 72.2 C15.5 65.6 15.5 65.6 17.7 62.2 C17.4 60.1 17.4 60.1 16.7 58.2 C15.7 58.2 14.7 58.2 13.7 58.2 Z M23.7 109.2 C20 113.4 19.1 116.8 19.3 122.2 C19.7 124.2 19.7 124.2 21.4 126.8 C24.1 128.5 25.6 128.6 28.7 128.2 C29.1 126.9 29.4 125.6 29.7 124.2 C28.4 123.6 27.1 122.9 25.7 122.2 C25.5 118 26.1 115.2 27.7 111.2 C27.4 110.6 27.1 109.9 26.7 109.2 C25.7 109.2 24.7 109.2 23.7 109.2 Z " fill="#EACDA4" transform="translate(448.2734375,444.75)"/>
<path d="M0 0 C2.9 2.6 4.7 4.3 5.4 8.2 C5.5 13.1 4.6 17.4 3 22 C3.9 22.2 4.9 22.5 5.8 22.8 C9.3 24.1 10.4 24.6 12 28 C13.1 34.6 11.5 39.5 8 45 C7.4 45.8 6.8 46.5 6.2 47.3 C5 49 5 49 5 52 C6.4 53.1 7.9 54.3 9.3 55.4 C13.4 59.3 15.7 64.1 16.6 69.7 C15.9 73.6 14.3 75.8 12 79 C10.7 83.5 11.1 87.7 11.5 92.4 C11 95 11 95 8.9 97.3 C5.4 99.4 3.2 99.4 -0.8 99.2 C-2 99.2 -3.1 99.2 -4.3 99.1 C-5.2 99.1 -6.1 99 -7 99 C-7.3 99.9 -7.6 100.9 -7.9 101.8 C-9.1 105.4 -10.2 107.4 -13 110 C-16.4 110.6 -18.7 110.9 -21.7 108.9 C-23.1 107.6 -24.6 106.3 -26 105 C-27 105 -28 105 -29 105 C-29.2 105.4 -29.2 105.4 -30.1 107.7 C-32.2 111.4 -34.2 114.1 -38 116 C-44.3 117.1 -49.5 116.1 -55 113 C-57.4 110.8 -57.4 110.8 -59 109 C-58.4 108.6 -57.9 108.2 -57.3 107.8 C-56.6 107.2 -55.8 106.7 -55.1 106.1 C-54.3 105.6 -53.6 105.1 -52.8 104.5 C-50.6 102.7 -50.1 101.7 -49.7 98.8 C-49.6 98.4 -49.6 98.4 -49.4 96.4 C-49.4 96 -49.4 96 -49.2 93.9 C-49.1 93.3 -49.1 92.6 -49 92 C-48.7 92 -48.7 92 -47.2 91.7 C-41.6 90.7 -38.7 89.5 -35 85 C-34.5 84.4 -34 83.9 -33.4 83.3 C-30.8 80.3 -28.7 77.6 -27 74 C-24.4 74.3 -21.7 74.7 -19 75 C-19 74 -19 73 -19 72 C-21 71 -23 70 -25 69 C-24.9 68.4 -24.7 67.8 -24.6 67.1 C-23 59.1 -22.4 51.2 -22 43 C-19.4 42.3 -16.7 41.7 -14 41 C-14 39.7 -14 38.4 -14 37 C-16.6 37.3 -19.3 37.7 -22 38 C-22.3 36.4 -22.7 34.7 -23 33 C-22.3 32.7 -21.7 32.3 -21 32 C-19.8 28.3 -19.2 24.6 -20.9 21.1 C-22.2 19.4 -22.2 19.4 -25 17 C-26.3 17 -27.6 17 -29 17 C-29.4 18 -29.8 19.1 -30.2 20.1 C-34.2 29 -39.5 32.7 -48 37 C-50.3 37.1 -52.6 37.1 -54.9 37.2 C-61.7 37.6 -61.7 37.6 -64.4 40.7 C-65 41.8 -65.5 42.9 -66 44 C-67.6 45.7 -67.6 45.7 -69.5 47.3 C-69.8 47.6 -69.8 47.6 -71.2 48.8 C-76 52 -82 51 -87.5 50.9 C-94.6 50.8 -100.1 51.9 -105.8 56.4 C-114.7 62.9 -123.9 64.2 -134.6 62.6 C-140.6 61.4 -140.6 61.4 -143 59 C-143.1 58.3 -143.2 57.7 -143.3 57 C-143.5 56.3 -143.8 55.7 -144 55 C-145.6 54.3 -147.3 53.6 -149 53 C-152.3 50.2 -153.7 48.1 -154.3 43.8 C-154.6 39.9 -154.7 37.1 -152.5 33.8 C-150.7 32 -149.1 30.4 -147 29 C-146.3 29 -145.7 29 -145 29 C-143.7 30.6 -143.7 30.6 -142.2 32.8 C-139.5 36.5 -137.5 38.6 -133 40 C-126.2 40.7 -120 39.3 -113.4 37.5 C-112.4 37.2 -111.5 37 -110.4 36.7 C-93.3 32 -76.5 26.7 -61 18 C-60.4 17.7 -59.8 17.3 -59.2 17 C-49.6 11.6 -49.6 11.6 -48 10 C-46.7 9.7 -45.3 9.5 -44 9.2 C-31.6 7.1 -19.9 4.1 -8 0 C-4.6 -1.1 -3.4 -1.2 0 0 Z " fill="#C69E72" transform="translate(665,620)"/>
<path d="M0 0 C3.7 0.2 5 1 7.9 3.5 C10.1 6.4 10.2 8.3 9.8 11.9 C9.6 13.3 9.3 14.6 9 16 C8.5 16.2 8.5 16.2 6 17 C5.8 16 5.8 16 5 11 C3.7 11 2.4 11 1 11 C1.2 13 1.2 13 2 23 C-0.7 24.4 -3 24.1 -6 24 C-5.8 24.7 -5.8 24.7 -5 28 C-2.4 28 0.3 28 3 28 C3.5 35.9 1.7 43.3 0 51 C-2.6 50.7 -5.3 50.3 -8 50 C-8 51.3 -8 52.6 -8 54 C-6 54.7 -4 55.3 -2 56 C-2.3 56.7 -2.7 57.4 -3 58.1 C-4 61 -4 61 -3.8 64.4 C-4.1 69.4 -5.5 70.6 -9 74 C-12.5 76.5 -15.8 76.2 -20 76 C-19.9 76.6 -19.9 77.2 -19.8 77.8 C-19.6 81.9 -19.5 85 -22.1 88.4 C-25.1 91.1 -27.2 92.1 -31 93 C-32.3 91.4 -33.6 89.7 -35 88 C-38.8 88.2 -40.7 89.4 -43.4 91.9 C-47.6 95.6 -51 96.8 -56.5 97.3 C-61.7 96.9 -64.7 95.4 -68.2 91.6 C-69.7 89.4 -70.9 87.4 -72 85 C-76.8 85.9 -76.8 85.9 -79 87 C-83.2 87.6 -87.2 87.9 -91.1 86 C-95.9 82.3 -98 77.9 -99 72 C-99.2 68.9 -99.1 66.1 -99 63 C-99.8 63.1 -100.6 63.1 -101.5 63.2 C-102.6 63.2 -103.6 63.3 -104.8 63.3 C-105.8 63.4 -106.9 63.4 -108 63.5 C-111 63 -111 63 -113.4 60.9 C-115.3 57.4 -115.4 55.2 -115.2 51.2 C-115.2 50 -115.2 48.9 -115.1 47.7 C-115.1 47.2 -115.1 47.2 -115 45 C-111.8 43.9 -111.1 44.1 -108 44.9 C-99.2 47 -90.3 46.8 -82 43 C-79.4 41.3 -76.9 39.5 -74.5 37.6 C-68.1 33.5 -61.6 33.8 -54.3 34.2 C-48.3 34.3 -43.7 33.4 -39.1 29.3 C-38.6 28.7 -38.2 28.1 -37.7 27.5 C-37.2 26.9 -36.7 26.3 -36.3 25.7 C-35.1 24.2 -34.1 22.6 -33 21 C-30.1 20.7 -30.1 20.7 -26.4 20.6 C-18.1 20.2 -13.3 17.9 -7.1 12.5 C-3.8 8.6 -1.8 4.8 0 0 Z M-65 58 C-64.8 63 -64.7 65.1 -61.5 69 C-58.2 71.3 -55.2 71.6 -51.2 71.4 C-47.6 70.7 -45.1 69 -42 67 C-41.3 67 -40.7 67 -40 67 C-41.9 62.2 -41.9 62.2 -43 60 C-45.2 61 -46.8 61.7 -48.3 63.6 C-50 65 -50 65 -53.4 65.6 C-57 65 -57 65 -58.5 63.4 C-59.8 61.5 -59.8 61.5 -60.9 59.5 C-61.2 59 -61.6 58.5 -62 58 C-63 58 -64 58 -65 58 Z " fill="#EACEA4" transform="translate(636,636)"/>
<path d="M0 0 C0.7 0 1.3 0 2 0 C2 0.7 2 1.3 2 2 C4 2 6 2 8 2 C6.9 5.4 6 7 3.4 9.4 C1 12 1 12 0.6 15.1 C1 18 1 18 2.1 20.1 C3 22 3 22 2.9 23.8 C1.6 26.9 -0.4 28.3 -3 30.3 C-8.6 35.2 -8.6 35.2 -9.1 39.1 C-9.1 40 -9 41 -9 42 C-5.7 44.2 -2.8 45 1 46 C1.2 50.3 0.6 53 -1 57 C-1.4 60.6 -1.5 62.3 0.6 65.3 C3.7 67.5 6.3 67.7 10 68 C11.1 71.8 11.1 71.8 10 74 C9.9 75.7 9.9 77.4 9.9 79.1 C9.9 80 10 80.9 10 81.9 C10 82.6 10 83.3 10 84 C13 84.7 15.9 85.3 19 86 C19.8 88.1 19.8 88.1 20 91 C19 92.8 18 94.5 16.9 96.2 C15.5 99 15.5 101 16 104 C16.7 104.8 17.3 105.6 18 106.5 C20.5 109.7 20.4 111 20 115 C19.7 116.2 19.5 117.4 19.2 118.6 C19 122 19 122 21.2 124.8 C22.2 125.5 23.1 126.2 24 127 C25 128 26 129 27 130 C25.7 134.3 23.4 137 20.4 140.3 C16.7 144.8 16.7 148.7 16.7 154.4 C17.1 157.5 18.3 159.4 20 162 C19.2 164.2 19.2 164.2 18 166 C17 168 17 168 17.4 171.3 C17 175 17 175 15.6 176.3 C15.3 176.4 15.3 176.4 13.8 177.4 C9.1 180.3 7.3 183.7 6 189 C5.1 201.2 5.1 201.2 7 205 C8 211.6 8.1 218.3 8 225 C7.3 225 6.7 225 6 225 C6 225.7 6 226.3 6 227 C-6.3 226.3 -20.3 222.8 -30 215 C-32.8 210.9 -32.4 207.8 -32 203 C-31.6 201.3 -31.1 199.6 -30.7 197.9 C-29.6 194.1 -28.6 190.4 -27.6 186.6 C-25.2 177.1 -22.7 167.7 -19.9 158.2 C-19 154.8 -18 151.4 -17 148 C-16.9 147.6 -16.9 147.6 -16.3 145.6 C-12.9 133.4 -10.5 121.2 -8.5 108.7 C-8 105.9 -7.5 103.1 -7 100.3 C-6.1 95.8 -5.4 91.3 -4.9 86.8 C-4.7 85.4 -4.5 84.1 -4.4 82.8 C-3.7 75.6 -3.4 72.7 -8 67 C-8.4 63.5 -8.4 63.5 -8.3 59.8 C-8.3 58.6 -8.3 57.4 -8.2 56.1 C-8 53 -8 53 -7 51 C-7.9 50.8 -8.8 50.6 -9.8 50.4 C-13.9 48.6 -15 47 -17 43 C-18.3 37.5 -15.4 33.8 -12.6 29.3 C-11 27 -11 27 -8 24 C-11 24 -13.9 24 -17 24 C-17.3 22.4 -17.7 20.7 -18 19 C-14.1 16.4 -10.5 16.8 -6 17 C-6.1 16 -6.2 15 -6.3 13.9 C-5.9 9.2 -4.4 6.4 -1 3 C-0.3 3 0.3 3 1 3 C0.8 2.5 0.8 2.5 0 0 Z " fill="#41544C" transform="translate(435,441)"/>
<path d="M0 0 C10.4 5.5 19.3 14.8 23 26 C23.8 30 24.4 34 25 38 C42.9 33.6 42.9 33.6 49.9 28.4 C54.1 25.6 59 24.4 64 24 C67.2 25.8 67.2 25.8 69 28 C64 30.6 59.3 32.7 53.9 34.2 C52 35 52 35 50 38 C49.6 41.5 49.6 41.5 50 45 C52.8 48.2 55.9 48.5 60 49 C60.1 48 60.1 46.9 60.2 45.9 C61.4 40.3 64.1 37.5 68.5 34.1 C71.5 32.8 73 33 76 34 C76 35.3 76 36.6 76 38 C74.3 39.3 74.3 39.3 72.1 40.5 C68.8 42.2 67.3 43.5 66 47 C66 48 66 49 66 50 C69.3 50.7 72.6 51.3 76 52 C75.9 51.2 75.8 50.3 75.6 49.4 C76.1 45.2 77.4 43.5 80.2 40.4 C83 38.3 85.6 38.1 89 38 C89 39.3 89 40.6 89 42 C85.8 45 85.8 45 83 45 C82.3 48 81.7 50.9 81 54 C84.6 54 88.3 54 92 54 C92.2 52.9 92.5 51.9 92.8 50.8 C94 46.9 94.8 45.3 98 43 C101.2 42.2 101.2 42.2 104 42 C104.3 43.3 104.7 44.6 105 46 C104.2 46.2 103.4 46.4 102.6 46.6 C100 48 100 48 98.7 51.6 C98.6 52.2 98.6 52.2 98 55 C98.8 54.9 99.7 54.7 100.5 54.6 C105.8 53.8 111 53 116.2 52.5 C117.5 52.3 118.7 52.2 120 52 C120.3 51.3 120.7 50.7 121 50 C121.3 52.3 121.7 54.6 122 57 C122.8 56.8 122.8 56.8 127 56 C126.5 48.2 123 40.4 117.8 34.5 C105.6 24.1 92.5 20.5 77 19 C82.1 13.5 89.1 9.6 96.6 9.3 C109.1 10 121.2 14.3 131 22 C131.7 22.5 132.3 23 133 23.5 C140.5 30.1 144.5 40.5 147 50 C152.5 50.4 156.2 49 161 46.8 C161.7 46.4 162.4 46.1 163.1 45.8 C166.4 44.4 169.4 42.8 172.4 40.8 C175 39 175 39 177 39 C177.4 41.7 177.4 41.7 177 45 C172.8 49.1 168.4 51.6 163.1 53.9 C162.4 54.2 161.6 54.5 160.8 54.9 C126.9 69.3 86.6 73.7 51.4 62.1 C48.9 61 47.6 60.1 46 58 C45.7 56 45.5 54 45.3 52 C44.9 49.2 43.5 47.3 42 45 C42 44 42 43 42 42 C41.3 42.2 40.7 42.5 40 42.7 C28.6 46.5 16.8 48.8 5 51 C4.3 51.1 3.6 51.3 2.8 51.4 C-19.3 55.4 -46.9 56.2 -67.3 45.2 C-69 44 -69 44 -71 41 C-71.1 38.3 -71.1 38.3 -71 36 C-67 37.3 -63.2 38.8 -59.4 40.5 C-53.9 42.9 -48.6 43.9 -42.6 44.6 C-40 45 -40 45 -38 46 C-34.8 46.2 -31.6 46.2 -28.4 46.2 C-27.6 46.2 -26.7 46.2 -25.8 46.2 C-20.6 46.2 -16 45.7 -11 44.4 C-8.4 43.9 -6 43.8 -3.4 43.9 C-3 43.9 -3 43.9 -0.9 43.9 C-0.3 44 0.4 44 1 44 C1.5 34.3 -0.6 26.5 -6.9 19 C-16 10.1 -28.8 6.8 -41 5 C-27.3 -5.5 -16.1 -6.2 0 0 Z " fill="#733C24" transform="translate(475,881)"/>
<path d="M0 0 C2.4 2.3 2.4 2.3 4 4 C2.8 3.6 1.6 3.2 0.4 2.8 C-0.4 2.5 -1.2 2.3 -2.1 2 C-4.2 1.3 -6.2 0.6 -8.3 -0.2 C-21 -4.6 -34.5 -8.5 -48 -9 C-49 -9.1 -50.1 -9.1 -51.1 -9.2 C-67 -9.6 -82.7 -6.8 -95 4 C-96.5 6 -96.5 6 -97.8 8.1 C-98.2 8.7 -98.6 9.4 -99 10.1 C-102.8 17.3 -101 25.5 -99 33 C-99.4 33 -99.4 33 -101.5 33.1 C-126.2 34.5 -156.2 41.4 -173.9 60 C-179.2 66.6 -181.7 73.2 -181.3 81.7 C-180.7 86 -178.8 88.6 -175.4 91.2 C-171.7 93.5 -168.3 94.6 -164 95 C-164.7 96.3 -165.3 97.6 -166 99 C-166.7 99 -167.3 99 -168 99 C-168 99.7 -168 100.3 -168 101 C-169.1 102 -170.2 102.9 -171.3 103.8 C-186 116.3 -198.7 136.4 -200.5 156 C-200.7 164.6 -199.2 172.7 -197 181 C-200.9 178.2 -202.9 175.9 -204.8 171.5 C-205.2 170.6 -205.6 169.6 -206 168.7 C-210.5 156.8 -209 142.3 -203.9 130.9 C-199 120.8 -192.8 112.1 -184.8 104.2 C-183 102 -183 102 -183 98 C-184.8 96.5 -184.8 96.5 -187.2 95.1 C-192.8 91.6 -195.9 88.2 -198 82 C-199.2 71.3 -197.1 64.1 -190.9 55.5 C-173.6 34.4 -145.6 26 -119.4 23.4 C-117.9 23.3 -116.5 23.1 -115 23 C-115.5 20.3 -116 17.9 -117.1 15.3 C-118.5 9.9 -118.4 4.8 -115.9 -0.2 C-108 -11.3 -95.8 -16.2 -82.8 -18.6 C-53.5 -22.6 -24.6 -16.2 0 0 Z " fill="#8F4426" transform="translate(510,118)"/>
<path d="M0 0 C0.7 1.7 0.7 1.7 1 4 C-0.5 6 -0.5 6 -2.7 8.2 C-10.6 16.6 -12.3 25.1 -12.2 36.4 C-11.6 46.6 -7.2 56 0.2 63.1 C2.4 64.9 4.6 66.5 7 68 C7.9 68.6 8.9 69.2 9.8 69.9 C16.9 72.4 25.1 73.1 32 70 C37.8 66.3 41.4 61.7 43 55 C43.8 46.7 43.6 38.9 40.6 31 C39.9 28.6 40.2 27.3 41 25 C43.3 24.7 43.3 24.7 46 25 C47.5 26.9 47.5 26.9 48.9 29.4 C54 37.3 63.1 43.1 72 46 C79.1 46.9 85.2 46.4 91 42 C98.1 35.8 101.1 28.8 104 20 C104.9 17.2 104.9 17.2 106 15 C107 14.7 108 14.3 109 14 C110.4 15 110.4 15 112 17 C112.4 19.6 112.7 22.2 112.9 24.8 C113.9 35.9 116.4 48.2 125 56 C130.8 60.1 136.3 61.8 143.4 61.5 C147 60.8 149.5 59.3 152.4 57.1 C154 56 154 56 156 56 C156 55.3 156 54.7 156 54 C157 53.7 158 53.3 159 53 C159.7 53.3 160.3 53.7 161 54 C161.4 58.5 160.1 61.1 158 65 C154.9 74 156.2 86.3 159.9 94.8 C161.7 98.3 163.4 101.2 167 103 C170.8 103.5 172.5 103.4 175.7 101.2 C182.9 91.3 181.7 77.7 182 66 C183.6 66 185.3 66 187 66 C190.3 75.8 189.1 90.1 185.3 99.6 C182.8 104.2 180.1 107.6 175.7 110.5 C170.7 111.4 166.4 111.3 161.8 108.8 C155.8 104.1 153.4 98.1 151 91 C150.8 90.5 150.8 90.5 149.9 88 C148.9 84.7 148.8 81.9 148.8 78.4 C148.8 77.9 148.8 77.9 148.8 75.1 C149 72.3 149.4 69.7 150 67 C149.2 67.3 148.4 67.7 147.6 68 C140.5 70 134.8 69.6 128.2 66.2 C116.4 59.6 111.2 50.4 107.6 37.5 C107.4 36.6 107.2 35.8 107 35 C104.9 37.6 102.8 40.2 100.9 42.9 C96.9 47.7 90.9 51 85 53 C76.2 53.6 68.7 53.6 61 49 C60.1 48.5 59.2 47.9 58.2 47.4 C55.8 46 53.4 44.5 51 43 C51.1 44.3 51.1 45.5 51.2 46.8 C51.2 55.9 48.6 64.2 42.2 70.8 C34.5 78.1 28 79.6 17.4 79.3 C12.6 78.9 9.1 77.5 5 75 C4.3 74.6 3.5 74.2 2.7 73.7 C-2.5 70.5 -6.3 66.7 -10.3 62.1 C-11.8 60.3 -13.3 58.6 -15 57 C-15.4 57.7 -15.8 58.3 -16.1 59 C-23 70.7 -30.2 78 -43.3 82.3 C-51.7 84.5 -60 82.9 -67.5 78.6 C-74.3 73.8 -78.5 67.2 -80 59 C-81 48.3 -80.2 40.3 -74 31 C-73.3 30.3 -72.7 29.7 -72 29 C-70.7 29 -69.4 29 -68 29 C-67.2 30.6 -67.2 30.6 -67 33 C-67.9 34.7 -68.8 36.5 -69.9 38.1 C-73.8 44.8 -73.7 51.4 -73 59 C-72 62.1 -70.7 64.2 -69 67 C-68.7 68 -68.3 69 -68 70 C-66.3 71 -66.3 71 -64 72 C-63.6 72.3 -63.6 72.3 -61.3 73.5 C-55 76.3 -47.7 76.1 -41.1 74.2 C-31.6 69.8 -24.5 62 -20.3 52.4 C-18 45.9 -18.8 38.9 -19 32.1 C-19.2 23.8 -18.6 18.1 -14 11 C-13.5 10.2 -13 9.4 -12.5 8.6 C-9 3.7 -6.4 0 0 0 Z " fill="#3C0B02" transform="translate(416,211)"/>
<path d="M0 0 C1 0 2 0 3 0 C3 0.9 3 1.8 3 2.8 C4.5 84.7 4.5 84.7 18.4 100.8 C20.8 102.8 22.4 103.8 25.2 104.8 C28.8 106.4 28.8 106.4 29.8 109 C30.1 111.1 30.1 111.1 30 115 C29.3 115.7 28.7 116.3 28 117 C27.3 121.8 27.1 125.8 30 129.8 C30.7 130.5 31.3 131.2 32 132 C32.6 136.5 31.5 139.8 30 144 C29.5 146.6 29.1 149.2 28.7 151.8 C28 154 28 154 25 156 C23.7 156.3 22.3 156.5 21 156.7 C15.1 158 10.5 160.9 5.5 164.1 C3.7 165.2 1.9 166.3 0.2 167.4 C-0.6 167.9 -1.4 168.4 -2.2 168.9 C-4 170 -4 170 -5 170 C-5 169.5 -5 169.5 -5.1 166.7 C-5.5 158.5 -6.3 151 -8.4 142.9 C-9.2 139.3 -9.1 135.9 -8.8 132.1 C-9.1 129.3 -10.3 128.2 -12 126 C-12.7 119.9 -12.7 119.9 -10.5 117.1 C-8.6 114.4 -8.5 112.2 -8.6 108.9 C-9 107 -9 107 -11 104.5 C-13.3 101.7 -13.8 99.6 -13.6 96 C-12.6 92.8 -10.4 91.4 -7.7 89.6 C-4.7 86.7 -4.1 83.2 -3.7 79.1 C-3.8 73.1 -4.2 67.4 -5 61.4 C-7.9 40.4 -4.7 20.5 0 0 Z " fill="#FBF9F8" transform="translate(545,729)"/>
<path d="M0 0 C1 0 2 0 3 0 C7.7 9.4 9.2 19.7 11 30 C11.1 30.7 11.2 31.4 11.4 32.1 C16.5 62 14.9 99.2 5 128 C4.9 130.9 4.9 130.9 5 133 C4 133 3 133 2 133 C1.7 135 1.3 137 1 139 C0.3 139 -0.3 139 -1 139 C-1.1 139.6 -1.2 140.1 -1.3 140.7 C-3.4 147.9 -8 153.7 -14 158 C-13.7 158.7 -13.3 159.3 -13 160 C-14 160 -14.9 160.1 -15.9 160.1 C-19.2 160.6 -21.2 161.7 -23.9 163.6 C-42.9 177 -81.5 195 -105 191 C-114.7 187.2 -119.4 178.2 -123.4 169.1 C-124.3 167.1 -125.2 165 -126 163 C-126.3 162.4 -126.5 161.7 -126.8 161.1 C-130.6 151.6 -131.5 142.5 -131.6 132.3 C-131.6 131.2 -131.6 130.1 -131.6 128.9 C-131.5 118.4 -131.5 118.4 -127 114 C-120.4 109.7 -113.2 107.8 -105.6 106.1 C-95.3 103.7 -85.6 100.7 -75.9 96.7 C-74 96 -74 96 -70.7 95.4 C-67.5 93.8 -67.4 93.2 -66.2 90 C-64.9 85.2 -64.1 80.5 -63.5 75.6 C-63.4 74.7 -63.3 73.9 -63.1 73 C-61.5 61 -60.3 49 -59 37 C-56.1 36.4 -53.4 35.9 -50.4 35.7 C-46.6 34.9 -45.3 34.1 -43 31 C-42.2 28.8 -42.2 28.8 -42 27 C-41.7 27.5 -41.7 27.5 -40 30 C-42.1 35 -45.4 36.5 -50 38.8 C-52 40 -52 40 -53 43 C-53.1 44.9 -53.2 46.9 -53.2 48.8 C-53.5 57.5 -54.4 65.9 -55.8 74.5 C-56 75.5 -56.1 76.5 -56.3 77.5 C-59.1 94.3 -59.1 94.3 -63.7 98.7 C-65.8 100.1 -67.8 101 -70 102 C-70.9 102.4 -71.8 102.8 -72.8 103.3 C-75.8 104.6 -78.9 105.8 -82 107 C-82.8 107.3 -83.6 107.6 -84.4 107.9 C-92.7 111.1 -101.2 113 -109.9 114.8 C-111.1 115 -112.2 115.3 -113.3 115.5 C-114.3 115.7 -115.3 116 -116.3 116.2 C-119.1 117 -120.8 118 -123 120 C-127.7 134.2 -123.2 152.2 -117.1 165.3 C-109.5 180.3 -109.5 180.3 -104 183 C-76.2 185.1 -40.4 168.3 -18.9 151.4 C-2.4 137 1.2 116.9 4 96 C4.1 95.3 4.2 94.5 4.3 93.8 C5.4 84.9 5.2 76 5.2 67.2 C5.2 66.8 5.2 66.8 5.2 64.6 C5.2 47 4.6 30.1 -0.2 13.2 C-1 10 -1 10 -1 6 C-1.3 5.8 -1.3 5.8 -3 5 C-1.1 1.1 -1.1 1.1 0 0 Z " fill="#11302D" transform="translate(637,470)"/>
<path d="M0 0 C0.2 1.1 0.3 2.1 0.5 3.2 C4.1 25.1 4.1 25.1 8.8 35.1 C10.2 38.4 10 39.6 9 43 C4.3 49.9 -2.5 52 -10.1 54.3 C-18.3 56.8 -22.4 59 -26.8 66.6 C-27.2 67.4 -27.6 68.2 -28 69 C-30 71 -30 71 -32.4 71.3 C-35 71 -35 71 -36.6 69.8 C-39.4 66.2 -38.6 61.3 -38 57 C-36.6 52.9 -34.4 49.6 -32 46 C-32 45 -32 44 -32 43 C-34.7 43.4 -35.8 43.7 -37.6 45.8 C-40.8 50.7 -43.2 55.4 -45 61 C-47.6 60 -49 59 -50.8 56.9 C-52.7 52.3 -51.9 48.5 -50.3 44 C-48.1 39.2 -45.3 36 -41.4 32.5 C-40 31 -40 31 -40 28 C-44.9 28.4 -46.9 30.3 -50 34 C-51.9 36.9 -53.5 39.9 -55 43 C-56 42.7 -57 42.3 -58 42 C-59.7 38.7 -59.6 35.6 -59 32 C-53.5 19.2 -43 13.7 -31 8 C-30.3 8 -29.7 8 -29 8 C-29.3 6.7 -29.7 5.4 -30 4 C-34.9 4.6 -39.3 5.6 -44 7 C-43.7 3.9 -43 3 -40.7 0.9 C-29.2 -7.1 -12.9 -2.1 0 0 Z " fill="#F7A177" transform="translate(505,602)"/>
<path d="M0 0 C2.5 2.5 2.8 4.5 3.7 7.9 C6.7 18.1 11.6 26.7 21 32 C28.5 35.9 35.8 35.7 44 34 C43.9 36 43.7 38 43.6 39.9 C43.5 40.5 43.5 40.5 43.3 43.3 C43 46 43 46 42 47 C30.8 47.8 21.1 47 12 40 C11.2 39.4 10.4 38.9 9.6 38.3 C6.6 35.7 4.7 32.8 2.7 29.4 C2.5 29.1 2.5 29.1 1.6 27.6 C-1 23.3 -1 23.3 -1 21 C-1.7 21 -2.3 21 -3 21 C-3 21.7 -3 22.3 -3 23 C-3.7 23 -4.3 23 -5 23 C-5.3 24 -5.7 25 -6 26 C-8.1 27.6 -8.1 27.6 -10.8 29.1 C-11.7 29.6 -12.6 30.2 -13.5 30.7 C-20.8 34.5 -30 34.2 -37.8 31.9 C-40.9 30.7 -44 29.4 -47 28 C-47.1 29.2 -47.2 30.3 -47.2 31.5 C-47.8 36.2 -49.3 40.1 -52 44 C-52.9 44.7 -53.8 45.3 -54.8 46 C-57 48 -57 48 -57.4 49.9 C-57.6 54.4 -56.9 56.5 -54 60 C-54.3 62.2 -54.3 62.2 -55 64 C-58.1 63.4 -59.7 62.5 -61.4 59.9 C-62.7 57.6 -63.9 55.3 -65 53 C-65.6 53.3 -65.6 53.3 -68.4 55 C-76.8 58.8 -88.8 58.6 -97.4 55.4 C-99.7 54.3 -99.7 54.3 -102 53 C-103 52.4 -103.9 51.9 -104.9 51.3 C-109.4 48.6 -113.5 46 -117 42 C-117 41.3 -117 40.7 -117 40 C-119.2 42.2 -121.2 44.4 -123.2 46.8 C-130.4 55.1 -139 60.7 -150.1 61.8 C-151.7 61.8 -153.4 61.9 -155 62 C-156.2 57.9 -156.1 54.2 -156 50 C-155.6 49.9 -155.6 49.9 -153.4 49.3 C-138.1 44.9 -128.9 37 -121 23 C-118.7 25.2 -116.5 27.4 -114.5 29.9 C-108.6 37.2 -101.1 42.5 -92 45 C-82.4 46 -73.9 45.3 -66 39.5 C-57.3 31.8 -56.2 21 -55 10 C-50.8 11.6 -47.1 13.6 -43.3 15.8 C-36 19.7 -29.2 19.9 -21 19 C-17.4 17.7 -14.3 16 -11 14 C-10 13.7 -9 13.3 -8 13 C-7 11.2 -7 11.2 -6 9 C-5 7.4 -3.9 5.8 -2.9 4.2 C-2.3 3.5 -1.8 2.7 -1.2 1.8 C-0.8 1.2 -0.4 0.6 0 0 Z " fill="#DA6D4E" transform="translate(522,244)"/>
<path d="M0 0 C2.1 2.1 2.1 2.1 4 5 C3.6 10.4 1.6 15.5 -0.1 20.6 C-0.4 21.6 -0.7 22.5 -1 23.5 C-1.7 25.4 -2.4 27.4 -3 29.4 C-4 32.3 -5 35.3 -6 38.2 C-9 47 -12 55.7 -16.1 64 C-16.4 64.6 -16.7 65.2 -17.1 65.9 C-20 71.5 -24 76 -28.4 80.5 C-35.7 89.4 -37.4 101.4 -39.5 112.3 C-40.3 116.7 -41.2 121 -42 125.4 C-42.2 126.2 -42.4 127.1 -42.6 128 C-46.7 148.7 -53.9 167.5 -62.2 186.8 C-62.6 187.7 -63 188.6 -63.3 189.5 C-63.5 189.9 -63.5 189.9 -64.3 191.8 C-65.1 194.3 -65.2 196.4 -65 199 C-64 200 -64 200 -61.4 200.1 C-61 200.1 -61 200.1 -59 200 C-52.8 185.1 -46.8 170 -41 154.9 C-40.7 154.2 -40.4 153.5 -40.2 152.7 C-36 141.9 -32.1 131.4 -30.6 119.8 C-28.6 105.9 -23.7 94.7 -16.2 83 C-4.5 64.4 2.7 45.3 9.9 24.6 C10.2 23.8 10.4 23.1 10.7 22.4 C11.2 21 11.6 19.6 12.1 18.2 C14.5 11.3 14.5 11.3 16 9 C19.1 7.8 19.1 7.8 22 7 C21.4 12.9 19.8 18.3 18 24 C18.6 23.9 18.6 23.9 21.4 23.5 C24.4 23.1 27 23 30 23 C27.9 27 26.2 29.1 22 31 C19.7 31.4 17.3 31.7 15 32 C14.7 32.8 14.4 33.6 14.1 34.5 C7.4 53.5 0.2 71.1 -10.8 88.1 C-18.8 100.3 -22.4 112.1 -24.5 126.4 C-26.4 138.4 -30.6 149 -35.2 160.2 C-36.3 162.9 -37.4 165.6 -38.5 168.4 C-39.2 170.2 -40 172 -40.7 173.8 C-42.6 178.5 -44.4 183.2 -46.2 187.9 C-46.4 188.4 -46.4 188.4 -47.3 190.8 C-47.9 192.6 -48.6 194.5 -49.3 196.3 C-50.9 200.7 -52.2 204.1 -56 207 C-60 208 -64.2 208 -67.9 205.9 C-70.1 204.2 -71.8 202.5 -73 200 C-72.8 192.3 -70.3 186.1 -67.2 179.1 C-65.8 175.9 -64.4 172.7 -63.1 169.4 C-62.8 168.8 -62.5 168.2 -62.3 167.5 C-54.5 148.9 -49.6 129.5 -46.5 109.6 C-44.2 95.1 -39.7 82.1 -29.5 71.2 C-20.3 61 -16.5 46.6 -12.3 33.9 C-11.8 32.2 -11.2 30.5 -10.6 28.9 C-8.7 23 -6.7 17.1 -4.8 11.3 C-4.4 10.2 -4.1 9.1 -3.7 8 C-3.4 7.1 -3.1 6.2 -2.8 5.3 C-2 3 -2 3 0 0 Z " fill="#431F0D" transform="translate(417,723)"/>
<path d="M0 0 C3.6 1 7.3 2 11 3 C10.3 8.1 8.9 12.7 7.1 17.6 C7 18 7 18 6.2 20 C5.6 21.8 5 23.5 4.4 25.2 C3.5 27.8 2.5 30.4 1.6 33 C-3.2 46.6 -9 59.5 -16.6 71.8 C-17.3 73 -18.1 74.2 -18.8 75.5 C-20.2 77.7 -21.6 79.9 -22.9 82 C-29.2 92 -32.7 102.5 -33.9 114.2 C-36.2 134.1 -48.5 179.5 -63 194 C-65.4 194.2 -65.4 194.2 -68 194 C-68.7 193.3 -69.3 192.7 -70 192 C-69.7 185.7 -67.9 180.7 -65.3 174.9 C-64.6 173.2 -63.8 171.5 -63.1 169.8 C-61.9 167 -60.6 164.2 -59.4 161.3 C-53.1 146.5 -49.3 130.8 -46.2 115 C-46 114.2 -45.9 113.4 -45.7 112.6 C-45 108.8 -44.3 105 -43.6 101.2 C-41.5 89.8 -38.9 79.3 -30.7 70.8 C-26.8 66.5 -23.7 62.2 -21.1 57 C-20.8 56.3 -20.5 55.6 -20.1 54.9 C-15.6 45.4 -12.4 35.3 -9.1 25.2 C-8.1 22.3 -7.1 19.3 -6.1 16.3 C-5.5 14.4 -4.9 12.6 -4.3 10.8 C-4 9.9 -3.8 9.1 -3.5 8.2 C-3.2 7.5 -3 6.8 -2.8 6 C-2 4 -2 4 0 0 Z " fill="#9B592D" transform="translate(421,730)"/>
<path d="M0 0 C1 0.7 2 1.3 3 2 C2.4 2.3 1.7 2.5 1.1 2.8 C-1 4 -1 4 -2 7 C0.4 8.2 0.4 8.2 4 9 C6 8.2 6 8.2 8.2 7.1 C13.5 4.5 18.2 3.9 24 5 C29.3 7.3 33.8 10 37 15 C37 15.7 37 16.3 37 17 C37.9 17 38.7 17 39.6 17 C50.1 16.9 50.1 16.9 54.1 17.6 C57.3 18 58.2 17.5 61 16 C63.8 16.4 63.8 16.4 66 17 C66 18.3 66 19.6 66 21 C64.4 21.7 62.7 22.3 61 23 C61.2 23.3 61.2 23.3 62 25.1 C63.2 28.5 63.1 31.4 63 35 C63.3 35 63.3 35 64.7 34.8 C69.4 34.5 72.3 34.7 75.9 37.8 C78.5 40.2 80.8 42.5 81.2 46.2 C81.2 46.9 81.2 47.7 81.2 48.5 C81.2 49.3 81.2 50 81.2 50.8 C81 53 81 53 80 56 C80.4 56.1 80.4 56.1 82.1 56.6 C87.1 59.1 90.9 63.8 93 69 C93.8 75.6 93.1 80.2 90 86 C90.8 88.8 92.3 90.4 94.1 92.6 C96.6 97.2 96.6 100.9 96 106 C95.6 107 95.1 108.1 94.7 109.1 C94 112 94 112 95 113.8 C95.9 115.2 96.9 116.5 97.8 117.9 C100.3 122.4 99.3 127.4 98.3 132.3 C98.2 133.2 98.1 134.1 98 135 C98.5 135.6 98.9 136.2 99.4 136.8 C101.9 140.2 101.4 143.9 101 148 C100.7 148.7 100.3 149.3 100 150 C100.5 150.1 100.5 150.1 103.2 150.3 C106.9 151 108.4 151.6 111 154 C110.7 155.6 110.3 157.3 110 159 C106.4 158.4 103.3 157.4 100 156 C100.3 156.6 100.6 157.2 100.9 157.9 C103.4 163.6 105.2 168.7 104 175 C102.1 178.3 102.1 178.3 100 181 C98.7 183.2 98.7 183.2 98 185 C98.3 185.7 98.7 186.3 99 187 C99.5 193.2 99.7 198.8 96 204 C94.1 205.8 92 207.4 90 209 C88.6 211.3 88.6 211.3 88 213 C87.7 211 87.3 209 87 207 C86 206.7 85 206.3 84 206 C84 205.3 84 204.7 84 204 C84.5 203.7 84.5 203.7 86.9 202.1 C91 199.3 91 199.3 92 196 C92.3 192.9 92.4 190.8 91 188 C89.6 185.1 89.5 183.2 90 180 C92.4 177.8 92.4 177.8 95 176 C96.9 172.2 96.7 168.1 96 164 C94.1 160.6 91.8 157.8 89 155 C89 153.3 89 151.7 89 150 C90.6 149.3 92.3 148.7 94 148 C94.4 145.2 94.4 145.2 94 142 C91 139.6 91 139.6 88 138 C88.5 134.6 89.1 132.9 91 130 C91.6 125.7 91.5 122 89.7 118.1 C88 116 88 116 86.3 114.5 C85 113 85 113 84.6 110.6 C85 108 85 108 87.1 106.1 C89 104 89 104 89.2 100.7 C87.8 96.3 85.8 94.7 82.5 91.6 C81 90 81 90 80.9 87.4 C82 85 82 85 83.6 82.9 C85.8 78.3 85.8 74 85 69 C81.9 63.6 77.6 61.4 72 59 C72.2 58.4 72.3 57.7 72.5 57.1 C73.2 53 73.7 49.1 73 45 C71.2 42.9 71.2 42.9 68 42 C65.1 41.9 62.2 41.9 59.3 42 C58.6 42 57.8 42 57 42 C55.2 40.2 55.6 37.4 55.4 34.9 C55.4 33.8 55.3 32.7 55.2 31.6 C55.1 30.7 55.1 29.9 55 29 C54.4 28.9 53.7 28.8 53.1 28.7 C52.4 28.5 51.7 28.2 51 28 C50.8 27.5 50.8 27.5 50 25 C45.3 22.7 38.9 24 34 25 C33.7 24.4 33.4 23.8 33.1 23.1 C28.6 14.5 28.6 14.5 24 13 C16.8 12 11.9 12.9 6 17 C4 18 4 18 1.9 17.8 C-0.8 16.7 -2.8 14.9 -5 13 C-4.8 12.1 -4.6 11.1 -4.4 10.1 C-4 7 -4 7 -5 5 C-4.3 5 -3.7 5 -3 5 C-2.8 4.7 -2.8 4.7 -2.1 3.1 C-1 1 -1 1 0 0 Z " fill="#674226" transform="translate(578,392)"/>
<path d="M0 0 C3 1 5.9 2 9 3 C8 3.3 7 3.7 6 4 C6 4.7 6 5.3 6 6 C7 6.3 8 6.7 9 7 C12.2 11.8 11.4 17.6 10.5 23.1 C10.3 23.7 10.2 24.3 10 25 C10.3 25.1 10.3 25.1 11.9 25.9 C14.3 27.2 15.7 28.2 16.6 30.8 C17.6 36.4 17.5 42.5 16 48 C16.9 48.5 17.9 49 18.9 49.6 C22.8 52.6 23.2 54.2 24 59 C24.3 63.9 24.3 68.3 23 73 C23 73.7 23 74.3 23 75 C23.3 75.1 23.3 75.1 24.8 75.6 C28.8 78.2 30.5 82 31.6 86.5 C32.6 93.2 32.6 93.2 30.2 96.6 C28 98 28 98 26 98 C26.2 98.6 26.2 98.6 26.9 101.9 C27.1 102.6 27.3 103.3 27.5 104.1 C28 106 28 106 29 108 C29.4 111.9 29.1 113.7 27.3 117.2 C23.3 122 19.5 123.3 13.6 124.5 C10.5 125.1 7.5 125.9 4.4 126.6 C3.9 126.8 3.9 126.8 1.3 127.4 C0.5 127.6 -0.2 127.8 -1 128 C-0.5 123.8 0.3 119.9 1.4 115.9 C2.8 110.2 3.8 104.5 4.6 98.6 C4.7 98.2 4.7 98.2 5 96.1 C9.1 66.5 8.8 34.9 0.8 5.9 C0 3 0 3 0 0 Z " fill="#C4A076" transform="translate(642,474)"/>
<path d="M0 0 C5.6 2.8 8.5 5.2 10.9 11 C13.3 15.4 17.3 18.4 22 20 C29.8 20.6 35.6 20.7 42 16 C43 15.3 44 14.7 45 14 C48.1 15.1 48.1 15.1 51.7 16.9 C52.9 17.4 54 18 55.3 18.6 C56.2 19.1 57.1 19.5 58 20 C56.5 24.9 55.3 27.1 51 30 C48.6 31.2 47.1 31.1 44.4 31.1 C44 31.1 44 31.1 41.9 31 C41.3 31 40.6 31 40 31 C40.1 32 40.1 33 40.2 34 C40.2 39 38.8 43.8 35.6 47.7 C32.8 49.9 29.5 50 26 50 C22.5 49.1 22.5 49.1 20 48 C19.8 48.3 19.8 48.3 18.6 49.9 C12.1 58.5 12.1 58.5 8 60 C4.3 59.9 4.3 59.9 1 59 C-1.4 55.3 -1 53.9 -0.8 49.6 C-0.7 46 -0.7 46 -1 43 C-3.9 40.3 -3.9 40.3 -7 39 C-8.5 36.1 -8.4 34.2 -8 31 C-6.2 28.1 -4.1 25.6 -1 24 C-0.4 21.4 -0.4 21.4 0 19 C-1 18.7 -2 18.3 -3 18 C-5.3 14.8 -5.5 11.9 -5 8 C-3.1 5.9 -3.1 5.9 -1 4 C-0.4 1.9 -0.4 1.9 0 0 Z " fill="#EACDA4" transform="translate(450,664)"/>
<path d="M0 0 C3.7 0.5 7.1 1.7 10.6 2.9 C16.4 4.9 22 6.1 28 7 C30.7 17.1 30.7 17.1 29.1 21.6 C28.2 23.1 27.3 24.5 26.3 26 C23.6 30.1 22.9 33.9 23.3 38.8 C24 42 24 42 25 45 C25.1 46.6 25.2 48.3 25.2 49.9 C25.3 50.8 25.3 51.6 25.3 52.5 C24.9 55.5 24.1 56.8 22 59 C19.1 59.7 19.1 59.7 16 59 C7.5 50.3 6.3 36.6 5 25 C3.7 25 2.4 25 1 25 C0.5 33.6 1.4 40.6 4.1 48.7 C5.7 54.6 5.2 59.3 3 64.9 C2.6 65.9 2.3 66.9 1.9 67.8 C1.6 68.6 1.3 69.3 1 70 C-7.8 61.7 -9 49.9 -9.4 38.4 C-9.2 28.5 -7.2 7.2 0 0 Z " fill="#F5A177" transform="translate(411,667)"/>
<path d="M0 0 C2.5 2 2.5 2 5 5 C5.3 8.5 5.3 8.5 4.9 12.4 C4.9 13.1 4.8 13.8 4.7 14.5 C4.5 16.7 4.3 18.8 4 21 C3.9 22.2 3.7 23.4 3.6 24.6 C1.1 45.5 -3.6 66.1 -9.5 86.3 C-12.9 98 -16 109.8 -19.1 121.6 C-20.2 125.6 -21.3 129.6 -22.4 133.6 C-23.4 137.5 -23.8 141.1 -23 145 C-16.4 155.3 1.9 157.3 13 160 C12.8 161 12.8 161 12 166 C-1.5 165.7 -14.8 160.5 -26 153 C-30 148.6 -31.3 145.4 -31.2 139.4 C-30.8 134.6 -29.4 130 -28.2 125.4 C-28 124.9 -28 124.9 -27.3 122 C-23.9 109.5 -20.4 97 -16.8 84.6 C-16.7 84.2 -16.7 84.2 -16.1 82.1 C-15.7 80.6 -15.3 79.1 -14.8 77.6 C-11.8 67 -9.4 56.4 -7.8 45.4 C-7.6 44.2 -7.4 42.9 -7.2 41.7 C-6.7 38.4 -6.2 35.1 -5.7 31.9 C-5 27.2 -4.3 22.6 -3.5 18 C-3.2 15.5 -2.8 13.1 -2.4 10.6 C-2.2 9.5 -2.1 8.4 -1.9 7.3 C-1.7 6.3 -1.6 5.3 -1.4 4.3 C-1 2 -1 2 0 0 Z " fill="#103132" transform="translate(427,508)"/>
<path d="M0 0 C0.8 0 1.6 0 2.4 0 C14.7 0.4 25.5 5.1 34.6 13.5 C38.2 17.8 40.6 20.8 40.6 26.5 C33.1 28.7 26.4 30 18.6 29.5 C19.1 25.8 19.6 23.8 22.6 21.5 C23.2 21.2 23.9 20.8 24.6 20.5 C24.6 19.5 24.6 18.5 24.6 17.5 C21.4 18 18.6 18.5 15.6 19.5 C14.9 21.5 14.9 21.5 14.4 24 C13.6 28.4 13.6 28.4 12.6 29.5 C5.3 29.7 5.3 29.7 1.6 28.5 C1.2 25.8 1.2 25.8 1.6 22.5 C4 19.6 6.4 17.6 9.6 15.5 C9.6 14.8 9.6 14.2 9.6 13.5 C5 13.7 3.1 14 -0.3 17.2 C-2.4 20.5 -3.2 22.6 -3.4 26.5 C-4.7 26.5 -6 26.6 -7.2 26.6 C-8 26.6 -8.7 26.7 -9.4 26.7 C-11.4 26.5 -11.4 26.5 -14.4 24.5 C-13.9 20.1 -12.5 17.7 -9.4 14.5 C-6.2 12.7 -6.2 12.7 -3.4 11.5 C-3.8 10.5 -4.1 9.5 -4.4 8.5 C-9 9 -11.9 10.7 -15.4 13.5 C-17.8 16.7 -18.9 19.5 -19.4 23.5 C-23.1 23.8 -25.1 23.7 -28.3 21.9 C-30.4 19.5 -30.4 19.5 -31.1 16.1 C-30.2 11.4 -29.3 10.3 -25.4 7.5 C-22.4 6.3 -19.5 5.4 -16.4 4.5 C-13.4 3.5 -13.4 3.5 -11.1 1.9 C-7.4 -0 -4 -0 0 0 Z " fill="#F59F77" transform="translate(554.4375,906.5)"/>
<path d="M0 0 C0.7 0.2 1.4 0.4 2.1 0.5 C12.1 3.2 19.3 7.3 25 16 C26.3 19 26.6 22 27 25.2 C6.8 29.7 6.8 29.7 -3 28.2 C-4.9 26.9 -4.9 26.9 -6 25.2 C-6.6 21 -6.5 19 -4.1 15.4 C0 12.5 4 11.9 9 11.2 C9 10.3 9 9.3 9 8.2 C-2 7.7 -2 7.7 -7 11.2 C-10.9 15.8 -11.6 19.4 -12 25.2 C-14 25.2 -16 25.2 -18 25.2 C-18.3 21.9 -18.4 18.6 -18 15.2 C-15.7 12.8 -13.9 11.7 -11 10.2 C-10.4 8.2 -10.4 8.2 -10 6.2 C-15.4 7.4 -18.6 8.6 -22 13.2 C-23 16.2 -23.6 19.2 -24 22.2 C-25.6 21.9 -27.3 21.6 -29 21.2 C-29.3 18.3 -29.5 16.1 -28 13.6 C-26.2 11.4 -24.6 9.5 -22 8.2 C-22 7.6 -22 6.9 -22 6.2 C-25.4 5.9 -26.7 6.1 -29.6 8 C-31.7 10 -33.4 11.9 -35 14.2 C-35.4 12.1 -35.4 12.1 -35 9.2 C-30.3 4.2 -24.3 1.9 -18 -0.8 C-12.6 -3.4 -5.6 -1.5 0 0 Z " fill="#F3A07A" transform="translate(443,893.75)"/>
<path d="M0 0 C0.4 0.1 0.4 0.1 2.7 0.6 C3.6 0.8 4.4 1 5.3 1.2 C7.2 1.6 9 2 10.9 2.5 C19.8 4.4 28.7 4.1 37.9 4.1 C39.5 4 41.1 4 42.8 4 C46.8 4 50.7 4 54.7 3.9 C54.1 4.9 53.6 5.8 53.1 6.7 C52.3 8 51.6 9.2 50.9 10.5 C50.5 11.1 50.2 11.7 49.8 12.3 C44.6 21.3 40.8 31 37.7 40.9 C36.7 41.1 36.7 41.1 31.7 41.9 C31.4 41.1 31.1 40.3 30.8 39.4 C24.5 21.7 14.5 12.3 -2.1 4.4 C-3.2 3.9 -4.2 3.4 -5.3 2.9 C-3.6 0.7 -2.9 -0.1 0 0 Z " fill="#EFA47B" transform="translate(473.3125,869.07421875)"/>
<path d="M0 0 C0.6 0.1 0.6 0.1 3.5 0.7 C19.8 3.5 34.9 3.5 51.2 1.4 C54.2 1.1 57 0.9 60 1 C59.5 2.1 59.1 3.1 58.6 4.2 C53.5 16 50.3 27.2 49 40 C47.7 40 46.4 40 45 40 C44.5 38.9 44 37.9 43.5 36.8 C36.8 22.7 29.1 12 13.8 6.2 C9.3 4.6 4.7 3.2 0 2 C0 1.3 0 0.7 0 0 Z " fill="#EEA37D" transform="translate(581,884)"/>
<path d="M0 0 C0.2 1 0.2 1 1 6 C0.4 6.3 -0.2 6.6 -0.8 6.9 C-6 9.5 -9.6 11.5 -12 17 C-12.6 21 -12.9 25 -13 29 C-13.3 29 -13.7 29 -14 29 C-14 26.4 -14 23.7 -14 21 C-14.7 21.4 -15.3 21.9 -16 22.4 C-29.3 31.1 -42.8 36.8 -59 36 C-60.4 32.1 -61.1 29.1 -61 25 C-59.8 24.7 -58.7 24.4 -57.4 24 C-48.8 21.7 -40.3 19.3 -32 16 C-31.3 15.7 -30.6 15.4 -29.9 15.1 C-24.9 13 -20.1 10.5 -15.3 8 C-14.7 7.7 -14.1 7.3 -13.4 7 C-10.4 5.4 -7.5 3.7 -4.7 1.8 C-2 0 -2 0 0 0 Z " fill="#DB6D4E" transform="translate(552,420)"/>
<path d="M0 0 C2.1 1 4.1 2.2 6.1 3.3 C16.5 9.3 27.4 10.3 39.1 10.8 C42 11 42 11 43 12 C43 13.7 43 15.3 43 17 C41.6 17.7 40.3 18.3 38.9 18.9 C38.1 19.3 37.3 19.7 36.6 20 C25 24.4 9.8 23.4 -1.4 18.4 C-5.3 16.3 -8.9 14.1 -11 10 C-11.4 3.9 -11.4 3.9 -10 1.1 C-6.6 -0.8 -3.7 -0.8 0 0 Z " fill="#3F0D03" transform="translate(481,287)"/>
<path d="M0 0 C0 0.7 0 1.3 0 2 C1 2.3 2 2.7 3 3 C3.3 5 3.7 7.1 4 9.1 C4.2 10.3 4.4 11.4 4.6 12.6 C5 15.8 5.1 18.8 5 22 C-2.6 25.3 -11.6 26.5 -19.6 24.3 C-23.2 22.8 -25.5 21.5 -28.1 18.6 C-29.3 15.1 -29.4 13.6 -28 10 C-20.6 1.1 -11.1 -0.6 0 0 Z " fill="#F2755E" transform="translate(532,353)"/>
<path d="M0 0 C0.3 2.3 0.3 2.3 0 5 C-9.7 14.2 -28.3 21.5 -41.8 21.3 C-46.1 20.7 -50 18.8 -54 17 C-54.9 16.6 -55.7 16.2 -56.6 15.8 C-58.8 14.9 -60.9 14 -63 13 C-63 11 -63 9 -63 7 C-62.1 7 -61.2 7 -60.3 7.1 C-26.9 7.7 -26.9 7.7 -12 3 C-11 2.7 -10 2.4 -9 2.1 C-2.8 0 -2.8 0 0 0 Z " fill="#693F27" transform="translate(641,842)"/>
<path d="M0 0 C4.6 0.6 4.6 0.6 6 2 C5.7 6.6 5.2 9.7 2 13 C-0.3 13.7 -0.3 13.7 -2.9 13.9 C-7.7 14.7 -10.1 15.9 -13 20 C-13.8 22.8 -13.8 22.8 -14 25 C-21.8 28.3 -29.7 27.7 -37.6 25.1 C-42.8 22.8 -46.9 19.7 -50 15 C-49.6 12.3 -49.6 12.3 -49 10 C-44.6 8.7 -44.6 8.7 -42.1 10 C-41.4 10.5 -40.8 10.9 -40.1 11.4 C-33.2 15.6 -25.3 14.8 -17.6 13.6 C-10.4 11.5 -5.1 5.1 0 0 Z " fill="#3D0F07" transform="translate(529,324)"/>
<path d="M0 0 C0 0.3 0 0.3 0.3 1.7 C1.1 5.8 1.9 9.1 4.2 12.6 C6.4 16.7 6.1 18.6 5 23 C2.2 24.1 1.1 24 -1.8 23 C-2.8 22.5 -3.7 22.1 -4.8 21.6 C-5.7 21.1 -6.7 20.6 -7.7 20.1 C-8.5 19.8 -9.2 19.4 -10 19 C-10.5 19.4 -10.5 19.4 -12.8 21.4 C-17.7 25.6 -22.6 25.3 -28.8 25.3 C-34.9 24.8 -38.3 22 -42.4 17.6 C-44.6 14.8 -45.8 12.6 -46 9 C-45.3 9 -44.7 9 -44 9 C-43.6 9.9 -43.2 10.9 -42.8 11.8 C-40.8 15.4 -39.8 16.5 -36 18 C-30.5 18.5 -26.6 18.4 -22 15 C-21.2 13.4 -20.3 11.8 -19.6 10.1 C-16.7 4.9 -13.6 3.5 -8.2 1.9 C-1.8 0 -1.8 0 0 0 Z " fill="#C89C6F" transform="translate(504,660)"/>
<path d="M0 0 C6.2 0.3 6.2 0.3 9 2.6 C10.5 6.2 10 9.3 9 13 C3.8 23.1 -5.3 27.6 -15.5 31.2 C-19.7 32.1 -23.8 32.6 -28 32 C-28.7 31.3 -29.3 30.7 -30 30 C-30 27.6 -30 27.6 -29 25 C-26.6 23.5 -26.6 23.5 -23.5 22.2 C-13.1 17.3 -7.2 10.4 -1 1 C-0.7 0.7 -0.3 0.3 0 0 Z " fill="#451004" transform="translate(412,297)"/>
<path d="M0 0 C0.5 0.2 1.1 0.4 1.6 0.6 C7.2 2.5 12.9 4.1 18.6 5.6 C19 5.7 19 5.7 21.1 6.3 C30.1 8.7 38.6 9.1 47.9 9.1 C48.5 9.1 48.5 9.1 51.5 9 C54.3 9 57.2 9 60 9 C60 10.6 60 12.3 60 14 C49.5 16.8 39.2 17.3 28.4 17.4 C27.1 17.4 25.9 17.4 24.5 17.4 C15.3 17.4 6.9 16.1 -2 14 C-1.1 4.2 -1.1 4.2 0 0 Z " fill="#6A4129" transform="translate(583,864)"/>
<path d="M0 0 C0.3 2.3 0.3 2.3 0 5 C-10.9 12.7 -27.6 17.4 -41 16 C-44.4 15.1 -47.7 13.9 -50.9 12.6 C-51.8 12.2 -52.6 11.9 -53.5 11.6 C-59.4 9.3 -59.4 9.3 -62 8 C-62 6 -62 4 -62 2 C-61.1 2.1 -60.1 2.3 -59.2 2.4 C-42.3 4.9 -23.9 5.7 -7.3 0.9 C-4 0 -4 0 0 0 Z " fill="#6C4229" transform="translate(531,837)"/>
<path d="M0 0 C2.6 1 5.3 2 8 3 C7.6 3.7 7.1 4.3 6.7 5 C4.8 8.4 3.6 11.9 2.4 15.6 C2.2 16.3 2 17 1.8 17.8 C-3.5 35.7 -4.4 53.8 4.7 70.6 C5.1 71.4 5.5 72.2 6 73 C6.3 73.7 6.7 74.3 7 75 C6.1 77 5.1 79 4 81 C0.5 77.9 -1.6 74.4 -3.6 70.2 C-3.8 69.9 -3.8 69.9 -4.5 68.4 C-11.7 53.9 -11.1 34.8 -6.2 19.5 C-5.8 18.4 -5.4 17.2 -5 16 C-4.5 14.5 -4.1 13 -3.6 11.5 C-2.4 7.7 -1.2 3.8 0 0 Z " fill="#8A2B19" transform="translate(405,663)"/>
<path d="M0 0 C2.9 1.7 3.7 3.1 4.6 6.2 C5.4 11.3 5.4 15.3 2.5 19.5 C-0.5 22.5 -4.1 23.7 -8 25 C-8.6 25.2 -8.6 25.2 -11.8 26.3 C-21.2 29.4 -30.9 32.5 -41 32 C-34.1 24.5 -26.2 22.8 -16.7 20.2 C-11.9 18.9 -7.3 17.6 -3 15 C-1.6 12.3 -1.9 10 -2 7 C-7.1 7.9 -12 9.6 -16.9 11.2 C-20 12 -20 12 -24 12 C-23.7 10 -23.3 8 -23 6 C-22.3 5.7 -21.5 5.5 -20.8 5.2 C-19.8 4.8 -18.8 4.5 -17.8 4.1 C-17.3 4 -17.3 4 -14.9 3.1 C-13 2.4 -11.2 1.7 -9.4 0.9 C-6.1 -0.4 -3.5 -0.4 0 0 Z " fill="#2D1206" transform="translate(662,597)"/>
<path d="M0 0 C4.6 0.6 4.6 0.6 6 2 C5.9 8.6 3.1 13 -1 18 C-5.8 22.2 -10.9 23.1 -17 24 C-17.6 23.2 -18.2 22.4 -18.8 21.6 C-21.2 18.8 -21.6 18.5 -25 18 C-28.3 17.8 -31.7 17.7 -35 17.6 C-38 17 -38 17 -39.9 15.2 C-41.4 12.2 -40.8 10.2 -40 7 C-38.3 6.3 -38.3 6.3 -36 6 C-33.5 7.2 -33.5 7.2 -30.8 8.9 C-25.6 11.9 -21.9 13.1 -16 12 C-13.2 11.2 -10.6 10.2 -8 9 C-7.2 8.7 -6.4 8.4 -5.6 8.1 C-3.3 6.5 -2.9 4.6 -2 2 C-1.3 1.3 -0.7 0.7 0 0 Z " fill="#3D0F06" transform="translate(428,341)"/>
<path d="M0 0 C5.5 0.8 10.5 2.4 15.7 4.1 C26.3 7.5 36 8.3 47.1 8.1 C48.5 8.1 49.8 8.1 51.2 8.1 C54.5 8.1 57.7 8 61 8 C61 9.7 61 11.3 61 13 C57 17 44.6 15.2 39.3 15.3 C32.4 15.2 25.5 14.7 18.6 13.7 C17.8 13.6 17 13.5 16.1 13.3 C10.5 12.4 5.3 10.9 0 9 C0 6 0 3.1 0 0 Z " fill="#694129" transform="translate(470,853)"/>
<path d="M0 0 C0.4 -0 0.4 -0 2.2 -0 C4.6 0.2 4.6 0.2 9.6 2.2 C9.6 6.2 9.6 10.2 9.6 14.2 C10.6 14.6 11.5 14.9 12.6 15.2 C16.3 19.4 20 23.9 20.2 29.7 C19.6 33.2 19.6 33.2 18.4 35.3 C16.6 36.2 16.6 36.2 13.9 36.1 C11.6 35.2 11.6 35.2 10.6 33.2 C10 30 9.6 26.8 9.2 23.5 C8.6 20.5 7.9 18 6.6 15.2 C1.1 12.2 -5.4 13.1 -11.4 13.2 C-12.2 10.6 -12.2 10.6 -12.4 7.2 C-9.3 2.2 -5.9 -0 0 0 Z " fill="#C1D1D8" transform="translate(527.4375,336.75)"/>
<path d="M0 0 C0.7 0 1.3 0 2 0 C2.8 7.9 2.8 7.9 0 11.8 C-10.4 19.6 -20.7 23.9 -34 22 C-37.1 20.8 -39.7 19.3 -42 17 C-42 16.3 -42 15.7 -42 15 C-41.4 14.9 -41.4 14.9 -38.4 14.5 C-25.3 12.5 -9.9 9.9 0 0 Z " fill="#F1A27A" transform="translate(536,441)"/>
<path d="M0 0 C2 0.3 2 0.3 4 1 C5.8 4.6 6 8.2 5 12 C2.8 14 0.7 15.4 -1.9 16.8 C-4 18 -4 18 -5 20 C-5.1 21.4 -5.1 22.8 -5.1 24.1 C-5 25.4 -5 26.7 -5 28 C0.7 29.9 5.6 29.5 11 27 C12 27 13 27 14 27 C14.8 28.8 14.8 28.8 15 31 C12.8 33.8 11.4 34.9 8 36 C2.4 36.5 -2.4 36.7 -7.6 34.4 C-11.3 30.7 -12.8 27.7 -13.4 22.5 C-12.8 17.1 -10.3 14.2 -6.4 10.6 C-4 9 -4 9 -1 9 C-1 7.7 -1 6.4 -1.1 5.1 C-1.1 3.7 -1.1 2.4 -1 1 C-0.7 0.7 -0.3 0.3 0 0 Z " fill="#AF3823" transform="translate(448,344)"/>
<path d="M0 0 C2.3 1.3 4.3 2.8 6.4 4.4 C6.1 6 5.7 7.7 5.4 9.4 C0.7 8.9 -2.7 7.5 -6.8 5.3 C-12.9 2.2 -20.8 2.4 -27.3 4.1 C-32.1 6.1 -35 8.7 -38.6 12.4 C-41.4 13.2 -41.4 13.2 -43.6 13.4 C-44.4 11.2 -44.4 11.2 -44.6 8.4 C-33.5 -5.5 -15.6 -7.4 0 0 Z " fill="#992713" transform="translate(489.6171875,396.61328125)"/>
<path d="M0 0 C5.5 0.8 5.5 0.8 8.1 2.1 C10 3 10 3 12.1 2.8 C14 2 14 2 17 0 C19.2 0.4 19.2 0.4 21 1 C20.7 2.9 20.7 2.9 20 5 C19 5.3 18 5.7 17 6 C21.6 10.9 21.6 10.9 25 12 C25.8 11.7 26.6 11.3 27.4 11 C30.2 9.9 31.3 10 34 11 C33.7 12.3 33.3 13.6 33 15 C31.4 15.3 29.7 15.7 28 16 C28.4 16.5 28.7 16.9 29.1 17.4 C29.6 18 30.1 18.6 30.6 19.2 C31 19.9 31.5 20.5 32 21.1 C33 23 33 23 32.7 25.2 C32.4 25.8 32.2 26.4 32 27 C28.7 26.7 28 26 25.8 23.4 C25.2 22.6 24.6 21.8 24 21 C23.7 21.2 23.7 21.2 22.3 22.1 C19.5 23.2 17.9 22.8 15 22 C15.3 21.4 15.7 20.8 16 20.2 C17 18 17 18 17 14 C16.2 13.7 16.2 13.7 12 12 C10.7 13.3 9.4 14.6 8 16 C7 15.7 6 15.3 5 15 C5.5 11.6 6.1 9.9 8 7 C5.7 6.3 3.4 5.7 1 5 C0.7 3.4 0.3 1.7 0 0 Z " fill="#916A41" transform="translate(582,428)"/>
<path d="M0 0 C0 1.6 0 3.3 0 5 C-13.9 9.9 -27.4 12.4 -42.1 12.4 C-43.2 12.4 -44.2 12.4 -45.3 12.4 C-52.7 12.3 -52.7 12.3 -55 10 C-55 8.7 -55 7.4 -55 6 C-54.7 6 -54.7 6 -53 6 C-20.4 5.1 -20.4 5.1 -6.1 0.9 C-3 0 -3 0 0 0 Z " fill="#E7A280" transform="translate(636,832)"/>
<path d="M0 0 C0.5 0.6 0.9 1.2 1.4 1.9 C4.1 5.5 6.7 8.3 11 10 C20.1 11.1 27.6 9.2 36 6 C37.3 5.6 38.7 5.3 40 5 C39.2 8.8 38.5 11.4 35.9 14.3 C28.6 18.6 20.3 18.8 12 18 C7.3 16.7 1.9 15.2 -1 11 C-1.1 8.3 -1.1 8.3 -0.7 5.3 C-0.6 4.3 -0.4 3.3 -0.3 2.3 C-0.2 1.5 -0.1 0.8 0 0 Z " fill="#16302C" transform="translate(491,452)"/>
<path d="M0 0 C0.4 3.8 0.4 5.4 -1.9 8.5 C-5.8 11.7 -9.5 12.9 -14.3 14.2 C-15.1 14.5 -15.9 14.8 -16.8 15 C-21.9 16.6 -26.7 17.5 -32 18 C-31.6 17.3 -31.2 16.6 -30.7 15.9 C-30.2 15 -29.6 14.1 -29.1 13.2 C-28.5 12.3 -28 11.4 -27.4 10.5 C-26 8 -26 8 -25 5 C-22.4 4.2 -19.9 3.5 -17.2 2.9 C-15.8 2.6 -14.4 2.3 -13 2 C-12.6 1.9 -12.6 1.9 -10.9 1.5 C-2.1 -0.8 -2.1 -0.8 0 0 Z " fill="#522E1B" transform="translate(661,604)"/>
<path d="M0 0 C0 1.6 0 3.3 0 5 C-9.3 10.3 -21.6 9.3 -31.9 9.2 C-32.6 9.2 -32.6 9.2 -35.8 9.2 C-41.3 9.2 -46.6 9 -52 8 C-52 6 -52 4 -52 2 C-51.4 2.1 -51.4 2.1 -48.2 2.5 C-34.2 3.8 -20.6 3.2 -6.7 0.7 C-3 0 -3 0 0 0 Z " fill="#EBA582" transform="translate(526,826)"/>
<path d="M0 0 C0.7 0 1.3 0 2 0 C2 0.9 2.1 1.8 2.1 2.7 C2.1 3.2 2.1 3.2 2.3 6.2 C2.4 7.3 2.4 8.5 2.5 9.7 C3 13.2 3.9 15.2 6 18 C7 18.7 8 19.3 9 20 C8.7 22.5 8.4 24.9 8.1 27.4 C8.1 27.7 8.1 27.7 7.9 29.5 C7.2 34.8 7.2 34.8 5 37 C4 37.7 3 38.3 2 39 C1.3 38.7 0.7 38.3 0 38 C-2 38 -4 38 -6 38 C-5.4 32.1 -3.8 26.7 -2 21 C-3.6 21.7 -5.3 22.3 -7 23 C-7 22.3 -7 21.7 -7 21 C-6.6 20.9 -6.6 20.9 -4.6 20.5 C-2 19 -2 19 -0.7 15.6 C0.3 10.4 0.2 5.2 0 0 Z " fill="#B45B3E" transform="translate(441,709)"/>
<path d="M0 0 C1 0 2 0 3 0 C4.5 2.6 5 3.9 5 7 C5.7 7 6.3 7 7 7 C10 11.5 9.7 15.8 9 21 C6.9 24.2 6.9 24.2 4 26 C0.9 26.6 0.9 26.6 -2 26 C-4.2 24.3 -4.8 22.9 -5.3 20.2 C-5.7 13.4 -3.5 7.2 -1 1 C-0.7 0.7 -0.3 0.3 0 0 Z " fill="#C5CBC9" transform="translate(543,384)"/>
<path d="M0 0 C0.3 1.6 0.7 3.3 1 5 C0.4 5.1 -0.2 5.3 -0.8 5.4 C-6.8 7.1 -9.6 8.8 -13 14 C-15.5 19.4 -15.6 25.2 -16 31 C-17.7 31.4 -19.3 31.7 -21 32 C-22.8 30.2 -22.2 27.9 -22.2 25.5 C-22.1 17 -20.4 10.7 -14.5 4.4 C-9.7 -0.1 -6.4 -0.3 0 0 Z " fill="#982812" transform="translate(625,296)"/>
<path d="M0 0 C1 0 2 0 3 0 C3.2 9 3 17.2 1 26 C3 27 5 28 7 29 C6.7 30.3 6.3 31.6 6 33 C3.4 32.7 0.7 32.3 -2 32 C-3.3 34.3 -4.6 36.6 -6 39 C-7 39 -8 39 -9 39 C-8.2 32.4 -8.2 32.4 -6 29 C-8 28.3 -10 27.7 -12 27 C-12 25.7 -12 24.4 -12 23 C-9.4 23.3 -6.7 23.7 -4 24 C-3.9 23.4 -3.9 22.8 -3.8 22.2 C-3.3 17.8 -2.8 13.4 -2 9 C-1.7 9 -1.3 9 -1 9 C-0.7 6 -0.3 3.1 0 0 Z " fill="#8B6239" transform="translate(640,663)"/>
<path d="M0 0 C0.6 -0 0.6 -0 3.4 -0 C7.7 0.3 10.5 1.2 13.6 4.2 C13.1 8.8 13.1 8.8 11.6 10.2 C5.4 12 -2 13.6 -8.4 12.2 C-10.2 10.4 -10.2 10.4 -11.4 8.2 C-10.8 5.1 -10.8 5.1 -9.4 2.2 C-5.8 -0.1 -4.2 -0 0 0 Z " fill="#C3D1D4" transform="translate(396.375,357.75)"/>
<path d="M0 0 C0.7 0 1.3 0 2 0 C3.3 3.8 3.2 7.4 3.2 11.4 C3.2 12.2 3.2 13 3.2 13.8 C3.2 21.2 3.2 21.2 1 24 C-1.3 25.3 -1.3 25.3 -3.9 26.2 C-4.8 26.6 -5.7 26.9 -6.6 27.3 C-9 28 -9 28 -12 28 C-10.6 18.1 -6 8 0 0 Z " fill="#673F28" transform="translate(531,879)"/>
<path d="M0 0 C4.4 4.4 3.5 11.6 3.6 17.4 C3.5 23.3 3.5 23.3 1.3 26.3 C-1.9 28.3 -4.2 29 -8 29 C-8.3 22.6 -7.3 17.7 -5.1 11.7 C-5 11.3 -5 11.3 -4.3 9.3 C-3.1 5.8 -2.1 3.1 0 0 Z " fill="#684129" transform="translate(645,891)"/>
<path d="M0 0 C0.9 0 1.8 0 2.7 0 C3.4 0 4.1 0.1 4.8 0.1 C5.1 1.4 5.5 2.7 5.8 4.1 C2.9 6 2.1 6.3 -1.2 6.6 C-3.8 6.9 -5.7 7.2 -8.2 8.1 C-9.1 10.9 -9.3 12.8 -9.2 15.8 C-9.2 17.2 -9.2 18.6 -9.2 20.1 C-12.2 19.7 -15.1 19.4 -18.2 19.1 C-17.5 18.7 -16.9 18.4 -16.2 18.1 C-16.3 16.9 -16.4 15.7 -16.4 14.4 C-16.4 9.9 -15.1 7.5 -12.2 4.1 C-8.3 0.6 -5.1 -0.1 0 0 Z " fill="#952F15" transform="translate(447.1875,900.9375)"/>
<path d="M0 0 C0.7 1 1.3 2 2 3 C4.6 3.7 4.6 3.7 7 4 C3.8 7.8 -0.5 8.9 -5.1 10.6 C-8.1 12.1 -9.9 13.4 -12 16 C-12.8 19.2 -12.8 19.2 -13 22 C-15.3 21.7 -17.6 21.3 -20 21 C-18.9 14.1 -16.5 9.5 -11 5 C-7.5 3.3 -3.9 2 0 2 C0 1.3 0 0.7 0 0 Z " fill="#822B19" transform="translate(420,888)"/>
<path d="M0 0 C1.3 0 2.6 0 4 0 C4.7 3.3 5.3 6.6 6 10 C8.6 10 11.3 10 14 10 C14 11.3 14 12.6 14 14 C10.2 15.8 7.2 16.2 3 16 C3 19.3 3 22.6 3 26 C2.7 26 2.3 26 2 26 C2 23 2 20.1 2 17 C0.7 17.2 0.7 17.2 -6 18 C-6.3 16.4 -6.7 14.7 -7 13 C-4.4 12.7 -1.7 12.3 1 12 C0.7 8 0.3 4.1 0 0 Z " fill="#7F5730" transform="translate(637,647)"/>
<path d="M0 0 C1.3 0.3 2.6 0.7 4 1 C3.9 1.3 3.9 1.3 3.6 2.6 C1.8 10.3 1.8 10.3 3 14 C4 14.3 5 14.6 6 14.9 C6.5 15.1 6.5 15.1 9 16 C9.8 18.1 9.8 18.1 10 20 C10.7 20.3 11.3 20.7 12 21 C12 22.6 12 24.3 12 26 C8.8 25.7 7.4 25.4 5.2 23.1 C4 21 4 21 4 19 C3.4 19 2.8 18.9 2.2 18.9 C-1.3 17.5 -2.3 15.3 -4 12 C-4.7 7.8 -4.2 6.3 -2 2.6 C-1.3 1.8 -0.7 0.9 0 0 Z " fill="#BC986A" transform="translate(462,503)"/>
<path d="M0 0 C1.8 0.1 1.8 0.1 4 1 C4.3 1.5 4.3 1.5 5.8 4.1 C8 7 8 7 11.4 7.7 C15.8 6.8 17.1 5.3 20 2 C20.7 2 21.3 2 22 2 C25 6.4 25 6.4 25 9 C24.7 9.1 24.7 9.1 23.3 9.3 C21 10 21 10 18.8 11.6 C14.8 13.6 11.4 13.8 7 13 C4.1 11.7 3.2 10.6 1 8 C0.2 5.2 0.1 2.9 0 0 Z " fill="#BC9668" transform="translate(571,694)"/>
<path d="M0 0 C0 3.3 0 6.6 0 10 C-3.9 11 -7 11.1 -10.9 11.1 C-12.1 11.1 -13.3 11.1 -14.6 11.1 C-17.5 11 -20.1 10.7 -23 10 C-21.4 6.8 -17.9 6.2 -14.7 5 C-7.3 2.2 -7.3 2.2 -4.7 0.8 C-3 0 -3 0 0 0 Z " fill="#E39F7D" transform="translate(638,857)"/>
<path d="M0 0 C4.8 0.9 4.8 0.9 6.9 2.2 C8 4 8 4 8 7.1 C7 10 7 10 4.4 11.4 C3.6 11.6 2.8 11.8 2 12 C3 16.1 4.4 18.6 7.1 21.8 C10.8 26.3 10.6 30.4 10 36 C9.7 36.2 9.7 36.2 8 37 C8 36.4 8 35.9 8 35.3 C7.6 29.1 5.8 24.9 2 20 C1.4 19.5 0.9 19 0.3 18.5 C-0.1 18 -0.6 17.5 -1 17 C-0.7 15.2 -0.7 15.2 0 13 C0.1 10.8 0.1 8.5 0.1 6.2 C0.1 5.1 0 3.9 0 2.7 C0 1.8 0 0.9 0 0 Z " fill="#EACDA5" transform="translate(665,530)"/>
<path d="M0 0 C1.3 0.3 2.6 0.7 4 1 C4 4.3 4 7.6 4 11 C5.1 10.7 6.1 10.3 7.2 10 C11 9 11 9 15 9 C14.7 11.4 14.7 11.4 14 14 C10.3 16.5 8.4 16.5 4 16 C1.1 14.6 1.1 14.6 -1 12 C-1.8 9 -2.2 6.1 -2 3 C-1.3 2 -0.7 1 0 0 Z " fill="#BB9568" transform="translate(527,540)"/>
<path d="M0 0 C2.9 0.4 2.9 0.4 6 1 C7.3 3.5 7.3 5.6 7.5 8.4 C8 15.1 8 15.1 9 18 C10.8 19 10.8 19 13 20 C15.2 21.4 15.2 21.4 17 24 C17.8 29.1 17.7 33.5 15.5 38.2 C12.7 40.2 12 40.2 8.8 39.8 C7.5 39.5 6.3 39.3 5 39 C5 37.7 5 36.4 5 35 C5.7 35 6.3 35 7 35 C7 35.7 7 36.3 7 37 C9.4 37.1 9.4 37.1 12 37 C14 35 14 35 14.6 31.5 C14.5 25.6 10.7 21.3 7 17 C6.3 16.7 5.7 16.3 5 16 C5 12 5 8.1 5 4 C3.4 3.7 1.7 3.3 0 3 C0 2 0 1 0 0 Z " fill="#D79D8C" transform="translate(532,335)"/>
<path d="M0 0 C-0.1 2.2 -0.1 2.2 -1 5 C-1.5 5.3 -1.5 5.3 -4 6.8 C-7 9 -7 9 -7.6 11.2 C-7.9 13.5 -8 15.7 -8 18 C-10.3 17.7 -12.6 17.3 -15 17 C-14.2 10.5 -13.4 6.2 -8 2 C-4.8 -0.2 -3.7 -0.2 0 0 Z " fill="#993215" transform="translate(433,900)"/>
<path d="M0 0 C-0.1 1.8 -0.1 1.8 -1 4 C-3 5.1 -5 6.1 -7 7 C-8.2 9.4 -8.3 11.4 -8.6 14.1 C-8.6 15 -8.7 15.9 -8.8 16.9 C-8.9 17.6 -8.9 18.3 -9 19 C-10.6 18.7 -12.3 18.3 -14 18 C-14.4 13.3 -14.5 9.9 -12.2 5.6 C-8.3 1 -6.3 -0.4 0 0 Z " fill="#BA9366" transform="translate(563,486)"/>
<path d="M0 0 C1 0 2 0 3 0 C3.6 1.8 3.6 1.8 4 4 C3.7 4.5 3.7 4.5 2 7 C1.9 10.2 1.9 10.2 2 13 C3.3 13.7 4.6 14.3 6 15 C5.7 16.3 5.3 17.6 5 19 C1.9 19.3 0.4 19.2 -2.3 17.6 C-4.8 13.8 -4.8 10.4 -4 6 C-2.2 2.4 -2.2 2.4 0 0 Z " fill="#BC976A" transform="translate(472,554)"/>
<path d="M0 0 C0 1.3 0 2.6 0 4 C-0.8 4.6 -1.6 5.2 -2.4 5.8 C-5.7 8.6 -6.1 10.9 -7 15 C-9.3 14.6 -10.8 14.1 -12.8 12.8 C-14.5 10.2 -14.2 8.1 -14 5 C-13.3 5.7 -12.7 6.3 -12 7 C-11.4 6.2 -10.8 5.4 -10.2 4.6 C-6.9 0.7 -5 -0.3 0 0 Z " fill="#913019" transform="translate(421,899)"/>
<path d="M0 0 C0.3 0.7 0.7 1.3 1 2 C1.8 1.9 2.6 1.8 3.4 1.7 C14.8 0.4 14.8 0.4 20 4 C23.6 9.4 23.3 15.7 23 22 C22.3 21.7 21.7 21.3 21 21 C20.4 17.6 20 14.3 19.6 10.9 C19.4 9.9 19.2 9 19 8 C18.3 7.7 17.7 7.3 17 7 C17 6.3 17 5.7 17 5 C14.7 5 12.4 5 10 5 C10 4.7 10 4.3 10 4 C6.4 3.7 2.7 3.3 -1 3 C-0.7 2 -0.3 1 0 0 Z " fill="#D79D8C" transform="translate(515,348)"/>
</svg>
