<svg viewBox="0 0 500 500" xmlns="http://www.w3.org/2000/svg">
    
      <path d="M 155 130 C 155 50 345 50 345 130 C 360 150 360 225 340 270 L 160 270 C 140 225 140 150 155 130 Z" fill="#E2E8F0" />
      <rect x="180" y="80" width="140" height="15" fill="#475569" rx="5" />
    
    <circle cx="250" cy="140" r="75" fill="#FED7AA" />
    <path d="M 170 165 C 170 270 330 270 330 165 Z" fill="#CBD5E1" />
    
      <!-- Sourcils tristes -->
      <path d="M215 125 Q225 130 L235 120" stroke="#1E293B" stroke-width="6" stroke-linecap="round" fill="none" />
      <path d="M265 120 Q275 130 L285 125" stroke="#1E293B" stroke-width="6" stroke-linecap="round" fill="none" />
      <!-- Yeux tristes -->
      <path d="M215 145 Q225 160 L235 145" stroke="#1E293B" stroke-width="10" stroke-linecap="round" fill="none" />
      <path d="M265 145 Q275 160 L285 145" stroke="#1E293B" stroke-width="10" stroke-linecap="round" fill="none" />
      <!-- Bouche -->
      <path d="M235 175 Q250 165 L265 175" stroke="#1E293B" stroke-width="10" stroke-linecap="round" fill="none" />
      <!-- Larmes -->
      <path d="M225 155 v45" stroke="#3B82F6" stroke-width="10" stroke-linecap="round" />
      <path d="M275 155 v45" stroke="#3B82F6" stroke-width="10" stroke-linecap="round" />
    
  </svg>