<svg viewBox="0 0 500 500" xmlns="http://www.w3.org/2000/svg">
    
      <!-- Turban nomade -->
      <path d="M 170 165 C 170 95 330 95 330 165 Z" fill="#FFFFFF" stroke="#1E293B" stroke-width="4" />
      <rect x="190" y="120" width="120" height="10" fill="#D97706" rx="3" />
    
    <circle cx="250" cy="175" r="70" fill="#FED7AA" />
    <path d="M 180 195 C 180 270 320 270 320 195 Z" fill="#E2E8F0" />
    
    
      <path d="M214 183 Q228 197 L242 183" stroke="#1E293B" stroke-width="8" stroke-linecap="round" fill="none" />
      <path d="M258 183 Q272 197 L286 183" stroke="#1E293B" stroke-width="8" stroke-linecap="round" fill="none" />

      <path d="M234 210 Q250 197 L266 210" stroke="#1E293B" stroke-width="7" stroke-linecap="round" fill="none" />
      <path d="M228 187 v40 c0 6, 10 6, 10 0 v-40z" fill="#60A5FA" />
      <path d="M262 187 v40 c0 6, 10 6, 10 0 v-40z" fill="#60A5FA" />
    
  </svg>