<svg viewBox="0 0 500 500" xmlns="http://www.w3.org/2000/svg">
    
      <!-- Turban blanc enroulé -->
      <path d="M 165 150 C 165 60, 335 60, 335 150 Z" fill="#FFFFFF" stroke="#1E293B" stroke-width="5.5" />
      <path d="M 180 125 C 210 100, 290 100, 320 125 L 325 142 C 295 130, 205 130, 175 142 Z" fill="#D97706" stroke="#1E293B" stroke-width="4.5" />
    
    <circle cx="250" cy="175" r="70" fill="#FED7AA" />
    <path d="M 178 185 C 178 285, 322 285, 322 185 C 290 280, 210 280, 178 185 Z" fill="#E2E8F0" stroke="#E2E8F0" stroke-width="2" />
    
    
      <!-- Yeux géants mignons avec double reflet asymétrique (60% du visage) -->
      <circle cx="225" cy="175" r="26" fill="#1E293B" />
      <circle cx="217" cy="167" r="8.5" fill="#FFFFFF" />
      <circle cx="233" cy="183" r="4" fill="#FFFFFF" />

      <circle cx="275" cy="175" r="26" fill="#1E293B" />
      <circle cx="267" cy="167" r="8.5" fill="#FFFFFF" />
      <circle cx="283" cy="183" r="4" fill="#FFFFFF" />

      <!-- Blush rose kawaii -->
      <ellipse cx="205" cy="201" rx="18" ry="10" fill="#FDA4AF" opacity="0.65" />
      <ellipse cx="295" cy="201" rx="18" ry="10" fill="#FDA4AF" opacity="0.65" />

      <!-- Bouche en léger sourire curieux -->
      <path d="M238 207 Q250 219 L262 207" stroke="#1E293B" stroke-width="6.5" stroke-linecap="round" fill="none" />
    
  </svg>