<svg viewBox="0 0 500 500" xmlns="http://www.w3.org/2000/svg">
    
      <path d="M 155 130 C 155 50 345 50 345 130 C 360 150 360 225 340 270 L 160 270 C 140 225 140 150 155 130 Z" fill="#E2E8F0" />
      <rect x="180" y="80" width="140" height="15" fill="#475569" rx="5" />
    
    <circle cx="250" cy="140" r="75" fill="#FED7AA" />
    <path d="M 170 165 C 170 270 330 270 330 165 Z" fill="#CBD5E1" />
    
      <!-- Sourcils inquiets -->
      <path d="M215 120 Q225 125 L235 115" stroke="#1E293B" stroke-width="6" stroke-linecap="round" fill="none" />
      <path d="M265 115 Q275 125 L285 120" stroke="#1E293B" stroke-width="6" stroke-linecap="round" fill="none" />
      <!-- Yeux -->
      <circle cx="225" cy="140" r="10" fill="#1E293B" />
      <circle cx="222" cy="137" r="3" fill="#FFFFFF" />
      <circle cx="275" cy="140" r="10" fill="#1E293B" />
      <circle cx="272" cy="137" r="3" fill="#FFFFFF" />
      <!-- Blush -->
      <ellipse cx="205" cy="155" rx="9" ry="5" fill="#FDA4AF" opacity="0.5" />
      <ellipse cx="295" cy="155" rx="9" ry="5" fill="#FDA4AF" opacity="0.5" />
      <!-- Bouche inquiète + Sueur -->
      <path d="M235 165 h30" stroke="#1E293B" stroke-width="9" stroke-linecap="round" />
      <path d="M305 105 Q315 140 L295 140" fill="#3B82F6" opacity="0.8" />
    
  </svg>