<svg viewBox="0 0 500 500" xmlns="http://www.w3.org/2000/svg">
    
      <!-- Turban nomade -->
      <path d="M 170 165 C 170 95 330 95 330 165 Z" fill="#FFFFFF" stroke="#1E293B" stroke-width="4" />
      <rect x="190" y="120" width="120" height="10" fill="#D97706" rx="3" />
    
    <circle cx="250" cy="175" r="70" fill="#FED7AA" />
    <path d="M 180 195 C 180 270 320 270 320 195 Z" fill="#E2E8F0" />
    
    
      <!-- Yeux joyeux arqués -->
      <path d="M212 180 Q228 157 L244 180" stroke="#1E293B" stroke-width="9" stroke-linecap="round" fill="none" />
      <path d="M256 180 Q272 157 L288 180" stroke="#1E293B" stroke-width="9" stroke-linecap="round" fill="none" />

      <ellipse cx="208" cy="200" rx="18" ry="11" fill="#FDA4AF" opacity="0.75" />
      <ellipse cx="292" cy="200" rx="18" ry="11" fill="#FDA4AF" opacity="0.75" />

      <path d="M236 200 Q250 230 L264 200 Z" fill="#EF4444" stroke="#1E293B" stroke-width="6" stroke-linejoin="round" />
      <path d="M243 217 Q250 207 L257 217 Q250 227 L243 217" fill="#F472B6" />
    
  </svg>