<svg viewBox="0 0 500 500" xmlns="http://www.w3.org/2000/svg">
    
      <!-- Turban blanc enroulé -->
      <path d="M 165 150 C 165 60, 335 60, 335 150 Z" fill="#FFFFFF" stroke="#1E293B" stroke-width="5.5" />
      <path d="M 180 125 C 210 100, 290 100, 320 125 L 325 142 C 295 130, 205 130, 175 142 Z" fill="#D97706" stroke="#1E293B" stroke-width="4.5" />
    
    <circle cx="250" cy="175" r="70" fill="#FED7AA" />
    <path d="M 178 185 C 178 285, 322 285, 322 185 C 290 280, 210 280, 178 185 Z" fill="#E2E8F0" stroke="#E2E8F0" stroke-width="2" />
    
    
      <!-- Sourcils froncés et yeux tristes arqués vers le bas -->
      <path d="M212 185 Q225 199 L238 185" stroke="#1E293B" stroke-width="8" stroke-linecap="round" fill="none" />
      <path d="M262 185 Q275 199 L288 185" stroke="#1E293B" stroke-width="8" stroke-linecap="round" fill="none" />

      <!-- Bouche tremblante triste -->
      <path d="M232 213 Q250 199 L268 213" stroke="#1E293B" stroke-width="7" stroke-linecap="round" fill="none" />
      <!-- Larmes d'eau coulantes texturées -->
      <path d="M224 189 v38 c0 6, 8 6, 8 0 v-38z" fill="#60A5FA" />
      <path d="M268 189 v38 c0 6, 8 6, 8 0 v-38z" fill="#60A5FA" />
    
  </svg>