<svg viewBox="0 0 100 100" xmlns="http://www.w3.org/2000/svg">
    
      <path d="M 31 26 C 31 10 69 10 69 26 C 72 30 72 45 68 54 L 32 54 C 28 45 28 30 31 26 Z" fill="#E2E8F0" /> <!-- Drapé -->
      <rect x="36" y="16" width="28" height="3" fill="#475569" rx="1" /> <!-- Cordeau -->
    
    <circle cx="50" cx="50" cy="28" r="15" fill="#FED7AA" />
    
      <path d="M 34 33 C 34 54 66 54 66 33 Z" fill="#CBD5E1" />
    
    
      <!-- Sourcils tristes -->
      <path d="M43 25 Q45 26 L47 24" stroke="#1E293B" stroke-width="1.2" stroke-linecap="round" fill="none" />
      <path d="M53 24 Q55 26 L57 25" stroke="#1E293B" stroke-width="1.2" stroke-linecap="round" fill="none" />
      <!-- Yeux tristes -->
      <path d="M43 29 Q45 32 L47 29" stroke="#1E293B" stroke-width="2" stroke-linecap="round" fill="none" />
      <path d="M53 29 Q55 32 L57 29" stroke="#1E293B" stroke-width="2" stroke-linecap="round" fill="none" />
      <!-- Bouche qui pleure -->
      <path d="M47 35 Q50 33 L53 35" stroke="#1E293B" stroke-width="2" stroke-linecap="round" fill="none" />
      <!-- Larmes qui coulent -->
      <path d="M45 31 v9" stroke="#3B82F6" stroke-width="2" stroke-linecap="round" />
      <path d="M55 31 v9" stroke="#3B82F6" stroke-width="2" stroke-linecap="round" />
    
  </svg>