<svg viewBox="0 0 100 100" xmlns="http://www.w3.org/2000/svg">
    
      <path d="M 31 26 C 31 10 69 10 69 26 C 72 30 72 45 68 54 L 32 54 C 28 45 28 30 31 26 Z" fill="#E2E8F0" /> <!-- Drapé -->
      <rect x="36" y="16" width="28" height="3" fill="#475569" rx="1" /> <!-- Cordeau -->
    
    <circle cx="50" cx="50" cy="28" r="15" fill="#FED7AA" />
    
      <path d="M 34 33 C 34 54 66 54 66 33 Z" fill="#CBD5E1" />
    
    
      <!-- Sourcils inquiets -->
      <path d="M43 24 Q45 25 L47 23" stroke="#1E293B" stroke-width="1.2" stroke-linecap="round" fill="none" />
      <path d="M53 23 Q55 25 L57 24" stroke="#1E293B" stroke-width="1.2" stroke-linecap="round" fill="none" />
      <!-- Yeux écarquillés -->
      <circle cx="45" cy="28" r="2" fill="#1E293B" />
      <circle cx="44.4" cy="27.4" r="0.6" fill="#FFFFFF" />
      <circle cx="55" cy="28" r="2" fill="#1E293B" />
      <circle cx="54.4" cy="27.4" r="0.6" fill="#FFFFFF" />
      <!-- Blush discret -->
      <ellipse cx="41" cy="31" rx="1.8" ry="1" fill="#FDA4AF" opacity="0.5" />
      <ellipse cx="59" cy="31" rx="1.8" ry="1" fill="#FDA4AF" opacity="0.5" />
      <!-- Bouche inquiète et goutte de sueur -->
      <path d="M47 33 h6" stroke="#1E293B" stroke-width="1.8" stroke-linecap="round" />
      <path d="M61 21 Q63 28 L59 28" fill="#3B82F6" opacity="0.8" />
    
  </svg>