<svg viewBox="0 0 500 500" xmlns="http://www.w3.org/2000/svg">
    
      <path d="M 155 130 C 155 50 345 50 345 130 C 360 150 360 225 340 270 L 160 270 C 140 225 140 150 155 130 Z" fill="#E2E8F0" />
      <rect x="180" y="80" width="140" height="15" fill="#475569" rx="5" />
    
    <circle cx="250" cy="140" r="75" fill="#FED7AA" />
    <path d="M 170 165 C 170 270 330 270 330 165 Z" fill="#CBD5E1" />
    
      <!-- Sourcils levés -->
      <path d="M215 110 Q225 105 L235 115" stroke="#1E293B" stroke-width="6" stroke-linecap="round" fill="none" />
      <path d="M265 115 Q275 105 L285 110" stroke="#1E293B" stroke-width="6" stroke-linecap="round" fill="none" />
      <!-- Yeux plissés -->
      <path d="M215 140 Q225 125 L235 140" stroke="#1E293B" stroke-width="10" stroke-linecap="round" fill="none" />
      <path d="M265 140 Q275 125 L285 140" stroke="#1E293B" stroke-width="10" stroke-linecap="round" fill="none" />
      <!-- Blush -->
      <ellipse cx="205" cy="155" rx="12.5" ry="7.5" fill="#FDA4AF" opacity="0.7" />
      <ellipse cx="295" cy="155" rx="12.5" ry="7.5" fill="#FDA4AF" opacity="0.7" />
      <!-- Bouche riante -->
      <path d="M235 160 Q250 185 L265 160" fill="#EF4444" />
    
  </svg>