<svg viewBox="0 0 500 500" xmlns="http://www.w3.org/2000/svg">
    
      <!-- Turban blanc enroulé -->
      <path d="M 165 150 C 165 60, 335 60, 335 150 Z" fill="#FFFFFF" stroke="#1E293B" stroke-width="5.5" />
      <path d="M 180 125 C 210 100, 290 100, 320 125 L 325 142 C 295 130, 205 130, 175 142 Z" fill="#D97706" stroke="#1E293B" stroke-width="4.5" />
    
    <circle cx="250" cy="175" r="70" fill="#FED7AA" />
    <path d="M 178 185 C 178 285, 322 285, 322 185 C 290 280, 210 280, 178 185 Z" fill="#E2E8F0" stroke="#E2E8F0" stroke-width="2" />
    
    
      <!-- Yeux concentrés/plissés (effort) -->
      <path d="M210 179 L240 179" stroke="#1E293B" stroke-width="8.5" stroke-linecap="round" />
      <path d="M260 179 L290 179" stroke="#1E293B" stroke-width="8.5" stroke-linecap="round" />

      <ellipse cx="205" cy="201" rx="14" ry="8" fill="#FDA4AF" opacity="0.5" />
      <ellipse cx="295" cy="201" rx="14" ry="8" fill="#FDA4AF" opacity="0.5" />

      <ellipse cx="250" cy="201" rx="13" ry="7.5" fill="#1E293B" />
      <!-- Goutte de sueur bleue en relief 3D Flat -->
      <path d="M302 150 C315 180, 290 180, 292 165 Z" fill="#3B82F6" stroke="#1E293B" stroke-width="4.5" stroke-linejoin="round" />
    
  </svg>