<svg viewBox="0 0 100 100" xmlns="http://www.w3.org/2000/svg">
    
      <path d="M 31 26 C 31 10 69 10 69 26 C 72 30 72 45 68 54 L 32 54 C 28 45 28 30 31 26 Z" fill="#E2E8F0" /> <!-- Drapé -->
      <rect x="36" y="16" width="28" height="3" fill="#475569" rx="1" /> <!-- Cordeau -->
    
    <circle cx="50" cx="50" cy="28" r="15" fill="#FED7AA" />
    
      <path d="M 34 33 C 34 54 66 54 66 33 Z" fill="#CBD5E1" />
    
    
      <!-- Sourcils levés de joie -->
      <path d="M43 22 Q45 21 L47 23" stroke="#1E293B" stroke-width="1.2" stroke-linecap="round" fill="none" />
      <path d="M53 23 Q55 21 L57 22" stroke="#1E293B" stroke-width="1.2" stroke-linecap="round" fill="none" />
      <!-- Yeux plissés rieurs -->
      <path d="M43 28 Q45 25 L47 28" stroke="#1E293B" stroke-width="2" stroke-linecap="round" fill="none" />
      <path d="M53 28 Q55 25 L57 28" stroke="#1E293B" stroke-width="2" stroke-linecap="round" fill="none" />
      <!-- Blush -->
      <ellipse cx="41" cy="31" rx="2.5" ry="1.5" fill="#FDA4AF" opacity="0.7" />
      <ellipse cx="59" cy="31" rx="2.5" ry="1.5" fill="#FDA4AF" opacity="0.7" />
      <!-- Bouche riante -->
      <path d="M47 32 Q50 37 L53 32" fill="#EF4444" />
    
  </svg>