<svg viewBox="0 0 500 500" xmlns="http://www.w3.org/2000/svg">
    
      <path d="M 155 130 C 155 50 345 50 345 130 C 360 150 360 225 340 270 L 160 270 C 140 225 140 150 155 130 Z" fill="#E2E8F0" />
      <rect x="180" y="80" width="140" height="15" fill="#475569" rx="5" />
    
    <circle cx="250" cy="140" r="75" fill="#FED7AA" />
    <path d="M 170 165 C 170 270 330 270 330 165 Z" fill="#CBD5E1" />
    
      <!-- Sourcils -->
      <path d="M215 120 Q225 115 L235 120" stroke="#1E293B" stroke-width="6" stroke-linecap="round" fill="none" />
      <path d="M265 120 Q275 115 L285 120" stroke="#1E293B" stroke-width="6" stroke-linecap="round" fill="none" />
      <!-- Yeux + Reflets -->
      <circle cx="225" cy="140" r="10" fill="#1E293B" />
      <circle cx="222" cy="137" r="3" fill="#FFFFFF" />
      <circle cx="275" cy="140" r="10" fill="#1E293B" />
      <circle cx="272" cy="137" r="3" fill="#FFFFFF" />
      <!-- Blush -->
      <ellipse cx="205" cy="155" rx="10" ry="6" fill="#FDA4AF" opacity="0.6" />
      <ellipse cx="295" cy="155" rx="10" ry="6" fill="#FDA4AF" opacity="0.6" />
      <!-- Bouche -->
      <path d="M240 165 Q250 175 L260 165" stroke="#1E293B" stroke-width="10" stroke-linecap="round" fill="none" />
    
  </svg>