<svg viewBox="0 0 500 500" xmlns="http://www.w3.org/2000/svg">
    <!-- Ombre de contact propre style Duolingo (le composant CharacterRenderer applique aussi son ombre de sol) -->
    <ellipse cx="250" cy="425" rx="85" ry="11" fill="#E2E8F0" />
    
      <!-- Jambes repliées vers l'extérieur pour un saut dynamique -->
      <path d="M 210 330 Q 175 365, 185 395" fill="none" stroke="#FED7AA" stroke-width="24" stroke-linecap="round" />
      <path d="M 150 385 C 150 398, 195 400, 195 385 C 195 372, 165 372, 150 385 Z" fill="#D97706" transform="rotate(-15 150 385)" />
      
      <path d="M 290 330 Q 325 365, 315 395" fill="none" stroke="#FED7AA" stroke-width="24" stroke-linecap="round" />
      <path d="M 350 385 C 350 398, 305 400, 305 385 C 305 372, 335 372, 350 385 Z" fill="#D97706" transform="rotate(15 350 385)" />
      
      <!-- Bras levés de joie et de victoire -->
      <path d="M 150 210 Q 110 160, 100 125" fill="none" stroke="#FED7AA" stroke-width="22" stroke-linecap="round" />
      <path d="M 350 210 Q 390 160, 400 125" fill="none" stroke="#FED7AA" stroke-width="22" stroke-linecap="round" />
    
    
      <!-- Tunique étirée vers le haut -->
      <path d="M 175 195 C 155 230, 130 300, 155 335 C 180 350, 320 350, 345 335 C 370 300, 345 230, 325 195 Z" fill="#F59E0B" />
      <path d="M 155 335 C 180 350, 320 350, 345 335 C 335 305, 165 305, 155 335 Z" fill="#D97706" opacity="0.25" />
    
    
      <!-- Bâton noueux et texturé en bois -->
      <path d="M 115 180 Q 110 240, 115 310 T 110 440" fill="none" stroke="#78350F" stroke-width="12" stroke-linecap="round" />
      <circle cx="112" cy="180" r="10" fill="#78350F" />
    
  </svg>