<svg viewBox="0 0 500 500" xmlns="http://www.w3.org/2000/svg">
    <!-- Ombre de contact propre style Duolingo (le composant CharacterRenderer applique aussi son ombre de sol) -->
    <ellipse cx="250" cy="425" rx="85" ry="11" fill="#E2E8F0" />
    
      <!-- Jambes en fuseau organiques -->
      <path d="M 215 340 L 205 420" fill="none" stroke="#FED7AA" stroke-width="24" stroke-linecap="round" />
      <path d="M 285 340 L 295 420" fill="none" stroke="#FED7AA" stroke-width="24" stroke-linecap="round" />
      <!-- Pieds en haricot style cartoon orientés vers l'extérieur -->
      <path d="M 170 412 C 170 425, 215 428, 215 410 C 215 398, 185 398, 170 412 Z" fill="#D97706" />
      <path d="M 330 412 C 330 425, 285 428, 285 410 C 285 398, 315 398, 330 412 Z" fill="#D97706" />
      <!-- Bras ballants avec courbes douces (écartés du corps) -->
      <path d="M 150 220 Q 115 275, 130 325" fill="none" stroke="#FED7AA" stroke-width="22" stroke-linecap="round" />
      <path d="M 350 220 Q 385 275, 370 325" fill="none" stroke="#FED7AA" stroke-width="22" stroke-linecap="round" />
    
    
      <!-- Tunique en forme de poire/cloche organique (Duolingo Style) -->
      <path d="M 175 210 C 150 245, 125 315, 150 350 C 175 365, 325 365, 350 350 C 375 315, 350 245, 325 210 Z" fill="#F59E0B" />
      <!-- Ombre de volume nette sous le cou et drapés en bas -->
      <path d="M 150 350 C 175 365, 325 365, 350 350 C 340 310, 160 310, 150 350 Z" fill="#D97706" opacity="0.25" />
      <path d="M 200 210 Q 250 230, 300 210 C 290 225, 210 225, 200 210 Z" fill="#D97706" opacity="0.3" />
    
    
      <!-- Bâton noueux et texturé en bois -->
      <path d="M 115 180 Q 110 240, 115 310 T 110 440" fill="none" stroke="#78350F" stroke-width="12" stroke-linecap="round" />
      <circle cx="112" cy="180" r="10" fill="#78350F" />
    
  </svg>