<svg viewBox="0 0 100 100" xmlns="http://www.w3.org/2000/svg">
    
      <path d="M 34 31 C 35 15 65 15 66 31 Z" fill="#451A03" />
      <path d="M 30 29 C 30 10 70 10 70 29 L 72 30 C 62 27 38 27 28 30 Z" fill="#B45309" /> <!-- Casque -->
      <rect x="47" y="10" width="6" height="6" fill="#F59E0B" rx="1" /> <!-- Pompon du casque -->
    
    <circle cx="50" cx="50" cy="32" r="15" fill="#FDBA74" />
    
    
      <!-- Sourcils tristes -->
      <path d="M43 29 Q45 30 L47 28" stroke="#1E293B" stroke-width="1.2" stroke-linecap="round" fill="none" />
      <path d="M53 28 Q55 30 L57 29" stroke="#1E293B" stroke-width="1.2" stroke-linecap="round" fill="none" />
      <!-- Yeux tristes -->
      <path d="M43 33 Q45 36 L47 33" stroke="#1E293B" stroke-width="2" stroke-linecap="round" fill="none" />
      <path d="M53 33 Q55 36 L57 33" stroke="#1E293B" stroke-width="2" stroke-linecap="round" fill="none" />
      <!-- Bouche qui pleure -->
      <path d="M47 39 Q50 37 L53 39" stroke="#1E293B" stroke-width="2" stroke-linecap="round" fill="none" />
      <!-- Larmes qui coulent -->
      <path d="M45 35 v9" stroke="#3B82F6" stroke-width="2" stroke-linecap="round" />
      <path d="M55 35 v9" stroke="#3B82F6" stroke-width="2" stroke-linecap="round" />
    
  </svg>