<svg viewBox="0 0 100 100" xmlns="http://www.w3.org/2000/svg">
    
      <path d="M 34 31 C 35 15 65 15 66 31 Z" fill="#451A03" />
      <path d="M 30 29 C 30 10 70 10 70 29 L 72 30 C 62 27 38 27 28 30 Z" fill="#B45309" /> <!-- Casque -->
      <rect x="47" y="10" width="6" height="6" fill="#F59E0B" rx="1" /> <!-- Pompon du casque -->
    
    <circle cx="50" cx="50" cy="32" r="15" fill="#FDBA74" />
    
    
      <!-- Sourcils inquiets -->
      <path d="M43 28 Q45 29 L47 27" stroke="#1E293B" stroke-width="1.2" stroke-linecap="round" fill="none" />
      <path d="M53 27 Q55 29 L57 28" stroke="#1E293B" stroke-width="1.2" stroke-linecap="round" fill="none" />
      <!-- Yeux écarquillés -->
      <circle cx="45" cy="32" r="2" fill="#1E293B" />
      <circle cx="44.4" cy="31.4" r="0.6" fill="#FFFFFF" />
      <circle cx="55" cy="32" r="2" fill="#1E293B" />
      <circle cx="54.4" cy="31.4" r="0.6" fill="#FFFFFF" />
      <!-- Blush discret -->
      <ellipse cx="41" cy="35" rx="1.8" ry="1" fill="#FDA4AF" opacity="0.5" />
      <ellipse cx="59" cy="35" rx="1.8" ry="1" fill="#FDA4AF" opacity="0.5" />
      <!-- Bouche inquiète et goutte de sueur -->
      <path d="M47 37 h6" stroke="#1E293B" stroke-width="1.8" stroke-linecap="round" />
      <path d="M61 25 Q63 32 L59 32" fill="#3B82F6" opacity="0.8" />
    
  </svg>