<svg viewBox="0 0 500 500" xmlns="http://www.w3.org/2000/svg">
    
      <path d="M 170 155 C 175 75 325 75 330 155 Z" fill="#451A03" />
      <path d="M 150 145 C 150 50 350 50 350 145 L 360 150 C 310 135 190 135 140 150 Z" fill="#B45309" />
      <rect x="235" y="50" width="30" height="30" fill="#F59E0B" rx="5" />
    
    <circle cx="250" cy="160" r="75" fill="#FDBA74" />
    
    
      <!-- Sourcils -->
      <path d="M215 140 Q225 135 L235 140" stroke="#1E293B" stroke-width="6" stroke-linecap="round" fill="none" />
      <path d="M265 140 Q275 135 L285 140" stroke="#1E293B" stroke-width="6" stroke-linecap="round" fill="none" />
      <!-- Yeux + Reflets -->
      <circle cx="225" cy="160" r="10" fill="#1E293B" />
      <circle cx="222" cy="157" r="3" fill="#FFFFFF" />
      <circle cx="275" cy="160" r="10" fill="#1E293B" />
      <circle cx="272" cy="157" r="3" fill="#FFFFFF" />
      <!-- Blush -->
      <ellipse cx="205" cy="175" rx="10" ry="6" fill="#FDA4AF" opacity="0.6" />
      <ellipse cx="295" cy="175" rx="10" ry="6" fill="#FDA4AF" opacity="0.6" />
      <!-- Bouche -->
      <path d="M240 185 Q250 195 L260 185" stroke="#1E293B" stroke-width="10" stroke-linecap="round" fill="none" />
    
  </svg>