<svg viewBox="0 0 500 500" xmlns="http://www.w3.org/2000/svg">
    
    <circle cx="250" cy="175" r="70" fill="#FDBA74" />
    
    
      <path d="M 175 160 C 175 90, 325 90, 325 160 Z" fill="#D97706" stroke="#1E293B" stroke-width="5" />
      <path d="M 235 105 Q 250 50, 265 105 Z" fill="#EF4444" stroke="#1E293B" stroke-width="4" /> <!-- Plumet -->
      <path d="M 220 105 h 60 v 10 h -60 Z" fill="#047857" />
    
    
      <!-- Sourcils froncés et yeux tristes arqués vers le bas -->
      <path d="M212 185 Q225 199 L238 185" stroke="#1E293B" stroke-width="8" stroke-linecap="round" fill="none" />
      <path d="M262 185 Q275 199 L288 185" stroke="#1E293B" stroke-width="8" stroke-linecap="round" fill="none" />

      <!-- Bouche tremblante triste -->
      <path d="M232 213 Q250 199 L268 213" stroke="#1E293B" stroke-width="7" stroke-linecap="round" fill="none" />
      <!-- Larmes d'eau coulantes texturées -->
      <path d="M224 189 v38 c0 6, 8 6, 8 0 v-38z" fill="#60A5FA" />
      <path d="M268 189 v38 c0 6, 8 6, 8 0 v-38z" fill="#60A5FA" />
    
  </svg>