<svg viewBox="0 0 100 100" xmlns="http://www.w3.org/2000/svg">
    
      <path d="M 34 31 C 35 15 65 15 66 31 Z" fill="#451A03" />
      <path d="M 30 29 C 30 10 70 10 70 29 L 72 30 C 62 27 38 27 28 30 Z" fill="#B45309" /> <!-- Casque -->
      <rect x="47" y="10" width="6" height="6" fill="#F59E0B" rx="1" /> <!-- Pompon du casque -->
    
    <circle cx="50" cx="50" cy="32" r="15" fill="#FDBA74" />
    
    
      <!-- Sourcils levés de joie -->
      <path d="M43 26 Q45 25 L47 27" stroke="#1E293B" stroke-width="1.2" stroke-linecap="round" fill="none" />
      <path d="M53 27 Q55 25 L57 26" stroke="#1E293B" stroke-width="1.2" stroke-linecap="round" fill="none" />
      <!-- Yeux plissés rieurs -->
      <path d="M43 32 Q45 29 L47 32" stroke="#1E293B" stroke-width="2" stroke-linecap="round" fill="none" />
      <path d="M53 32 Q55 29 L57 32" stroke="#1E293B" stroke-width="2" stroke-linecap="round" fill="none" />
      <!-- Blush -->
      <ellipse cx="41" cy="35" rx="2.5" ry="1.5" fill="#FDA4AF" opacity="0.7" />
      <ellipse cx="59" cy="35" rx="2.5" ry="1.5" fill="#FDA4AF" opacity="0.7" />
      <!-- Bouche riante -->
      <path d="M47 36 Q50 41 L53 36" fill="#EF4444" />
    
  </svg>