<?xml version="1.0" encoding="UTF-8"?>
<!-- Generator: visioncortex VTracer 0.6.12 -->
<svg version="1.1" xmlns="http://www.w3.org/2000/svg" width="1024" height="1024">
<path d="M0 0 C337.9 0 675.8 0 1024 0 C1024 337.9 1024 675.8 1024 1024 C686.1 1024 348.2 1024 0 1024 C0 686.1 0 348.2 0 0 Z M613.1 55 C610.6 58.5 608.3 62.1 605.9 65.8 C603 70.4 600 75.1 596.8 79.6 C596.3 80.4 595.8 81.1 595.3 81.9 C594.3 83.4 593.3 84.8 592.4 86.2 C589.4 90.6 588.3 93.6 589 99 C589.7 100 590.3 101 591 102 C590.3 102 589.6 101.9 588.8 101.9 C587.9 101.9 586.9 101.8 585.9 101.8 C585 101.8 584.1 101.7 583.1 101.7 C580 102 580 102 576.6 103.5 C572.7 105.1 569.4 105.4 565.2 105.4 C536.8 106.4 511.2 121 491.7 141 C482.3 151.4 474.9 164.2 470.5 177.4 C470.3 178 470.3 178 469 181 C465.2 182.1 465.2 182.1 463.1 182.4 C459.1 183.5 457.1 186.6 455 190 C452.6 195.8 451.4 203.2 453.9 209.2 C455 211.1 455 211.1 457 214 C455.4 214.7 453.7 215.4 452 216 C451.3 216.3 450.7 216.5 450 216.8 C443.3 219.2 437.1 219.2 430.1 218.9 C427 219 427 219 425 221 C424.2 226 425.8 229 428.5 233.1 C430.7 235.9 433.1 237.9 436 240 C433.4 243.4 430 244.2 426 245 C422.9 245.3 419.8 245.5 416.6 245.6 C408.1 245.9 408.1 245.9 407 247 C407.2 257.4 412.8 266.6 419.8 274 C423.5 277.3 427.6 279.7 432 282 C427.3 284.2 422.9 285.6 417.8 286.6 C416 287 416 287 415 288 C414.6 290.2 414.6 290.2 415 293 C423.6 304.3 435.4 311.2 449 315 C448 315.3 447.1 315.7 446.1 316 C412.4 327.9 388.4 349.6 372.5 381.6 C362.1 403.5 356.4 428.1 353.3 451.9 C353 454 352.7 456 352.4 458 C350.7 469.7 350 481.4 349.9 493.2 C349.9 495.1 349.9 496.9 349.8 498.7 C349.8 501.5 349.8 504.3 349.8 507.1 C349.9 526.2 349.9 526.2 344.5 532.3 C340.4 537.1 340.5 542.6 340.6 548.6 C341.6 557.1 345.9 562.5 352.2 567.8 C354 569 354 569 356 569 C356 572.1 355.9 575.1 355.9 578.2 C355.9 579.1 355.9 579.9 355.9 580.8 C355.7 587.2 355.7 587.2 353.7 589.6 C352.2 590.8 350.6 591.9 349 593 C345 599.3 344 607.2 342.7 614.5 C342 618 342 618 340.9 621 C338.1 630.1 339.7 638.9 343.5 647.4 C345.1 650.2 346.8 652.6 349 655 C349.7 655 350.3 655 351 655 C350.5 658.8 350 662.5 349.6 666.2 C349.4 667.3 349.3 668.4 349.2 669.5 C349 670.5 348.9 671.5 348.8 672.6 C348.6 673.5 348.5 674.5 348.4 675.4 C348 677.7 347.6 679.8 347 682 C346.6 686.6 346.4 690.7 348.2 694.9 C351.1 698.3 352.8 699.9 357.3 700.3 C358.6 700.3 359.9 700.3 361.2 700.3 C361.9 700.3 362.5 700.3 363.2 700.3 C365.4 700.3 367.6 700.2 369.8 700.2 C371.2 700.2 372.7 700.2 374.2 700.1 C377.8 700.1 381.4 700.1 385 700 C385.1 701 385.2 702.1 385.3 703.1 C386.1 710.9 387.1 718.6 388.2 726.3 C388.3 726.7 388.3 726.7 388.6 728.5 C389.2 732.3 389.7 736 390.3 739.7 C392.3 752.6 392.4 764.4 390.1 777.3 C389.8 779.5 389.4 781.7 389 783.8 C388.8 784.9 388.7 785.9 388.5 787 C387.5 793.3 386.7 799.7 386 806 C384.9 806.1 383.8 806.3 382.7 806.4 C378.3 807.1 375.6 808.5 373 812 C369.1 820.9 366.4 834.7 369.8 844.1 C371.3 846.4 372.9 847.9 375.2 849.4 C377 851 377 851 377.3 854.1 C377.1 860.2 376 866.3 375 872.3 C374.6 874.5 374.2 876.8 373.9 879 C372.8 885.4 371.8 891.8 370.7 898.1 C370.1 902 369.4 906 368.8 909.9 C368.4 912.1 368 914.2 367.7 916.4 C364.1 938.1 364.1 938.1 369 945 C372.9 948.8 375.9 951.1 381.4 951.1 C382.3 951.1 383.3 951.2 384.2 951.2 C385.2 951.2 386.3 951.2 387.3 951.2 C388.4 951.2 389.5 951.2 390.6 951.2 C394.1 951.2 397.7 951.2 401.3 951.2 C403.7 951.2 406.2 951.2 408.7 951.2 C413.9 951.2 419.1 951.2 424.2 951.2 C430.9 951.2 437.5 951.3 444.2 951.3 C449.3 951.3 454.4 951.3 459.5 951.3 C462 951.3 464.4 951.3 466.9 951.3 C470.3 951.4 473.7 951.4 477.2 951.4 C478.2 951.4 479.2 951.4 480.2 951.4 C485.6 951.4 489.4 951.1 494 948 C497.5 943.6 497.6 939.7 497.4 934.3 C496.1 924.2 490.7 914.7 482.9 908.3 C475.6 903.2 468.7 900.2 460 899 C460.2 898.1 460.3 897.2 460.5 896.3 C461 893.1 461.6 889.8 462.1 886.5 C462.4 885.1 462.6 883.7 462.9 882.3 C463.2 880.2 463.6 878.2 463.9 876.1 C464.1 874.9 464.3 873.7 464.5 872.4 C465 869.2 465.1 866.2 465 863 C465.4 863 465.4 863 467.6 863.2 C471.9 862.9 473.7 861.7 477 859 C482.9 850.7 484.4 836.9 483 827 C481.5 823.2 479.4 821.3 476 819 C475 819 474 819 473 819 C473.2 817.8 473.5 816.5 473.7 815.3 C475.9 803.9 477.9 792.6 479.7 781.2 C479.8 780.2 480 779.2 480.2 778.1 C480.3 777.2 480.4 776.3 480.6 775.4 C481 773 481 773 481.5 771.1 C484.9 756.2 481 739.1 478.6 724.4 C478.2 722.3 477.9 720.3 477.6 718.2 C477 714.5 476.4 710.8 475.8 707.1 C475.6 706.4 475.5 705.7 475.4 704.9 C475 703 475 703 474 700 C483 700 492 700 501 700 C501.6 702 502.2 704 502.7 706 C503.3 707.9 503.8 709.7 504.3 711.5 C505.9 717.1 507.5 722.7 509.1 728.3 C509.4 729.5 509.8 730.7 510.1 732 C510.8 734.4 511.5 736.8 512.2 739.2 C512.4 739.8 512.4 739.8 513.2 742.6 C513.4 743.6 513.7 744.6 514 745.6 C514.6 747.5 515.1 749.4 515.8 751.2 C518.1 758 518.4 764.2 518.3 771.4 C518.3 772.5 518.3 773.6 518.3 774.8 C518.3 778.4 518.2 782 518.2 785.6 C518.2 788.1 518.2 790.5 518.1 793 C518.1 799 518.1 805 518 811 C516.9 811.1 515.8 811.3 514.6 811.4 C510.8 812 509.9 812.4 507.6 815.4 C507.1 816 506.7 816.6 506.2 817.2 C502.9 822.2 503.8 828.1 503.8 833.8 C503.7 834.4 503.7 834.4 503.7 837.1 C503.6 847.2 503.6 847.2 507 852 C512.2 856 512.2 856 515 856 C515 856.4 515 856.4 514.9 858.2 C514.7 865 514.4 871.9 514.2 878.7 C514.1 882.2 514 885.8 513.9 889.3 C513.5 898.5 513.2 907.8 513 917 C513 918.1 512.9 919.3 512.9 920.4 C512.8 923.5 512.8 926.6 512.8 929.6 C512.7 930.5 512.7 931.4 512.7 932.3 C512.7 938 513.5 942.3 517.5 946.6 C521.5 949.7 523.5 951.1 528.5 951.1 C528.9 951.2 528.9 951.2 531.3 951.2 C532.3 951.2 533.4 951.2 534.4 951.2 C535.5 951.2 536.6 951.2 537.7 951.2 C541.3 951.2 544.9 951.2 548.5 951.2 C549.1 951.2 549.1 951.2 552.2 951.3 C558 951.3 563.8 951.3 569.7 951.3 C575.7 951.3 581.8 951.3 587.8 951.4 C594.3 951.4 600.8 951.4 607.3 951.4 C609.7 951.4 612.2 951.4 614.7 951.5 C618.1 951.5 621.6 951.5 625.1 951.5 C626.1 951.5 627.1 951.5 628.2 951.5 C634.1 951.5 637.5 950.9 642 947 C644.8 943.7 645.5 940.8 645.3 936.4 C643.5 923.6 637.9 914.6 628 906.5 C620.6 901 610.2 897 601 897 C601.2 895.8 601.3 894.7 601.5 893.4 C602.2 886.6 602.4 879.8 602.6 872.9 C602.6 871.6 602.6 870.2 602.7 868.9 C602.8 865.6 602.9 862.3 603 859 C604.1 858.7 605.2 858.5 606.3 858.2 C611.2 856.6 612.1 855.1 615 851 C617.2 846.6 616.4 840.7 616.4 835.8 C616.5 834.6 616.5 833.4 616.6 832.1 C616.7 825.5 616.5 821 611.8 816.1 C609.6 814.7 607.6 814.4 605 814 C605.1 813.2 605.1 812.4 605.2 811.5 C609.1 757.3 609.1 757.3 604 738 C603.9 737.6 603.9 737.6 603.4 735.9 C600.7 725.1 597.4 714.6 594 704 C594.7 704.3 595.3 704.7 596 705 C603.6 706 608.8 704.3 615 700 C615.3 699.7 615.7 699.3 616 699 C618.1 698.7 620.1 698.4 622.2 698.2 C630.5 696.9 635 693.7 640.3 687.4 C643.4 683 645.1 678 647 673 C647.3 672.2 647.7 671.5 648 670.7 C649.4 667 649.9 663.2 650.6 659.3 C650.6 658.9 650.6 658.9 650.9 657 C652.3 648.4 653 639.9 653.4 631.2 C653.5 629.6 653.5 627.9 653.6 626.3 C653.7 623.8 653.8 621.3 653.9 618.8 C654 616.3 654.1 613.9 654.2 611.4 C654.2 610.7 654.2 609.9 654.3 609.2 C654.5 603.8 656.1 600.6 659 596 C659.4 593.3 659.4 593.3 659.2 591.1 C659.2 590.3 659.2 589.5 659.1 588.7 C659.1 588.2 659 587.6 659 587 C659.7 586.8 660.5 586.6 661.2 586.4 C665 584.5 666.7 582 668 578 C669.5 566.8 665.6 558.8 659 550 C658.7 549.8 658.7 549.8 657.5 548.7 C655.4 546.3 655.5 544.3 655.2 541.1 C655.1 539.9 655 538.7 654.9 537.4 C654.8 536.1 654.7 534.8 654.6 533.4 C653.9 524.4 653 515.5 651.5 506.6 C651.4 505.8 651.3 505 651.1 504.2 C650.6 501.2 650.1 498.2 649.6 495.1 C649.2 493 648.8 490.9 648.5 488.8 C648.3 487.6 648.1 486.4 647.8 485.2 C648 482 648 482 650.4 479.2 C651.3 478.5 652.1 477.7 653 477 C655.9 471.2 653.5 462.9 652.4 456.8 C652.3 455.8 652.1 454.9 651.9 453.9 C651.6 451.8 651.2 449.8 650.9 447.7 C650.3 444.7 649.8 441.6 649.3 438.5 C645.6 417.1 640.3 398.7 629 380 C630 379.3 631 378.7 632 378 C632.6 378.4 633.1 378.7 633.7 379.1 C638.6 382 642.1 384 648 383 C654.3 380.2 655.6 376 658 370 C659.8 365.2 661.5 360.5 663.2 355.7 C663.6 354.4 664.1 353.1 664.6 351.9 C669.2 338.9 669.2 338.9 668.9 332.3 C668.4 316.8 669.9 303.5 674.3 288.6 C675.6 283.7 676.5 278.7 677.5 273.6 C678 271 678 271 679 269 C681 268.2 683 267.6 685 267 C688.3 265.4 689.6 263 690.9 259.7 C694.9 246.8 694.9 246.8 691.9 240.9 C690.2 238.4 688.7 236.4 686 235 C686.2 233.7 686.3 232.5 686.5 231.2 C689.8 201.1 683.9 171.8 665 147.7 C656.8 137.7 647.8 128.9 636.4 122.6 C633.9 120.9 632.4 119.3 630.5 117 C627.9 113.9 625.7 111.7 622 110 C621.3 110 620.7 110 620 110 C620 109.3 620 108.7 620 108 C620.6 107.9 621.2 107.8 621.9 107.7 C624 107 624 107 626 104 C626.8 93.9 625.7 83.5 624.8 73.5 C624.6 71.1 624.4 68.8 624.2 66.5 C624.1 65.1 624 63.6 623.9 62.1 C623.8 61.4 623.7 60.7 623.7 60 C623.2 55.2 623.2 55.2 621 53 C617.3 52.4 615.7 52.2 613.1 55 Z " fill="none" transform="translate(0,0)"/>
<path d="M0 0 C2.9 0.4 2.9 0.4 4.9 2.4 C5.3 4.8 5.5 7.1 5.7 9.5 C5.8 10.3 5.9 11 5.9 11.7 C6.1 13.2 6.2 14.8 6.3 16.3 C6.5 18.6 6.7 20.9 6.9 23.1 C7.5 30.3 8 37.6 8.1 44.8 C8.2 45.4 8.2 45.4 8.2 48.4 C7.8 51.7 7.3 53.1 4.9 55.4 C3.9 55.4 2.9 55.4 1.9 55.4 C1.9 56.1 1.9 56.8 1.9 57.4 C2.5 57.6 3.2 57.8 3.9 58 C9 60.4 13 64.4 16.8 68.5 C18.8 70.4 20.7 71.7 23 73.1 C28.5 76.7 33.1 81 37.9 85.4 C38.5 86 39.1 86.5 39.7 87.1 C56.2 102.4 67.7 128.2 68.9 150.4 C69.5 169.3 69.5 169.3 68.2 178.5 C67.9 182.4 67.9 182.4 70.2 185.3 C71.1 186 72 186.7 72.9 187.4 C76 192.1 75.4 196.6 74.4 202.1 C73 207.4 71.5 211 66.9 214.4 C65.8 214.6 64.8 214.9 63.8 215.1 C60.9 216.4 60.9 216.4 60 218.5 C59.8 219.4 59.6 220.3 59.4 221.2 C59.3 221.7 59.3 221.7 58.6 224.2 C58.4 225.3 58.1 226.3 57.9 227.4 C57.6 228.5 57.4 229.6 57.1 230.7 C56.3 234.1 55.5 237.5 54.8 240.9 C54.2 243.2 53.7 245.5 53.2 247.7 C53 248.7 52.7 249.7 52.5 250.8 C52.1 252.3 51.7 253.9 51.3 255.4 C50.8 258 50.9 260.3 51.1 262.9 C52 281.2 48.9 294.5 42.1 311.3 C40.6 315.2 39.2 319.2 37.8 323.2 C36.2 327.1 33.5 328.6 29.9 330.4 C23.1 331.3 18.7 328.7 12.9 325.4 C12.2 326.4 11.6 327.4 10.9 328.4 C11.4 329.2 11.9 329.9 12.4 330.6 C24.7 348.3 28 368.1 31.6 388.9 C32.1 392 32.7 395.1 33.2 398.2 C33.6 400.2 33.9 402.2 34.3 404.2 C34.4 405.1 34.6 406 34.8 406.9 C37 420.3 37 420.3 34 425.9 C31.9 428.4 31.9 428.4 29.9 429.4 C30 430.3 30.1 431.2 30.3 432.1 C30.8 435.4 31.3 438.8 31.8 442.2 C32.1 443.7 32.3 445.3 32.5 446.8 C33.8 455.3 35 463.7 35.6 472.3 C35.7 473 35.7 473.7 35.8 474.4 C36.1 477.8 36.3 481.1 36.4 484.4 C37 491.6 37.9 495.8 43.2 500.8 C48.3 505.8 50 512.8 50.2 519.8 C50.1 525.2 49.3 528.1 45.9 532.4 C43.1 533.9 43.1 533.9 40.9 534.4 C40.9 535 41 535.6 41 536.2 C41.1 536.9 41.1 537.7 41.1 538.5 C41.2 539.3 41.2 540 41.3 540.8 C40.9 543.4 40.9 543.4 38.9 546.6 C36.6 550.5 36.2 554.1 36.1 558.6 C36.1 559 36.1 559 36 560.9 C35.9 563.4 35.8 565.8 35.8 568.2 C35.6 571.4 35.5 574.6 35.4 577.8 C35.3 578.6 35.3 579.4 35.3 580.2 C35 585.9 34.5 591.6 33.9 597.2 C33.8 598 33.7 598.7 33.7 599.5 C31.9 614.6 27.6 630.8 15.8 641.3 C11.4 644.5 8.4 645.4 3.1 645.8 C-2.4 646.2 -5.8 648.3 -10.1 651.4 C-12.6 652.7 -14.4 652.6 -17.1 652.6 C-18 652.6 -18.9 652.6 -19.8 652.6 C-22.1 652.4 -22.1 652.4 -24.1 651.4 C-23.8 652.3 -23.6 653.1 -23.3 654 C-20.4 662.9 -17.8 671.9 -15.4 680.9 C-15.1 682 -14.8 683.2 -14.4 684.3 C-11.7 694.4 -10.9 703.5 -10.9 713.9 C-10.9 715.1 -10.9 716.3 -10.9 717.6 C-11 732.2 -12 746.8 -13.1 761.4 C-12.4 761.5 -11.6 761.7 -10.8 761.8 C-7.1 762.7 -5.7 764.1 -3.3 767.1 C-0.8 772 -1.4 777.5 -1.5 783 C-1.5 784.2 -1.5 785.4 -1.5 786.7 C-1.6 793.1 -1.7 797.6 -6.1 802.4 C-9 805.1 -11.3 805.7 -15.1 806.4 C-15.2 807.3 -15.2 808.1 -15.2 809 C-15.3 812.1 -15.4 815.2 -15.5 818.3 C-15.6 820.3 -15.6 822.3 -15.7 824.3 C-15.9 831.1 -16.2 837.7 -17.1 844.4 C-16.5 844.5 -15.8 844.7 -15.1 844.8 C-0.2 847.4 11.6 853.1 20.9 865.4 C25.5 872.7 27.7 880.8 26.9 889.4 C24.6 893.9 22.4 896.4 17.9 898.4 C14.3 898.9 10.7 898.9 7.1 898.8 C6.6 898.8 6.6 898.8 3.8 898.9 C0.3 898.9 -3.3 898.9 -6.9 898.9 C-9.4 898.9 -11.9 898.9 -14.4 898.9 C-20.3 898.9 -26.1 898.9 -32 898.9 C-36.7 898.9 -41.4 898.9 -46.1 898.9 C-52.6 898.9 -59 898.9 -65.5 898.9 C-68 898.9 -70.4 898.9 -72.9 899 C-76.3 899 -79.8 899 -83.2 898.9 C-84.3 898.9 -85.3 899 -86.3 899 C-92.3 898.9 -95.6 898.4 -100.1 894.4 C-105.1 888.9 -105.3 884.5 -105.2 877.2 C-105.2 876.8 -105.2 876.8 -105.2 874.3 C-105.2 861.1 -104.7 847.9 -104.2 834.6 C-104.1 831.1 -104 827.6 -103.8 824 C-103.6 817.2 -103.4 810.3 -103.1 803.4 C-104.1 803.2 -105 802.9 -106 802.6 C-109.7 801.2 -111 799.7 -113.1 796.4 C-114.7 791.6 -114.4 786.7 -114.4 781.6 C-114.4 781.1 -114.4 781.1 -114.4 778.3 C-114.5 771.3 -113.7 766.9 -109.4 761.1 C-106.4 758.9 -103.8 758.9 -100.1 758.4 C-99.9 751.5 -99.8 744.5 -99.7 737.5 C-99.7 735.2 -99.7 732.8 -99.6 730.5 C-99.2 714.2 -101 700.4 -106.3 684.9 C-107.4 681.7 -108.3 678.5 -109.2 675.2 C-110.1 672.4 -110.9 669.6 -111.7 666.8 C-113.6 660.3 -115.4 653.9 -117.1 647.4 C-118.1 647.4 -119.1 647.4 -120.1 647.4 C-128.1 647.4 -136.1 647.4 -144.1 647.4 C-143.9 648.3 -143.8 649.1 -143.6 649.9 C-137.6 677.1 -133.1 704.2 -139 731.8 C-140.6 739.5 -141.7 747.2 -142.8 755 C-143 756.1 -143.1 757.1 -143.3 758.2 C-143.4 759.1 -143.6 760.1 -143.7 761 C-144.1 763.4 -144.1 763.4 -145.1 766.4 C-144.4 766.5 -143.6 766.6 -142.9 766.6 C-139.3 767.7 -138.2 769.4 -136.1 772.4 C-132.8 779.2 -135.3 788.8 -136.8 795.9 C-136.9 796.6 -137 797.4 -137.2 798.2 C-138.4 803.9 -140.3 806.2 -145.1 809.4 C-147.8 810.8 -150.1 810.5 -153.1 810.4 C-153.2 811 -153.2 811.6 -153.3 812.1 C-153.9 819.5 -155 826.8 -156.2 834.1 C-156.4 835.3 -156.6 836.5 -156.8 837.7 C-157.2 840.6 -157.7 843.5 -158.1 846.4 C-157.5 846.5 -156.8 846.7 -156.1 846.8 C-144.9 848.8 -135.4 853.8 -128.6 863.1 C-122.7 871.8 -119.6 879.8 -121.1 890.4 C-122.7 893.9 -123.8 895.7 -127.1 897.6 C-131.6 898.9 -136.1 898.7 -140.8 898.7 C-141.3 898.7 -141.3 898.7 -144 898.7 C-147.6 898.8 -151.1 898.8 -154.7 898.8 C-157.2 898.8 -159.6 898.8 -162.1 898.8 C-167.3 898.8 -172.4 898.8 -177.6 898.8 C-184.2 898.8 -190.8 898.8 -197.5 898.9 C-202.6 898.9 -207.7 898.9 -212.8 898.9 C-215.2 898.9 -217.6 898.9 -220.1 898.9 C-223.5 898.9 -226.9 898.9 -230.3 898.9 C-231.3 898.9 -232.4 898.9 -233.4 899 C-239.2 898.9 -242.6 898.4 -247.1 894.4 C-251.8 889.3 -252.4 885.5 -252.3 878.8 C-252 873 -251 867.4 -250.1 861.7 C-249.7 859.5 -249.3 857.3 -249 855 C-248.3 851.1 -247.7 847.1 -247 843.2 C-246 836.8 -244.9 830.5 -243.9 824.2 C-243.5 822 -243.2 819.8 -242.8 817.6 C-240.6 804 -240.6 804 -241.1 798.4 C-244 795.7 -244 795.7 -247.1 793.4 C-251.7 786.6 -249.4 776.2 -247.9 768.5 C-246.5 761.7 -244.9 758 -239.1 754.1 C-236.7 753.3 -234.6 753.4 -232.1 753.4 C-232.1 753 -232.1 753 -231.8 750.8 C-231.1 744.3 -230.2 737.8 -229.1 731.3 C-228.9 730.2 -228.7 729.1 -228.6 728 C-228.2 725.9 -227.8 723.8 -227.4 721.7 C-224.7 705.6 -227.2 690.8 -229.6 674.9 C-230.1 671.6 -230.6 668.3 -231.1 665 C-231.4 663 -231.7 660.9 -232.1 658.9 C-232.2 658 -232.3 657 -232.5 656.1 C-232.6 655.3 -232.7 654.5 -232.9 653.7 C-233.1 651.4 -233.1 651.4 -233.1 647.4 C-233.6 647.5 -233.6 647.5 -235.9 647.5 C-239.3 647.6 -242.7 647.7 -246 647.7 C-247.5 647.7 -249 647.8 -250.4 647.8 C-252.5 647.9 -254.6 647.9 -256.8 647.9 C-258 648 -259.3 648 -260.6 648 C-265.3 647.3 -266.8 645.8 -270.1 642.4 C-272.6 634.9 -270.9 626.4 -269.7 618.7 C-269.6 617.8 -269.4 616.9 -269.3 615.9 C-268.6 611.4 -267.9 606.9 -267.1 602.4 C-267.8 602.4 -268.4 602.4 -269.1 602.4 C-276.2 594 -278.7 586.1 -278.5 575.2 C-278 570.1 -276.7 565.5 -275.1 560.6 C-274.3 557.9 -273.6 555.3 -273.1 552.6 C-272.4 549.7 -271.8 546.9 -270.9 544.2 C-270.7 543.6 -270.5 543 -270.3 542.4 C-269.1 540.4 -269.1 540.4 -266.1 538.3 C-264 536.7 -263.2 535.8 -262.5 533.3 C-262.3 530.7 -262.2 528.2 -262.2 525.6 C-262.2 524.7 -262.2 523.9 -262.2 522.9 C-262.1 520.8 -262.1 518.6 -262.1 516.4 C-262.9 516.2 -263.6 515.9 -264.4 515.7 C-269.8 513.2 -273 508.2 -276.1 503.2 C-278.8 493.4 -277.5 485.7 -272.6 476.8 C-271.1 474.4 -271.1 474.4 -269.1 472.4 C-268.9 469.4 -268.8 466.5 -268.7 463.5 C-268.7 462.7 -268.7 461.8 -268.7 460.8 C-268.6 457.9 -268.6 455.1 -268.6 452.2 C-268.3 434.7 -267.5 417.6 -265 400.3 C-264.9 399.6 -264.8 398.8 -264.7 398.1 C-259.6 364.2 -250.8 328.2 -228.1 301.4 C-227.4 300.6 -226.7 299.7 -225.9 298.8 C-210.8 281.4 -191.3 268.9 -169.1 262.4 C-169.9 262.2 -170.6 262 -171.4 261.8 C-184 258 -195 251 -203.1 240.4 C-203.4 237.6 -203.4 237.6 -203.1 235.4 C-199.3 233.3 -195.7 232.7 -191.5 232 C-189.1 231.4 -189.1 231.4 -186.1 229.4 C-186.8 229 -187.5 228.6 -188.2 228.2 C-199 221.8 -206.1 214.4 -210.1 202.4 C-210.8 199.7 -211 197.3 -211.1 194.4 C-209 192.4 -204.5 193.2 -201.6 193.1 C-195 192.8 -189.3 192.2 -183.1 189.4 C-182.8 188.8 -182.5 188.1 -182.1 187.4 C-182.4 187.2 -182.4 187.2 -183.8 186.1 C-189 181.7 -192.8 178.3 -193.4 171.2 C-193.1 168.4 -193.1 168.4 -191.1 166.4 C-188.8 166.4 -186.5 166.5 -184.2 166.6 C-176.9 166.8 -171 165.2 -164.1 162.4 C-163.1 162.1 -162.1 161.8 -161.1 161.4 C-161.8 160.5 -162.4 159.5 -163.1 158.6 C-166.1 153.3 -165.9 148 -164.6 142.2 C-163 137.4 -160.8 133.9 -157.1 130.4 C-156.5 130.4 -156.5 130.4 -153.2 130 C-151.1 129.6 -151.1 129.6 -149.1 128.4 C-147.3 124.9 -146 121.3 -144.7 117.6 C-135.6 92.2 -113.6 73.4 -89.9 62.2 C-77.4 56.4 -64.9 53.1 -51.1 52.9 C-46.1 52.8 -42.6 51.4 -38.1 49.4 C-35 49.1 -35 49.1 -32.2 49.2 C-31.2 49.3 -30.3 49.3 -29.3 49.3 C-28.6 49.4 -27.9 49.4 -27.1 49.4 C-27.8 48.4 -28.4 47.5 -29.1 46.4 C-30 40 -27.9 36.6 -24.3 31.6 C-23.3 30.1 -22.3 28.6 -21.3 27.1 C-20.8 26.3 -20.2 25.6 -19.7 24.8 C-16.7 20.3 -13.8 15.7 -10.8 11.1 C-4.1 0.6 -4.1 0.6 0 0 Z M-2.1 6.4 C-3.2 7.9 -3.2 7.9 -4.4 9.8 C-4.8 10.6 -5.3 11.3 -5.7 12.1 C-6.2 12.9 -6.6 13.7 -7.1 14.5 C-11.2 21.4 -15.4 28.1 -20 34.6 C-22.3 37.8 -23.9 40.5 -24.1 44.4 C-23.5 45 -22.8 45.5 -22.1 46.1 C-20.1 48.4 -20.1 48.4 -20.1 51.1 C-20.3 53.9 -20.7 56.7 -21.1 59.4 C-16.6 62.1 -13.4 62.8 -8.1 62.4 C-8 61.8 -7.9 61.2 -7.7 60.6 C-6 54 -6 54 -3.4 52.2 C-1.5 51.4 -1.5 51.4 1.9 50.4 C2.2 50.1 2.5 49.8 2.9 49.4 C2.8 46.5 2.7 43.7 2.6 40.8 C2.5 39.9 2.5 39.1 2.4 38.2 C1.8 27.6 0.9 17 -0.1 6.4 C-0.8 6.4 -1.4 6.4 -2.1 6.4 Z M-43.1 57.4 C-43.5 62 -43.5 62 -41.8 64.1 C-28.1 73.9 -10.9 78.3 5.9 76.4 C8.8 74.9 8.8 74.9 10.9 73.4 C10.6 70.3 10.2 68.8 7.9 66.5 C7.2 65.9 6.4 65.3 5.6 64.7 C4.8 64.1 4 63.5 3.2 62.9 C1 61.5 -0.6 60.9 -3.1 60.4 C-3.5 62.4 -3.8 64.4 -4.1 66.4 C-18.6 67.2 -18.6 67.2 -24.1 62.4 C-25 59.6 -25.1 57.4 -25.1 54.4 C-31.9 54.1 -37 54.2 -43.1 57.4 Z M-113.1 83.4 C-113.9 84 -114.6 84.6 -115.4 85.3 C-128.3 96 -137.4 110.8 -142.5 126.7 C-144.4 132 -144.4 132 -147.5 133.8 C-150.2 134.5 -150.2 134.5 -152.8 134.8 C-155.1 135.4 -155.1 135.4 -156.9 137.3 C-159.8 142.3 -160.8 147.7 -160.1 153.4 C-137.3 187.5 -53.3 198 -16.1 205.4 C-10.9 206.4 -5.7 207.3 -0.5 208.1 C1.1 208.3 2.8 208.6 4.4 208.9 C17.8 211 31 211.8 44.5 211.9 C45.3 211.9 46 211.9 46.8 211.9 C49 211.9 51.3 211.9 53.5 211.9 C54.1 211.9 54.1 211.9 57.4 211.9 C61.5 211.3 63.7 210 66.9 207.4 C69.3 203.1 69.9 198.5 69.8 193.6 C68.8 190.1 67.7 188.6 64.9 186.4 C64.2 186.4 63.6 186.4 62.9 186.4 C62.8 182.2 62.8 178.1 63.4 173.9 C66.9 147.8 59.6 120.7 43.7 99.8 C36.2 90.2 28.1 82 17.9 75.4 C16.9 75.4 15.9 75.4 14.9 75.4 C14.9 76.1 14.9 76.8 14.9 77.4 C0.6 83.2 -15.9 81.3 -30.1 75.7 C-38.1 72.2 -44.7 68.8 -48.4 60.6 C-48.7 59.9 -48.9 59.2 -49.1 58.4 C-72.4 57 -95.9 68.6 -113.1 83.4 Z M-157.1 163.4 C-158.8 164.3 -158.8 164.3 -160.8 165.7 C-169.4 171.2 -176.9 172 -187.1 172.4 C-184.8 178.7 -181.1 182.4 -175.1 185.4 C-174.5 185.4 -173.8 185.4 -173.1 185.4 C-173.7 188.4 -174.6 190 -177 191.8 C-186.2 197 -194.7 197.9 -205.1 198.4 C-202.3 208.8 -197.5 216.9 -188.1 222.4 C-185.2 223.9 -182.2 225.2 -179.1 226.4 C-179.8 230.2 -181.2 231.8 -184.2 234.2 C-187.9 236.5 -192 238 -196.1 239.4 C-188.6 249.4 -178.4 255.1 -166.1 257.4 C-163.4 257.6 -160.8 257.5 -158.1 257.4 C-157.8 254.5 -157.5 251.6 -157.1 248.8 C-157 247.9 -156.9 247.1 -156.8 246.3 C-156.4 242.3 -156 238.4 -156.1 234.4 C-157 234 -157.9 233.6 -158.8 233.2 C-166.7 229 -170.1 223.7 -173.1 215.4 C-174.4 208.1 -172.8 200.8 -168.9 194.5 C-164.5 188.7 -158.4 185.2 -151.3 183.9 C-148.9 183.7 -146.5 183.5 -144.1 183.4 C-143.6 182 -143.1 180.6 -142.6 179.1 C-142.3 178.3 -142.1 177.5 -141.8 176.7 C-141.1 174.4 -141.1 174.4 -141.1 171.4 C-142.1 170.9 -143.1 170.5 -144.1 169.9 C-146.3 168.9 -146.3 168.9 -157.1 163.4 Z M-136.1 174.4 C-138.9 183.4 -141.1 192.4 -143 201.6 C-144.3 207.7 -145.7 213.8 -147.2 219.9 C-147.8 222.2 -148.3 224.4 -148.9 226.7 C-149.2 228.1 -149.6 229.6 -150 231 C-154.7 249.2 -155 267.1 -145.7 284 C-140.6 291.7 -134.5 297.6 -126.9 302.6 C-126.3 303 -125.7 303.4 -125.1 303.8 C-121.4 306.1 -118.5 307.3 -114.1 306.4 C-110.3 303 -109.4 299.6 -108.6 294.6 C-107.8 289.8 -106.8 285.1 -105.5 280.4 C-101.6 266.2 -102 255.5 -109.3 242.6 C-109.9 241.6 -110.5 240.5 -111.1 239.4 C-116.1 229.5 -110.2 214.5 -107.6 204.6 C-106.1 198.6 -105 192.6 -104.1 186.4 C-108.5 184.7 -112.9 183 -117.3 181.3 C-118.8 180.7 -120.3 180.1 -121.8 179.6 C-124 178.7 -126.1 177.9 -128.2 177.1 C-128.9 176.8 -129.6 176.5 -130.3 176.3 C-135 174.4 -135 174.4 -136.1 174.4 Z M-99.1 188.4 C-101 194.8 -102.6 201.1 -104.2 207.5 C-104.5 208.6 -104.7 209.6 -105 210.7 C-105.3 211.8 -105.5 212.8 -105.8 213.8 C-106 214.8 -106.3 215.7 -106.5 216.7 C-109.4 229.5 -108 237 -101.7 248.5 C-95.6 260.1 -98.3 269.9 -101.5 282.1 C-101.8 283.4 -102.1 284.7 -102.5 286 C-103.1 288.4 -103.7 290.8 -104.3 293.2 C-105 295.9 -105.6 298.5 -106.3 301.2 C-107.7 306.9 -109.5 308.8 -114.1 312.4 C-108.7 318.1 -103.2 322.3 -96.2 325.8 C-95.6 326.1 -95 326.5 -94.4 326.8 C-83.8 331.9 -71.7 333.4 -60.2 335.6 C-58.8 335.8 -57.4 336.1 -56 336.4 C-53.4 336.9 -50.9 337.3 -48.3 337.8 C-46.4 338.2 -44.4 338.6 -42.4 339 C-28 341.8 -12.8 338 -0.7 330.2 C0.2 329.6 1 329 1.9 328.4 C2.5 328 3.2 327.6 3.9 327.1 C16.8 317.3 22.8 300.3 26.4 285.1 C26.5 284.5 26.5 284.5 27.3 281.4 C29.3 273 31.2 264.6 33.1 256.2 C34.6 249.5 36.3 242.8 38.2 236.1 C39.9 230 40.9 223.7 41.9 217.4 C40.9 217.3 40 217.2 39 217.1 C-2.1 213 -41.8 205 -81.5 193.5 C-85.3 192.4 -89.2 191.3 -93.1 190.2 C-94.2 189.8 -95.4 189.5 -96.6 189.2 C-97 189 -97 189 -99.1 188.4 Z M-164.1 195.4 C-168.2 201.2 -170.1 206.4 -169.1 213.4 C-166.9 220.6 -163.4 225.2 -157.1 229.4 C-156.1 229.4 -155.1 229.4 -154.1 229.4 C-152 220.9 -149.9 212.4 -147.9 203.8 C-147.7 202.6 -147.4 201.5 -147.1 200.3 C-146.9 199.2 -146.6 198 -146.3 196.9 C-146.1 195.9 -145.9 194.9 -145.6 193.9 C-145.1 191.4 -145.1 191.4 -145.1 189.4 C-153 188.5 -158.4 189.8 -164.1 195.4 Z M46.9 217.4 C46.7 218 46.6 218.6 46.5 219.2 C42.2 238.4 37.5 257.4 32.6 276.4 C31.7 280.3 30.7 284.1 29.8 287.9 C28.1 294.9 26.4 301.6 23.3 308.2 C23.2 308.5 23.2 308.5 22.4 310.2 C20.9 313.6 19.1 316.5 16.9 319.4 C16.9 320.1 16.9 320.8 16.9 321.4 C20.7 323.7 23.7 325.4 28.2 325.5 C31.7 324.1 32.1 322.8 33.9 319.4 C36.2 314 38.1 308.4 40.1 302.8 C40.3 302 40.6 301.2 40.9 300.4 C44.9 288.6 46.8 278.5 46.1 266 C45.5 254.8 48.1 244.9 51.1 234.1 C52.2 230.4 53 226.7 53.8 222.9 C53.9 222.3 53.9 222.3 54.4 219.6 C54.6 218.9 54.7 218.2 54.9 217.4 C52.2 217.4 49.6 217.4 46.9 217.4 Z M-211.1 291.4 C-212.3 292.4 -213.5 293.4 -214.8 294.3 C-244.1 319.9 -253.4 362.9 -259.4 399.4 C-259.5 400.3 -259.7 401.2 -259.8 402.2 C-261.9 415.5 -263.2 428.9 -263.3 442.5 C-263.3 443.4 -263.3 444.3 -263.3 445.3 C-263.4 449 -263.4 452.7 -263.4 456.5 C-263.2 476.3 -263.2 476.3 -270.1 483.4 C-272.7 488.6 -271.8 496.5 -270.5 501.9 C-268.2 507.2 -264.2 510.8 -259.1 513.4 C-255.6 514.2 -252.1 514.1 -248.5 514 C-247.5 514 -246.5 514 -245.5 514 C-242.4 514 -239.3 513.9 -236.1 513.8 C-234 513.8 -231.9 513.8 -229.7 513.7 C-224.5 513.7 -219.3 513.6 -214.1 513.4 C-214 513 -214 513 -213.2 511 C-212.1 508.4 -212.1 508.4 -210.3 507.1 C-207.8 506.3 -205.7 506.1 -203.1 506.1 C-202.3 506.1 -201.4 506.1 -200.6 506.1 C-197.6 506.5 -196.3 507.3 -194.1 509.4 C-193.8 510.8 -193.5 512.1 -193.1 513.4 C-178.9 513.4 -164.7 513.4 -150.1 513.4 C-152.4 511.1 -153.5 511 -156.6 510.3 C-157.5 510.1 -158.4 509.9 -159.3 509.7 C-161.2 509.3 -163.1 508.9 -165 508.5 C-178.8 505.4 -189.9 499.4 -197.6 487.2 C-203 477.4 -204.7 465.3 -207.2 454.6 C-207.8 452.4 -208.3 450.2 -208.8 448 C-209.3 446 -209.8 444 -210.2 442.1 C-211.1 438.5 -212.1 435 -213.1 431.4 C-216.4 431.4 -219.7 431.4 -223.1 431.4 C-226.7 424.5 -227.7 417.1 -229.1 409.5 C-229.3 408.1 -229.6 406.6 -229.8 405.2 C-232.5 390.7 -235.1 376.1 -237.1 361.4 C-235.8 361.4 -234.5 361.4 -233.1 361.4 C-230.5 376.3 -227.8 391.1 -225.1 406.4 C-212.8 405.3 -212.8 405.3 -207.7 404.1 C-206.6 403.9 -205.4 403.6 -204.2 403.3 C-203 403 -201.8 402.7 -200.5 402.4 C-197.8 401.8 -195.1 401.2 -192.4 400.6 C-191.6 400.4 -190.9 400.2 -190.2 400.1 C-184.1 398.7 -178.1 397.3 -172.1 396 C-171.6 395.9 -171.6 395.9 -169.2 395.4 C-165.5 394.6 -161.8 393.8 -158 393 C-155.4 392.4 -152.8 391.8 -150.2 391.3 C-149.8 391.2 -149.8 391.2 -147.8 390.7 C-142.4 389.6 -142.4 389.6 -140.1 388.4 C-140.7 385.7 -141.3 383.1 -141.9 380.4 C-142.1 379.6 -142.2 378.8 -142.4 377.9 C-143.9 371.3 -145.6 364.9 -147.5 358.4 C-148.1 355.4 -148.1 355.4 -147.1 352.4 C-146.6 352.6 -146.6 352.6 -144.1 353.4 C-143.3 355.5 -143.3 355.5 -142.6 358.2 C-142.3 359.3 -142 360.3 -141.8 361.3 C-141.6 361.9 -141.6 361.9 -141 364.7 C-140.7 365.8 -140.4 367 -140.1 368.1 C-139.5 370.6 -138.9 373 -138.3 375.4 C-137.4 379.1 -136.4 382.8 -135.5 386.5 C-134.9 388.8 -134.3 391.2 -133.8 393.5 C-133.5 394.6 -133.2 395.7 -132.9 396.9 C-132.7 397.9 -132.4 398.9 -132.2 400 C-131.9 400.9 -131.7 401.8 -131.5 402.7 C-131.1 405.9 -131.5 408.4 -132.1 411.4 C-133.1 411.8 -133.1 411.8 -138.1 413.4 C-137.3 422.5 -136 431.8 -133.1 440.4 C-130.6 441.4 -128.2 442.1 -125.6 442.8 C-125.2 442.9 -125.2 442.9 -123.2 443.4 C-115.2 445.5 -107.2 447.4 -99.1 449.3 C-92.5 450.9 -85.9 452.6 -79.3 454.5 C-75.2 455.7 -71.1 456.7 -67 457.7 C-62.4 458.9 -57.8 460 -53.2 461.2 C-52 461.6 -50.7 461.9 -49.5 462.2 C-47 462.9 -44.5 463.5 -42.1 464.2 C-41 464.4 -39.8 464.7 -38.7 465 C-37.6 465.3 -36.6 465.6 -35.6 465.9 C-33.1 466.4 -33.1 466.4 -31.1 466.4 C-31.3 465.7 -31.6 465 -31.8 464.2 C-31.9 463.8 -31.9 463.8 -32.6 461.3 C-32.8 460.8 -32.8 460.8 -33.5 458.4 C-34.7 452.8 -34.3 449.1 -31.5 444 C-31.3 443.5 -31.3 443.5 -29.9 440.9 C-29.3 439.9 -28.7 438.8 -28.1 437.7 C-20.2 423.1 -14.3 408.5 -10.1 392.4 C-8.8 392.4 -7.5 392.4 -6.1 392.4 C-6.2 392.8 -6.2 392.8 -6.7 394.8 C-8.2 400.3 -9.5 405.8 -10.1 411.4 C-1.7 410.9 6.3 409.2 14.5 407.4 C15.8 407.1 17.1 406.8 18.4 406.5 C21.6 405.8 24.7 405.1 27.9 404.4 C27.3 395.5 25.9 386.7 24.2 377.9 C24.1 377.2 24 376.5 23.9 375.8 C20.8 359.7 16.7 344.7 6.9 331.4 C3.7 332.6 1.4 333.8 -1.4 335.8 C-5 338.1 -8.3 339 -12.5 340 C-22.2 342.3 -22.2 342.3 -25.2 345.8 C-26.1 347.7 -27 349.6 -27.8 351.5 C-32.5 361.9 -42.3 368.3 -52.1 373.4 C-53.1 373.8 -54.1 374.1 -55.1 374.4 C-56.2 376.3 -56.2 376.3 -57.2 378.7 C-57.4 379.1 -57.4 379.1 -58.3 381.4 C-58.7 382.3 -59.1 383.3 -59.5 384.2 C-59.7 384.7 -59.7 384.7 -60.7 387.1 C-62.4 391.2 -64.1 395.3 -65.7 399.3 C-66.1 400.4 -66.5 401.4 -66.9 402.4 C-67.3 403.3 -67.6 404.2 -68 405.1 C-70 409.2 -72.4 412.7 -76.8 414.3 C-82.7 416.2 -88.4 415.6 -93.9 412.8 C-98.7 409.2 -100.7 405.9 -101.7 400.1 C-102.3 395.5 -102.8 390.9 -103.3 386.2 C-103.5 384.2 -103.7 382.2 -103.9 380.2 C-104 379.6 -104 379.6 -104.3 376.6 C-106 370.3 -111.6 367.3 -116.9 363.8 C-132.9 352.6 -143.3 336 -147.5 317 C-148.7 310.2 -148.5 303.3 -148.5 296.4 C-148.6 289.3 -149.6 284.2 -152.9 277.9 C-154.9 274 -156 269.7 -157.1 265.4 C-175.8 265.4 -197.8 279.3 -211.1 291.4 Z M-144.1 294.4 C-144.9 314.2 -141.7 332.7 -127.8 347.8 C-125.9 349.7 -124 351.6 -122.1 353.4 C-121.3 354.2 -120.6 355 -119.8 355.8 C-107.3 367.4 -107.3 367.4 -101.1 367.4 C-101.2 368.3 -101.2 369.2 -101.2 370.1 C-101.2 376.1 -100.2 382.1 -99.4 388 C-99.2 389.2 -99.1 390.4 -98.9 391.7 C-97.8 399.2 -96.8 403.9 -91.2 409.3 C-88.7 410.7 -87.1 410.9 -84.3 411 C-83.5 411 -82.7 411.1 -81.9 411.1 C-77.5 410 -74.9 408 -72.1 404.4 C-69.6 399.5 -67.7 394.4 -65.8 389.2 C-65.2 387.9 -64.7 386.5 -64.1 385.1 C-62.4 380.6 -60.7 376 -59.1 371.4 C-56.9 370.2 -54.7 369.1 -52.4 368.1 C-45.1 364.7 -39.9 360.8 -34.9 354.4 C-34.2 353.6 -33.5 352.8 -32.9 351.9 C-31.2 349.5 -30.1 347.2 -29.1 344.4 C-41.6 342.4 -41.6 342.4 -45 344.7 C-45.9 345.9 -46.8 347.1 -47.6 348.4 C-51.7 353.8 -58.8 357 -65.1 359.4 C-69.1 361.1 -70.6 362.9 -72.2 367 C-72.5 367.8 -72.8 368.6 -73.1 369.4 C-73.3 369.9 -73.3 369.9 -74.4 372.5 C-76.8 378.8 -79.1 385.1 -81.1 391.4 C-82.1 391.1 -83.1 390.8 -84.1 390.4 C-84.3 389.5 -84.4 388.7 -84.5 387.7 C-85 384.4 -85.5 381.1 -86 377.8 C-86.3 376.4 -86.5 375 -86.7 373.6 C-87 371.5 -87.3 369.4 -87.6 367.4 C-87.8 366.2 -88 364.9 -88.2 363.6 C-89.2 360.1 -90.3 358.7 -93.1 356.4 C-95 355.5 -96.8 354.6 -98.8 353.8 C-105.3 350.6 -110.1 346.6 -115.1 341.4 C-115.4 341.2 -115.4 341.2 -116.8 339.8 C-124 332.3 -128 322.8 -129.3 312.8 C-130.6 304.8 -134.4 301.2 -140.5 296.3 C-143.1 294.4 -143.1 294.4 -144.1 294.4 Z M-126.1 308.4 C-124.9 321.4 -118.2 333.7 -108.7 342.4 C-104.7 345.5 -100.6 348.1 -96.1 350.4 C-94.5 351.3 -92.8 352.2 -91.1 353.1 C-90.4 353.5 -89.7 353.9 -88.9 354.3 C-86.5 355.8 -85.3 357.6 -84.6 360.4 C-84.5 361.2 -84.4 361.9 -84.3 362.7 C-84.1 363.5 -84 364.3 -83.9 365.1 C-83.8 365.9 -83.6 366.8 -83.5 367.6 C-83.4 368.5 -83.2 369.3 -83.1 370.2 C-82.8 372.3 -82.4 374.4 -82.1 376.4 C-79.3 373.9 -78.4 371.5 -77.2 367.8 C-75.3 362.4 -73.6 357.8 -68.4 355.1 C-65.6 353.9 -62.8 352.9 -59.9 351.9 C-55 350.2 -52.4 347.4 -49.1 343.4 C-52.4 341.2 -54.6 340.8 -58.5 340.1 C-59.1 340 -59.1 340 -62.3 339.4 C-63 339.3 -63.6 339.1 -64.3 339 C-87.3 334.7 -104.4 328.6 -121.1 311.4 C-123.1 309.4 -123.1 309.4 -126.1 308.4 Z M-146.6 394.7 C-147.3 394.9 -148 395 -148.7 395.2 C-150.9 395.7 -153.2 396.2 -155.4 396.8 C-157 397.1 -158.6 397.5 -160.2 397.8 C-162.7 398.4 -165.3 399 -167.8 399.6 C-174.7 401.1 -181.6 402.6 -188.5 404.2 C-190.5 404.6 -192.6 405.1 -194.6 405.5 C-197.7 406.2 -200.7 406.9 -203.8 407.5 C-206.6 408.2 -209.5 408.8 -212.4 409.4 C-213.2 409.6 -214.1 409.8 -215 410 C-220.9 411.3 -220.9 411.3 -223.1 412.4 C-223 414 -222.8 415.6 -222.7 417.2 C-222.6 417.6 -222.6 417.6 -222.4 419.9 C-222.2 422.1 -221.7 424.2 -221.1 426.4 C-214 425.8 -207.2 424.5 -200.2 422.9 C-199.1 422.6 -197.9 422.4 -196.8 422.1 C-193.2 421.3 -189.5 420.5 -185.9 419.7 C-183.6 419.2 -181.2 418.6 -178.8 418.1 C-174.2 417.1 -169.5 416 -164.9 415 C-160.4 413.9 -156 413 -151.5 412 C-150.5 411.8 -149.5 411.6 -148.4 411.3 C-146.5 410.9 -144.6 410.5 -142.6 410.1 C-141.8 409.9 -140.9 409.7 -140.1 409.5 C-139.3 409.3 -138.6 409.2 -137.8 409 C-136.1 408.4 -136.1 408.4 -135.1 406.4 C-135.5 404.4 -135.9 402.4 -136.4 400.4 C-136.7 399.3 -137 398.2 -137.2 397.1 C-139 391.9 -142.1 393.7 -146.6 394.7 Z M9.9 412.4 C8 412.8 6.1 413.1 4.2 413.4 C1.4 413.9 -1.3 414.4 -4.1 414.9 C-4.9 415 -5.8 415.2 -6.6 415.3 C-12.4 416.5 -12.4 416.5 -14.5 419.2 C-16.7 423.4 -18 427.9 -19.1 432.4 C-10.1 431.9 -1.4 430.3 7.4 428.5 C9.8 428 12.2 427.5 14.6 427.1 C16.2 426.7 17.7 426.4 19.2 426.1 C19.9 426 20.6 425.8 21.4 425.7 C24.8 425 27.8 424.2 30.9 422.4 C30.7 420.6 30.6 418.9 30.4 417.1 C30.4 416.1 30.3 415.1 30.2 414 C29.9 411.4 29.9 411.4 28.9 409.4 C22.6 409.4 16 411.3 9.9 412.4 Z M-154.4 416.7 C-155.7 416.9 -156.9 417.2 -158.2 417.5 C-159.6 417.9 -160.9 418.2 -162.2 418.5 C-163.6 418.8 -165 419.1 -166.4 419.5 C-168.5 420 -170.6 420.5 -172.8 421 C-177.5 422.1 -182.3 423.2 -187.1 424.2 C-188.3 424.5 -189.6 424.7 -190.9 425 C-193.2 425.5 -195.6 426.1 -197.9 426.6 C-199 426.8 -200 427 -201.1 427.3 C-202 427.5 -203 427.7 -203.9 427.9 C-206.1 428.4 -206.1 428.4 -208.1 429.4 C-206.8 436.1 -205.5 442.8 -204.1 449.4 C-204 450 -204 450 -203.5 452.7 C-196.3 487.5 -196.3 487.5 -184.1 496.4 C-176.1 501.1 -168.1 503.9 -159 505.9 C-157.8 506.2 -156.6 506.5 -155.4 506.8 C-151.5 507.8 -147.7 508.7 -143.9 509.6 C-141.3 510.2 -138.8 510.8 -136.2 511.4 C-131.3 512.6 -126.4 513.7 -121.5 514.9 C-108.6 518 -95.8 521.3 -83 524.8 C-77.8 526.2 -72.6 527.6 -67.3 528.8 C-58.1 530.8 -51.7 532.3 -45.1 539.4 C-38.1 544.8 -31.1 547.4 -22.2 547.7 C-12.8 548 -7.6 550 -0.9 556.6 C4.8 562.2 4.8 562.2 8.3 562.9 C12.3 562.7 15.1 561.7 18 558.8 C19.9 555.4 19.9 555.4 20.2 552.2 C17.5 544.8 11.2 539 4.9 534.4 C4.2 534.4 3.6 534.4 2.9 534.4 C2.9 532.8 2.9 531.1 2.9 529.4 C13.2 533.1 19 540.4 24.9 549.4 C29 548.9 30.5 548.7 33.8 545.8 C36.3 541.7 36.7 540.2 35.9 535.4 C32 525.2 26.5 518.9 16.9 513.8 C16.2 513.3 15.5 512.9 14.9 512.4 C14.9 511.4 14.9 510.5 14.9 509.4 C22 509.6 26.9 514.4 31.7 519.3 C34.5 522.5 36.8 525.7 38.9 529.4 C42 528.1 42.9 527.4 44.9 524.4 C46.2 516.8 44.2 510.7 39.9 504.4 C32.5 495.3 23 489.1 12 485 C8.9 483.4 8.9 483.4 7.9 481.2 C7.9 481 7.9 481 7.9 479.4 C14.7 481.1 20.5 483.7 26.6 487.2 C28.9 488.4 28.9 488.4 30.9 488.4 C31.3 483.7 31.4 481.4 29.1 477.2 C23.9 471.8 14.6 469.7 7.3 469.3 C4.4 469.2 1.5 469.2 -1.4 469.2 C-2.4 469.2 -3.4 469.1 -4.4 469.1 C-9.2 469.1 -13.1 469.2 -17.6 471.1 C-27.5 474.8 -40.8 468.9 -50.8 466.3 C-52.4 465.9 -54 465.5 -55.6 465.1 C-59.8 464 -63.9 463 -68.1 461.9 C-73.1 460.6 -78.1 459.4 -83.2 458.1 C-87.2 457 -91.3 456 -95.3 455 C-102 453.2 -108.7 451.5 -115.4 450 C-117.4 449.6 -119.3 449.1 -121.3 448.7 C-123.6 448.2 -125.9 447.7 -128.2 447.2 C-135.4 445.5 -135.4 445.5 -137.4 442.4 C-138.2 440.1 -138.7 437.9 -139.1 435.4 C-139.4 434.5 -139.6 433.6 -139.8 432.7 C-140 431.9 -140.1 431.2 -140.3 430.4 C-140.5 429.6 -140.6 428.7 -140.8 427.9 C-141 427.1 -141.1 426.2 -141.3 425.4 C-141.5 424.5 -141.7 423.6 -141.8 422.8 C-142.3 420.6 -142.7 418.5 -143.1 416.4 C-147.3 415.3 -150.2 415.7 -154.4 416.7 Z M11.1 431.7 C9.8 431.9 8.5 432.2 7.2 432.5 C5.9 432.8 4.5 433 3.2 433.3 C0.6 433.9 -2.1 434.4 -4.7 434.9 C-6 435.2 -7.2 435.5 -8.5 435.7 C-10.8 436.2 -13.1 436.6 -15.4 436.9 C-22.5 437.8 -22.5 437.8 -25.8 441.3 C-26 441.8 -26 441.8 -27.4 444.7 C-27.9 445.8 -28.5 446.9 -29.1 448.1 C-30.8 453.6 -29.2 457.6 -27.1 462.8 C-26.4 464.4 -25.8 465.9 -25.1 467.4 C-24.4 467.3 -23.7 467.2 -23 467 C-15.3 465.6 -7.9 465.1 -0.2 465.1 C0.4 465.1 0.4 465.1 3.3 465.1 C11.5 465.2 18.3 466.1 25.9 469.4 C26.9 469.8 27.9 470.1 28.9 470.4 C29.2 462.2 28.3 454.6 26.9 446.5 C26.8 445.9 26.8 445.9 26.4 443.1 C24.9 434.5 24.9 434.5 23.9 430.4 C19.4 430.3 15.5 430.8 11.1 431.7 Z M-209.1 511.4 C-209.1 519.4 -209.1 527.3 -209.1 535.4 C-205.5 535.1 -201.9 534.8 -198.1 534.4 C-198.1 526.8 -198.1 519.3 -198.1 511.4 C-201.8 511.4 -205.4 511.4 -209.1 511.4 Z M-257.1 518.4 C-257.1 523.4 -257.1 528.3 -257.1 533.4 C-242.7 535.2 -228.6 536.9 -214.1 536.4 C-214.1 530.5 -214.1 524.6 -214.1 518.4 C-228.3 518.4 -242.5 518.4 -257.1 518.4 Z M-192.1 518.4 C-192.1 524.4 -192.1 530.3 -192.1 536.4 C-191.1 537.1 -191.1 537.1 -186.1 540.4 C-183.7 543.2 -182.3 545 -181.1 548.4 C-165.3 548.4 -149.4 548.4 -133.1 548.4 C-132.8 538.5 -132.5 528.6 -132.1 518.4 C-151.9 518.4 -171.7 518.4 -192.1 518.4 Z M-127.1 519.4 C-129.3 523.7 -128.5 529.3 -128.6 534 C-128.6 535.2 -128.7 536.3 -128.7 537.5 C-128.8 544.4 -128.1 549 -124.1 554.6 C-117.5 560.6 -109.2 560 -100.9 559.9 C-98.7 559.9 -96.5 560 -94.2 560 C-86.6 560.1 -80 560 -74.1 554.4 C-68.6 548.1 -69.8 540.4 -70.1 532.4 C-70.8 532.4 -71.4 532.4 -72.1 532.4 C-72.3 533 -72.3 533 -73.4 535.8 C-74.8 539.3 -74.8 539.3 -77.2 540.4 C-77.8 540.8 -78.5 541.1 -79.1 541.4 C-79.8 543.8 -80.5 546.1 -81.1 548.4 C-85.9 551.6 -91.4 550.8 -96.9 550.8 C-99.1 550.8 -101.2 550.8 -103.3 550.8 C-104.6 550.8 -105.9 550.8 -107.3 550.8 C-108.5 550.8 -109.7 550.8 -111 550.8 C-114.4 550.4 -115.9 550.1 -118.1 547.4 C-118.6 544.6 -118.6 544.6 -118.5 541.2 C-118.5 540 -118.5 538.8 -118.5 537.6 C-118.4 536.3 -118.4 535.1 -118.4 533.8 C-118.4 532.5 -118.3 531.2 -118.3 529.9 C-118.3 526.7 -118.2 523.6 -118.1 520.4 C-121.1 520.1 -124.1 519.8 -127.1 519.4 Z M-113.1 522.4 C-114.8 524.1 -114.3 526 -114.3 528.3 C-114.3 529.3 -114.3 530.3 -114.3 531.3 C-114.3 532.3 -114.3 533.4 -114.2 534.4 C-114.3 535.5 -114.3 536.5 -114.3 537.6 C-114.3 538.6 -114.3 539.5 -114.3 540.6 C-114.3 541.5 -114.3 542.4 -114.3 543.3 C-114.1 545.4 -114.1 545.4 -113.1 546.4 C-111.1 546.5 -109 546.5 -106.9 546.5 C-106.3 546.5 -106.3 546.5 -103.1 546.5 C-101.7 546.5 -100.4 546.5 -99.1 546.5 C-97.7 546.5 -96.4 546.5 -95 546.5 C-91.7 546.5 -88.4 546.5 -85.1 546.4 C-84.8 544.8 -84.5 543.1 -84.1 541.4 C-84.6 541.4 -84.6 541.4 -87 541.4 C-88.3 541.3 -89.6 541.2 -90.9 541.2 C-92.1 541.1 -93.4 541.1 -94.7 541 C-98.6 540.4 -99.8 539.6 -102.1 536.4 C-102.8 531.8 -101.8 529.2 -99.1 525.4 C-100.9 524.9 -102.7 524.4 -104.4 523.9 C-105.4 523.7 -106.4 523.4 -107.4 523.1 C-110.1 522.4 -110.1 522.4 -113.1 522.4 Z M-97.1 530.4 C-97.5 532.1 -97.8 533.8 -98.1 535.4 C-97.1 536.4 -97.1 536.4 -95.3 536.6 C-94.5 536.5 -93.7 536.5 -92.9 536.5 C-92 536.5 -91.2 536.5 -90.3 536.5 C-89.8 536.5 -89.8 536.5 -87.6 536.5 C-86.7 536.5 -85.8 536.5 -84.8 536.5 C-82.6 536.5 -80.4 536.5 -78.1 536.4 C-77.8 535.1 -77.5 533.8 -77.1 532.4 C-80.2 530.4 -80.7 530.2 -84.1 530.2 C-84.9 530.2 -85.7 530.3 -86.4 530.3 C-87.2 530.3 -88 530.3 -88.8 530.3 C-89.6 530.3 -90.4 530.3 -91.2 530.3 C-93.2 530.4 -95.2 530.4 -97.1 530.4 Z M-65.1 534.4 C-65.1 539.1 -65.1 543.7 -65.1 548.4 C-57.2 548.4 -49.3 548.4 -41.1 548.4 C-47.4 542.2 -53.5 536.9 -62.1 534.4 C-63.1 534.4 -64.1 534.4 -65.1 534.4 Z M-264.1 542.4 C-267.5 547.3 -267.9 551.7 -267.1 557.4 C-264.8 566.5 -260.9 574.2 -252.9 579.4 C-246.7 583 -240.4 583.4 -233.3 581.8 C-230.1 580.9 -227.1 579.9 -224.1 578.4 C-223.5 576.2 -223.5 576.2 -223 573.4 C-222.7 571.7 -222.4 570.1 -222.1 568.4 C-218.8 568.8 -215.5 569.1 -212.1 569.4 C-207.9 563.5 -204.9 557.8 -202.3 550.9 C-201.1 548.4 -201.1 548.4 -198.1 546.4 C-192.8 546.1 -192.8 546.1 -190.1 547.4 C-190.1 548.4 -190.1 549.4 -190.1 550.4 C-191.2 550.4 -192.3 550.5 -193.4 550.5 C-197.1 551.4 -197.1 551.4 -198.4 552.9 C-199.5 555 -200.4 557 -201.3 559.1 C-201.9 560.5 -202.6 562 -203.2 563.4 C-203.5 564.1 -203.8 564.8 -204.2 565.5 C-207.8 572.9 -207.8 572.9 -211.6 574.4 C-214.5 574.4 -216.5 573.7 -219.1 572.4 C-219.1 573.7 -219 574.9 -219 576.1 C-219.3 578.3 -219.3 578.3 -220.1 580.4 C-224.7 584 -230.4 586.1 -236.1 586.4 C-236.9 586.5 -237.7 586.6 -238.5 586.7 C-246.6 587.2 -252.5 584.9 -259.1 580.4 C-263.9 576.2 -267.2 571.1 -270.1 565.4 C-273.8 571 -273.8 576.9 -273.1 583.4 C-270.6 592.4 -266.7 599 -258.8 603.9 C-248.9 609.2 -239.1 609.9 -228.1 610.4 C-226.3 610.4 -224.5 610.5 -222.7 610.6 C-212.1 611 -202.8 609.2 -194.6 602.2 C-185.1 592.9 -184.8 582.9 -184.7 570.4 C-184.7 568.6 -184.7 566.8 -184.6 565 C-184.6 562.5 -184.5 559.9 -184.5 557.3 C-184.5 556.9 -184.5 556.9 -184.4 554.9 C-184.4 549.5 -185.9 546.7 -189.5 542.8 C-193.3 539.6 -197.9 540.3 -202.6 540.4 C-203 540.4 -203 540.4 -205.1 540.4 C-208.7 540.4 -212.2 540.4 -215.8 540.5 C-233.7 540.6 -233.7 540.6 -241.9 539.7 C-245.3 539.3 -248.6 539.2 -252 539.2 C-253.2 539.2 -254.5 539.1 -255.7 539.1 C-259.4 539.5 -261.2 540.2 -264.1 542.4 Z M-34.1 551.4 C-34.2 552.7 -34.3 553.9 -34.4 555.2 C-34.8 558.1 -34.9 559.2 -36.8 561.4 C-37.1 561.7 -37.1 561.7 -38.8 562.9 C-47.4 569.7 -53 580.7 -55.1 591.4 C-56 600.1 -56 600.1 -53.6 604 C-50.3 605.9 -47.9 606.4 -44.1 606.4 C-40.5 604.9 -39.3 603.9 -37.7 600.3 C-37.3 599.2 -36.9 598 -36.6 596.8 C-35.4 593.3 -35.4 593.3 -34.1 590.4 C-32 589.5 -32 589.5 -30.1 589.4 C-30.9 605.3 -31.8 617.1 -44.1 628.4 C-45.1 629.4 -45.1 629.4 -45.4 632.7 C-45.1 637 -44.1 638.4 -41.1 641.4 C-38 643 -35.5 643.3 -32.1 642.4 C-19.6 635.1 -14.3 623.7 -10.1 610.4 C-9.1 610.4 -8.1 610.4 -7.1 610.4 C-7.8 621.7 -12.2 630.3 -20 638.3 C-21.9 640.2 -23.5 642.2 -25.1 644.4 C-23.3 646.4 -21.9 647.4 -19.1 647.6 C-12 647 -7 644.6 -2.1 639.5 C3.7 632.4 7.1 623.3 8.9 614.4 C9.9 614.4 10.9 614.4 11.9 614.4 C11.3 623.5 8.7 630.8 3.9 638.4 C3.9 639.1 3.9 639.8 3.9 640.4 C9.2 640.1 12.4 638.3 15.9 634.4 C32.8 612 30.5 580 30.9 553.4 C28.9 553.7 26.9 554 24.9 554.4 C23.6 556.1 23.6 556.1 22.9 558.2 C21 562.6 19.3 564.5 14.9 566.4 C10.9 567.6 7.9 567.6 3.9 566.4 C-1.3 563.1 -5.7 558.7 -10.1 554.4 C-12.5 553.2 -14.4 553.1 -17.1 552.9 C-18.1 552.8 -19.1 552.7 -20.1 552.6 C-20.6 552.6 -20.6 552.6 -23.2 552.4 C-24.3 552.3 -25.3 552.2 -26.4 552.1 C-29 551.9 -31.6 551.7 -34.1 551.4 Z M-180.1 553.4 C-180.1 554.4 -180.1 555.3 -180.2 556.3 C-180.2 559.8 -180.3 563.4 -180.3 566.9 C-180.4 568.5 -180.4 570 -180.4 571.5 C-180.5 584 -181.7 596.1 -191.1 605.4 C-203.1 614.7 -215.7 615 -230.1 614.4 C-231.4 614.4 -232.7 614.4 -234 614.3 C-244.1 613.8 -253 611.7 -262.1 607.4 C-262.5 609.4 -262.8 611.3 -263.1 613.2 C-263.3 614.3 -263.5 615.4 -263.7 616.5 C-264.1 619.4 -264.1 619.4 -264.1 622.4 C-220.6 622.4 -177 622.4 -132.1 622.4 C-124.9 607.6 -117.6 592.7 -110.1 577.4 C-108.5 576.4 -106.8 575.5 -105.1 574.4 C-105.7 578.7 -107.3 582 -109.2 585.8 C-116.1 599.3 -122.6 612.9 -129.1 626.4 C-174 626.8 -218.9 627.1 -265.1 627.4 C-266.1 638.4 -266.1 638.4 -263.1 642.4 C-260.6 642.9 -260.6 642.9 -257.4 642.9 C-256.9 643 -256.9 643 -253.9 643 C-252.6 643 -251.3 643 -249.9 643 C-248.5 643 -247.2 643 -245.8 643 C-242 643 -238.3 643 -234.5 643 C-230.6 643 -226.7 643 -222.7 643 C-216.1 643 -209.5 643 -202.9 643 C-195.3 642.9 -187.7 642.9 -180.1 643 C-173.5 643 -167 643 -160.4 643 C-156.5 643 -152.6 643 -148.7 643 C-145 643 -141.3 643 -137.6 643 C-135.6 643 -133.7 643 -131.7 643 C-130.5 643 -129.3 643 -128.1 642.9 C-127.5 642.9 -127.5 642.9 -124.9 642.9 C-121.4 642.3 -119.7 640.9 -117.1 638.4 C-115.9 636.7 -115.9 636.7 -115.1 634.9 C-114.9 634.6 -114.9 634.6 -114.1 632.9 C-114 632.5 -114 632.5 -113.2 630.8 C-113 630.4 -113 630.4 -112.1 628.5 C-111.4 627 -110.7 625.4 -110 623.8 C-108.9 621.4 -107.8 619.1 -106.7 616.7 C-106 615.2 -105.2 613.6 -104.5 612.1 C-104.2 611.4 -103.9 610.7 -103.5 610 C-102.1 606.8 -100.9 603.8 -100.1 600.4 C-97.9 602.5 -96.5 604.3 -95.3 607 C-95 607.7 -94.6 608.5 -94.3 609.2 C-94.1 609.6 -94.1 609.6 -93.3 611.5 C-92.5 613.1 -91.8 614.7 -91 616.4 C-89.8 618.9 -88.7 621.4 -87.5 624 C-86.4 626.5 -85.3 628.9 -84.1 631.4 C-83.8 632.1 -83.4 632.9 -83.1 633.7 C-79.8 640.7 -79.8 640.7 -76.1 642.4 C-73.1 642.8 -73.1 642.8 -69.6 642.7 C-69 642.7 -69 642.7 -65.8 642.7 C-64.5 642.7 -63.2 642.7 -61.9 642.6 C-60.6 642.6 -59.2 642.6 -57.9 642.6 C-54.6 642.5 -51.4 642.5 -48.1 642.4 C-48.8 637.5 -49.4 632.5 -50.1 627.4 C-56.4 627.4 -62.7 627.4 -69.1 627.4 C-69.8 625.5 -70.4 623.5 -71.1 621.4 C-71.9 619.8 -72.6 618.3 -73.4 616.7 C-73.9 615.8 -74.3 615 -74.8 614.1 C-75.2 613.1 -75.7 612.2 -76.2 611.2 C-81 601.7 -85.7 592 -90.2 582.3 C-91.2 580.3 -92.1 578.4 -93.1 576.4 C-91.8 576.4 -90.5 576.4 -89.1 576.4 C-84.5 582.7 -81.3 589.9 -78 596.9 C-77.1 598.9 -76.1 600.8 -75.2 602.7 C-72.1 609.3 -69 615.8 -66.1 622.4 C-62.7 622.6 -59.3 622.7 -55.9 622.8 C-55 622.8 -54 622.8 -53 622.9 C-45.8 623 -45.8 623 -42.1 620 C-41.7 619.6 -41.7 619.6 -40.1 617.4 C-39.5 616.8 -39 616.2 -38.4 615.5 C-36.8 612.9 -36.5 610.5 -36.1 607.4 C-36.5 607.7 -36.5 607.7 -38.6 608.9 C-42.9 610.8 -46.4 611.2 -51.1 610.4 C-55.2 608.4 -57.5 606.7 -59.1 602.4 C-61 588 -54.5 574 -46.1 562.7 C-44.1 560.4 -44.1 560.4 -41.4 558.3 C-41 558 -41 558 -39.1 556.4 C-39.1 555.4 -39.1 554.5 -39.1 553.4 C-43.1 553.3 -47.2 553.1 -51.2 553.1 C-52.6 553 -53.9 553 -55.3 552.9 C-66.7 552.4 -66.7 552.4 -70.1 554.9 C-71.6 556.8 -71.6 556.8 -72.7 558.6 C-74.9 561.4 -77.8 562.5 -81.1 563.4 C-84 563.7 -86.6 563.9 -89.4 563.9 C-90.2 563.9 -90.9 563.9 -91.7 563.9 C-93.4 563.9 -95 563.9 -96.6 563.9 C-99.1 563.9 -101.5 563.9 -104 563.9 C-105.5 563.9 -107.1 563.9 -108.7 563.9 C-109.1 563.9 -109.1 563.9 -110.9 564 C-116.3 563.9 -120.7 562.6 -125.1 559.4 C-125.9 558.4 -126.6 557.3 -127.4 556.2 C-130.5 553.1 -131.1 553 -135.3 552.8 C-137.4 552.8 -139.5 552.8 -141.6 552.9 C-142.7 552.9 -143.8 552.9 -144.9 552.9 C-148.4 552.9 -151.9 553 -155.4 553.1 C-157.8 553.1 -160.2 553.1 -162.6 553.1 C-168.4 553.2 -174.3 553.3 -180.1 553.4 Z M-100.1 612.4 C-101.6 615.5 -103 618.5 -104.4 621.5 C-104.8 622.3 -105.2 623.2 -105.7 624.1 C-106.5 625.7 -107.2 627.4 -108 629.1 C-108.7 630.5 -109.4 632 -110.1 633.4 C-113.4 640.4 -112.2 646.3 -110.1 653.4 C-109.8 654.2 -109.6 655 -109.4 655.8 C-107.3 663 -105.1 670.3 -102.8 677.5 C-102.2 679.4 -101.7 681.2 -101.1 683.1 C-100.6 684.9 -100.1 686.6 -99.5 688.4 C-94.5 703.3 -94.5 717.5 -94.8 733.1 C-94.8 735.6 -94.9 738.1 -94.9 740.5 C-94.9 746.5 -95 752.5 -95.1 758.4 C-83.2 759.2 -71.4 759.7 -59.4 760 C-59 760 -59 760 -56.9 760.1 C-44 760.4 -31.1 760.6 -18.1 760.4 C-14.5 699.9 -14.5 699.9 -21.3 679.1 C-22.3 675.8 -23.3 672.5 -24.2 669.2 C-25.6 664.4 -27 659.5 -28.5 654.7 C-28.8 653.7 -29 652.7 -29.4 651.7 C-30.1 649.4 -30.1 649.4 -31.1 648.4 C-34.2 648.3 -37.3 648.2 -40.3 648.2 C-42.3 648.2 -44.2 648.1 -46.1 648.1 C-49.1 648 -52.2 648 -55.2 648 C-58.1 647.9 -61.1 647.9 -64 647.8 C-64.9 647.8 -65.8 647.8 -66.7 647.8 C-72.1 647.7 -77 647.2 -82.1 645.4 C-83.4 643.7 -83.4 643.7 -84.1 641.4 C-84.6 640.4 -85.1 639.4 -85.6 638.3 C-86.2 637.1 -86.8 635.9 -87.4 634.7 C-87.7 634.1 -88 633.4 -88.3 632.8 C-89.3 630.7 -90.3 628.7 -91.2 626.7 C-91.9 625.3 -92.6 623.9 -93.2 622.6 C-94.9 619.2 -96.5 615.8 -98.1 612.4 C-98.8 612.4 -99.4 612.4 -100.1 612.4 Z M-227.1 648.4 C-227.1 654.8 -226.9 660.3 -225.8 666.5 C-225.5 668.2 -225.3 669.9 -225 671.7 C-224.6 674.3 -224.1 677 -223.7 679.6 C-221.1 695.5 -220.2 710 -222.7 726 C-223.2 729 -223.7 732.1 -224.1 735.2 C-225.1 741.6 -226.1 748 -227.1 754.4 C-209.3 757.2 -191.4 759.9 -173.4 762.2 C-173 762.3 -173 762.3 -170.9 762.6 C-168.6 762.9 -166.2 763.2 -163.9 763.5 C-163.2 763.6 -162.5 763.7 -161.8 763.8 C-157.9 764.3 -154.1 764.5 -150.1 764.4 C-147.8 752.7 -145.6 740.8 -143.7 729 C-143.5 727.6 -143.3 726.2 -143 724.8 C-141.1 713.2 -140.3 702.3 -142.4 690.7 C-143.9 682.1 -145 673.4 -146 664.7 C-146.1 663.7 -146.3 662.8 -146.4 661.8 C-146.5 661 -146.6 660.1 -146.7 659.2 C-147.3 655.6 -148.2 652 -149.1 648.4 C-174.9 648.4 -200.6 648.4 -227.1 648.4 Z M-239.4 761 C-241.7 764.2 -242.3 767.3 -242.9 771.1 C-243 771.8 -243.1 772.6 -243.2 773.3 C-244.1 778.4 -244.8 783.2 -244.1 788.4 C-241.4 792.2 -239.1 793.7 -234.6 794.6 C-232.8 794.8 -231 795.1 -229.1 795.3 C-228.2 795.4 -227.2 795.6 -226.2 795.7 C-222.9 796.1 -219.7 796.5 -216.5 796.9 C-214.3 797.2 -212.1 797.5 -209.9 797.8 C-205.4 798.4 -200.9 799 -196.5 799.6 C-190.8 800.3 -185 801.2 -179.3 802 C-178.5 802.1 -177.7 802.2 -176.8 802.4 C-173.8 802.8 -170.8 803.3 -167.7 803.7 C-165.7 804 -163.7 804.3 -161.6 804.6 C-160.5 804.8 -159.4 804.9 -158.2 805.1 C-154 805.6 -150.4 805.9 -146.4 804.4 C-143.3 801.7 -142.8 799.3 -142.1 795.4 C-141.9 794.3 -141.7 793.2 -141.5 792.1 C-139.6 780.2 -139.6 780.2 -141.1 774.4 C-144.7 770.9 -147.6 769.8 -152.6 769.2 C-153.8 769 -155.1 768.8 -156.4 768.7 C-157.8 768.5 -159.2 768.3 -160.6 768.1 C-162.1 768 -163.5 767.8 -165 767.6 C-168.8 767.1 -172.6 766.6 -176.4 766.1 C-180.9 765.5 -185.5 764.9 -190.1 764.3 C-193.7 763.9 -197.3 763.4 -200.8 762.9 C-207.8 762 -214.7 761.1 -221.7 759.8 C-224.8 759.3 -227.9 759.1 -231.1 759.1 C-232.2 759 -233.2 759 -234.3 759 C-237.1 759.4 -237.1 759.4 -239.4 761 Z M-106.1 765.1 C-109.3 770.4 -108.8 775.5 -108.8 781.5 C-108.8 782.7 -108.8 783.9 -108.8 785.1 C-108.8 786.2 -108.8 787.4 -108.8 788.5 C-108.8 789.6 -108.8 790.6 -108.8 791.7 C-107.9 795.5 -106.3 796.3 -103.1 798.4 C-100.3 799 -100.3 799 -97.1 799.1 C-96.5 799.1 -96.5 799.1 -93.5 799.2 C-92.8 799.2 -92.8 799.2 -89.6 799.3 C-88.2 799.3 -86.9 799.3 -85.5 799.4 C-81.9 799.5 -78.3 799.6 -74.7 799.6 C-71.1 799.7 -67.6 799.8 -64 799.9 C-57.7 800.1 -51.5 800.2 -45.2 800.3 C-41.8 800.4 -38.5 800.5 -35.1 800.6 C-31.4 800.7 -27.6 800.8 -23.9 800.9 C-22.7 800.9 -21.6 801 -20.5 801 C-13.2 801.1 -13.2 801.1 -10.3 799.3 C-7.5 796.1 -6.5 793.2 -6.5 789 C-6.5 788 -6.4 787 -6.4 786 C-6.5 785 -6.5 783.9 -6.5 782.9 C-6.5 782.4 -6.5 782.4 -6.4 779.8 C-6.5 775.2 -6.6 772.3 -9 768.3 C-13.7 765.5 -17.8 765.6 -23.1 765.4 C-24.6 765.4 -26 765.3 -27.4 765.3 C-31.5 765.2 -35.7 765.1 -39.8 765 C-44.3 764.9 -48.7 764.8 -53.2 764.7 C-54.1 764.7 -55 764.7 -55.9 764.6 C-62.4 764.5 -69 764.2 -75.5 763.9 C-78.7 763.7 -81.9 763.6 -85.1 763.4 C-86 763.4 -86.8 763.4 -87.7 763.3 C-90.2 763.2 -92.7 763.1 -95.2 763.1 C-95.9 763 -96.7 763 -97.4 762.9 C-100.9 762.9 -103 763.4 -106.1 765.1 Z M-234.1 799.4 C-236.5 811.3 -238.4 823.2 -240.2 835.1 C-240.7 838.1 -241.1 841 -241.6 844 C-242.5 849.5 -243.3 855 -244.1 860.4 C-244.2 861.2 -244.3 861.9 -244.5 862.7 C-247.8 884.5 -247.8 884.5 -245.1 889.3 C-242.8 891.6 -240.4 893.3 -237.2 893.6 C-236.4 893.6 -235.6 893.6 -234.8 893.6 C-233.9 893.6 -233 893.6 -232.1 893.6 C-231.1 893.6 -230.1 893.6 -229.1 893.6 C-228 893.6 -227 893.6 -225.9 893.7 C-222.4 893.7 -219 893.7 -215.5 893.7 C-214.3 893.7 -213.1 893.7 -211.9 893.7 C-205.6 893.8 -199.4 893.8 -193.1 893.8 C-186.6 893.8 -180.2 893.8 -173.7 893.9 C-168.7 893.9 -163.7 893.9 -158.8 894 C-156.4 894 -154 894 -151.6 894 C-148.3 894 -144.9 894 -141.6 894 C-140.6 894 -139.6 894.1 -138.6 894.1 C-133.9 894 -131.8 894 -128 891.1 C-125.4 887.5 -125.5 885.8 -126.1 881.4 C-128.9 871.1 -134.1 862.4 -143.1 856.4 C-156 849.9 -169 848.9 -183 852.4 C-188.4 854.2 -193.8 856.9 -197.6 861.1 C-199.1 862.4 -199.1 862.4 -203.1 862.4 C-202.8 859.7 -202.3 858.6 -200.3 856.7 C-189 848.7 -177.5 846.7 -164.1 845.4 C-163.3 841.3 -162.5 837.2 -161.7 833.1 C-161.5 831.9 -161.2 830.7 -161 829.6 C-159.7 822.9 -158.6 816.2 -158.1 809.4 C-172.1 807.4 -186.1 805.4 -200.1 803.4 C-200.9 803.3 -201.7 803.2 -202.6 803.1 C-207.4 802.4 -212.1 801.7 -216.9 801.1 C-218.1 800.9 -219.3 800.7 -220.5 800.6 C-221.6 800.4 -222.7 800.3 -223.8 800.1 C-224.7 800 -225.6 799.8 -226.6 799.7 C-229.1 799.4 -231.6 799.4 -234.1 799.4 Z M-97.1 804.4 C-98.4 823.5 -99.3 842.7 -99.9 861.8 C-100 863.8 -100 865.8 -100.1 867.8 C-100.2 870.6 -100.3 873.4 -100.4 876.3 C-100.4 877.1 -100.4 878 -100.5 878.8 C-100.6 884.2 -99.7 887.2 -96.1 891.4 C-93.8 892.6 -92.3 892.6 -89.7 892.6 C-88.7 892.6 -87.8 892.6 -86.8 892.6 C-85.8 892.6 -84.7 892.6 -83.7 892.6 C-82.6 892.6 -81.5 892.6 -80.4 892.6 C-76.8 892.6 -73.1 892.6 -69.5 892.6 C-67 892.6 -64.5 892.7 -62 892.7 C-57.5 892.7 -52.9 892.7 -48.3 892.7 C-41.6 892.7 -34.8 892.7 -28.1 892.7 C-22.2 892.8 -16.4 892.8 -10.6 892.8 C-8.1 892.8 -5.6 892.8 -3.1 892.8 C0.3 892.8 3.8 892.8 7.3 892.8 C8.3 892.8 9.4 892.8 10.4 892.8 C11.4 892.8 12.3 892.8 13.3 892.8 C14.1 892.8 14.9 892.8 15.8 892.8 C18.4 892.3 19.3 891.5 20.9 889.4 C22.5 881.4 19.3 873.5 15.2 866.8 C6.4 854.3 -6.9 852 -21.1 848.4 C-21.1 834.2 -21.1 820.1 -21.1 805.4 C-46.5 804.5 -71.8 804.3 -97.1 804.4 Z " fill="#0D0B07" transform="translate(618.125,52.5625)"/>
<path d="M0 0 C0.3 1 0.7 2 1 3.1 C1.4 4.4 1.9 5.8 2.3 7.1 C2.5 7.8 2.7 8.5 3 9.1 C4 12.2 4.9 14.9 6.6 17.7 C8.8 22.9 8.4 28.3 8.4 33.9 C9 57.1 15.4 75.2 31.9 91.9 C36.7 96.3 42 99.8 47.5 103.2 C50.7 105.5 51.8 107.1 52.5 111 C52.6 111.6 52.6 111.6 52.9 114.6 C53 115.9 53.2 117.2 53.4 118.5 C53.6 120.6 53.8 122.7 54 124.7 C55.6 140.2 55.6 140.2 61 146 C65.5 149.2 70.5 150.1 76 150 C81.7 148.9 84.6 146.8 88 142 C89 140 89.9 137.9 90.8 135.9 C91 135.3 91.3 134.7 91.5 134.1 C93.1 130.5 94.4 126.8 95.7 123.1 C100.4 110.3 100.4 110.3 104.8 106.8 C106.8 105.9 108.8 105.1 110.9 104.3 C120.9 100.1 127.8 90.2 133 81 C133.3 80 133.7 79 134 78 C136.6 77.1 139.2 76.4 141.9 75.8 C148.7 73.9 154.2 71.5 160 67.4 C162 66 162 66 164 66 C168.8 72.3 172.4 79.3 175 86.7 C175.3 87.5 175.5 88.2 175.8 88.9 C178.5 96.9 180 105 181.4 113.2 C181.9 115.8 182.3 118.3 182.8 120.9 C183.1 122.5 183.4 124.2 183.7 125.8 C183.8 126.5 183.9 127.3 184.1 128.1 C184.7 131.8 185.2 135.3 185 139 C180.4 140 175.8 141 171.2 142 C169.6 142.3 168 142.7 166.5 143 C164.2 143.5 162 144 159.7 144.5 C159 144.6 158.3 144.8 157.6 144.9 C154 145.7 150.7 146.2 147 146 C147.7 139.5 149.4 133.3 151 127 C149.7 127 148.4 127 147 127 C146.8 127.6 146.8 127.6 145.9 130.6 C142 143.6 137.7 156.4 131.1 168.4 C130.6 169.3 130.1 170.3 129.5 171.2 C128.5 173 127.5 174.8 126.5 176.6 C123.2 182.5 122.4 186.4 124 193 C124.2 193.8 124.4 194.5 124.5 195.3 C125 197.2 125.5 199.1 126 201 C114.4 198.3 102.9 195.5 91.4 192.6 C89.2 192 87 191.5 84.8 191 C77.2 189.1 69.6 187.1 61.9 185.1 C53 182.7 44.1 180.5 35.2 178.3 C34 178 32.8 177.7 31.7 177.5 C30.6 177.2 29.6 176.9 28.5 176.7 C26 176 26 176 24 175 C20.9 166.6 18.8 156.9 19 148 C21 147.3 23 146.7 25 146 C25.9 141.8 26 138.7 24.9 134.5 C24.8 134 24.8 134 24.1 131.4 C23.8 130.3 23.6 129.2 23.3 128 C23 126.9 22.7 125.7 22.4 124.6 C21.4 120.9 20.5 117.3 19.6 113.6 C18.9 111.1 18.3 108.7 17.7 106.2 C16.1 100.1 14.6 94.1 13 88 C11.7 88 10.4 88 9 88 C10.4 95.4 12.2 102.7 14.1 110 C14.7 112 15.2 114.1 15.8 116.1 C16 117 16.2 117.9 16.5 118.8 C17 121 17 121 17 123 C6 125.8 -5.1 128.4 -16.2 130.9 C-17.8 131.2 -19.4 131.6 -20.9 131.9 C-24.9 132.8 -28.8 133.6 -32.7 134.5 C-34.9 135 -37.1 135.5 -39.3 136 C-43.2 136.8 -47.1 137.7 -50.9 138.5 C-52.1 138.8 -53.2 139 -54.4 139.3 C-55.5 139.5 -56.6 139.7 -57.7 140 C-58.6 140.2 -59.5 140.4 -60.4 140.6 C-63 141 -65.4 141.1 -68 141 C-70.8 126 -73.6 111 -76 96 C-77.3 96 -78.6 96 -80 96 C-79.9 96.7 -79.8 97.4 -79.6 98.1 C-78.7 103.7 -77.8 109.3 -76.9 114.9 C-74.9 127.3 -72.7 139.8 -70.3 152.2 C-70.1 153.2 -69.9 154.3 -69.7 155.4 C-69.5 156.3 -69.3 157.3 -69.1 158.3 C-68.9 159.1 -68.8 160 -68.6 160.8 C-68 163 -68 163 -66 166 C-63.6 166.3 -63.6 166.3 -60.9 166.2 C-59.2 166.1 -57.6 166.1 -56 166 C-54.1 173.4 -52.3 180.7 -50.5 188.1 C-49.9 190.8 -49.3 193.5 -48.6 196.2 C-48.3 197.6 -48 198.9 -47.7 200.3 C-44.8 212.7 -41.1 226.7 -29.8 234.1 C-29.1 234.5 -28.4 235 -27.7 235.5 C-20.4 239.6 -13.2 241.9 -5.1 243.6 C-3.2 244 -1.3 244.4 0.5 244.9 C1.3 245 2.2 245.2 3 245.4 C5 246 5 246 7 248 C-7.2 248 -21.4 248 -36 248 C-36.3 247.2 -36.3 247.2 -38 243 C-41.2 240.8 -42.2 240.7 -45.9 240.8 C-46.8 240.7 -47.6 240.7 -48.5 240.7 C-51.2 241 -52.8 241.4 -55 243 C-55.7 244.6 -56.4 246.3 -57 248 C-63.3 248.2 -69.5 248.3 -75.8 248.3 C-77.9 248.4 -80 248.4 -82.2 248.5 C-85.2 248.5 -88.3 248.6 -91.4 248.6 C-92.3 248.6 -93.3 248.6 -94.2 248.7 C-100.3 248.7 -103.7 247.5 -108.4 243.6 C-113.3 238.7 -114.3 233.9 -114.6 227 C-114.4 220.6 -113 216.8 -109 212 C-106.4 208.1 -106.7 204.8 -106.7 200.2 C-106.7 198.4 -106.6 196.6 -106.6 194.8 C-106.6 193.9 -106.6 192.9 -106.6 191.9 C-106 139.9 -100.1 78.3 -65 37 C-64.4 36.3 -63.9 35.6 -63.3 34.8 C-50 18.3 -21.2 0 0 0 Z " fill="#489941" transform="translate(461,318)"/>
<path d="M0 0 C0.7 3.5 1.1 7.1 1.6 10.7 C3 14 3 14 6.5 15.4 C14.3 17.8 22.2 19.7 30.1 21.7 C31.9 22.2 33.6 22.6 35.4 23.1 C39.1 24 42.8 25 46.6 25.9 C51.3 27.1 56 28.3 60.7 29.5 C71.1 32.2 81.5 34.8 91.9 37.5 C93.8 38 95.8 38.5 97.8 39 C100.8 39.7 103.8 40.5 106.8 41.2 C107.6 41.4 108.4 41.6 109.2 41.9 C114.6 43.2 117.9 42.7 123.1 41 C128.1 39.5 133.1 39.7 138.2 39.7 C139.2 39.7 140.2 39.7 141.3 39.7 C152.3 39.9 161.6 41.1 169.9 48.8 C171.6 52.2 171.2 55.2 171 59 C165.6 57.3 160.9 55 155.9 52.3 C153.2 51.1 150.9 50.4 148 50 C148.3 51.9 148.3 51.9 149 54 C151.5 55.5 153.9 56.7 156.6 57.9 C162.6 60.7 168 63.6 173 68 C173.6 68.5 174.2 69 174.9 69.6 C180.3 74.5 184.2 80.4 185.4 87.7 C185.6 92.1 185.4 94.4 183 98.1 C182.3 98.7 181.7 99.4 181 100 C177.4 98.8 177.2 98 175.3 94.9 C171.3 88.6 165.8 83.2 159 80 C157.7 80 156.4 80 155 80 C155 81 155 82 155 83 C157.2 84.5 157.2 84.5 160.1 86.1 C167.8 90.9 173.2 97.3 176 106 C176.6 110.6 176.4 112.4 173.9 116.4 C170.7 119.3 169.2 119.5 165 120 C164.5 119.2 163.9 118.4 163.3 117.6 C151.9 101.7 151.9 101.7 143 100 C143 101.6 143 103.3 143 105 C143.7 105.2 144.5 105.5 145.2 105.7 C148.4 107.2 150.2 108.8 152.6 111.3 C153.4 112.1 154.1 112.8 154.9 113.6 C158.1 117.3 160 119.6 159.9 124.6 C158.9 128.4 158.4 129.8 155 132 C151.8 133.3 149.4 133.7 146 133 C142.3 130.4 139.2 127.2 136 124 C130.5 119 125.3 118.6 118.1 118.4 C106.7 117.9 98.5 113.3 90.5 105.6 C86.6 102.4 82.4 101.4 77.6 100.2 C76.7 100 75.8 99.8 74.9 99.6 C72 98.8 69.1 98.1 66.2 97.4 C64.3 97 62.4 96.5 60.5 96 C52 93.9 43.5 91.9 35.1 89.9 C28.7 88.4 22.5 86.8 16.2 85.1 C11 83.7 5.8 82.5 0.6 81.2 C-2.5 80.4 -5.6 79.7 -8.7 78.9 C-10.8 78.4 -12.9 77.9 -15 77.4 C-18.1 76.6 -21.2 75.8 -24.3 75.1 C-24.7 75 -24.7 75 -27.1 74.4 C-35.5 72.3 -43.5 68.4 -49.3 61.8 C-49.9 61.2 -50.5 60.5 -51.1 59.8 C-56.8 51.3 -59.3 42 -61.4 32.2 C-61.8 30.1 -62.3 28 -62.8 25.9 C-65.2 14.9 -65.2 14.9 -65 10 C-64.7 11 -64.3 12 -64 13 C-63.2 12.8 -62.4 12.6 -61.6 12.5 C-57.8 11.6 -54 10.7 -50.2 9.9 C-49.5 9.7 -48.8 9.6 -48.1 9.4 C-36.8 6.9 -25.6 4.3 -14.3 1.9 C-13.2 1.6 -12.2 1.4 -11.1 1.2 C-10.2 1 -9.3 0.8 -8.3 0.6 C-2.5 -0.8 -2.5 -0.8 0 0 Z " fill="#FAA87E" transform="translate(478,482)"/>
<path d="M0 0 C0.4 0 0.4 0 2.6 0 C3.3 0 4 0.1 4.6 0.1 C5.1 1.3 5.6 2.5 6.1 3.7 C10.9 13 20.2 16 29.6 19.1 C30.6 19.4 31.5 19.7 32.5 20 C38.8 21.9 44.9 22.4 51.5 22.4 C52.3 22.5 53.1 22.5 54 22.5 C59 22.4 62.2 21.6 66.6 19.1 C67.3 19.1 67.9 19.1 68.6 19.1 C68.6 18.4 68.6 17.7 68.6 17.1 C73.6 18 76.8 20.9 80.6 24.1 C81.4 24.7 82.2 25.3 83 26 C92.7 34.2 100.3 44 106.3 55.2 C106.7 55.8 107 56.4 107.3 57.1 C109.1 60.4 109.6 62.2 109.6 66.1 C109 66.7 108.3 67.3 107.6 67.9 C105.6 70.1 105.6 70.1 105.3 73.4 C105.6 77.1 105.6 77.1 106.3 80.1 C106.7 83.9 105.5 85.8 103.6 89.1 C103.6 90.1 103.6 91 103.6 92.1 C104.3 92.1 104.9 92.1 105.6 92.1 C105.8 91.6 105.8 91.6 106.8 89.4 C109 85.5 111.1 83.7 114.6 81.1 C119.9 95.3 118 111.4 115.6 126.1 C114 126.1 112.3 126.1 110.6 126.1 C110.3 127.1 110 128 109.6 129.1 C109.3 127.7 109 126.4 108.6 125.1 C108 125.1 107.4 125 106.8 125 C77.3 124.5 49.3 120.1 20.8 113.1 C16.4 112 12 111 7.7 110 C1.9 108.6 -3.8 107.2 -9.5 105.6 C-10.2 105.4 -11 105.2 -11.7 105 C-19 102.9 -26.2 100.5 -33.4 98.1 C-33.4 97.4 -33.4 96.7 -33.4 96.1 C-31.4 94.7 -31.4 94.7 -28.8 93.2 C-28.4 92.9 -28.4 92.9 -26.1 91.6 C-24.4 90.7 -22.8 89.8 -21.2 88.9 C-16.5 86.2 -16.5 86.2 -15.4 84.1 C-24.3 85.1 -32.4 87.1 -40.8 89.9 C-49.1 92.6 -49.1 92.6 -54 90.7 C-54.9 90.3 -55.7 90 -56.6 89.7 C-57.5 89.3 -58.4 88.9 -59.4 88.6 C-60.3 88.2 -61.2 87.8 -62.2 87.5 C-68.8 84.9 -74.9 81.9 -81 78.3 C-83.4 77.1 -83.4 77.1 -86.4 77.1 C-87 78.1 -87.7 79 -88.4 80.1 C-90.4 74.1 -90.7 70.2 -88.1 64.4 C-87.7 63.7 -87.3 63 -86.9 62.2 C-86.8 61.8 -86.8 61.8 -85.8 59.8 C-73.9 35.3 -54.2 15.7 -28.4 6.1 C-9.7 -0.1 -9.7 -0.1 0 0 Z M-42.4 27.1 C-44.6 30.8 -44.8 33.7 -44.4 38.1 C-42.2 41 -40.9 42 -37.3 42.7 C-27.9 42.7 -20.6 41.1 -13.6 34.4 C-11.1 31.5 -9.5 29.1 -9 25.2 C-9.4 22.1 -9.4 22.1 -11.1 19.2 C-21.8 12.3 -34.6 18.6 -42.4 27.1 Z M38.9 57.4 C37.6 59.1 37.6 59.1 37.6 61.1 C30.2 62.1 30.2 62.1 26.8 62 C24.6 62.1 24.6 62.1 22.6 64.1 C22.9 67.6 22.9 67.6 23.6 71.1 C27.3 72.9 31.6 72.4 35.6 72.1 C40.3 70.4 43.5 68 46.6 64.1 C47.1 60.9 47.1 60.9 46.6 58.1 C42 55 42 55 38.9 57.4 Z M66.6 64.1 C66.3 68.6 67 72.8 69.8 76.4 C73.9 80.2 76.8 81.9 82.4 82.4 C85.6 82.1 85.6 82.1 87.6 80.1 C87.8 77.7 87.8 77.7 86.6 75.1 C84.9 74.1 84.9 74.1 82.8 73.2 C77.8 71.1 76.6 67.9 74.6 63.1 C73.6 62.1 73.6 62.1 71.2 61.9 C68.6 62.1 68.6 62.1 66.6 64.1 Z M21.2 93 C19.6 95.1 19.6 95.1 19.2 97.7 C19.6 100.1 19.6 100.1 21.6 102.1 C26.4 102 28.6 100.4 32.1 97.3 C37 93.3 42.4 92.5 48.6 92.7 C55.6 93.6 62.4 96.1 67.1 101.5 C68.4 103.2 69.6 105 70.7 106.8 C71.7 108.5 71.7 108.5 73.6 111.1 C76.2 111.6 76.2 111.6 78.6 111.1 C79.3 110.4 79.9 109.7 80.6 109.1 C80.6 102.4 76.3 97.1 72 92.3 C64.3 85 54 82.7 43.6 82.8 C35 83.6 27.8 87.6 21.2 93 Z " fill="#8A989B" transform="translate(564.375,110.9375)"/>
<path d="M0 0 C12.7 2.9 12.7 2.9 18 6 C17.7 8.3 17.3 10.6 17 13 C23.3 17 28.4 17.2 35.7 17.2 C36.5 17.3 37.4 17.3 38.3 17.3 C43.7 17.3 47.9 16.6 52.9 14.5 C55.6 13.8 57.3 14.3 60 15 C60.9 15.2 61.8 15.4 62.7 15.6 C63.2 15.7 63.2 15.7 65.7 16.3 C66.3 16.5 66.3 16.5 69 17.1 C71.3 17.7 73.6 18.2 75.9 18.7 C82.6 20.3 89.3 21.5 96.2 22.3 C100.5 23.4 102.9 25.9 105.9 29 C111.9 34.8 120.3 37.1 128.4 37.1 C130 37.1 131.5 37.1 133 37 C133.1 30.2 133.1 30.2 132 28 C135 28 137.9 28 141 28 C140.3 35.2 138.6 41.9 136.8 48.9 C134.3 58.5 132 68.2 129.8 77.9 C126.1 94.1 122.2 109.2 111 122 C110.7 122 110.3 122 110 122 C110 120 110 118 110 116 C110.7 115.7 111.3 115.3 112 115 C112 114.5 112 114.5 111.9 112.2 C111.9 108.8 111.8 105.3 111.8 101.9 C111.8 100.4 111.7 98.9 111.7 97.4 C111.5 88.4 112 81.2 116 73 C116.9 70.5 117.6 68 118.3 65.5 C118.7 64.3 119 63.1 119.4 61.9 C120 59 120 59 119 57 C120 56.6 120.9 56.2 121.9 55.8 C125 54 125 54 125.9 51.8 C125.9 51.2 126 50.6 126 50 C124.4 49.3 124.4 49.3 122 49 C121.2 49.5 120.3 49.9 119.4 50.4 C114.2 52.8 108.4 53.2 102.9 51.3 C99.9 49.7 97.9 47.9 95.8 45.2 C95.2 44.5 94.6 43.8 94 43 C92.7 43 91.4 43 90 43 C90 46.3 90.4 48.4 92.7 50.9 C94.1 52.1 95.6 53.2 97 54.4 C101.9 58.3 101.9 58.3 102.4 62.6 C102.3 67.6 100.2 71.6 98 76 C94.9 83 95.4 90.6 97 98 C97.6 103.7 96.5 107.8 94.5 113.1 C91.8 120.6 91.4 127 92 135 C89.6 135.7 87.3 136.4 84.9 137 C84.2 137.2 83.6 137.4 82.9 137.6 C71 140.8 59.3 138.9 47.5 136.2 C46.3 135.9 45.1 135.7 43.9 135.4 C41.5 134.9 39 134.3 36.6 133.8 C30.8 132.5 24.9 131.3 19 130 C18.8 123.3 18.8 123.3 20.4 120.8 C23.6 115.3 23.8 108.8 24.4 102.6 C24.5 101.9 24.6 101.1 24.7 100.4 C24.8 98.8 24.9 97.3 25 95.8 C25.5 91.1 26.4 89.1 30 86 C34.9 78.1 35.1 70 34.9 60.9 C34.8 55.4 35.9 51 38 46 C38.6 45.9 39.2 45.8 39.9 45.7 C46.1 44.6 51.4 42.8 57 40 C56.7 38.4 56.3 36.7 56 35 C53.3 35.6 50.8 36.5 48.2 37.6 C43.6 39.3 39.7 40 35 38.2 C30.5 36.1 25.3 33.6 23 29 C21.4 29 19.7 29 18 29 C18.4 33.8 19.3 35.9 23 39 C22.5 40.1 22 41.2 21.5 42.3 C19.5 47.6 19.8 52.6 19.8 58.2 C19.7 68.9 17.4 74.5 11 83 C8.1 88.4 8.3 94.6 7.9 100.5 C7.2 108.1 5.1 113.5 1 120 C-4.6 117.9 -8.7 116.2 -12 111 C-11.2 110.6 -10.5 110.3 -9.7 109.9 C-4.5 106.3 -3.5 100.7 -2.2 94.8 C-2.1 94.1 -1.9 93.4 -1.8 92.7 C-1.3 90.6 -0.8 88.5 -0.4 86.4 C-0.1 84.9 0.3 83.5 0.6 82.1 C1.1 79.5 1.7 76.8 2.3 74.2 C2.8 71.8 3.4 69.4 4 67 C5.6 57.8 2.2 51.4 -2.1 43.6 C-7.5 33.5 -6.4 25.1 -3.6 14.1 C-3.3 13.2 -3.1 12.3 -2.9 11.3 C-2.3 8.9 -1.6 6.4 -1 4 C-0.7 2.7 -0.3 1.3 0 0 Z M70.9 25.4 C68.3 29 67.4 32.6 66.4 36.9 C66.2 37.7 66 38.6 65.8 39.4 C65.4 41.1 65 42.9 64.6 44.6 C64.1 46.7 63.5 48.9 63 51 C59.9 64 59.9 64 62 70 C64.2 72.7 65.9 74.4 69 76 C74 76.4 77.1 76.2 81 73 C86.3 64.6 86.4 55.5 86.4 45.8 C86.4 43.7 86.4 41.7 86.4 39.6 C86.5 38.3 86.5 37 86.5 35.7 C86.5 34.5 86.5 33.3 86.5 32.1 C85.9 28.4 84.9 27.3 82 25 C79.8 24.2 79.8 24.2 77.5 24 C77.1 23.9 77.1 23.9 75.2 23.7 C73 24 73 24 70.9 25.4 Z M35 90 C35.4 92.6 35.4 92.6 36 95 C39.2 94.5 41.6 93.7 44.6 92.4 C51.9 89.6 60.8 90.1 68 93 C72.2 95.1 75.3 97.1 78.2 100.8 C80 103 80 103 82.8 103.3 C83.5 103.2 84.2 103.1 85 103 C85 99.3 84.8 97.1 82.5 94.1 C77.6 89.5 72.3 87.1 66 85 C65 84.7 64 84.3 63 84 C53.3 83.3 42.4 82.6 35 90 Z M47 100 C47.3 101.3 47.7 102.6 48 104 C50.9 104.9 53.3 105 56.3 104.8 C59.9 104.7 61.8 105.2 64.8 107.1 C65.9 107.7 66.9 108.4 68 109 C70.4 108.2 70.4 108.2 72 107 C71.9 105.2 71.9 105.2 71 103 C65.9 99.1 62.3 97.9 56 97.8 C55.5 97.8 55.5 97.8 52.8 97.8 C50 98 50 98 47 100 Z " fill="#F9A980" transform="translate(516,253)"/>
<path d="M0 0 C0.7 0 1.3 0 2 0 C2.4 0.9 2.8 1.7 3.3 2.6 C4.8 5.8 6.3 9 7.9 12.2 C8.5 13.5 9.2 14.9 9.9 16.3 C10.8 18.3 11.8 20.3 12.7 22.3 C12.9 22.6 12.9 22.6 13.6 24.1 C14.4 25.8 15.2 27.4 16 29 C16.2 29.8 16.5 30.5 16.7 31.3 C19 34.3 22.5 34.5 26 35 C29.4 35.3 32.8 35.4 36.2 35.4 C37.1 35.4 38.1 35.5 39 35.5 C42 35.5 45 35.6 48 35.6 C50 35.7 52.1 35.7 54.1 35.7 C59.1 35.8 64 35.9 69 36 C71.7 43 73.9 50 76 57.1 C76.3 58.3 76.7 59.4 77 60.6 C78.1 64 79 67.5 80 71 C80.3 72.1 80.6 73.2 80.9 74.3 C83.4 84.4 83.4 94.1 83.2 104.4 C83.2 106.2 83.2 108 83.2 109.8 C83.1 122.5 82.8 135.3 82 148 C68.2 148.1 54.5 147.9 40.7 147.6 C40.3 147.6 40.3 147.6 38.3 147.5 C27.2 147.2 16.1 146.7 5 146 C5 145.4 5 144.8 5 144.2 C6.4 89 6.4 89 -1.1 69.4 C-2.2 66.4 -3.1 63.5 -4 60.5 C-4.6 58.6 -5.2 56.7 -5.8 54.8 C-7.2 50.4 -8.5 45.9 -9.8 41.4 C-10 40.7 -10.3 40 -10.5 39.2 C-12.6 31.5 -12.5 25.9 -8.8 18.8 C-8.2 17.4 -7.5 16.1 -6.9 14.8 C-6.6 14.2 -6.3 13.5 -5.9 12.9 C-4.6 10.1 -3.3 7.4 -2.1 4.6 C-1.7 3.7 -1.3 2.8 -0.8 1.9 C-0.6 1.3 -0.3 0.6 0 0 Z " fill="#433325" transform="translate(518,665)"/>
<path d="M0 0 C9.9 0.6 19.7 1.9 29.6 3.3 C31.1 3.5 32.6 3.8 34.1 4 C37.2 4.4 40.3 4.9 43.4 5.3 C50.4 6.3 57.3 7.3 64.2 8.3 C66.5 8.6 68.8 9 71.1 9.3 C72.1 9.4 73 9.6 74 9.7 C74.3 9.8 74.3 9.8 76 10 C74.5 22.1 72.9 34.1 70 46 C69 46.1 68 46.2 66.9 46.3 C54.2 47.6 41.7 49.8 32 59 C31.2 61.2 31.2 61.2 31 63 C34.8 62.8 36.8 61.5 39.6 59.2 C45.7 54.4 53.3 51.6 61 51 C61.4 51 61.4 51 63.3 50.8 C74.9 50.3 87.2 53.2 96 61 C103.1 67.7 107.3 75.7 108.4 85.4 C108 89 108 89 106.1 91.7 C101.7 95 98 94.7 92.6 94.6 C92.1 94.6 92.1 94.6 89.4 94.7 C86 94.7 82.5 94.7 79.1 94.6 C76.7 94.6 74.3 94.6 71.9 94.6 C66.9 94.6 61.8 94.6 56.8 94.6 C50.4 94.6 43.9 94.6 37.5 94.6 C32.5 94.6 27.6 94.6 22.6 94.6 C20.2 94.6 17.9 94.6 15.5 94.6 C12.2 94.6 8.8 94.6 5.5 94.5 C4.5 94.5 3.6 94.5 2.5 94.6 C-3.3 94.5 -6.6 93.9 -11 90 C-15.2 81.5 -11.2 68 -9.8 59 C-9.6 57.5 -9.4 56 -9.1 54.5 C-7.1 41.4 -4.9 28.3 -2.6 15.2 C-1.7 10.1 -0.8 5.1 0 0 Z " fill="#77431F" transform="translate(384,852)"/>
<path d="M0 0 C25.7 0 51.5 0 78 0 C79.4 4.1 80.3 7.1 80.8 11.2 C80.9 12.1 81.1 13 81.2 14 C81.3 15 81.4 15.9 81.6 16.9 C81.8 18.9 82.1 20.8 82.3 22.7 C82.4 23.2 82.4 23.2 82.7 25.5 C82.9 27.5 83.3 29.5 83.6 31.4 C85 43.3 83.1 54.5 81.1 66.2 C80.6 69.2 80.1 72.2 79.7 75.2 C79.4 77.1 79 79 78.7 80.9 C78.6 81.8 78.4 82.7 78.3 83.6 C77.4 89.1 76.3 94.5 75 100 C64.1 99.5 53.5 98.4 42.7 96.7 C41.2 96.5 39.7 96.2 38.3 96 C35.3 95.6 32.3 95.1 29.4 94.7 C22.7 93.6 16 92.7 9.4 91.7 C7.2 91.4 4.9 91 2.7 90.7 C1.8 90.6 0.9 90.4 -0.1 90.3 C-0.4 90.2 -0.4 90.2 -2 90 C-1.9 89.3 -1.8 88.6 -1.7 87.9 C-0.6 81 0.5 74.1 1.5 67.2 C1.9 64.6 2.3 62.1 2.7 59.5 C5.4 41.7 3.2 25.5 0.4 7.9 C0 5 0 5 0 0 Z " fill="#483729" transform="translate(393,717)"/>
<path d="M0 0 C7.5 0.2 15.1 0.5 22.6 0.7 C26.1 0.8 29.7 1 33.2 1.1 C61.7 2 61.7 2 76 3 C76.2 7.8 76.2 7.8 77 32 C78.5 32.4 78.5 32.4 85.8 34.1 C98.4 37.3 108.3 41.6 115.3 53.1 C118.6 59.3 120.1 66 119 73 C117.4 75.1 116.5 75.9 113.9 76.4 C113.5 76.4 113.5 76.4 111.4 76.4 C110.5 76.4 109.5 76.4 108.6 76.4 C107.5 76.4 106.5 76.4 105.5 76.4 C104.4 76.4 103.3 76.4 102.2 76.4 C98.6 76.5 95 76.5 91.4 76.5 C88.9 76.5 86.4 76.5 83.9 76.5 C78.7 76.5 73.4 76.5 68.2 76.5 C62.8 76.5 57.4 76.5 52.1 76.5 C45.6 76.6 39.1 76.6 32.6 76.6 C30.1 76.6 27.7 76.6 25.2 76.6 C21.7 76.6 18.3 76.6 14.8 76.6 C13.8 76.6 12.8 76.6 11.7 76.7 C4.7 76.6 4.7 76.6 0.9 73.6 C-2.5 69 -2.1 65.3 -1.9 59.8 C-1.9 58.9 -1.9 57.9 -1.8 57 C-1.8 55 -1.8 52.9 -1.7 50.9 C-1.6 48 -1.6 45 -1.5 42 C-1.2 28 -0.6 14 0 0 Z " fill="#7B451F" transform="translate(520,869)"/>
<path d="M0 0 C0.4 0 0.4 0 2.6 0.1 C5.3 0.1 8 0.2 10.7 0.3 C12.5 0.3 14.4 0.4 16.2 0.4 C20.7 0.5 25.1 0.7 29.6 0.8 C28.3 4.7 26.9 8.5 25.1 12.2 C21.4 20.4 18 29.9 21.3 38.8 C23.3 41.9 25.3 43.4 28.6 44.8 C34.3 45.6 38.6 44.8 43.6 41.8 C43.3 47.7 40.5 51.5 36.6 55.8 C34.1 57 32.5 56.9 29.8 56.9 C28.9 56.9 27.9 56.9 26.9 56.9 C26 56.9 25 56.9 24 56.8 C23.5 56.8 23.5 56.8 21 56.8 C18.5 56.8 16 56.8 13.6 56.8 C13.3 56.2 13.3 56.2 11.9 53.2 C9.8 48.8 7.8 44.4 5.7 40 C4.8 38.1 3.9 36.2 3 34.3 C1.7 31.6 0.4 28.9 -0.9 26.1 C-1.3 25.3 -1.7 24.4 -2.1 23.6 C-5.7 16 -8.5 10.3 -16.4 6.8 C-21.3 5.8 -24.4 7.5 -28.4 10.1 C-32.1 13.2 -33.8 17.3 -35.7 21.7 C-36.1 22.5 -36.5 23.3 -36.9 24.2 C-38.4 27.4 -39.9 30.6 -41.4 33.8 C-45 41.4 -48.7 49 -52.4 56.8 C-96 56.8 -139.5 56.8 -184.4 56.8 C-183.4 44.8 -183.4 44.8 -181.4 41.8 C-180.3 42.4 -179.1 43 -178 43.7 C-169.2 48 -160 48.4 -150.4 48.8 C-150.1 48.8 -150.1 48.8 -148.2 48.9 C-134.6 49.5 -121.1 48.5 -110.4 38.8 C-102.8 29.9 -100.5 19.4 -99.8 8 C-99.8 7.6 -99.8 7.6 -99.7 5.9 C-99.6 4.2 -99.5 2.5 -99.4 0.8 C-90.3 0.6 -81.2 0.5 -72.1 0.4 C-67.9 0.3 -63.7 0.3 -59.5 0.2 C-55.4 0.1 -51.3 0.1 -47.2 0 C-45.6 0 -44.1 -0 -42.5 -0 C-28.4 -0.2 -14.2 -0.4 0 0 Z " fill="#4A9842" transform="translate(538.41015625,618.21875)"/>
<path d="M0 0 C0.9 0.1 1.7 0.2 2.6 0.2 C9 1.1 11.7 3.3 16 8 C21.3 13.4 26.5 15.3 34 15.7 C40.9 15.4 44.9 13.4 50 9 C51.3 8 52.7 7 54 6 C54.1 10.1 54.1 14.3 54.2 18.4 C54.2 19.8 54.2 21.2 54.2 22.6 C54.6 40.7 52 61.6 39.5 75.7 C36.2 78.7 33.4 79.7 29 80 C30.2 76.8 31.6 73.7 33 70.6 C35.5 64.9 37.3 60.3 37 54 C36 54 35 54 34 54 C33.9 54.4 33.9 54.4 33.3 56.5 C30.1 67.9 26.2 78.2 16 85 C12 86.9 8.4 87.6 4 87 C1.8 85 1.8 85 0 83 C0.7 82.4 1.3 81.8 2 81.2 C10.1 73.6 15.7 65 18 54 C18 52.7 18 51.4 18 50 C17 50 16 50 15 50 C14.7 51 14.3 52.1 14 53.1 C10 64.9 4.4 75.9 -7 82 C-11.4 82.7 -13.2 82.5 -16.9 80.1 C-19.6 77.4 -19.9 76.5 -20.4 72.7 C-19.9 68 -18.5 67.1 -15 64 C-13.9 62.7 -12.8 61.4 -11.8 60 C-11.3 59.4 -10.8 58.7 -10.3 58.1 C-5 49.8 -4.6 38.6 -5 29 C-6.8 29.1 -6.8 29.1 -9 30 C-10.5 33.2 -11.5 36.5 -12.6 39.9 C-14.2 43.5 -15.4 44.5 -19 46 C-22.8 45.9 -25.2 45.5 -28.4 43.6 C-31 39.4 -30.7 35.7 -30 31 C-26.8 19 -21.6 8.1 -12 0 C-8.3 -1.8 -4 -0.5 0 0 Z " fill="#F7A77F" transform="translate(593,613)"/>
<path d="M0 0 C-0.3 0.2 -0.3 0.2 -2 1 C-0.5 5.3 2.6 7 6.4 9.1 C7.1 9.4 7.8 9.8 8.5 10.2 C28.9 21.1 51.1 28.1 73 35 C74.1 35.3 75.2 35.7 76.3 36 C94.7 41.9 113.2 46.1 132.1 49.8 C135.4 50.5 138.7 51.1 142 51.9 C160 55.8 178.3 57.3 196.8 57.3 C198.1 57.3 199.4 57.3 200.7 57.3 C206.8 57.3 212.3 57.2 218 55 C219.4 61 219 66.5 216 72 C211.5 75.6 208.5 76.5 202.8 76.5 C202.1 76.5 201.4 76.5 200.7 76.5 C198.5 76.6 196.2 76.5 194 76.5 C193.2 76.5 192.5 76.5 191.7 76.5 C175.9 76.4 160.6 74.6 145 72 C144 71.8 142.9 71.7 141.9 71.5 C96.5 64.1 50 51.2 8.2 31.8 C7.4 31.4 6.6 31 5.8 30.6 C-8 23.9 -8 23.9 -11 18 C-11.5 12.2 -10.5 7.3 -8 2 C-5.3 -1 -3.8 -1.5 0 0 Z " fill="#8A989B" transform="translate(469,188)"/>
<path d="M0 0 C2.4 1 2.4 1 4 2 C3.7 2.7 3.5 3.3 3.2 4 C3 7.4 3.4 7.9 5.2 10.6 C8.1 15 10.4 19.5 12.6 24.2 C12.9 24.7 12.9 24.7 13.9 26.8 C14.8 28.6 15.6 30.4 16.5 32.2 C17.8 34.9 19.2 37.6 20.5 40.4 C21.3 42.1 22.2 43.8 23 45.6 C23.2 46 23.2 46 24.2 48 C24.6 48.8 25 49.5 25.3 50.3 C25.7 51 26 51.6 26.3 52.3 C27 54 27 54 27 56 C33.3 56 39.5 56 46 56 C46.2 58.7 46.5 61.5 46.7 64.2 C47 66.6 47.4 68.7 48 71 C43.4 71.1 38.9 71.2 34.3 71.3 C33 71.4 31.7 71.4 30.4 71.4 C29.8 71.4 29.8 71.4 26.6 71.5 C26 71.5 26 71.5 23.1 71.6 C18.9 70.8 17.6 69.4 15 66 C13.4 63.3 12.1 60.5 10.9 57.7 C10.5 56.9 10.1 56.1 9.8 55.3 C8.6 52.8 7.5 50.3 6.3 47.8 C5.2 45.2 4 42.7 2.8 40.2 C2.1 38.6 1.4 37 0.7 35.5 C-1.8 30.1 -1.8 30.1 -4 29 C-4.3 29.8 -4.5 30.7 -4.8 31.5 C-6.1 35.3 -7.6 38.9 -9.3 42.4 C-9.5 42.8 -9.5 42.8 -10.3 44.5 C-10.9 46 -11.6 47.5 -12.3 48.9 C-13 50.4 -13.7 51.9 -14.3 53.4 C-15.3 55.5 -16.3 57.7 -17.3 59.8 C-17.6 60.5 -17.9 61.1 -18.2 61.8 C-20.2 66 -22.1 68.4 -26 71 C-28.8 71.5 -28.8 71.5 -31.9 71.5 C-33.1 71.5 -34.3 71.5 -35.5 71.5 C-36.8 71.5 -38.1 71.5 -39.5 71.5 C-40.8 71.5 -42.2 71.5 -43.6 71.5 C-47.4 71.6 -51.1 71.5 -54.9 71.5 C-58.8 71.5 -62.7 71.5 -66.7 71.5 C-73.3 71.6 -79.9 71.5 -86.5 71.5 C-94.1 71.5 -101.7 71.5 -109.3 71.5 C-115.9 71.5 -122.4 71.5 -129 71.5 C-132.9 71.5 -136.8 71.5 -140.7 71.5 C-144.4 71.6 -148.1 71.5 -151.7 71.5 C-153.7 71.5 -155.7 71.5 -157.7 71.5 C-158.3 71.5 -158.3 71.5 -161.3 71.5 C-161.8 71.5 -161.8 71.5 -164.4 71.5 C-167 71 -167 71 -170 67 C-169.7 63.4 -169.3 59.7 -169 56 C-124.1 55.7 -79.2 55.3 -33 55 C-26.7 42.1 -20.5 29.3 -14 16 C-12.7 13.4 -11.4 10.7 -10 8 C-9 5 -9 5 -10 2 C-6.6 -0.1 -4 -0.3 0 0 Z " fill="#19693C" transform="translate(522,624)"/>
<path d="M0 0 C4.9 0.5 9.3 2.7 13.8 4.6 C14.6 4.9 15.4 5.2 16.2 5.6 C18.1 6.4 20.1 7.2 22 8 C21.1 14.1 20.1 20 18.4 25.9 C15.1 38.1 14.2 49.4 20 61 C21.5 63.5 23.1 66 24.8 68.4 C28.4 76.4 24.6 85.7 22.5 93.6 C21.8 96.2 21.2 98.8 20.5 101.4 C20.2 102.5 19.9 103.6 19.6 104.8 C19 107.9 18.9 110.8 19 114 C20 113.7 21 113.3 22 113 C23 110.4 23 110.4 23.8 107 C24.1 105.7 24.4 104.5 24.7 103.2 C25 101.9 25.3 100.6 25.6 99.2 C25.9 97.9 26.3 96.6 26.6 95.3 C32.1 72.4 32.1 72.4 26 62 C25.1 60.3 24.2 58.5 23.3 56.8 C22.9 55.9 22.5 55.1 22.1 54.3 C15.9 40.8 22.7 23.3 27 10 C27.8 10.2 27.8 10.2 32 11 C31.2 15.8 30.3 20.6 29.2 25.4 C25.3 41.7 26.8 51.7 35 66 C40.4 76.9 33.7 93.6 30.7 104.3 C29.9 107.5 29.2 110.8 28.6 114.1 C27.8 116.4 26.9 117.5 25 119 C17.9 119.9 13.5 116 8 112 C-2.1 104.2 -8.4 95.2 -12 83 C-12.1 82.6 -12.1 82.6 -12.7 80.9 C-16.6 66.7 -13.2 52.5 -9.8 38.6 C-9.3 37 -8.9 35.3 -8.6 33.7 C-8 31.2 -7.4 28.8 -6.8 26.3 C-5.1 19.7 -3.7 13.1 -2.3 6.5 C-1.1 1.1 -1.1 1.1 0 0 Z M-5 63 C-7.1 66.2 -7.3 67.2 -7.4 70.9 C-7.5 71.8 -7.5 72.8 -7.5 73.7 C-7.6 74.7 -7.6 75.7 -7.6 76.7 C-7.7 77.7 -7.7 78.7 -7.7 79.7 C-7.8 82.1 -7.9 84.6 -8 87 C-5 86 -5 86 -3.4 84 C-1.6 80 -1.4 76.5 -1.3 72.2 C-1.3 71.4 -1.2 70.6 -1.2 69.8 C-1.1 67.9 -1.1 65.9 -1 64 C-2.3 63.7 -3.6 63.3 -5 63 Z " fill="#89979A" transform="translate(479,240)"/>
<path d="M0 0 C6.8 0.9 13.7 1.9 20.5 3 C24.8 3.6 29.1 4.3 33.4 4.9 C34.4 5.1 35.5 5.2 36.5 5.4 C42.7 6.3 49 7.2 55.2 7.9 C55.9 8 56.6 8.1 57.3 8.2 C60.5 8.6 63.7 9 66.9 9.3 C71.3 9.8 74.8 10.3 78.8 12.4 C82.1 16.7 81.7 21.2 81.1 26.4 C80.9 28.1 80.6 29.8 80.4 31.4 C80.3 32.3 80.1 33.1 80 34 C79.3 38.7 78.6 41.7 74.6 44.7 C67.5 48.3 53.9 44.1 46.3 43 C45.7 42.9 45.7 42.9 42.6 42.5 C40 42.1 37.4 41.8 34.8 41.4 C31 40.9 27.1 40.3 23.2 39.8 C17.1 38.9 11 38.1 4.9 37.2 C1.8 36.8 -1.3 36.4 -4.3 36 C-6 35.7 -7.8 35.5 -9.5 35.3 C-10.2 35.2 -11 35.1 -11.7 35 C-16.8 34.3 -19.3 32.8 -22.4 28.7 C-23.2 22.8 -22.2 17.2 -21.2 11.4 C-21.1 10.7 -21 10 -20.9 9.3 C-18.6 -2.7 -9.9 -1.1 0 0 Z " fill="#87532D" transform="translate(396.44549560546875,812.276123046875)"/>
<path d="M0 0 C0.8 0 1.6 0 2.4 0.1 C5 0.1 7.5 0.3 10.1 0.4 C10.4 0.4 10.4 0.4 12.4 0.5 C15.7 0.6 19 0.8 22.3 0.9 C28.9 1.3 35.4 1.5 42 1.6 C42.4 1.6 42.4 1.6 44.6 1.7 C49.1 1.8 53.5 1.9 58 2 C62 2.1 66 2.2 70 2.3 C71.8 2.4 73.7 2.4 75.5 2.5 C79.8 2.7 82.5 3 86.2 5.2 C89 10 88.8 14.4 88.7 19.8 C88.7 20.8 88.7 21.9 88.7 22.9 C88.7 23.9 88.7 24.9 88.7 25.9 C88.7 26.8 88.7 27.7 88.7 28.7 C87.8 32.5 86.4 35.2 83.1 37.4 C79.1 38.2 75.3 38 71.3 37.8 C70.2 37.8 69 37.7 67.8 37.7 C64.5 37.6 61.3 37.5 58.1 37.4 C54.7 37.3 51.3 37.3 47.9 37.2 C41.6 37.1 35.4 37 29.1 36.8 C25.5 36.7 21.9 36.6 18.3 36.5 C14.7 36.5 11.2 36.4 7.6 36.3 C5.6 36.2 3.7 36.2 1.7 36.1 C1.1 36.1 1.1 36.1 -1.9 36 C-3 36 -4 36 -5.1 35.9 C-8.6 35.2 -10.4 33.9 -12.9 31.4 C-13.6 28.6 -13.6 28.6 -13.6 25.5 C-13.6 24.3 -13.6 23.2 -13.6 22 C-13.6 21.4 -13.6 21.4 -13.6 18.4 C-13.6 17.3 -13.6 16.1 -13.6 14.9 C-13.6 6.4 -13.6 6.4 -10.9 2.1 C-7.2 -0.1 -4.2 -0.2 0 0 Z " fill="#88532E" transform="translate(522.9375,815.625)"/>
<path d="M0 0 C1.7 1.5 3.4 2.9 5.1 4.4 C7 6 7 6 10.2 7.9 C14 11 14 15.4 14.8 19.9 C16.9 32 23.3 41.5 32 50 C32.5 50.5 33.1 51.1 33.6 51.7 C36.4 54.3 39.3 56.2 42.7 57.9 C43.4 58.2 44 58.6 44.7 58.9 C46.1 59.6 47.5 60.2 48.8 60.8 C52.2 62.5 53.8 63.5 55.3 66.9 C55.6 68.3 55.8 69.6 56 71 C56.2 72 56.3 72.9 56.5 73.9 C57.1 77.2 57.6 80.6 58.1 83.9 C58.3 85.1 58.5 86.3 58.7 87.5 C59.1 90.3 59.6 93.2 60 96 C61 96.3 62 96.7 63 97 C63.4 95.8 63.7 94.6 64.1 93.4 C65.6 89 67.3 84.7 69 80.3 C69.2 79.7 69.5 79.1 69.8 78.4 C74.1 67.6 74.1 67.6 76.9 65.8 C77.2 65.7 77.2 65.7 79 65.1 C86.2 62.2 93.5 58.6 97.8 52 C99.1 50.2 99.1 50.2 101 49 C105.8 48.7 110.3 49.2 115 50 C111.3 60.3 103.2 67.5 94 73 C93.3 73.2 92.6 73.4 91.9 73.6 C87.7 74.9 85.6 76 83.3 79.8 C81.7 83.5 80.4 87.1 79.1 90.9 C78.7 92.2 78.2 93.4 77.7 94.7 C76.9 97.1 76 99.4 75.2 101.8 C73 107.6 70.8 113.1 65 116 C60.8 116.8 56.9 117 53.1 115 C48.1 111.1 46.8 107 45.9 100.9 C45.8 99.8 45.6 98.6 45.4 97.4 C45.2 96.2 45.1 94.9 44.9 93.7 C44.7 92.5 44.5 91.3 44.3 90 C43.5 84.3 42.7 78.8 43 73 C42.3 72.7 41.6 72.5 40.8 72.2 C25.4 65.7 11.9 51.8 5.5 36.5 C2 27 -0.3 18.6 -0.1 8.5 C-0.1 7.7 -0.1 6.9 -0.1 6 C-0.1 4 -0 2 0 0 Z " fill="#1C693C" transform="translate(474,347)"/>
<path d="M0 0 C5.3 2.6 10.6 5.3 16 8 C14.1 17.8 14.1 17.8 13 20 C11 20.3 9 20.6 7 20.8 C-1.2 21.9 -6.9 24.9 -11.9 31.4 C-15.9 37.7 -17.2 44.7 -16 52 C-13.3 60 -9.5 66 -2 70 C-1 70.3 -0 70.7 1 71 C1 71.3 1 71.3 0.8 73 C0.2 80 -0.4 87 -1 94 C-12.8 94.9 -23.8 90.2 -33 83 C-35.2 80.8 -37.1 78.5 -39 76 C-38.6 75.8 -38.6 75.8 -36.6 75.1 C-25.2 70.6 -25.2 70.6 -22 66 C-22.1 64 -22.1 64 -23 62 C-25 61 -25 61 -27.6 60.2 C-37.9 56.3 -42.3 49.7 -46.8 40 C-48 37 -48 37 -48 35 C-47.6 35 -47.6 35 -45.3 34.9 C-34.5 34.3 -25.3 33.3 -17 26 C-16.3 23.8 -16.3 23.8 -16 22 C-16.9 21.8 -17.8 21.5 -18.7 21.2 C-24.2 19.2 -27.4 16.3 -30 11 C-30 10.3 -30 9.7 -30 9 C-29.6 9 -29.6 9 -27.4 9 C-16.8 8.5 -8.5 6.4 0 0 Z " fill="#724222" transform="translate(461,216)"/>
<path d="M0 0 C1.2 0 2.5 0 3.7 0 C6.7 0.1 9.7 0.4 12.7 0.7 C17.9 1.2 23.1 1.2 28.4 1.2 C29.2 1.2 30.1 1.2 30.9 1.2 C34.5 1.1 38 1.1 41.5 1 C44.1 1 46.7 1 49.3 0.9 C49.7 0.9 49.7 0.9 51.7 0.9 C56.3 0.9 59.3 1.3 62.9 4.2 C64.2 6.4 64.2 6.4 64.9 8.2 C64.2 8.1 63.4 8 62.7 7.8 C62.2 7.8 62.2 7.8 59.7 7.4 C59.2 7.4 59.2 7.4 56.7 7 C53.9 7.2 53.9 7.2 51.7 8.8 C49.7 11.5 48.7 13.9 47.5 17 C45.5 22 43.3 26 39.9 30.2 C36.6 29.9 33.3 29.5 29.9 29.2 C29.8 30.8 29.6 32.4 29.4 34 C28.5 38.8 28.5 38.8 26.2 40.5 C24.1 41.2 22.1 41.8 19.9 42.2 C19.3 42.4 18.6 42.5 18 42.7 C10.7 44.4 4.7 43.4 -1.8 39.7 C-9.1 34.7 -13.3 26.8 -15.1 18.2 C-15.8 11.7 -15 7.5 -11.1 2.2 C-7.5 -0.3 -4.2 -0 0 0 Z M0.9 26.2 C0.3 30.1 0.7 32.9 2.9 36.2 C6.7 38.7 8.5 38.6 12.9 38.2 C15.9 36.7 15.9 36.7 17.9 34.2 C18.7 29.2 18.8 27.4 15.8 23.2 C12.9 21.2 12.9 21.2 10 20.6 C5.8 21.4 3.8 23 0.9 26.2 Z " fill="#8A836A" transform="translate(366.0625,591.8125)"/>
<path d="M0 0 C19.8 0 39.6 0 60 0 C59.7 9.9 59.3 19.8 59 30 C43.2 30 27.3 30 11 30 C10 28 9 26 8 24 C5.7 21.5 3 19.5 0 18 C0 12.1 0 6.1 0 0 Z " fill="#764525" transform="translate(426,571)"/>
<path d="M0 0 C2 3.9 0.7 8.9 0.3 13.1 C0.2 14.1 0.2 15.2 0.1 16.2 C-0.7 25.9 -3.5 32.5 -10.7 39.2 C-20.5 46.9 -30.8 47 -42.7 45.7 C-51.7 44.1 -60.6 39.5 -66 32 C-71 23.2 -72.7 14.7 -70 4.8 C-69.8 4.3 -69.8 4.3 -69 2 C-66.6 4.2 -65 6.5 -63.3 9.3 C-58.9 16.1 -52.8 20.6 -45 23 C-35.6 23.9 -25.5 23 -18 17 C-17.1 14.2 -17 12 -17 9 C-16.3 9.4 -15.6 9.7 -14.8 10.1 C-11.5 11.2 -10.2 11.1 -7 10 C-5 7.7 -5 7.7 -3.2 4.9 C-2.6 4 -2 3.1 -1.4 2.2 C-0.9 1.4 -0.5 0.7 0 0 Z " fill="#8A846A" transform="translate(416,616)"/>
<path d="M0 0 C4.4 2 7 3.8 10 7.6 C24 23.7 43.8 27.2 63.8 30.9 C64.5 31.1 64.5 31.1 67.7 31.7 C68.8 31.9 70 32.1 71.1 32.3 C74 33 74 33 77 35 C73.1 39.8 70.1 42.1 64.2 44.1 C58.3 46.1 54.3 47.8 51.3 53.4 C49.5 57.3 48 61.3 46.7 65.3 C46 67 46 67 44 68 C43.8 66.8 43.7 65.5 43.5 64.2 C43.3 62.6 43 61 42.8 59.3 C42.7 58.5 42.6 57.7 42.5 56.8 C41.7 51.4 40.6 48.5 36 45 C34 43.8 31.9 42.8 29.8 41.8 C16.4 34.7 7.2 24.2 2 10 C1.1 6.7 0.5 3.4 0 0 Z " fill="#E58065" transform="translate(492,361)"/>
<path d="M0 0 C4.6 0.6 8.3 2.5 12.3 4.7 C35 16.3 35 16.3 42.1 14.1 C43.7 13.4 45.4 12.7 47 12 C55 9.5 62.5 7.4 71 8 C69.5 12.4 66.6 13.6 62.6 15.7 C61.4 16.3 60.3 16.9 59.1 17.5 C56 19 56 19 53 20 C53 20.7 53 21.3 53 22 C53.8 22.2 54.6 22.3 55.4 22.5 C56.5 22.8 57.6 23 58.8 23.2 C59.8 23.5 60.9 23.7 62 24 C65.3 24.8 68.5 25.8 71.8 26.9 C77.5 28.9 83.2 30.4 89.1 31.8 C89.6 31.9 89.6 31.9 92.3 32.5 C94.6 33 96.9 33.6 99.2 34.1 C102.5 34.9 105.8 35.7 109.1 36.5 C137.6 43.5 165.6 47.5 195 48 C195.4 49.7 195.7 51.3 196 53 C193.3 55.7 185.6 54.3 182 54.3 C169.5 54.2 157.3 52.2 145 50 C143.6 49.8 142.3 49.5 140.9 49.3 C124.2 46.4 107.5 43.4 91 39 C90.2 38.8 89.5 38.6 88.7 38.4 C58.2 30.4 26.5 20.7 -1 5 C-0.7 3.3 -0.3 1.7 0 0 Z " fill="#5E6F72" transform="translate(478,187)"/>
<path d="M0 0 C0.2 0.9 0.4 1.8 0.6 2.8 C4 10.6 16.9 14.1 24.4 17.2 C48.3 26.6 73.1 35 98 41 C99 41.2 100 41.5 101 41.7 C114.8 45 128.7 47.8 142.7 50.2 C143 50.3 143 50.3 144.8 50.6 C159.4 53.2 173.7 55.4 188.5 55.1 C189.6 55.1 190.7 55.1 191.9 55.1 C194.6 55.1 197.3 55 200 55 C200 54 200 53 200 52 C202 52 204 52 206 52 C206 52.7 206 53.3 206 54 C207.3 54.7 208.6 55.3 210 56 C210 57.3 210 58.6 210 60 C180.7 66.8 145.5 58.2 117 52 C115.8 51.7 114.5 51.5 113.2 51.2 C85.5 45.2 58.5 37.1 32 27 C31 26.6 30.1 26.3 29 25.9 C-2.2 13.9 -2.2 13.9 -9 6 C-8 3 -8 3 -5.1 1.3 C-2 0 -2 0 0 0 Z " fill="#AEBEC0" transform="translate(475,185)"/>
<path d="M0 0 C0.6 2.2 1.2 4.4 1.6 6.6 C1.9 7.8 2.1 9 2.4 10.2 C2.6 11.1 2.8 12 3 13 C-1.6 14.6 -6.3 15.8 -11.1 16.9 C-11.9 17.1 -12.7 17.2 -13.5 17.4 C-16.1 18 -18.6 18.6 -21.2 19.1 C-24.8 19.9 -28.4 20.7 -32 21.5 C-32.9 21.7 -33.8 21.9 -34.8 22.2 C-40.9 23.5 -47.1 24.9 -53.2 26.4 C-54.1 26.6 -54.9 26.7 -55.7 26.9 C-62 28.4 -62 28.4 -64.9 29.1 C-67.1 29.6 -69.2 30.1 -71.3 30.6 C-71.9 30.7 -71.9 30.7 -74.9 31.4 C-77.7 31.9 -80.1 32.1 -83 32 C-83.3 30.6 -83.7 29.2 -84 27.8 C-84.2 27 -84.4 26.3 -84.6 25.5 C-85 22.9 -85 20.6 -85 18 C-73.7 14.9 -62.3 12.2 -50.8 9.6 C-49.1 9.2 -47.3 8.8 -45.5 8.4 C-41.2 7.5 -36.8 6.5 -32.5 5.5 C-30.1 5 -27.8 4.5 -25.5 4 C-21.5 3.1 -17.6 2.2 -13.6 1.4 C-12.5 1.1 -11.3 0.9 -10.1 0.6 C-9 0.4 -8 0.1 -6.9 -0.1 C-6 -0.3 -5.1 -0.5 -4.2 -0.7 C-2 -1 -2 -1 0 0 Z " fill="#1A693C" transform="translate(480,447)"/>
<path d="M0 0 C25.7 0 51.5 0 78 0 C80 8 80 8 80 16 C54.3 16 28.5 16 2 16 C0 9 0 9 0 0 Z " fill="#35251B" transform="translate(391,701)"/>
<path d="M0 0 C0.7 0.3 1.4 0.6 2.2 0.9 C4.9 1.9 7.5 2.8 10.3 3.6 C11.2 3.9 12.1 4.1 13 4.4 C13.7 4.6 14.3 4.8 15 5 C14.8 5.5 14.6 6.1 14.4 6.6 C12.2 12.5 11.6 17.7 11.6 23.9 C11.1 38.8 11.1 38.8 7 44 C6.6 44.2 6.6 44.2 4.5 45 C2 46 2 46 0.9 47.8 C-0.7 52.8 -1.2 57.1 -1 62.3 C-1 65.4 -1.2 68.4 -1.4 71.4 C-1.4 72.4 -1.5 73.4 -1.6 74.4 C-2 77 -2 77 -4 80 C-4.7 82 -5.4 84 -6 86 C-6.2 86.3 -6.2 86.3 -7 88 C-12 87.5 -15.6 86.4 -20 84 C-19.4 78.4 -19.4 78.4 -17.5 76.3 C-15.3 72.9 -15.7 69.6 -15.7 65.7 C-15.4 54.8 -12.6 44.2 -5 36 C-4.3 36 -3.7 36 -3 36 C-3 35.3 -3 34.7 -3 34 C-3.5 9.6 -3.5 9.6 0 0 Z " fill="#9ACDDE" transform="translate(539,293)"/>
<path d="M0 0 C3.6 20.5 3.6 20.5 3 30 C2.3 29.7 1.5 29.4 0.8 29.2 C-0.2 28.8 -1.2 28.4 -2.2 28.1 C-3.2 27.7 -4.1 27.3 -5.1 27 C-11.9 24.7 -18.4 24.8 -25.6 24.8 C-26.7 24.8 -27.8 24.8 -28.9 24.8 C-36.5 24.8 -43.6 25.5 -51 27 C-54.5 18.7 -54.5 18.7 -53 14 C-46.4 8.6 -36.7 7.1 -28.6 5.3 C-27.3 5 -26.1 4.7 -24.8 4.4 C-5.9 0 -5.9 0 0 0 Z " fill="#F6A77F" transform="translate(644,493)"/>
<path d="M0 0 C25.4 -0.1 50.7 0 76 1 C76 8.3 76 15.5 76 23 C75.7 23 75.3 23 75 23 C75 20.4 75 17.7 75 15 C74.6 15 74.6 15 72.5 15 C59.7 15.1 46.9 14.7 34 14.2 C30.2 14.1 26.3 13.9 22.4 13.8 C19.9 13.7 17.4 13.6 15 13.5 C13.8 13.5 12.7 13.5 11.5 13.4 C10.4 13.4 9.3 13.3 8.2 13.3 C7.3 13.3 6.3 13.2 5.4 13.2 C3 13 3 13 0 12 C0 8 0 4.1 0 0 Z " fill="#613316" transform="translate(521,857)"/>
<path d="M0 0 C0.8 0.1 1.5 0.2 2.3 0.2 C5.3 1.3 6.5 2.5 8.5 5 C9 8 9 8 9 11.6 C9 12.9 9 14.1 9 15.5 C9 16.2 9 16.8 9 17.5 C8.9 19.5 8.9 21.5 9 23.6 C8.8 43 8.8 43 2.9 49.1 C-1.1 52.2 -3.4 52.4 -8.5 52 C-11.8 50.3 -13.9 48.9 -15.9 45.9 C-17.6 37.5 -14.7 29.1 -12.5 21.1 C-11.3 16.3 -10.3 11.5 -9.4 6.7 C-7.7 1.8 -5.3 -0.7 0 0 Z " fill="#F2815F" transform="translate(593.5,277)"/>
<path d="M0 0 C4.2 1.5 8.5 3.1 12.7 4.6 C14.1 5.2 15.6 5.7 17 6.2 C19.1 7 21.2 7.7 23.2 8.5 C23.9 8.7 24.5 9 25.2 9.2 C27.5 10.1 29.8 10.9 32 12 C31.3 16 30.7 19.9 30 24 C28 23.7 26 23.3 24 23 C23.9 23.5 23.8 24 23.7 24.6 C22.9 28.8 22 32.9 21 37.1 C17.5 50.7 16.1 61.6 23.3 74.4 C24.2 75.7 25.1 77 25.9 78.3 C30.1 84.9 28.1 93.4 26.5 100.4 C26.1 102.4 25.6 104.4 25.1 106.4 C24.6 108.4 24.1 110.4 23.7 112.5 C21.1 123.3 21.1 123.3 19 127 C18 127 17 127 16 127 C14.9 122.3 15.2 119 16.4 114.4 C16.8 113.1 17.1 111.8 17.4 110.6 C17.7 109.2 18.1 107.9 18.4 106.6 C23.5 87.3 23.5 87.3 20.6 80.9 C20 80 19.3 79 18.7 78.1 C12.1 67.3 10.1 57.5 12.8 44.9 C13.8 40.9 14.9 36.9 16 33 C16.4 31.2 16.8 29.5 17.2 27.7 C18 24 18 24 19 21 C18.7 20.9 18.7 20.9 17.2 20.5 C10.2 18.5 3.7 15.9 -3 13 C-2 8.7 -1 4.4 0 0 Z " fill="#5C6B6F" transform="translate(482,227)"/>
<path d="M0 0 C3 3 2.3 6.2 2.3 10.2 C2.3 11 2.3 11.8 2.4 12.7 C2.4 14.4 2.4 16.2 2.4 17.9 C2.4 20.5 2.4 23.2 2.4 25.8 C2.5 38 1.4 46.1 -7.2 55.3 C-14.5 62.4 -23.2 64.2 -33.2 64.2 C-35.1 64.1 -37.1 64.1 -39 64 C-39 63.3 -39 62.7 -39 62 C-38.2 61.6 -37.4 61.3 -36.6 60.9 C-28.2 57 -21.3 53.1 -17.6 44.2 C-16.3 39.7 -16.2 35 -15.9 30.4 C-15.7 28.3 -15.6 26.3 -15.4 24.3 C-15.4 23.4 -15.3 22.5 -15.2 21.6 C-14.7 15.7 -13.4 9.9 -10 5 C-6.2 3.9 -6.2 3.9 -3 4 C-2.7 3 -2.3 2 -2 1 C-1.3 0.7 -0.7 0.3 0 0 Z " fill="#6A6754" transform="translate(431,599)"/>
<path d="M0 0 C4 0 7.9 0 12 0 C10.8 19.2 10.8 19.2 7 23 C6.9 24.5 6.9 25.9 6.9 27.4 C6.9 28.2 6.9 29 6.9 29.8 C7 32 7 32 8 35 C8.2 38 8.2 41.1 8.2 44.1 C8.2 44.9 8.2 45.8 8.2 46.6 C8.2 53.2 8.2 60.1 4 65.5 C3.2 66.1 2.5 66.7 1.7 67.4 C0.9 68 0.2 68.6 -0.6 69.3 C-7.1 74 -7.1 74 -11 74 C-10.9 71.4 -10.7 68.7 -10.6 66.1 C-10.5 65.4 -10.5 64.6 -10.4 63.9 C-10.1 58.2 -10.1 58.2 -9 56 C-8.3 56 -7.7 56 -7 56 C-7 55 -7 53.9 -7 52.9 C-7.1 49 -7.1 45.1 -7.1 41.3 C-7.1 39.6 -7.1 37.9 -7.2 36.3 C-7.2 33.9 -7.2 31.4 -7.2 29 C-7.2 28.3 -7.2 27.6 -7.2 26.8 C-7.2 23 -7.1 20.2 -5 17 C-4.3 17 -3.7 17 -3 17 C-2 13.5 -1.5 9.9 -0.9 6.2 C-0.8 5.1 -0.6 3.9 -0.4 2.7 C-0.3 1.8 -0.1 0.9 0 0 Z " fill="#9BCEDE" transform="translate(620,312)"/>
<path d="M0 0 C0.3 2 0.3 2 2 12 C-6.7 15.2 -15.7 17 -24.7 19 C-26.3 19.3 -27.8 19.7 -29.4 20 C-32.5 20.7 -35.6 21.4 -38.6 22 C-41.5 22.7 -44.3 23.3 -47.1 24 C-48.3 24.2 -49.5 24.5 -50.8 24.8 C-51.8 25.1 -52.9 25.3 -54 25.6 C-57 26 -57 26 -63 25 C-63.7 21 -64.3 17.1 -65 13 C-55.2 10.2 -45.3 8 -35.3 5.9 C-27.4 4.3 -19.5 2.5 -11.7 0.4 C-10.9 0.2 -10.1 0 -9.2 -0.2 C-8.5 -0.4 -7.8 -0.5 -7.1 -0.7 C-5 -1 -5 -1 0 0 Z " fill="#E67E61" transform="translate(475,469)"/>
<path d="M0 0 C7 -0.1 14.1 -0.3 21.1 -0.3 C23.5 -0.4 25.9 -0.4 28.3 -0.5 C31.7 -0.5 35.1 -0.6 38.6 -0.6 C39.6 -0.6 40.7 -0.6 41.8 -0.7 C49.1 -0.7 49.1 -0.7 51.7 1.3 C53 2.9 53 2.9 55 6 C61.3 11.2 69.3 10.7 77 10.8 C77.6 10.8 77.6 10.8 80.8 10.8 C83.9 10.9 86.9 11 90 11 C90 11.3 90 11.7 90 12 C78.5 12.8 67.1 13.1 55.6 13.1 C54 13.1 52.4 13.1 50.8 13.1 C46.7 13.1 42.6 13.1 38.5 13.1 C34.2 13.1 30 13.1 25.8 13 C17.5 13 9.3 13 1 13 C1 18 1 22.9 1 28 C0.7 28 0.3 28 0 28 C0 18.8 0 9.5 0 0 Z " fill="#267834" transform="translate(438,606)"/>
<path d="M0 0 C3 0.3 5.9 0.7 9 1 C9 1.8 9 2.6 8.9 3.4 C8.9 7.1 8.8 10.7 8.8 14.3 C8.7 15.6 8.7 16.8 8.6 18.1 C8.6 19.3 8.6 20.6 8.6 21.8 C8.6 22.9 8.6 24 8.5 25.2 C9 28 9 28 10.6 29.9 C13.8 31.4 16.3 31.4 19.8 31.4 C20.1 31.4 20.1 31.4 21.8 31.4 C23.2 31.4 24.5 31.4 25.9 31.4 C28 31.4 30.1 31.4 32.2 31.4 C33.5 31.4 34.9 31.4 36.2 31.4 C37.4 31.4 38.6 31.4 39.9 31.4 C43.2 31 44.7 30.4 47 28 C47.1 27 47.3 26 47.4 25 C47.5 24.5 47.5 24.5 48 22 C49.7 21 51.3 20 53 19 C54.3 15.8 54.3 15.8 55 13 C55.7 13 56.3 13 57 13 C57.6 21.4 58.1 28.2 52.9 35.3 C48.2 39.6 43.7 40.4 37.4 40.4 C36.7 40.4 36 40.4 35.3 40.4 C33.8 40.4 32.3 40.4 30.8 40.4 C28.6 40.4 26.3 40.4 24.1 40.4 C22.6 40.4 21.1 40.4 19.7 40.4 C18.4 40.4 17.1 40.4 15.7 40.4 C10.7 39.9 6.8 38.6 3 35.2 C-1.7 28.5 -1.8 22.6 -1.4 14.6 C-1.4 13.4 -1.4 12.2 -1.4 11 C-1.2 2.4 -1.2 2.4 0 0 Z " fill="#8B9797" transform="translate(491,572)"/>
<path d="M0 0 C2.6 0 5.3 0 8 0 C7.8 0.7 7.7 1.4 7.5 2.1 C6.2 7.6 4.8 13.1 3.5 18.6 C2.7 22 1.9 25.4 0.9 28.8 C-0.5 34.2 -1.1 39 -0.7 44.5 C0.2 59.9 -2.2 72 -7.2 86.4 C-7.5 87.3 -7.8 88.1 -8.1 89 C-9 91.4 -9.9 93.8 -10.8 96.2 C-11 97 -11.3 97.7 -11.6 98.4 C-13.1 102.4 -14.5 105.4 -18 108 C-19.3 108 -20.6 108 -22 108 C-20.5 100.7 -18.4 93.7 -16.1 86.6 C-15 83.4 -14 80.2 -13 77 C-12.4 75.1 -11.7 73.3 -11.1 71.4 C-8.8 64.7 -8.9 58.9 -9.2 51.9 C-9.5 39.4 -7.2 28.5 -3.7 16.6 C-2.2 11.1 -1.1 5.6 0 0 Z " fill="#828E8F" transform="translate(665,270)"/>
<path d="M0 0 C0.7 0 1.3 0 2 0 C2.4 4.8 2.9 9.7 3.3 14.5 C3.4 16.2 3.6 17.8 3.7 19.4 C3.9 21.8 4.1 24.2 4.3 26.6 C4.4 27.3 4.5 28 4.5 28.8 C5 33.5 5.2 38.2 5 43 C3 45 3 45 0.1 45.6 C-3 47 -3 47 -4.1 49.1 C-4.8 51.4 -5.5 53.7 -6 56 C-11.3 56.3 -14.4 55.7 -19 53 C-18.9 52.6 -18.9 52.6 -18.6 50.7 C-18.3 47.8 -17.9 45 -18 42 C-20 39.6 -20 39.6 -22 38 C-21.8 33.3 -19.2 30 -16.6 26.3 C-12 19.6 -7.7 12.7 -3.6 5.6 C-3.1 4.9 -2.7 4.2 -2.2 3.4 C-1.9 2.8 -1.5 2.1 -1.1 1.4 C-0.7 0.9 -0.4 0.5 0 0 Z M-6 14 C-7.5 16 -7.5 16 -9 18.6 C-9.3 19.1 -9.3 19.1 -10.6 21.4 C-11 22.3 -11.5 23.1 -12 24 C-12.6 25.1 -13.2 26.2 -13.9 27.3 C-15 30.1 -15.3 32 -15 35 C-12.8 35.1 -12.8 35.1 -10 34 C-8.2 31.2 -7.1 28.1 -6 25 C-5.7 24.3 -5.4 23.5 -5.1 22.7 C-3.9 19.7 -3 17.3 -3 14 C-4 14 -5 14 -6 14 Z " fill="#8A9698" transform="translate(616,59)"/>
<path d="M0 0 C14.2 0 28.4 0 43 0 C43 5.9 43 11.9 43 18 C28.5 18.4 14.4 16.8 0 15 C0 10 0 5.1 0 0 Z " fill="#784727" transform="translate(361,571)"/>
<path d="M0 0 C22.8 0.7 22.8 0.7 30.2 8 C30.8 8.6 31.4 9.3 32 10 C35.5 13.8 38.2 15.4 43.4 15.6 C48 15.4 51.1 14.5 54.7 11.6 C56.1 9.9 56.8 8.4 57.6 6.2 C58 5.2 58.5 4.1 59 3 C61 2.7 63 2.3 65 2 C64.7 13.9 64.3 25.8 64 38 C63.7 38 63.3 38 63 38 C62.7 30.7 62.3 23.5 62 16 C59.4 18.3 56.7 20.6 54 23 C47.7 26.2 40.2 26.3 33.4 24.2 C29.2 22 26.6 19.5 23.6 15.9 C17.8 9.6 8.1 9.2 0 8 C0 5.4 0 2.7 0 0 Z " fill="#DD7C5F" transform="translate(584,604)"/>
<path d="M0 0 C3.3 2.1 3.3 2.1 5 5 C5.7 8.8 5.2 10.6 3.6 14 C0.2 17.9 -3.6 20.4 -8 23 C-8.6 23.4 -9.2 23.8 -9.8 24.1 C-12.9 25.4 -15.7 25.3 -19 25.4 C-20.2 25.4 -21.4 25.4 -22.7 25.5 C-26 25 -26 25 -28.4 23.2 C-30.8 20 -30.5 17.9 -30 14 C-27 7.9 -21.7 3.8 -15.7 0.9 C-10.5 -0.8 -5.3 -0.7 0 0 Z " fill="#B4C3C4" transform="translate(550,128)"/>
<path d="M0 0 C1.5 4.5 2.2 8.2 2 13 C-6.1 16 -14.3 17.6 -22.8 19.2 C-25.3 19.7 -27.7 20.2 -30.2 20.7 C-31.8 21 -33.4 21.3 -35 21.6 C-35.7 21.7 -36.4 21.9 -37.2 22 C-40.8 22.7 -44.3 23.2 -48 23 C-47.6 21.6 -47.1 20.2 -46.7 18.9 C-46.4 18.1 -46.2 17.3 -45.9 16.6 C-45.6 15.7 -45.3 14.9 -45 14 C-44.9 13.5 -44.9 13.5 -44.2 10.9 C-40.6 6.1 -35.4 6.2 -29.7 5.3 C-27.3 4.9 -25 4.5 -22.6 4.1 C-22 4 -22 4 -19.2 3.5 C-14.2 2.7 -9.3 1.6 -4.3 0.5 C-2 0 -2 0 0 0 Z " fill="#1B683C" transform="translate(647,462)"/>
<path d="M0 0 C6.9 4 13.1 10.4 15.8 18 C15.4 22.4 15.4 22.4 13.8 24 C11.5 24.4 11.5 24.4 8.8 24 C6.8 21.7 6.8 21.7 5 18.8 C1.5 13.7 -1.6 10.6 -7.2 8 C-8.2 7.5 -9.1 7.1 -10 6.7 C-19.3 4.7 -26.2 5.8 -34.2 11 C-34.7 11.4 -34.7 11.4 -37 13.3 C-39.2 15 -39.2 15 -42 14.8 C-44.2 14 -44.2 14 -45.2 13 C-45.6 10 -45.6 8.5 -43.8 6.1 C-38.7 1.7 -33.6 -0.9 -27.2 -3 C-18.3 -6 -8.3 -3.8 0 0 Z " fill="#5E6D71" transform="translate(629.22265625,198.03125)"/>
<path d="M0 0 C-1.8 9.1 -3.7 18.2 -5.6 27.3 C-5.8 28.3 -6.1 29.4 -6.3 30.4 C-6.5 31.4 -6.7 32.3 -6.9 33.3 C-7.1 34.2 -7.3 35 -7.5 35.9 C-8 38 -8 38 -9 40 C-14.7 39.5 -17.1 36.2 -20.7 32.1 C-23.8 27.1 -25 21.8 -24 16 C-21.9 9.3 -18.6 4.6 -12.5 1 C-8.3 -0.7 -4.4 -0.5 0 0 Z " fill="#F3AA84" transform="translate(473,242)"/>
<path d="M0 0 C0.2 1.6 0.2 1.6 1 10 C-0.9 10.4 -2.7 10.9 -4.6 11.3 C-5.8 11.6 -7 11.8 -8.2 12.1 C-10.7 12.7 -13.1 13.3 -15.6 13.8 C-19.3 14.7 -23 15.5 -26.7 16.4 C-27.9 16.7 -29.2 16.9 -30.4 17.2 C-47.1 21.1 -47.1 21.1 -53 27 C-54.6 20.5 -53 16.6 -49.8 11 C-44.8 4.7 -35.6 4.7 -28.3 3.8 C-26.6 3.5 -24.9 3.2 -23.2 2.9 C-20 2.4 -16.9 2 -13.7 1.5 C-10 1 -10 1 -8 0.5 C-5.3 -0.2 -2.7 -0.1 0 0 Z " fill="#E47F60" transform="translate(642,483)"/>
<path d="M0 0 C-0.1 0.9 -0.2 1.8 -0.2 2.8 C0 6 0 6 1.8 8.2 C6.2 11.7 9.1 12.2 14.8 12.1 C15.9 12.1 17.1 12.1 18.3 12.1 C19.2 12 20.1 12 21 12 C21.3 10 21.7 8 22 6 C27 7.6 31.2 10.4 35 14 C36 16.9 36 16.9 36 19 C29.3 23.8 20.7 22.8 12.9 21.7 C3.1 19.9 -11.6 16.2 -18 8 C-18.2 5.3 -18.2 5.3 -18 3 C-11.9 -0.2 -6.8 -0.3 0 0 Z " fill="#889395" transform="translate(593,107)"/>
<path d="M0 0 C13.2 3.7 26.3 7.4 39.4 11.1 C39.9 11.2 39.9 11.2 41.9 11.8 C42.6 12 43.3 12.2 44 12.4 C46 13 48 13.5 50 14 C50 14.7 50 15.3 50 16 C42 21 34 20.5 25 20 C24 20 23 19.9 22 19.9 C16.9 19.5 13.5 18.4 9 16 C6.4 15.1 3.8 14.4 1.2 13.6 C-1 13 -1 13 -3 12 C-2.7 10.2 -2.4 8.4 -2.1 6.6 C-2 6.1 -2 6.1 -1.5 3.5 C-1 1 -1 1 0 0 Z " fill="#E68263" transform="translate(519,241)"/>
<path d="M0 0 C1.8 0.5 1.8 0.5 11 3 C10 7.2 9.7 7.7 6.5 10.1 C5.9 10.5 5.2 11 4.6 11.5 C-2.4 15.5 -9.1 16.5 -17.1 16.4 C-17.5 16.4 -17.5 16.4 -19.6 16.4 C-26 16.4 -32.3 15.7 -37 11 C-36.7 7.7 -36.4 6.4 -34 4 C-32 4.2 -30 4.4 -28 4.7 C-18.3 5.7 -9 5.9 0 2 C0 1.3 0 0.7 0 0 Z " fill="#743A17" transform="translate(569,255)"/>
<path d="M0 0 C8.6 0.7 8.6 0.7 11.9 3.7 C13 5.1 14.1 6.5 15.2 8 C20.4 13.9 27.2 15.6 34.7 16.5 C37 17 37 17 39 19 C38.8 22.6 38.8 22.6 38 26 C33.9 28 29.6 27.4 25.3 26.3 C15.2 22.9 6.3 17.5 0.8 8 C-0.3 5.3 -0.1 2.9 0 0 Z " fill="#753B19" transform="translate(611,264)"/>
<path d="M0 0 C1.2 0 2.4 0.1 3.6 0.1 C4.3 0.1 4.3 0.1 7.5 0.1 C8.9 0.2 10.3 0.2 11.6 0.3 C13 0.3 14.4 0.3 15.8 0.3 C19.1 0.4 22.5 0.5 25.9 0.6 C25.1 4.9 23.3 5.9 19.9 8.6 C19.6 9.1 19.6 9.1 18.3 11.7 C15.9 14.6 15.9 14.6 13.9 15.1 C11.4 15.2 9 15.1 6.5 14.9 C5.6 14.9 4.7 14.9 3.8 14.8 C0.9 14.7 -2 14.6 -4.9 14.4 C-6.8 14.4 -8.8 14.3 -10.7 14.2 C-15.5 14 -20.3 13.8 -25.1 13.6 C-25.1 12.9 -25.1 12.2 -25.1 11.6 C-24.3 11.5 -23.5 11.4 -22.7 11.3 C-16.6 10.4 -11.9 9.7 -7.1 5.6 C-6.5 4.7 -6 3.8 -5.4 3 C-3.1 0.6 -3.1 0.6 0 0 Z " fill="#267834" transform="translate(553.1162109375,605.432373046875)"/>
<path d="M0 0 C4.2 0.8 8.5 1.6 12.7 2.4 C13.9 2.7 15.1 2.9 16.3 3.1 C17.5 3.4 18.6 3.6 19.8 3.8 C20.4 3.9 20.4 3.9 23 4.4 C25.7 4.9 28.4 5.5 31 6 C31.5 8 31.9 9.9 32.4 11.9 C33 14.1 33.9 16 35 18 C25.9 17.5 17.3 16.2 8.4 14.1 C7.2 13.9 6.1 13.6 4.9 13.3 C4.3 13.2 4.3 13.2 1.5 12.6 C1 12.5 1 12.5 -1.5 11.9 C-4.1 11 -5.3 10.1 -7 8 C-5.5 6.8 -3.9 5.6 -2.4 4.4 C-1 3 -1 3 0 0 Z " fill="#E88363" transform="translate(580,258)"/>
<path d="M0 0 C4.6 0.4 9.2 0.8 13.8 1.2 C15.3 1.4 16.9 1.5 18.4 1.6 C20.7 1.8 22.9 2 25.2 2.2 C25.5 2.3 25.5 2.3 27.3 2.4 C31.3 2.8 35.1 3.3 39 4 C38.3 8 37.7 11.9 37 16 C22.4 15.7 13 14.3 1.8 4 C0 2 0 2 0 0 Z " fill="#E38264" transform="translate(621,266)"/>
<path d="M0 0 C1.8 0.2 3.6 0.5 5.4 0.8 C6.4 1 7.3 1.2 8.3 1.3 C11 2 11 2 14 4 C13.5 4.5 13 5.1 12.5 5.6 C10.6 8.7 10.5 10.4 11 14 C13.3 17.1 14.6 17.9 18.5 18.6 C19.1 18.6 19.1 18.6 22.2 18.8 C23.5 18.8 24.8 18.9 26.1 18.9 C26.6 18.9 26.6 18.9 29 19 C28.7 20.6 28.3 22.3 28 24 C24 24 20.1 24 16.1 24.1 C14.7 24.1 13.4 24.1 12 24.1 C10.1 24.1 8.2 24.1 6.2 24.1 C5.6 24.1 5.6 24.1 2.7 24.1 C0 24 0 24 -1 23 C-1.1 21.4 -1.1 19.8 -1.1 18.1 C-1.1 17.1 -1.1 16.2 -1.1 15.1 C-1.1 14.1 -1.1 13.1 -1.1 12 C-1.1 11.5 -1.1 11.5 -1.1 8.9 C-1.1 7.9 -1.1 6.9 -1.1 5.9 C-1.1 5 -1.1 4.1 -1.1 3.1 C-1 1 -1 1 0 0 Z " fill="#78492B" transform="translate(505,575)"/>
<path d="M0 0 C0.3 0 0.7 0 1 0 C2.7 13.3 1.9 24.1 -2.2 36.9 C-2.6 38.2 -3 39.5 -3.4 40.8 C-5.9 49 -8.8 57 -12 65 C-15.4 64.5 -17.1 63.9 -20 62 C-18.5 58 -16.6 54.3 -14.6 50.5 C-7.6 36.7 -5 21.6 -1.6 6.6 C-1.1 4.4 -0.6 2.2 0 0 Z " fill="#535F60" transform="translate(655,312)"/>
<path d="M0 0 C5.7 2.9 9.6 5.9 13.3 11.1 C13.6 14 13.6 14 13.3 16.1 C11.1 16.6 11.1 16.6 8.3 16.1 C6.9 14.7 6.9 14.7 5.5 12.9 C1.7 8.1 -2.7 5.9 -8.5 4.4 C-16.8 3.7 -23 3.7 -30.5 7.4 C-33.1 8.3 -34.3 8 -36.7 7.1 C-36.7 4.9 -36.7 4.9 -35.7 2.1 C-25.4 -4.9 -11.2 -4.8 0 0 Z " fill="#A0452F" transform="translate(587.734375,339.8671875)"/>
<path d="M0 0 C3.9 0.5 5.1 2.5 7.8 5.4 C13.3 9.4 16.9 10.8 23.8 10.4 C25.8 9.7 27.8 9 29.9 8.1 C31.8 7.3 33.6 6.7 35.8 6.4 C36.4 7 37.1 7.7 37.8 8.4 C37.7 10.8 37.7 10.8 36.8 13.4 C31 17.5 24.7 19.3 17.8 18.4 C9.8 17 3.1 13.5 -2.2 7.4 C-3.1 4.2 -3.1 4.2 -3.2 1.4 C-2.2 0.4 -2.2 0.4 0 0 Z " fill="#140A08" transform="translate(536.25,280.625)"/>
<path d="M0 0 C2.8 0.4 4.6 0.7 6.8 2.4 C8 4 8 4 8 6 C8.4 6.2 8.4 6.2 10.4 6.9 C13 8 13 8 15 9 C21.5 9.6 26.2 9.3 32 6 C34.4 6.3 34.4 6.3 36 7 C36.2 7.7 36.2 7.7 37 11 C30.6 16.5 25.6 17.5 17.2 17.3 C9.5 16.6 5.2 12.7 0.2 7.1 C-1 5 -1 5 -0.7 2.2 C-0.5 1.5 -0.2 0.8 0 0 Z " fill="#140706" transform="translate(606,295)"/>
<path d="M0 0 C3.6 0 7.3 0 11 0 C11 7.6 11 15.2 11 23 C7.4 23.3 3.7 23.7 0 24 C0 16.1 0 8.2 0 0 Z " fill="#8B846B" transform="translate(409,564)"/>
<path d="M0 0 C2.9 2 4.6 3.5 5.5 7 C5.7 10.7 5.3 12.6 2.9 15.5 C-0.7 17.4 -2.9 17.6 -7 17 C-10.3 14.4 -11.8 12.4 -12.4 8.2 C-12 5 -12 5 -9.4 2.1 C-5.7 -0.2 -4.2 -0.9 0 0 Z " fill="#1E201F" transform="translate(379,613)"/>
<path d="M0 0 C4.7 0.7 4.7 0.7 6 2 C6.6 4.6 6.6 4.6 6 8 C2.3 12.2 -1.6 15.7 -7.4 16.2 C-8.2 16.2 -9.1 16.2 -10 16.2 C-10.9 16.3 -11.7 16.3 -12.6 16.3 C-15 16 -15 16 -16.8 14.6 C-18.5 12.3 -18.4 10.8 -18 8 C-16 6 -16 6 -14 5.8 C-13.6 5.9 -13.6 5.9 -11.6 5.9 C-8.5 6.1 -5.9 6 -3 5 C-1.8 3 -1.8 3 -1 1 C-0.7 0.7 -0.3 0.3 0 0 Z " fill="#5D6C70" transform="translate(605,167)"/>
<path d="M0 0 C2.5 0.2 2.5 0.2 4.5 2.2 C4.9 3.4 5.2 4.5 5.6 5.6 C7 9 8.3 9.9 11.6 11.4 C12.3 11.7 13 12 13.8 12.3 C15.5 13.2 15.5 13.2 16.6 15.9 C16.5 18.2 16.5 18.2 14.5 20.2 C8.7 20.9 5.1 19.7 0.5 16.2 C-3.5 12.6 -4.1 9.4 -4.6 4.2 C-4.4 1 -3.1 0.3 0 0 Z " fill="#5A6A6D" transform="translate(635.5,172.75)"/>
<path d="M0 0 C7.6 0.9 11.5 2.6 16.9 8 C19.1 10.1 21.4 11.5 24 13 C24 13.3 24 13.7 24 14 C16.1 14 8.2 14 0 14 C0 9.4 0 4.8 0 0 Z " fill="#7A4C2F" transform="translate(553,587)"/>
<path d="M0 0 C0.3 0.7 0.7 1.3 1 2 C0.7 3 0.3 4 0 5 C-0 8.3 0 11.6 0.1 14.8 C0.2 19.6 -0.5 23.5 -2 28 C-2.2 28.8 -2.5 29.5 -2.7 30.3 C-4.1 33.9 -5.3 37.2 -8 40 C-8.7 40 -9.3 40 -10 40 C-10 41.1 -10.1 42.2 -10.1 43.3 C-11.1 65.6 -11.1 65.6 -16 73 C-16.4 75 -16.7 77 -17 79 C-18.6 79 -20.3 79 -22 79 C-21.7 78.8 -21.7 78.8 -20 78 C-19.2 76 -19.2 76 -18.4 73.6 C-17.1 69.1 -17.1 69.1 -16 67 C-15.8 64.4 -15.6 61.8 -15.4 59.2 C-15.4 58.9 -15.4 58.9 -15.3 57.1 C-15.1 54 -15 50.9 -15.1 47.8 C-15 43.3 -13.3 39.7 -11 36 C-10.2 35.5 -9.3 35 -8.4 34.5 C-5.1 32.4 -4.8 30.3 -3.6 26.6 C-2.6 22.3 -2.5 18.1 -2.4 13.7 C-2.4 11.9 -2.4 10.2 -2.3 8.4 C-2.3 7.7 -2.3 6.9 -2.3 6.1 C-2 3.7 -1.2 2.1 0 0 Z " fill="#CCB9AB" transform="translate(552,303)"/>
<path d="M0 0 C2.1 3.2 3.1 5.9 4.2 9.6 C4.6 10.7 4.9 11.9 5.3 13.1 C6 16 6 16 5 18 C4.5 18.4 4.5 18.4 2.1 20.2 C-1 22.7 -2.5 25.3 -4 29 C-5 28.7 -6 28.3 -7 28 C-6.5 24.3 -6.1 22.2 -4 19 C-4.1 15.7 -4.6 12.4 -5 9.1 C-5 6 -5 6 -3.7 3.6 C-2 2 -2 2 0 2 C0 1.3 0 0.7 0 0 Z " fill="#5D6C6E" transform="translate(674,175)"/>
<path d="M0 0 C0.7 0.3 1.3 0.7 2 1 C1.8 1.6 1.6 2.2 1.4 2.8 C-1.2 11.4 -1.4 19.7 -1.4 28.6 C-1.5 36.4 -1.5 36.4 -4.3 39.8 C-5.2 40.5 -6.1 41.3 -7 42 C-11.9 50.7 -13.7 58.9 -13.6 68.8 C-13.6 74.1 -14.7 76.7 -18 81 C-18.3 82 -18.7 83 -19 84 C-22.7 82.8 -23.8 82.3 -26 79 C-24.4 79.3 -22.7 79.7 -21 80 C-20.4 78.9 -19.7 77.9 -19.1 76.8 C-18.7 76.1 -18.3 75.5 -18 74.9 C-16.3 71.6 -15.9 68.3 -15.6 64.6 C-14.9 54.4 -14.2 45.8 -7.7 37.4 C-3.6 31.5 -3.3 26.6 -3.4 19.5 C-3.4 12.3 -3 6.7 0 0 Z " fill="#D5B3A0" transform="translate(538,292)"/>
<path d="M0 0 C1 0 2 0 3 0 C3.4 6.8 2.9 11.8 0 18 C-0.7 18.3 -1.3 18.7 -2 19 C-3.2 22.5 -3.1 25.2 -3.1 28.9 C-3.1 29.6 -3.1 30.3 -3.1 31 C-3 33.9 -3 36.7 -3 39.6 C-3 41.7 -2.9 43.8 -2.9 45.9 C-2.9 47.2 -2.9 48.5 -2.9 49.7 C-3 52.4 -3.2 54.5 -4 57 C-4.7 57 -5.3 57 -6 57 C-6.3 63.3 -6.7 69.5 -7 76 C-8 76 -9 76 -10 76 C-10.6 67.6 -9.7 61 -6.8 53.3 C-4.8 47.6 -4.3 43.5 -5.5 37.6 C-7.4 27.5 -5 19.2 -1 10 C-0.7 9.7 -0.3 9.3 0 9 C0.1 7.5 0.1 6 0.1 4.4 C0.1 3.6 0 2.8 0 1.9 C0 1.3 0 0.7 0 0 Z " fill="#D5B5A1" transform="translate(617,311)"/>
<path d="M0 0 C2.9 1.4 5.2 2.9 7.5 5.2 C7.3 7.2 7.3 7.2 6.5 9.2 C5.5 9.5 4.5 9.8 3.5 10.2 C2.5 9.5 1.6 8.9 0.6 8.2 C-3.8 5.5 -7.9 5.9 -12.9 6.2 C-15.5 6.2 -15.5 6.2 -17.5 4.2 C-17.2 2.1 -17.2 2.1 -16.5 0.2 C-11.8 -2.2 -4.9 -1.6 0 0 Z " fill="#EF845E" transform="translate(580.5,351.82421875)"/>
<path d="M0 0 C2.1 0.4 2.1 0.4 4 1 C3.6 2.8 3.2 4.5 2.8 6.2 C2.6 7.2 2.4 8.2 2.1 9.2 C1 13 1 13 -0.2 15.5 C-4.5 24.3 -4.6 32.2 -4.3 41.8 C-4.3 43.2 -4.3 44.7 -4.2 46.2 C-4.2 49.8 -4.1 53.4 -4 57 C-4.3 57.2 -4.3 57.2 -6 58 C-6 57.3 -6 56.7 -6 56 C-6 53.1 -6 50.1 -5.9 47.2 C-5.9 46.2 -5.9 45.1 -5.9 44.1 C-5.9 43.1 -5.9 42.1 -5.9 41.1 C-5.9 40.2 -5.9 39.3 -5.9 38.4 C-6 36 -6 36 -7 33 C-7.1 31.5 -7.2 30 -7.2 28.6 C-7.2 27.8 -7.2 27 -7.2 26.3 C-7 24 -7 24 -6.1 22.1 C-4.9 19.9 -4.4 17.9 -4 15.5 C-3.8 14.6 -3.6 13.8 -3.5 12.9 C-3.3 12.1 -3.1 11.2 -2.9 10.3 C-2.6 8.6 -2.3 6.8 -1.9 5.1 C-1.8 4.3 -1.6 3.6 -1.4 2.8 C-1 1 -1 1 0 0 Z " fill="#D0B7A6" transform="translate(633,311)"/>
<path d="M0 0 C0.4 -0 0.4 -0 2.4 -0 C6.3 -0 8.3 -0 11.6 2.2 C11.3 3.5 11 4.8 10.6 6.2 C4.4 6.2 -1.9 6.2 -8.4 6.2 C-8.7 4.5 -9 2.9 -9.4 1.2 C-7.3 -0.9 -2.9 0 0 0 Z " fill="#939D9E" transform="translate(529.375,582.8125)"/>
<path d="M0 0 C1.3 0.3 2.6 0.7 4 1 C3.9 3.7 3.9 6.4 3.8 9.1 C3.7 9.9 3.7 10.6 3.7 11.4 C3.5 16.8 2.5 19.9 -1 24 C-1.7 24 -2.3 24 -3 24 C-2.9 20.6 -2.8 17.1 -2.6 13.7 C-2.6 12.7 -2.6 11.7 -2.5 10.7 C-2.5 9.8 -2.5 8.9 -2.4 7.9 C-2.4 7 -2.4 6.2 -2.3 5.3 C-2 3 -2 3 0 0 Z " fill="#5C6C6E" transform="translate(474,303)"/>
<path d="M0 0 C1 0 2 0 3 0 C-0.1 16.1 -0.1 16.1 -5 21 C-6.3 21 -7.6 21 -9 21 C-8.5 15.6 -7.2 11.8 -4.5 7.1 C-3.9 6 -3.2 4.9 -2.6 3.7 C-1 1 -1 1 0 0 Z " fill="#B3C1C4" transform="translate(610,73)"/>
</svg>
