<?xml version="1.0" encoding="UTF-8"?>
<!-- Generator: visioncortex VTracer 0.6.12 -->
<svg version="1.1" xmlns="http://www.w3.org/2000/svg" width="1024" height="1024">
<path d="M0 0 C337.9 0 675.8 0 1024 0 C1024 337.9 1024 675.8 1024 1024 C686.1 1024 348.2 1024 0 1024 C0 686.1 0 348.2 0 0 Z M483 105 C482.3 105.6 481.6 106.1 480.9 106.7 C474.6 112.4 471.2 119.3 468 127 C468 127.7 468 128.3 468 129 C467.1 129 466.1 128.9 465.2 128.9 C451.7 128.5 440.5 130.9 430 140 C421 148.5 415.6 158.5 414.8 171 C414.7 175.5 414.7 179.6 416.1 183.9 C417.1 187.3 417.1 188.7 416 192 C414.2 193.5 414.2 193.5 411.9 194.8 C403.4 200.1 396.4 208 394 218 C392.2 233.9 394.6 245.1 404 258 C403.5 258.8 403 259.5 402.5 260.3 C401.9 261.3 401.2 262.3 400.6 263.3 C399.9 264.3 399.3 265.3 398.6 266.3 C394.3 273.4 395.2 282.9 396 291 C398.1 299.2 404.1 306.1 411.3 310.4 C413.2 311.3 415.1 312.2 417 313 C416.9 314.3 416.8 315.5 416.8 316.8 C416.8 324.9 419.7 332.6 425.2 338.5 C432.9 345 441.1 347.3 451 347 C451.2 348.6 451.2 348.6 452 357 C451 357.1 450 357.2 449 357.3 C444.8 357.9 441.1 359.3 437.1 361 C436.4 361.3 435.7 361.6 434.9 361.9 C399.1 377.4 376.9 400.3 362.1 436.2 C352.2 461.3 347.4 491.1 348 518 C347.5 518.1 347.5 518.1 345.2 518.7 C341 520.4 339 522.9 337 527 C336.9 528.6 336.9 530.2 336.9 531.9 C336.9 532.7 336.9 533.6 336.9 534.5 C337 537 337 537 337.5 538.9 C338 541.1 338.2 543.1 338.2 545.3 C338.2 545.7 338.2 545.7 338.3 547.8 C338.3 549.5 338.4 551.2 338.4 552.9 C338.6 558.7 339.4 563.2 343.5 567.6 C348.2 571.2 350.3 572.1 356.1 572.1 C357.2 572.1 358.3 572 359.4 572 C360.3 572 361.1 572 362 572 C362.5 575.1 363 578.2 363.4 581.4 C363.6 582.2 363.7 583.1 363.8 584 C364.2 586.7 364.6 589.3 365 592 C365.1 592.9 365.3 593.8 365.4 594.7 C366.1 599.8 366.1 603.2 363.8 608.1 C360.8 615.1 359 622.1 357.5 629.6 C357.2 631.2 356.8 632.8 356.5 634.3 C351.8 656.1 351.4 678.5 350.2 700.7 C349.7 709.4 349.2 718.2 348.7 726.9 C348.5 730.2 348.3 733.4 348.1 736.7 C347.2 753.5 346.1 770.3 344.9 787.1 C344.9 788 344.8 788.9 344.7 789.8 C344.6 791.5 344.5 793.1 344.4 794.8 C344.2 796.9 344.1 798.9 344 801 C343.9 802.1 343.8 803.2 343.7 804.3 C344 807 344 807 346.1 809.3 C349.2 811.1 351.7 811.9 355.2 812.7 C356.4 813 357.5 813.2 358.7 813.5 C360 813.7 361.2 814 362.4 814.2 C363.7 814.5 364.9 814.8 366.1 815.1 C371.5 816.2 376.5 817.2 382 817 C381.9 817.6 381.9 818.1 381.8 818.7 C381.6 821.4 381.3 824 381.1 826.7 C381 827.7 380.9 828.7 380.8 829.7 C380.2 835.6 379.9 841.4 379.7 847.3 C379.3 860.1 377 871.1 371.8 882.9 C368.5 891.4 368.7 902.5 372 911 C371.5 911.3 371.5 911.3 369.1 912.8 C364.9 915.8 364.9 915.8 364 919 C363.5 924.2 364.1 927.6 367 932 C371.7 936 377 935.4 382.9 935.4 C384 935.4 385.1 935.4 386.3 935.4 C390 935.4 393.7 935.4 397.5 935.4 C400.1 935.4 402.8 935.4 405.5 935.4 C412 935.4 418.5 935.4 425 935.4 C430.3 935.4 435.6 935.4 440.9 935.4 C441.6 935.4 442.4 935.4 443.2 935.4 C444.7 935.4 446.2 935.4 447.7 935.4 C462.1 935.4 476.4 935.4 490.8 935.4 C503.1 935.4 515.4 935.4 527.7 935.4 C542 935.4 556.3 935.4 570.6 935.4 C572.1 935.4 573.6 935.4 575.1 935.4 C575.5 935.4 575.5 935.4 577.4 935.4 C582.7 935.4 588 935.4 593.3 935.4 C599.7 935.4 606.1 935.4 612.6 935.4 C615.9 935.4 619.1 935.4 622.4 935.4 C626 935.4 629.5 935.4 633.1 935.4 C634.1 935.4 635.2 935.4 636.3 935.4 C645.1 935.3 645.1 935.3 649 932 C651.9 927.6 652.6 924.2 652 919 C650.1 915.6 650.1 915.6 648 913 C647.3 913 646.7 913 646 913 C646.3 912.4 646.6 911.9 647 911.3 C648.9 907.1 648.8 902.4 647.3 898.1 C642.8 889.3 635.3 885.9 626.4 882.8 C622.3 881.3 619.4 879.6 616.2 876.6 C611.4 872.2 605.9 869.8 599.9 867.2 C598.8 866.7 597.8 866.2 596.7 865.7 C592.7 864 588.9 862.3 584.8 861 C582 860 580.3 858.8 578 857 C577.3 857 576.7 857 576 857 C576.1 854 576.3 851 576.4 848 C576.5 847.2 576.5 846.3 576.6 845.5 C576.8 841.5 577 837.7 577.5 833.8 C578 830.3 578.1 827 578.1 823.5 C578.1 822.5 578 821.4 578 820.3 C578 819.6 578 818.8 578 818 C578.6 817.9 578.6 817.9 581.5 817.6 C585.8 817.1 589.8 816 594 814.7 C594.7 814.5 595.4 814.2 596.1 814 C601 812.4 605.5 810.5 610 808 C610.4 793.8 609.2 779.8 608 765.6 C607.7 762.1 607.4 758.6 607.1 755.1 C607 753 606.8 750.8 606.6 748.7 C606.1 742.4 605.9 736.3 606 730 C606.7 730.3 607.3 730.7 608 731 C614.4 731.5 618.8 730.8 624 727 C635.9 716.2 645.2 699.4 646.2 683.2 C646.4 669.2 645.9 655.6 644.2 641.7 C642.5 627.4 642.1 613.1 641.5 598.7 C640.5 573.3 640.5 573.3 639 568 C640.2 567.9 641.4 567.8 642.6 567.8 C647.8 567.1 651.3 564.9 654.8 560.9 C657.3 556.8 657.3 552.7 657 548 C656.8 547.4 656.7 546.8 656.5 546.1 C656 544 655.9 542.1 655.9 539.9 C655.7 525.6 655.7 525.6 652.2 521.5 C649.1 518.7 646.2 517 642 517 C642 515.9 641.9 514.8 641.9 513.7 C641.4 502.4 640.1 491.2 638.4 480 C638.3 479.6 638.3 479.6 638 477.4 C634.3 453.8 629.8 428.5 615 409 C616.6 405.4 618.9 402.3 621.2 399.1 C625.9 392.4 629.6 385.5 633 378 C633.5 377 634 375.9 634.5 374.8 C636.6 369.7 637.9 364.4 639.2 359 C639.5 357.8 639.8 356.6 640.1 355.4 C642.8 344.3 645.1 333.1 647.4 321.9 C647.6 321 647.8 320.1 648 319.2 C648.5 316.7 649 314.2 649.5 311.7 C649.6 311 649.8 310.2 650 309.5 C651 304.2 651 304.2 651 302 C651.7 301.9 652.4 301.8 653.2 301.7 C661 299.8 667.5 294.5 672 288 C672.4 287.4 672.8 286.9 673.2 286.3 C677.1 280 676.4 273.1 676 266 C676.9 265.7 677.8 265.5 678.7 265.2 C687.2 262.1 693.3 254.2 697.1 246.2 C702 234.7 702.6 223.8 698 212 C695 206.1 692 200.4 687 196 C686.3 196 685.7 196 685 196 C685.2 195.5 685.2 195.5 686.4 192.9 C690.3 183.8 690.6 171.7 687.5 162.3 C682.6 150.6 674.6 142.2 663.2 136.6 C654.9 133.4 646.8 133.6 638 134 C637.9 133.1 637.8 132.2 637.7 131.3 C635.4 119.7 626.3 109.9 617.1 103.1 C605.8 95.7 592.5 92.3 579.1 94.5 C569.3 96.6 561.1 101.3 553 107 C552.7 106.7 552.7 106.7 551 105.4 C530.4 89.7 503.1 86.8 483 105 Z " fill="none" transform="translate(0,0)"/>
<path d="M0 0 C0.7 0.5 1.5 1 2.2 1.5 C2.8 1.9 3.5 2.3 4.2 2.7 C5.5 3.6 6.9 4.5 8.2 5.5 C8.8 5 9.4 4.6 10 4.1 C20.9 -4 32.5 -8.8 46.2 -7.5 C61.1 -5 73.4 0.5 83.2 12.5 C92.2 25.3 92.2 25.3 92.2 32.5 C93.2 32.4 94.2 32.4 95.3 32.3 C109.6 31.9 120.2 34.7 131.2 44.5 C139.8 53.7 143.6 64.4 143.4 77 C143.1 83.2 141.8 88.8 139.2 94.5 C139.8 94.7 140.4 94.9 141 95.2 C147.1 98.7 151.8 107.9 153.8 114.4 C156.8 126.1 155.5 137.3 149.8 148 C145.4 155 140.1 161.4 132.2 164.5 C131.5 164.5 130.9 164.5 130.2 164.5 C130.3 165.3 130.3 166.2 130.4 167.1 C130.9 177.2 129.2 184 122.3 191.6 C117.6 195.9 111.8 200.5 105.2 200.5 C105.1 201.1 105 201.8 104.8 202.5 C103.3 210.5 101.8 218.5 100.2 226.5 C100 227.5 99.8 228.6 99.6 229.7 C94.2 257.1 88.2 284.1 69.2 305.5 C70.6 309.2 72.3 312.4 74.5 315.8 C85.6 334.8 89.1 356.7 92.5 378.1 C92.6 378.9 92.7 379.7 92.8 380.6 C94.7 392.2 95.8 403.7 96.2 415.5 C97 415.6 97.8 415.7 98.6 415.9 C101.5 416.5 102.8 417.4 105 419.4 C105.5 419.9 106.1 420.4 106.8 421 C109.1 423.4 109.3 425.2 109.5 428.5 C109.5 429.2 109.6 430 109.6 430.8 C109.6 431.7 109.7 432.5 109.7 433.3 C109.8 435 109.8 436.6 109.9 438.2 C110 438.9 110 439.6 110 440.4 C110.2 442.5 110.7 444.4 111.2 446.5 C111.6 452.1 111.4 455.6 108.2 460.5 C103.7 464.8 99.4 466.5 93.2 466.5 C93.4 467 93.5 467.4 93.7 468 C94.4 471.5 94.5 475 94.7 478.5 C94.7 479.3 94.7 480.1 94.8 481 C94.9 482.7 94.9 484.4 95 486.1 C95.2 490.7 95.4 495.2 95.7 499.8 C95.7 500.7 95.8 501.6 95.8 502.5 C97.5 536.1 97.5 536.1 99.3 548.6 C100.3 556 100.5 563.3 100.5 570.7 C100.5 571.3 100.5 571.3 100.6 574.3 C100.6 585.1 98.6 594.9 93.5 604.6 C93.2 605.3 92.8 605.9 92.5 606.6 C87.5 616 80.7 626 70.2 629.5 C63.2 629.9 63.2 629.9 60.2 628.5 C60.1 635.8 60.5 643 61.1 650.2 C61.3 652.5 61.4 654.8 61.6 657 C61.9 660.6 62.2 664.1 62.5 667.6 C63.6 680.6 64.6 693.4 64.2 706.5 C58.3 709.6 52.6 711.7 46.2 713.5 C43.6 714.3 41 715.1 38.4 715.9 C36.2 716.5 36.2 716.5 32.2 716.5 C32.2 717.2 32.2 718 32.2 718.8 C32.2 719.8 32.3 720.9 32.3 722 C32.3 723 32.3 724 32.3 725.1 C32.2 728.2 31.9 731.2 31.5 734.3 C31 738.3 30.8 742.4 30.6 746.5 C30.6 746.9 30.6 746.9 30.5 749.1 C30.4 751.2 30.3 753.3 30.2 755.5 C31 755.7 31.8 756 32.6 756.3 C35.2 757.5 35.2 757.5 37.2 759.5 C38.7 760 40.2 760.4 41.7 760.8 C47 762.3 51.8 764.3 56.7 766.6 C57.5 767 58.4 767.4 59.2 767.8 C64.7 770.5 69 773.5 73.5 777.6 C77.1 780.1 80.8 781.4 84.8 782.9 C92 785.6 97 788.7 101.2 795.5 C102.1 798.2 102.4 800 102.4 802.9 C102.4 803.7 102.4 804.4 102.4 805.2 C102.2 807.7 101.4 809.3 100.2 811.5 C101.2 811.8 102.2 812.1 103.2 812.5 C105.5 815.3 106.2 817.2 106.6 820.8 C106.1 825.5 104.9 827.7 102.2 831.5 C99.2 833.4 97 833.7 93.5 833.7 C92.5 833.7 91.6 833.7 90.6 833.7 C89.5 833.7 88.5 833.7 87.4 833.7 C86.3 833.7 85.2 833.7 84.1 833.7 C80.3 833.7 76.6 833.7 72.9 833.7 C70.2 833.7 67.5 833.7 64.8 833.8 C58.3 833.8 51.8 833.8 45.3 833.8 C40 833.8 34.7 833.8 29.4 833.8 C29 833.8 29 833.8 27.1 833.8 C25.6 833.8 24.1 833.8 22.6 833.8 C8.2 833.8 -6.1 833.8 -20.5 833.8 C-33.6 833.8 -46.7 833.8 -59.9 833.8 C-73.4 833.8 -86.8 833.8 -100.3 833.8 C-107.9 833.8 -115.4 833.8 -123 833.8 C-129.5 833.9 -135.9 833.9 -142.3 833.8 C-145.6 833.8 -148.9 833.8 -152.2 833.8 C-155.8 833.9 -159.3 833.8 -162.9 833.8 C-163.9 833.8 -165 833.8 -166.1 833.9 C-174.9 833.8 -174.9 833.8 -178.8 830.5 C-181.7 826.1 -182.4 822.7 -181.8 817.5 C-179.7 813.5 -177.5 810.9 -173.8 808.5 C-174.1 807.6 -174.4 806.8 -174.8 805.9 C-177.9 795.4 -175.4 785.4 -171.8 775.5 C-171.1 773.3 -170.3 771.1 -169.6 769 C-169.3 768 -169 767.1 -168.6 766.1 C-167 761.1 -166.6 756.1 -166.3 750.9 C-166.3 750.1 -166.2 749.4 -166.2 748.7 C-166 746.3 -165.9 744 -165.8 741.7 C-164.8 723.4 -164.8 723.4 -163.8 715.5 C-165 715.3 -166.3 715.2 -167.5 715.1 C-173.4 714.4 -179.2 713.3 -185 712.1 C-185.6 712 -185.6 712 -188.3 711.5 C-189.3 711.3 -190.3 711.1 -191.4 710.9 C-192.3 710.7 -193.2 710.5 -194.2 710.4 C-197.5 709.2 -199.4 708.1 -201.8 705.5 C-202.1 702.6 -202.2 700.3 -201.9 697.5 C-201.9 697.1 -201.9 697.1 -201.8 695 C-201.6 692.5 -201.4 689.9 -201.2 687.3 C-201.1 685.7 -201 684.1 -200.9 682.4 C-200.5 675.2 -199.9 667.9 -199.3 660.7 C-198.3 647.9 -197.5 635.2 -196.8 622.4 C-196.8 621.6 -196.7 620.8 -196.7 620 C-196.3 612.7 -195.9 605.4 -195.5 598.1 C-193.3 554 -193.3 554 -189.5 533.9 C-189.4 533.3 -189.4 533.3 -188.9 530.4 C-187.3 522.1 -185 514.1 -182 506.1 C-179.3 498.1 -180.1 491.8 -181.7 483.6 C-182.1 481.6 -182.5 479.5 -182.9 477.4 C-183.1 476.5 -183.2 475.6 -183.4 474.7 C-183.8 472.5 -183.8 472.5 -183.8 470.5 C-184.6 470.5 -185.4 470.6 -186.2 470.6 C-192.6 470.8 -196.8 471 -201.8 466.5 C-202.1 466.2 -202.1 466.2 -203.5 465 C-207.4 460.2 -207.2 454.7 -207.4 448.9 C-207.4 447.2 -207.5 445.5 -207.6 443.8 C-207.6 443.1 -207.6 442.3 -207.6 441.6 C-207.8 439.4 -208.2 437.5 -208.8 435.5 C-209.3 430.5 -209.4 426.6 -207.1 422 C-204.8 419.5 -202.9 417.9 -199.8 416.5 C-199.1 416.5 -198.5 416.5 -197.8 416.5 C-197.8 415.9 -197.8 415.3 -197.8 414.7 C-198.4 371.5 -186.5 320.6 -155.7 288.8 C-141.4 274.7 -114.6 255.5 -93.8 255.5 C-94 253.8 -94 253.8 -94.8 245.5 C-96.1 245.5 -97.4 245.6 -98.7 245.7 C-107.5 245.7 -115.5 241.5 -121.8 235.5 C-127.7 228.1 -129.2 220.7 -128.8 211.5 C-129.4 211.2 -129.4 211.2 -132.3 210 C-139.6 206.2 -145.5 200.1 -148.9 192.6 C-151.3 183.8 -151.6 172.9 -147.5 164.6 C-146.6 163.2 -145.7 161.8 -144.8 160.5 C-143.8 158.8 -142.8 157.1 -141.8 155.5 C-142.3 154.8 -142.7 154.2 -143.2 153.6 C-143.8 152.7 -144.5 151.8 -145.1 151 C-145.7 150.1 -146.3 149.3 -147 148.4 C-153 138.6 -153.3 127.7 -151.8 116.5 C-149 105.6 -141.6 97.4 -132.3 91.5 C-131.1 90.8 -130 90.1 -128.8 89.5 C-129.7 82.9 -129.7 82.9 -130.3 80.6 C-133 68.8 -129.4 57.2 -123.5 47 C-116.9 37.2 -107 31.1 -95.6 27.9 C-89.7 27 -83.7 27.2 -77.8 27.5 C-77.6 26.9 -77.5 26.4 -77.4 25.8 C-73.7 13.6 -65.1 2.8 -53.9 -3.5 C-53.2 -3.8 -52.5 -4.2 -51.8 -4.5 C-51.1 -4.9 -50.3 -5.3 -49.6 -5.7 C-33.6 -13 -14.3 -9.1 0 0 Z M-62.8 11.5 C-67.5 18.3 -71.2 25.5 -73.8 33.5 C-74.4 33.4 -74.4 33.4 -77.3 33.3 C-90.9 32.8 -102.5 34.9 -112.8 44.5 C-121.1 52.5 -123.9 61.7 -124.1 73 C-124.2 80.4 -122.7 86.6 -119.8 93.5 C-120.7 93.7 -121.6 94 -122.5 94.3 C-132.6 97.9 -139.4 105 -144 114.5 C-147 122.2 -147.4 132.7 -144.2 140.3 C-141.5 145.5 -137.9 150.3 -133.8 154.5 C-134.1 157.8 -135.4 159.4 -137.7 161.6 C-143.5 168.3 -144.5 175.7 -144.2 184.3 C-143.2 192.4 -138.3 197.7 -132.2 202.8 C-128.7 205.2 -125 206.5 -120.8 207.5 C-121.1 208.5 -121.5 209.4 -121.8 210.5 C-122.5 218.8 -121.4 224.6 -116.6 231.6 C-111.8 236.4 -107.3 238.5 -100.5 239.1 C-99.6 239.1 -98.7 239.2 -97.8 239.3 C-97.2 239.4 -96.5 239.4 -95.8 239.5 C-95.8 239.1 -95.8 239.1 -95.7 237.4 C-95.6 234.3 -95.5 231.1 -95.4 228 C-95.3 227 -95.3 225.9 -95.2 224.8 C-95 218.6 -94.6 212.6 -93.8 206.5 C-94.5 206.4 -95.2 206.3 -95.9 206.2 C-104.9 205 -112.4 201.9 -118.2 194.6 C-124 185.9 -125.5 176.7 -123.8 166.5 C-122.2 162.1 -120.1 158.4 -117.8 154.5 C-117.5 153.5 -117.1 152.5 -116.8 151.5 C-114.9 150.4 -114.9 150.4 -112.8 149.5 C-111.7 148.8 -110.6 148.1 -109.5 147.3 C-100.7 142.9 -89 145 -79.8 147.5 C-80.7 156.1 -81.8 164.6 -83.2 173.1 C-85.2 185.5 -86.8 197.8 -88.4 210.2 C-88.7 212.5 -89 214.8 -89.3 217 C-91.4 232.5 -90.8 248 -84.8 262.5 C-84.3 263.7 -83.8 264.9 -83.3 266.2 C-79.1 275.6 -73.1 282.4 -65.8 289.5 C-65 290.2 -64.3 291 -63.5 291.8 C-44.6 309.9 -16.3 328.2 10.5 328.8 C16.3 328.6 21.7 328 27.2 326.5 C27.9 326.3 28.7 326 29.4 325.8 C50.2 318.7 66.6 302.2 77.2 283.5 C77.7 282.6 78.2 281.8 78.7 280.9 C79.8 278.7 79.8 278.7 81.2 275.5 C80.9 274.8 80.5 274.1 80.2 273.5 C80 273.7 80 273.7 78.9 275.2 C69.5 287.6 54.9 302.3 38.7 304.9 C34.1 305.1 30.9 304.5 27.2 301.5 C25.4 299.4 24.1 297.3 22.8 294.8 C20.7 291.7 18.7 290.8 15.1 290 C10.1 289.7 7.6 290.5 3.8 293.9 C3.1 294.5 2.5 295.2 1.8 295.8 C-0.9 298.5 -3 298.7 -6.7 298.9 C-24.7 298.7 -41.9 280.6 -53.8 268.5 C-66 254.7 -74.4 237.1 -74.8 218.5 C-74.8 217.4 -74.9 216.3 -74.9 215.2 C-75.4 197 -71 179.3 -67.3 161.6 C-65.3 152.3 -63.5 142.9 -61.8 133.5 C-61.2 133.5 -60.6 133.5 -60 133.5 C-59.2 133.5 -58.4 133.5 -57.6 133.6 C-56.8 133.6 -56 133.6 -55.2 133.6 C-49.4 133.2 -45.2 130.2 -41.4 126.1 C-37.2 121.2 -36.5 115.9 -36.7 109.6 C-36.7 108.4 -36.7 107.3 -36.7 106.1 C-36.7 105.2 -36.8 104.4 -36.8 103.5 C-32.6 104.1 -30.7 105.3 -27.5 108.2 C-23 111.6 -17.4 113 -11.8 112.8 C-7 112 -3 109.7 0.5 106.2 C1 105.6 1.6 105.1 2.2 104.5 C3.5 104.5 4.8 104.5 6.2 104.5 C7.7 107.5 7 110.2 6.8 113.6 C6.7 114.9 6.6 116.1 6.5 117.5 C6.4 118.5 6.3 119.4 6.2 120.5 C12.9 125.6 18.9 125.3 27.2 124.5 C33.9 122.8 38.5 118.1 42.2 112.5 C43.8 109.2 45.1 105.9 46.2 102.5 C47.2 102.5 48.2 102.5 49.2 102.5 C49.4 103.3 49.5 104.1 49.7 104.9 C51.6 113 53.7 119.7 60.9 124.5 C67 127 73.9 126.3 79.9 124.1 C82.2 122.5 82.2 122.5 84.2 120.5 C86.3 119.8 86.3 119.8 88.2 119.5 C88.4 120.5 88.6 121.5 88.8 122.5 C90.3 127.9 94.4 131.7 99.1 134.6 C104 136.5 110.4 136.4 115.4 134.7 C118.1 133.2 120.3 131.4 122.5 129.2 C122.7 128.9 122.7 128.9 124.2 127.5 C125.2 127.5 126.2 127.5 127.2 127.5 C127.6 129.6 127.6 129.6 127.2 132.5 C123.8 136.4 120.1 138.7 115.2 140.5 C115.2 141.1 115.1 141.7 115.1 142.3 C114.3 152.9 112.2 163.4 110.1 173.8 C110 174.3 110 174.3 109.6 176.5 C109.2 178.3 108.8 180 108.5 181.8 C107.7 185.7 107 189.4 107.2 193.5 C114.7 191 118.8 186.4 122.9 179.7 C124.4 175.9 124.4 173 124.3 169 C124.3 165.1 124.4 162.3 127.2 159.4 C129.8 158 129.8 158 132.6 156.7 C140.2 153.1 144.1 146 147.2 138.5 C150.1 129.7 148.9 118.8 145.2 110.5 C142.7 105.8 140.1 101.9 135.8 98.8 C134.9 98 134.1 97.2 133.2 96.5 C133.1 93.8 133.1 93.8 134.2 90.5 C138.2 77.5 138.3 68.3 131.9 56 C127.4 48.6 120.8 42.7 112.4 39.9 C104.5 38.2 96.3 38.3 88.2 38.5 C88.1 38.1 88.1 38.1 87.5 36.2 C83.3 22.4 76.5 11.4 63.7 4 C53.2 -1.2 41 -2.4 29.6 0.3 C21.6 3.2 15.2 7.5 9.2 13.5 C5.5 13.2 3.8 11.3 1.2 8.8 C-9 -0.6 -19.5 -2.9 -33 -2.8 C-44.3 -2.1 -54.8 3.5 -62.8 11.5 Z M-30.8 113.5 C-30.9 113.9 -30.9 113.9 -31.5 116.1 C-33.7 124.3 -35.7 130.3 -43.2 134.9 C-47.9 137.4 -52.6 139.1 -57.8 140.5 C-58 141.3 -58.1 142.2 -58.3 143.1 C-59.7 150.6 -61.1 158.1 -62.6 165.7 C-63.3 168.9 -63.9 172.2 -64.6 175.4 C-65.3 178.9 -66 182.4 -66.8 185.9 C-68.7 194.7 -69.1 203.3 -69.2 212.3 C-69.2 213.4 -69.2 214.5 -69.2 215.7 C-69.1 237.9 -59 256 -43.8 271.5 C-34.8 280.3 -20.8 292.8 -7.7 294.2 C-2.4 293.9 1.3 289.8 5.2 286.5 C9.7 284.2 15.8 284.8 20.6 286.1 C25.5 288.2 27.4 290.8 29.4 295.7 C30.2 297.5 30.2 297.5 32.2 299.5 C41.9 300.4 51 294.4 58.5 288.6 C60.1 287.3 61.6 285.9 63.2 284.5 C64 283.7 64.9 283 65.7 282.2 C86 263.2 91.9 237.1 96.8 210.8 C98.5 201.8 100.4 192.8 102.4 183.8 C109.6 152.1 109.6 152.1 109.2 141.5 C108.8 141.4 108.8 141.4 106.9 141.2 C97.8 140.1 92.7 137.5 86.7 130.6 C86.5 130.2 86.5 130.2 85.2 128.5 C84.9 128.6 84.9 128.6 83.6 129.1 C75.8 132.1 68.2 133 60.3 129.7 C54.2 126.6 51 123.2 47.2 117.5 C46.5 117.5 45.9 117.5 45.2 117.5 C44 118.8 44 118.8 42.6 120.6 C38.4 125.7 32.7 129.2 26.2 130.5 C17 131.3 10.3 130 2.7 124.7 C0.5 121.4 0.5 118.4 0.2 114.5 C-0.1 114.6 -0.1 114.6 -1.3 115.1 C-9.8 118.4 -18 118.9 -26.5 115.5 C-28 114.8 -29.4 114.2 -30.8 113.5 Z M-115.3 160.4 C-119.7 166.5 -119.5 173.1 -118.8 180.5 C-117.1 188.7 -112.6 193.7 -105.8 198.5 C-101.3 200.6 -97.7 200.5 -92.8 200.5 C-90.3 184.5 -87.9 168.5 -85.8 152.5 C-98 146.8 -107 151 -115.3 160.4 Z M-105 264.8 C-105.4 265 -105.4 265 -107.6 265.9 C-114.7 268.8 -121.3 272.3 -127.9 276.1 C-131.8 278.4 -135.4 280.2 -139.8 281.5 C-139.8 282.1 -139.8 282.8 -139.8 283.5 C-140.5 283.7 -141.2 283.9 -142 284.2 C-151.4 288.4 -159.4 298.8 -164.8 307.5 C-164.8 308.5 -164.8 309.4 -164.8 310.5 C-165.5 310.5 -166.1 310.5 -166.8 310.5 C-171.2 318.6 -175.2 326.3 -177.1 335.4 C-177.9 338.9 -179 342.2 -180.2 345.6 C-187.1 365.6 -191.1 388 -190.9 409.1 C-190.8 410.9 -190.8 412.7 -190.8 414.5 C-189.5 414.3 -188.3 414.2 -187 414 C-174.8 412.7 -162.8 412.2 -150.6 412.3 C-147.8 412.3 -145 412.3 -142.3 412.3 C-129.7 412.3 -117.3 412.8 -104.8 413.5 C-104.8 412.7 -104.7 411.9 -104.7 411.1 C-103.6 393.5 -102.1 376 -99.8 358.5 C-98.5 358.1 -97.2 357.8 -95.8 357.5 C-95.6 368.1 -96.5 378.5 -97.7 389.1 C-98.4 395.6 -99 402.1 -99.2 408.7 C-99.2 409.9 -99.3 411.1 -99.3 412.3 C-98.8 415.5 -98.8 415.5 -96.4 417.6 C-95.5 418.2 -94.7 418.8 -93.8 419.5 C-92 422.3 -91.6 424.3 -91.6 427.6 C-91.6 428 -91.6 428 -91.7 430 C-91.7 430.8 -91.7 431.6 -91.7 432.5 C-91.8 434.1 -91.8 435.7 -91.8 437.3 C-91.8 438 -91.9 438.7 -91.9 439.4 C-91.8 441.6 -91.3 443.4 -90.8 445.5 C-90.4 450.8 -91.2 453.8 -93.8 458.5 C-94.1 459.5 -94.5 460.4 -94.8 461.5 C-99.9 463.3 -104.2 463.8 -109.8 464.5 C-109.6 467.4 -109.6 467.4 -108.8 482.5 C-99.8 484.7 -99.8 484.7 -95.3 485.3 C-94.8 485.3 -94.8 485.3 -92.2 485.7 C-91.2 485.8 -90.2 485.9 -89.2 486 C-88.2 486.1 -87.2 486.3 -86.2 486.4 C-71.9 488.2 -57.7 488.8 -43.4 488.9 C-41.4 488.9 -39.4 489 -37.4 489 C-34.5 489.1 -31.6 489.2 -28.7 489.2 C-28.3 489.2 -28.3 489.2 -26.1 489.3 C-18.9 489.3 -15.7 486.4 -10.8 481.5 C-6.6 479.4 -1.3 480 3.2 480.5 C5.2 481.4 5.2 481.4 6.9 482.5 C11.5 485.2 14.2 484.5 19.2 483.5 C20.2 483.3 21.2 483.2 22.2 483 C29.1 481.8 33.2 479.7 37.6 474.1 C42.2 466.6 44.5 458.9 42.7 450.1 C41.8 446.7 40.9 443.3 39.9 439.9 C35.5 423.3 40.9 405.5 44.3 389.1 C45 385.6 45.7 382.1 46.4 378.6 C46.8 376.4 47.3 374.2 47.7 372.1 C47.9 371.1 48.1 370.1 48.3 369.1 C48.4 368.7 48.4 368.7 48.8 366.5 C49.2 364.5 49.2 364.5 49.2 362.5 C50.9 362.5 52.5 362.5 54.2 362.5 C53.6 365.9 53.1 369.3 52.5 372.7 C52.3 373.8 52.2 374.8 52 375.9 C51 382 49.9 388 48.8 394 C48.6 395.3 48.4 396.5 48.1 397.8 C47.7 400.3 47.2 402.7 46.8 405.1 C45.8 410.6 44.9 415.8 45.2 421.5 C53 421.7 60.6 420.8 68.3 419.8 C70.5 419.5 72.7 419.2 74.9 419 C86.5 417.5 86.5 417.5 90.2 416.5 C88.2 381.3 83.4 343.2 65.2 312.5 C60.6 312.5 60.3 312.9 57 315.9 C52.5 319.7 47.8 322.5 42.6 325.3 C41.9 325.6 41.2 326 40.5 326.4 C33.1 330.3 26.6 332.7 18.2 332.5 C13.9 332.5 10.1 332.7 6.2 334.5 C2.4 338.3 0.3 343.2 -1.8 348.1 C-3.5 352.1 -5.3 354.8 -8.8 357.5 C-11.3 358.2 -11.3 358.2 -13.8 358.1 C-14.6 358.2 -15.4 358.2 -16.3 358.2 C-20.1 357.1 -21.8 354.7 -23.8 351.5 C-25.6 347.7 -27.2 343.8 -28.7 339.8 C-29.6 337.7 -30.5 335.5 -31.4 333.4 C-32.7 330.1 -34 326.8 -35.3 323.5 C-38.5 315.8 -43.3 312.5 -50.3 308.5 C-54.9 305.8 -58.8 302.8 -62.8 299.5 C-63 299.3 -63 299.3 -64.3 298.2 C-76.4 287.9 -85.5 276.7 -90.8 261.5 C-96 260.9 -100.3 262.9 -105 264.8 Z M-29.8 322.5 C-28.6 325.6 -27.3 328.8 -26 332 C-25.7 332.8 -25.4 333.7 -25 334.6 C-19.3 348.9 -19.3 348.9 -15.8 352.5 C-13 352.6 -13 352.6 -9.8 351.5 C-7.6 348.8 -6 345.9 -4.4 342.9 C-4.2 342.5 -4.2 342.5 -3.1 340.5 C-2 338.5 -0.9 336.5 0.2 334.5 C-2.3 332 -4.2 331.6 -7.6 330.7 C-13.8 328.9 -19.4 326.5 -25.2 323.6 C-27.8 322.5 -27.8 322.5 -29.8 322.5 Z M-201.4 425.6 C-203.8 430.5 -202.5 435.4 -200.8 440.5 C-200.7 441.9 -200.7 443.3 -200.7 444.7 C-200.7 445.1 -200.7 445.1 -200.6 447.2 C-200.6 449 -200.6 450.7 -200.6 452.4 C-200.5 456.6 -200.4 459.6 -197.2 462.6 C-190.8 466.1 -184.7 464.4 -177.8 463.1 C-163.1 460.5 -148.3 459.5 -133.3 459.3 C-132.4 459.2 -131.5 459.2 -130.5 459.2 C-125.9 459.1 -121.2 459.1 -116.6 459.1 C-114.9 459 -113.1 459 -111.4 459 C-110.6 459 -109.8 459 -109 459 C-104 458.9 -101.3 458.1 -97.8 454.5 C-95.5 449.9 -96.5 443.6 -96.4 438.6 C-96.4 437.3 -96.3 436 -96.3 434.7 C-96.3 433.4 -96.3 432.2 -96.3 430.9 C-96.3 429.8 -96.2 428.6 -96.2 427.5 C-96.8 424.5 -96.8 424.5 -99.2 422.1 C-111.5 414.4 -133.5 417.2 -147.8 417.2 C-148.6 417.2 -149.5 417.2 -150.4 417.2 C-191.3 417.2 -191.3 417.2 -201.4 425.6 Z M72.8 424.4 C70 424.8 67.1 425.1 64.2 425.5 C63.6 425.6 62.9 425.7 62.2 425.8 C56.2 426.5 50.2 427 44.2 427.5 C44.6 432.5 45.3 437.2 46.7 442.1 C47.9 446.7 48.5 451.1 48.8 455.9 C48.9 457.1 49 458.3 49 459.6 C49.1 460.6 49.1 461.5 49.2 462.5 C79.8 461.7 79.8 461.7 90.8 460.6 C91.5 460.5 92.2 460.5 92.9 460.4 C97.4 459.9 101 458.7 104.2 455.5 C104.3 453.7 104.3 451.8 104.3 450 C104.3 449 104.3 448 104.3 447 C104.2 444.5 104.2 444.5 103.2 442.5 C103.2 439.1 103.3 435.8 103.5 432.4 C103.6 429.1 103.4 426.8 101.8 424 C93.9 419.4 81.5 423.3 72.8 424.4 Z M-177.8 468.5 C-176.4 479.2 -174.5 489.8 -172.5 500.4 C-172.4 500.8 -172.4 500.8 -172 502.8 C-170 513.7 -167.8 524.6 -165.2 535.4 C-163.6 542.4 -163 548.8 -164.8 555.8 C-168.5 573.2 -166.2 595.7 -157.8 611.5 C-154.6 615.9 -151.2 620.5 -145.8 622.5 C-144.8 622.1 -143.8 621.8 -142.8 621.5 C-143.1 620.8 -143.4 620.1 -143.6 619.4 C-144 618.6 -144.4 617.7 -144.7 616.8 C-144.9 616.3 -144.9 616.3 -145.8 614.1 C-147.4 609.9 -147.9 606.1 -147.9 601.6 C-147.9 600.9 -147.8 600.1 -147.8 599.3 C-147.8 598.7 -147.8 598.1 -147.8 597.5 C-146.5 597.8 -145.2 598.1 -143.8 598.5 C-143.7 599 -143.6 599.6 -143.5 600.2 C-141.8 610.3 -139 621.7 -130.8 628.5 C-127.3 630.5 -124.8 630.8 -120.8 630.5 C-119.8 629.8 -118.8 629.1 -117.8 628.5 C-118.5 625.2 -119.7 622.4 -121.2 619.3 C-124.8 611.3 -127.3 604.3 -126.8 595.5 C-124.9 595.7 -124.9 595.7 -122.8 596.5 C-121.8 599.1 -121 601.6 -120.4 604.4 C-118.2 612.4 -116.1 619.9 -110.4 626.1 C-107.2 627.8 -105.3 628 -101.8 627.5 C-99 625.3 -98.8 624.3 -97.8 620.7 C-97.2 614.2 -100 608.3 -102.1 602.3 C-105.2 593.6 -106.2 585.6 -105.8 576.5 C-105.1 576.6 -105.1 576.6 -101.8 577.5 C-101.6 578.5 -101.3 579.5 -101.1 580.6 C-99.9 584.8 -97.8 587.3 -94.8 590.5 C-91.6 592.1 -88.3 591.8 -84.8 591.5 C-82.8 590.3 -82.8 590.3 -81.8 588.5 C-81 582.5 -83.5 578.8 -86.5 573.8 C-89.5 568.6 -92.4 563.5 -94.5 557.8 C-97.1 551.3 -100.6 547.1 -106 542.9 C-110.9 538.6 -111.1 532.9 -111.6 526.7 C-111.6 526.3 -111.6 526.3 -111.8 524.4 C-111.9 522 -112.1 519.5 -112.3 517.1 C-112.4 515.4 -112.6 513.7 -112.7 512 C-113.9 496.2 -114.9 480.3 -115.8 464.5 C-136.9 464.3 -157 465 -177.8 468.5 Z M78.6 466.4 C74.8 466.4 71.1 466.5 67.4 466.6 C65.8 466.6 64.2 466.6 62.6 466.6 C49.5 466.5 49.5 466.5 45.6 469.8 C42.4 473.3 40.2 477.2 38.2 481.5 C39.2 483.5 40.2 485.5 41.3 487.4 C42.9 491.1 42.2 494.7 41.2 498.5 C40.5 499.3 39.8 500.2 39.1 501.1 C37.2 503.5 37.2 503.5 37.4 506.3 C38.2 510.7 39.3 515.1 40.5 519.4 C48.1 548.4 52.5 577.8 56.2 607.5 C59.3 605.9 59.9 603.5 61.2 600.5 C61.2 599.5 61.2 598.5 61.2 597.5 C60.5 597.5 59.9 597.5 59.2 597.5 C57.2 593.3 56.9 589.8 57 585.2 C57 584.5 57 583.9 57 583.2 C57 579.4 57.4 575.9 58.4 572.3 C59.2 568.5 59.2 568.5 58 566.2 C57.4 565.6 56.8 565.1 56.2 564.5 C54.4 560.8 54 557.9 54 553.9 C54 553 54 552 54 551.1 C54.2 548.7 54.5 546.7 55.2 544.5 C56.9 544.5 58.5 544.5 60.2 544.5 C60 545.1 59.9 545.8 59.7 546.5 C58.4 554.1 59.1 558.9 63.2 565.5 C63.4 565.6 63.4 565.6 64.2 566.5 C63.5 573.3 63.5 573.3 62.7 576.3 C62.1 579.1 62 581.7 61.9 584.5 C61.9 585.5 61.8 586.5 61.8 587.6 C62.3 591.2 63.4 592.3 66.2 594.5 C69.4 594.5 70.8 593.8 73.2 591.8 C78.7 585.5 80.7 576.5 82.2 568.5 C83.5 568.8 84.8 569.1 86.2 569.5 C87.1 577.5 83.6 585.4 79.5 592.2 C78.2 594.5 78.2 594.5 78.2 596.5 C77.9 596.6 77.9 596.6 76.1 597.3 C75.7 597.5 75.7 597.5 73.2 598.5 C72.6 598.6 72.6 598.6 69.8 599.3 C65 601.4 63.4 605.9 61.3 610.4 C59.8 614.5 59.4 617.8 61.3 621.8 C63.2 623.5 63.2 623.5 66 624 C73.4 622.8 78 617.2 82.2 611.5 C91 598.2 94.5 586.2 94.6 570.3 C94.7 569.2 94.7 568.1 94.7 567 C94.6 560.5 93.9 554.4 92.8 548 C90.5 534.6 90.2 521.1 89.6 507.5 C89.4 503.6 89.2 499.6 89 495.7 C88.9 493.2 88.8 490.8 88.7 488.3 C88.4 481 87.9 473.7 87.2 466.5 C86.8 466.5 86.8 466.5 84.9 466.5 C82.8 466.5 80.7 466.5 78.6 466.4 Z M-10.8 487.5 C-9.6 491.2 -7.8 492.1 -4.8 494.5 C-3.6 496.9 -3.6 498.6 -3.6 501.3 C-3.6 502.2 -3.6 503.1 -3.6 504 C-3.8 506.6 -4.4 508.2 -5.8 510.5 C-6.5 510.8 -7.1 511.1 -7.8 511.5 C-7.8 512.1 -7.8 512.8 -7.8 513.5 C-4.3 515.2 -0.5 514.3 3.2 513.5 C7.5 510.9 9.5 508.1 11.2 503.5 C11.8 498.2 11.1 494.9 8.2 490.5 C5.4 487.3 3.9 485.7 -0.3 485.1 C-4.7 485 -7 485 -10.8 487.5 Z M16.2 489.5 C14.7 492.4 15.6 494.4 16.1 497.6 C16.3 498.7 16.5 499.8 16.7 500.9 C16.9 501.7 17 502.6 17.2 503.5 C23.6 502.5 29.4 501.5 35.2 498.5 C36.7 495.4 36.4 492.8 36.2 489.5 C34.2 487.5 34.2 487.5 32.4 487.2 C26.9 487.2 21.4 487.6 16.2 489.5 Z M-107.8 489.5 C-107.8 494.1 -107.8 498.7 -107.8 503.5 C-104.7 504 -101.5 504.5 -98.4 505 C-98 505 -98 505 -95.8 505.4 C-89.7 506.3 -83.9 506.6 -77.8 506.5 C-79.1 500.5 -82.3 496.5 -86.8 492.5 C-93.1 489.5 -100.9 489.9 -107.8 489.5 Z M-78.8 493.5 C-77.8 495.8 -76.7 498.1 -75.7 500.4 C-75.4 501.1 -75.1 501.7 -74.8 502.4 C-73.9 504.3 -73.9 504.3 -71.8 507.5 C-68.9 508.4 -68.9 508.4 -65.8 508.5 C-64.9 508.5 -64 508.6 -63.1 508.6 C-62.2 508.6 -61.3 508.6 -60.3 508.6 C-59.3 508.6 -58.2 508.6 -57.1 508.7 C-56.6 508.7 -56.6 508.7 -53.8 508.7 C-52.6 508.7 -51.4 508.7 -50.2 508.7 C-47.8 508.7 -45.4 508.7 -42.9 508.7 C-39.2 508.7 -35.4 508.7 -31.7 508.8 C-29.3 508.8 -26.9 508.8 -24.6 508.8 C-23.5 508.8 -22.3 508.8 -21.2 508.8 C-20.1 508.8 -19.1 508.8 -18 508.8 C-17.1 508.8 -16.2 508.8 -15.2 508.8 C-12.3 508.4 -10.9 507.6 -8.8 505.5 C-8.2 502 -8.2 502 -8.8 498.5 C-11.4 495.8 -13.1 494.6 -16.9 493.9 C-18 493.9 -19.2 493.9 -20.3 493.9 C-21 493.9 -21 493.9 -24.3 493.9 C-25.7 493.9 -27.1 493.9 -28.5 493.9 C-30 493.8 -31.4 493.8 -32.9 493.8 C-36.7 493.8 -40.5 493.7 -44.3 493.7 C-48.2 493.7 -52 493.7 -55.9 493.6 C-63.6 493.5 -71.2 493.5 -78.8 493.5 Z M23 508.5 C22.1 508.6 21.2 508.8 20.3 509 C19.6 509.2 18.9 509.3 18.2 509.5 C18.9 512.5 19.8 515.4 20.7 518.4 C30.1 550.7 35.2 583.5 35.6 617.2 C35.6 618.4 35.6 619.5 35.7 620.7 C35.7 628.6 35.7 628.6 33.5 632.7 C30.8 634.8 29.2 635.2 25.8 635.4 C24.8 635.5 23.9 635.5 23 635.6 C20 635.4 17.9 634.8 15.2 633.5 C11.1 627.9 12 619.3 11.9 612.7 C11.9 612.2 11.9 612.2 11.9 609.9 C11.8 606 11.7 602.1 11.7 598.2 C11.6 595.4 11.5 592.5 11.5 589.7 C11.5 589.3 11.5 589.3 11.4 587 C11.4 586.6 11.4 586.6 11.4 584.5 C11.4 583.8 11.4 583.1 11.4 582.4 C11.2 580.5 11.2 580.5 10.2 577.5 C10.1 575.4 9.9 573.3 9.8 571.2 C9.5 565.9 8.4 562.3 6.2 557.5 C5.4 553.5 4.8 549.5 4.2 545.5 C3.9 545.5 3.5 545.5 3.2 545.5 C3.2 546 3.2 546 2.9 548.5 C1.9 558.8 0.7 569.1 -0.5 579.4 C-0.7 580.8 -0.9 582.3 -1.1 583.8 C-3.7 606.6 -3.7 606.6 -9.8 611.5 C-13.3 613.2 -17 613 -20.8 612.5 C-24.4 610.5 -26.5 608.4 -27.8 604.5 C-28.3 597.4 -27.3 590.7 -26 583.7 C-22.1 561.7 -20.2 539.8 -20.9 517.5 C-20.8 515.5 -20.8 515.5 -19.8 513.5 C-21.1 513.4 -22.3 513.4 -23.6 513.4 C-28.3 513.3 -33 513.2 -37.7 513.1 C-39.8 513 -41.8 513 -43.8 513 C-46.8 512.9 -49.7 512.8 -52.6 512.8 C-53.5 512.8 -54.4 512.7 -55.3 512.7 C-60.6 512.6 -65.6 512.2 -70.8 511.5 C-75.1 511.1 -79.4 510.7 -83.7 510.4 C-84.2 510.4 -84.2 510.4 -87.1 510.1 C-93.7 509.6 -100.2 509.3 -106.8 509.5 C-106.7 513.2 -106.6 516.9 -106.4 520.6 C-106.4 521.7 -106.4 522.8 -106.3 523.8 C-106.3 524.9 -106.3 525.9 -106.2 526.9 C-106.2 527.9 -106.1 528.8 -106.1 529.8 C-105.4 535.5 -103.2 538.3 -99 542 C-93.6 547.3 -90.8 552.6 -87.8 559.5 C-86.8 561.5 -85.8 563.5 -84.7 565.6 C-84.2 566.6 -83.8 567.6 -83.3 568.6 C-82.3 570.5 -81.3 572.3 -80.3 574.2 C-77.4 579.6 -76 583.3 -76.8 589.5 C-78.2 593 -79.4 594.2 -82.5 596.3 C-87.8 598.2 -92.5 597.8 -97.8 596.5 C-96.9 600.9 -96 605.2 -94.2 609.3 C-92.2 614.3 -92.1 619.2 -92.8 624.5 C-94.8 628.4 -96.2 630 -99.8 632.5 C-103.4 632.6 -106.9 632.4 -110.4 632.2 C-114.1 632.5 -115.1 633.1 -117.8 635.5 C-122.6 637 -126.6 636.9 -131.2 634.7 C-133.2 633.6 -134.7 632.6 -136.2 630.9 C-138.3 629 -139.8 628.9 -142.5 628.6 C-151 627 -155.8 623 -161.2 616.3 C-165.8 608.1 -167.6 599.6 -168.5 590.3 C-168.7 589.2 -168.8 588.1 -168.9 587 C-170.1 575.2 -171.4 562.9 -167.8 551.5 C-167.5 551.1 -167.1 550.8 -166.8 550.5 C-166.6 546.3 -167.1 542.6 -168 538.5 C-168.3 537.4 -168.6 536.3 -168.9 535.1 C-170.4 528.9 -172.1 522.7 -173.8 516.5 C-174.5 516.5 -175.1 516.5 -175.8 516.5 C-176.1 515.1 -176.5 513.8 -176.8 512.5 C-179.7 518.4 -181 524.4 -182.3 530.9 C-182.5 532 -182.7 533.1 -182.9 534.3 C-188.4 562.9 -189.4 591.9 -190.4 620.9 C-191 636.6 -192.1 652.2 -193.4 667.8 C-194.3 679.4 -195.1 690.8 -194.8 702.5 C-185.2 705.7 -175.6 707.8 -165.7 709.5 C-164.2 709.8 -162.7 710 -161.2 710.3 C-158.3 710.8 -155.4 711.3 -152.6 711.8 C-149.6 712.3 -146.7 712.8 -143.7 713.4 C-132.9 715.3 -122 716.4 -111 717.6 C-110.7 717.6 -110.7 717.6 -108.7 717.8 C-91.5 719.7 -74.5 720.7 -57.2 720.6 C-56.7 720.6 -56.7 720.6 -54.3 720.6 C-42 720.6 -29.7 720.5 -17.4 718.8 C-14.3 718.4 -11.2 718 -8 717.6 C14.1 714.9 36 710.5 57.2 703.5 C57.4 689.7 57 676.2 56 662.5 C55.9 662.1 55.9 662.1 55.8 659.8 C52 609.1 47.4 556 31.2 507.5 C28.3 507.5 25.9 507.9 23 508.5 Z M9.3 515.3 C8.9 515.7 8.9 515.7 7.2 517.5 C6.7 517.8 6.7 517.8 4.2 519.5 C5 526.4 6.7 533.1 8.3 539.9 C8.5 541.1 8.8 542.3 9.1 543.6 C9.8 546.5 10.5 549.5 11.2 552.5 C13.9 549.8 15.9 547.6 17.5 544.1 C17.6 543.8 17.6 543.8 18.5 542 C20.4 535.5 18.7 529.8 16.8 523.6 C16.5 522.9 16.3 522.1 16.1 521.3 C14.4 515.8 14.4 515.8 13.2 513.5 C11.2 513.5 11.2 513.5 9.3 515.3 Z M-13.8 516.5 C-14.9 524.2 -14.9 531.7 -14.8 539.5 C-12.1 537.5 -9.4 535.5 -6.8 533.5 C-6 532.9 -5.1 532.3 -4.3 531.6 C-1.9 528.2 -2.5 524.5 -2.8 520.5 C-3.4 520.3 -4 520.1 -4.7 519.8 C-5.5 519.6 -6.3 519.3 -7.2 519 C-8 518.8 -8.8 518.5 -9.6 518.2 C-11.8 517.5 -11.8 517.5 -13.8 516.5 Z M-7.6 539.8 C-11.6 543.4 -11.6 543.4 -14 544.7 C-16.8 547.5 -16.7 550.9 -17 554.6 C-17.1 555 -17.1 555 -17.3 556.9 C-17.8 561.7 -17.9 566.6 -17.8 571.5 C-6.2 565.2 -6.2 565.2 -3.8 560.5 C-2.8 552.5 -2.7 544.5 -2.8 536.5 C-4.7 536.5 -6.2 538.6 -7.6 539.8 Z M21.2 546.5 C20.7 547.2 20.2 548 19.7 548.8 C19.4 549.3 19.4 549.3 17.8 551.9 C17.4 552.4 17.4 552.4 15.8 555 C14.2 557.5 14.2 557.5 13.2 558.5 C12.7 565.4 13.4 572.4 14.1 579.3 C14.2 580.2 14.3 581.1 14.4 582 C14.8 586.2 15.3 590.3 16.2 594.5 C19.6 593 21.6 591.3 24 588.5 C24.6 587.8 25.2 587.1 25.8 586.4 C29.4 578.7 26.9 569.1 25.3 561 C25.2 560.1 25 559.1 24.8 558.1 C24 553.9 23.3 550.3 21.2 546.5 Z M-5.8 568.5 C-6.1 568.7 -6.1 568.7 -7.8 570.1 C-8.3 570.5 -8.3 570.5 -10.5 572.3 C-11.4 573.1 -12.3 573.8 -13.2 574.5 C-15.8 576.5 -15.8 576.5 -17.9 577.3 C-19.8 578.5 -19.8 578.5 -20.5 580.3 C-20.7 581.1 -20.8 581.8 -20.9 582.6 C-21 583.4 -21.1 584.2 -21.3 585 C-21.4 585.9 -21.5 586.8 -21.6 587.6 C-21.7 588.5 -21.9 589.3 -22 590.2 C-22.8 595.7 -23.6 601.5 -20.6 606.4 C-17.8 608 -16 608 -12.8 607.5 C-9.1 603.7 -8.2 600.7 -7.5 595.6 C-7.4 594.9 -7.3 594.3 -7.2 593.6 C-7.1 592.2 -6.9 590.9 -6.7 589.5 C-6.5 587.4 -6.2 585.3 -5.9 583.2 C-4.5 572.2 -4.5 572.2 -5.8 568.5 Z M27.2 590.5 C26.7 591.1 26.1 591.7 25.6 592.4 C25.2 592.8 25.2 592.8 23.4 594.8 C22.7 595.6 22 596.5 21.2 597.3 C19.2 599.5 19.2 599.5 16.2 601.5 C15.5 605.5 15.7 609.7 15.8 613.8 C15.7 614.9 15.7 616.1 15.7 617.2 C15.7 625.6 15.7 625.6 18 629.7 C20.2 631.5 20.2 631.5 23.2 632.1 C26.2 631.5 26.2 631.5 28.4 629.5 C30.9 625.3 30.7 621.9 30.5 617 C30.5 616.1 30.5 615.3 30.5 614.4 C30.4 611.7 30.3 609.1 30.2 606.5 C30.2 605.7 30.1 605 30.1 604.2 C29.7 592.9 29.7 592.9 27.2 590.5 Z M-157.8 717.5 C-157.9 718.7 -157.9 719.9 -158 721.2 C-158.3 725.8 -158.6 730.4 -158.9 735 C-159 737 -159.1 739 -159.2 741 C-160.1 755.8 -162.2 768.8 -167.5 782.7 C-170.2 790.1 -171.3 796.5 -168.5 804 C-165.8 808 -165.8 808 -163.8 809.5 C-160.8 809.8 -160.8 809.8 -157.2 809.8 C-155.9 809.7 -154.6 809.7 -153.2 809.7 C-151.9 809.7 -150.5 809.7 -149.1 809.6 C-147.7 809.6 -146.3 809.6 -145 809.6 C-141.6 809.6 -138.2 809.5 -134.8 809.5 C-134.6 808.7 -134.4 807.9 -134.2 807.1 C-130.4 791.3 -123.4 779.1 -109.6 770 C-104.3 767.1 -98.6 765.3 -92.8 763.5 C-93.1 763.1 -93.1 763.1 -94.8 761.4 C-99.4 754.7 -97 744.1 -95.8 736.4 C-95.7 735.9 -95.7 735.9 -95.2 733.4 C-94.8 730.4 -94.8 727.5 -94.8 724.5 C-95.6 724.4 -96.4 724.3 -97.2 724.2 C-113 722.8 -128.7 721.2 -144.3 718.7 C-145.4 718.6 -146.4 718.4 -147.5 718.2 C-148.4 718.1 -149.3 717.9 -150.2 717.8 C-152.8 717.5 -155.2 717.4 -157.8 717.5 Z M15.8 719.8 C5.7 722.2 -4.7 723.1 -15.1 724.1 C-17.2 724.4 -19.3 724.6 -21.4 724.8 C-26.6 725.4 -31.7 725.9 -36.8 726.5 C-36.8 727.5 -36.9 728.6 -36.9 729.8 C-37.1 733.9 -37.3 737.9 -37.5 742 C-37.6 743.8 -37.6 745.6 -37.7 747.3 C-38.1 756.4 -38.5 765.1 -41.1 773.9 C-41.9 776.8 -42.4 779.6 -42.8 782.5 C-41.9 782.8 -41 783.1 -40.1 783.5 C-39.5 783.7 -39.5 783.7 -36.5 784.8 C-36 785.1 -36 785.1 -33 786.2 C-26 789 -26 789 -24.7 791.8 C-24.4 792.7 -24.1 793.6 -23.8 794.5 C-23.1 795.8 -22.5 797.1 -21.8 798.5 C-21.8 802.1 -21.8 805.7 -21.8 809.5 C-14.5 809.5 -7.3 809.5 0.2 809.5 C0.6 807.3 0.9 805.1 1.3 802.8 C3.7 789.7 10 777.3 21.1 769.4 C23 768.2 24.9 767 26.9 765.9 C29.2 764.5 29.2 764.5 31.2 762.5 C30 761.9 28.9 761.4 27.7 760.8 C25 758.9 24.3 757.9 23.7 754.6 C23.6 747.2 24.5 739.8 25.5 732.5 C26.1 727.8 26.3 723.2 26.2 718.5 C22.5 718.3 19.4 718.8 15.8 719.8 Z M-88.8 725.5 C-91.8 746.5 -91.8 746.5 -91.8 755.5 C-87.6 760.2 -84.1 761.8 -78.2 763.7 C-68 767.1 -57.1 771.3 -49.8 779.5 C-47.4 777.1 -47.1 775.5 -46.2 772.3 C-46 771.4 -45.7 770.4 -45.5 769.5 C-44.1 763.5 -43.7 757.7 -43.7 751.6 C-43.7 750.9 -43.7 750.3 -43.7 749.6 C-43.7 747.3 -43.7 744.9 -43.7 742.5 C-43.8 737.2 -43.8 731.9 -43.8 726.5 C-58.6 726.1 -73.5 725.8 -88.8 725.5 Z M-119.8 786.5 C-125.9 794.9 -128.7 803.2 -129.8 813.5 C-131.9 815.6 -136.8 814.7 -139.8 814.7 C-141.6 814.7 -143.5 814.8 -145.3 814.8 C-148.2 814.9 -151.2 814.9 -154.1 814.9 C-156.9 815 -159.7 815 -162.6 815.1 C-163.4 815.1 -164.3 815.1 -165.2 815.1 C-165.6 815.1 -165.6 815.1 -167.7 815.2 C-168.4 815.2 -169.1 815.2 -169.9 815.2 C-171.8 815.5 -171.8 815.5 -174.8 817.5 C-175.5 823.5 -175.5 823.5 -173.6 826.2 C-171 828 -169.1 827.8 -166 827.8 C-165.3 827.8 -165.3 827.8 -162.3 827.9 C-160.9 827.9 -159.5 827.9 -158.2 827.8 C-156.8 827.9 -155.3 827.9 -153.9 827.9 C-150.1 827.9 -146.2 827.9 -142.3 827.9 C-138.3 827.9 -134.2 827.9 -130.2 827.9 C-123.4 827.9 -116.6 827.9 -109.8 827.9 C-101.9 827.8 -94.1 827.8 -86.2 827.9 C-79.5 827.9 -72.7 827.9 -66 827.9 C-61.9 827.9 -57.9 827.9 -53.9 827.9 C-50.1 827.9 -46.3 827.9 -42.5 827.9 C-41.1 827.9 -39.7 827.9 -38.3 827.9 C-36.4 827.9 -34.5 827.9 -32.6 827.8 C-31.6 827.8 -30.5 827.8 -29.4 827.8 C-26.8 827.5 -26.8 827.5 -25 826.1 C-23.1 823.5 -23.4 821.5 -23.8 818.5 C-24.9 816.8 -24.9 816.8 -26.8 815.5 C-29.9 815.1 -29.9 815.1 -33.8 815 C-34.6 815 -35.3 815 -36 815 C-38.4 815 -40.7 815 -43.1 814.9 C-44.7 814.9 -46.3 814.9 -48 814.9 C-52.3 814.8 -56.5 814.8 -60.8 814.8 C-65.2 814.8 -69.6 814.7 -74 814.7 C-82.6 814.6 -91.2 814.5 -99.8 814.5 C-99.9 804.2 -95.4 795.4 -88.4 787.9 C-80.9 781.3 -72.3 779.4 -62.8 777.5 C-66 774 -69.4 772.6 -73.7 770.8 C-74.4 770.5 -75.1 770.1 -75.8 769.8 C-91.8 762.8 -109.6 774.3 -119.8 786.5 Z M16.2 781.7 C8.6 792.2 6.5 801.7 5.2 814.5 C-2.4 814.8 -10 815.1 -17.8 815.5 C-17.8 819.4 -17.8 823.4 -17.8 827.5 C-3 827.5 11.8 827.6 26.6 827.6 C33.5 827.6 40.4 827.7 47.3 827.7 C53.9 827.7 60.5 827.7 67.2 827.7 C69.7 827.8 72.2 827.8 74.8 827.8 C78.3 827.8 81.9 827.8 85.4 827.8 C85.9 827.8 85.9 827.8 88.6 827.8 C89.6 827.8 90.5 827.8 91.5 827.8 C91.9 827.8 91.9 827.8 94.1 827.8 C96.7 827.4 97.6 826.6 99.2 824.5 C99.8 819.4 99.8 819.4 98.1 816.8 C95.4 814.9 93.5 815.1 90.3 815 C89 815 87.8 815 86.6 815 C85.9 815 85.9 815 82.6 814.9 C81.2 814.9 79.8 814.9 78.5 814.9 C74.9 814.8 71.3 814.8 67.7 814.8 C64.1 814.8 60.4 814.7 56.7 814.7 C49.6 814.6 42.4 814.5 35.2 814.5 C35.2 812.9 35.2 811.3 35.2 809.7 C35.2 809.2 35.2 809.2 35.1 807 C35.3 798.9 39.7 791.1 45.2 785.5 C50.5 781 55.4 778.7 62.2 777.5 C58.6 774.4 54.7 772.7 50.4 770.8 C49.7 770.5 49 770.1 48.3 769.8 C35.1 764 24.7 771.5 16.2 781.7 Z M47.2 791.5 C43.2 797.9 41.2 801.7 41.2 809.5 C52.8 809.5 64.3 809.5 76.2 809.5 C77.9 806 77.8 802.3 77.2 798.5 C73.5 793.6 66.9 792.8 61.2 791.5 C60.9 789.8 60.5 788.2 60.2 786.5 C77.4 789.6 77.4 789.6 82.1 796.1 C83.6 800.7 83.4 804.6 83.2 809.5 C86.8 809.5 90.5 809.5 94.2 809.5 C95.3 807.2 95.5 805.8 95.6 803.3 C95.7 802.9 95.7 802.9 95.8 801 C94.8 796.9 92.4 794.2 89.2 791.5 C86.1 789.7 82.8 788.4 79.5 787.1 C78.6 786.7 77.7 786.4 76.8 786.1 C75.3 785.4 73.7 784.8 72.1 784.2 C70.2 783.5 70.2 783.5 68.2 782.5 C60.7 781.3 52.3 786.2 47.2 791.5 Z M-87.6 795.3 C-91.1 799.6 -93.8 803.8 -93.8 809.5 C-85.4 809.5 -76.9 809.6 -68.5 809.6 C-64.6 809.6 -60.6 809.7 -56.7 809.7 C-52.9 809.7 -49.2 809.7 -45.4 809.7 C-43.9 809.8 -42.5 809.8 -41 809.8 C-39 809.8 -37 809.8 -35 809.8 C-34.4 809.8 -34.4 809.8 -31.5 809.8 C-31.1 809.8 -31.1 809.8 -28.8 809.5 C-26.7 806.2 -26.5 805.7 -26.9 802.1 C-27 801.7 -27 801.7 -27.1 799.8 C-28.1 796.4 -29.2 794.9 -31.8 792.5 C-35.1 790.8 -38.5 789.5 -41.9 788.2 C-43.7 787.5 -45.6 786.8 -47.4 786.1 C-48.2 785.8 -49 785.5 -49.8 785.2 C-51.8 784.5 -51.8 784.5 -53.8 783.5 C-67 782.4 -78.5 785.5 -87.6 795.3 Z " fill="#120606" transform="translate(545.796875,101.5390625)"/>
<path d="M0 0 C2.7 2.3 5.3 4.8 7.8 7.3 C10 9 10 9 12.1 8.9 C14.1 7.9 15.4 6.9 17 5.3 C27.1 -3.7 38 -5.6 51 -5.1 C63 -4.3 72.9 2 81 10.5 C86.7 17.5 89.9 25.3 92 34 C93.1 34 94.1 34 95.2 33.9 C108.5 33.7 120 34.8 130.3 44.2 C137.3 51.8 141.6 61.8 141.4 72.2 C140.8 76.7 139.3 80.8 137.8 85 C136.9 88.2 136.9 89.9 138 93 C139.4 94.2 140.9 95.3 142.3 96.4 C148.7 102.4 151.6 110.7 152.2 119.2 C152.6 130.2 150.9 138.1 143.6 146.4 C139.8 150.4 136.2 154 130.9 155.7 C130.6 155.9 130.6 155.9 129 157 C128.6 160.2 128.6 160.2 128.6 164.1 C128.3 172.1 126.6 177.2 121 183.1 C117.8 186 115.4 188.2 111 189 C111.4 179.2 113.6 169.8 115.5 160.3 C116.1 157.5 116.7 154.7 117.2 151.9 C117.3 151.1 117.5 150.3 117.7 149.5 C118 147 118 147 118.1 144 C118.1 141.2 118.2 138.7 119 136 C121.4 134 124.1 133.1 127 132 C129.5 130.1 129.5 130.1 131 128 C131.2 125.2 131.2 125.2 131 123 C127.6 123.6 125.9 124.7 123.4 127 C118.7 131.4 114.2 131.3 107.9 131.3 C102.3 130.7 99.4 127.5 95.7 123.6 C93.4 120.8 92.2 118.7 92 115 C88.5 116.3 85.9 117.8 83 120 C77.2 121.9 70.2 122.4 64.5 119.9 C57.2 114.7 54.8 108.6 53.3 99.9 C53.2 99.3 53.1 98.7 53 98 C52 98 51 98 50 98 C49.8 98.6 49.6 99.3 49.4 99.9 C46.6 107.7 42.7 114 35.5 118.5 C29.5 121.1 22.4 120.9 16 120 C13.8 118.8 12 117.6 10 116 C10.1 115 10.2 114 10.3 113 C10.4 111.7 10.5 110.4 10.6 109.1 C10.7 107.8 10.8 106.6 10.9 105.3 C11 102 11 102 10 100 C5 100.4 2.7 102.8 -1 106 C-6 108.8 -11.1 108.8 -16.6 107.3 C-21.9 105.3 -25.1 103.2 -29 99 C-30.3 99 -31.6 99 -33 99 C-33 99.4 -33 99.4 -32.9 101.6 C-32.7 111.3 -33.7 117.2 -40.3 124.5 C-44.4 128.2 -48.4 129.1 -53.7 129.1 C-54.5 129.1 -55.3 129 -56.2 129 C-56.8 129 -57.4 129 -58 129 C-58.1 129.7 -58.3 130.3 -58.4 131 C-59 134.2 -59.6 137.3 -60.2 140.5 C-60.3 141.1 -60.3 141.1 -60.9 144.1 C-62.2 150.9 -63.5 157.6 -65 164.4 C-71.7 195.8 -75.6 226.1 -57.3 254.6 C-52.1 262.4 -46.4 269.1 -39 275 C-38.5 275.4 -38.5 275.4 -36.1 277.4 C-25.8 285.6 -14.5 294.5 -0.9 294.4 C4.7 293.6 8.2 289.8 12 286 C16.1 285.4 19.9 285.6 23.8 287 C26.5 289.4 27.9 292 29.8 295.1 C31.5 297.8 33 298.9 36 300 C46 301.6 54.6 296.2 62.5 290.6 C70.8 284.5 78.7 277.9 84 269 C84.3 269.7 84.7 270.3 85 271 C83.9 273.4 82.8 275.7 81.6 278 C81.2 278.7 80.8 279.4 80.4 280.1 C77.2 285.9 73.5 291 69 296 C68.2 296.9 67.4 297.9 66.5 298.9 C54.1 312.6 36.6 323 18 324.2 C-7 325 -29.8 310.8 -49 296 C-49.9 295.3 -50.9 294.6 -51.9 293.9 C-65.1 283.7 -76 271.8 -82 256 C-82.4 255 -82.8 253.9 -83.2 252.8 C-89.5 233.2 -85.8 212.2 -82.5 192.3 C-81.7 187 -81.1 181.7 -80.4 176.4 C-79.5 168.4 -78.3 160.5 -76.9 152.5 C-76.3 149.3 -76 146.3 -76 143 C-85.2 140.6 -96.9 138.5 -105.7 142.9 C-106.8 143.6 -107.9 144.3 -109 145 C-109.7 145.3 -110.4 145.6 -111.1 145.9 C-113.5 147.3 -113.9 148.5 -115 151 C-115.4 151.7 -115.9 152.5 -116.3 153.2 C-121 162.1 -121.6 171.3 -119.3 181 C-116.3 189.3 -111.3 195 -103.5 199 C-99.2 200.7 -94.6 201.4 -90 202 C-90.1 202.6 -90.1 202.6 -90.5 205.7 C-91.1 211.7 -91.3 217.6 -91.6 223.6 C-91.6 224.7 -91.6 225.8 -91.7 226.9 C-91.8 229.6 -91.9 232.3 -92 235 C-93.6 234.9 -95.2 234.7 -96.7 234.6 C-97.6 234.5 -98.5 234.4 -99.4 234.4 C-105.9 233.4 -109.8 230.6 -113.9 225.5 C-117.5 220.8 -118.1 217.3 -118.1 211.4 C-118.1 210.5 -118.1 209.5 -118.1 208.6 C-118 206 -118 206 -117 203 C-118.3 202.7 -119.6 202.4 -120.9 202.1 C-128.3 199.6 -134.6 193.9 -138.6 187.2 C-141.7 179.9 -140.9 170.5 -138.1 163.1 C-136.4 159.9 -133.9 157.4 -131.3 154.8 C-130 153 -130 153 -130.1 151 C-131.1 148.8 -132.2 147.5 -133.8 145.8 C-140.6 138.2 -142.3 130.6 -142.2 120.6 C-141.6 110.1 -137.3 102.8 -129.6 95.8 C-125.9 92.7 -121 89 -116 89 C-116.3 88.3 -116.6 87.6 -116.9 86.9 C-121 76.2 -122 64.2 -118 53.2 C-113.4 43.3 -106.5 36 -96.3 31.8 C-95.5 31.6 -94.8 31.3 -94 31 C-93.1 30.6 -92.2 30.3 -91.3 29.9 C-87 28.7 -83.1 28.8 -78.6 28.9 C-77.8 28.9 -77 28.9 -76.1 28.9 C-74.1 28.9 -72 29 -70 29 C-69.8 28.4 -69.5 27.8 -69.3 27.1 C-66.1 18.8 -62.8 11 -56 5 C-55.2 4.2 -54.3 3.4 -53.4 2.6 C-38.1 -10 -16.5 -10.5 0 0 Z " fill="#332737" transform="translate(542,106)"/>
<path d="M0 0 C3.3 2.1 4 4.3 5.5 7.8 C14.2 26.8 31.4 39.4 48.6 50.3 C52 52.7 53.8 55.1 55.6 58.9 C56 59.8 56.5 60.6 56.9 61.5 C57.3 62.4 57.7 63.3 58.2 64.3 C58.4 64.7 58.4 64.7 59.5 67.1 C62.7 73.8 65.5 80.6 68 87.6 C69.5 90.7 70.6 92.5 73.4 94.5 C75.9 95 75.9 95 78.5 94.8 C79.4 94.8 80.2 94.8 81.1 94.8 C83.4 94.5 83.4 94.5 85.4 93.5 C87.2 93.5 89 93.4 90.9 93.3 C103.9 93 114.9 89.6 125.4 81.5 C126 81.1 126.5 80.7 127.2 80.2 C133.2 75.5 139.2 68.4 142.3 61.4 C143.7 58.8 145.6 57.6 147.9 55.8 C148.7 55.2 149.5 54.6 150.4 54 C151 53.5 151.7 53 152.4 52.5 C152.7 52.2 153 51.9 153.4 51.5 C155 51.5 156.7 51.5 158.4 51.5 C175.1 79.9 182.9 120.6 182.4 153.5 C174.7 154.8 167.2 155.8 159.4 155.5 C155.3 155.5 151.4 156 147.4 156.5 C146.4 141.7 146.3 126.9 146.4 112 C146.4 111.3 146.4 110.5 146.4 109.7 C146.4 108.3 146.4 106.9 146.5 105.4 C146.5 103.8 146.4 102.2 146.4 100.5 C145.4 99.5 145.4 99.5 142.8 99.5 C142 99.5 141.2 99.5 140.4 99.5 C139.3 102.5 138.4 105.3 137.8 108.3 C137.4 110.5 137.4 110.5 136.4 111.5 C136.2 113.6 136.1 115.7 136 117.8 C135.5 125.7 133.8 133.2 131.7 140.9 C129.5 149.9 128.4 162.7 131.4 171.5 C132.9 180.6 133.7 189.3 133.4 198.5 C122.1 204 110.7 207.1 98.4 209.5 C97.5 209.7 96.7 209.9 95.8 210 C62.7 216.3 28.2 213.3 -3.6 202.5 C-3 201.8 -2.4 201.1 -1.7 200.4 C3 193.4 1.7 183 0.6 175 C0.3 172.1 0.4 169.2 0.6 166.3 C0.6 161 -0 158.4 -3.6 154.5 C-4.1 154.2 -4.1 154.2 -6.6 152.5 C-7 149.4 -7 149.4 -6.9 145.5 C-6.9 145.2 -6.9 145.2 -6.8 143.5 C-6.7 135.7 -6.2 128.9 -3.6 121.5 C-1.2 112.2 -1.4 103 -1.6 93.5 C-3.9 92.8 -3.9 92.8 -6.6 92.5 C-8.7 94.1 -9.5 95.1 -10.1 97.6 C-10.1 98 -10.1 98 -10.3 100.1 C-10.3 100.5 -10.3 100.5 -10.5 102.9 C-10.5 103.4 -10.5 103.4 -10.6 105.9 C-10.8 108.1 -10.9 110.2 -11.1 112.4 C-11.2 113.5 -11.3 114.7 -11.4 115.9 C-11.9 122.4 -12.5 128.9 -13.1 135.5 C-13.2 136.1 -13.2 136.1 -13.5 139.3 C-13.6 140.5 -13.7 141.7 -13.9 142.9 C-13.9 143.5 -13.9 143.5 -14.2 146.1 C-14.3 146.9 -14.5 147.7 -14.6 148.5 C-17.9 150.2 -21.6 149.6 -25.3 149.6 C-25.7 149.6 -25.7 149.6 -27.7 149.6 C-29.7 149.6 -31.7 149.6 -33.6 149.5 C-33.6 149.2 -33.6 148.9 -33.6 148.5 C-40.6 147.5 -47.4 147.3 -54.4 147.3 C-55.7 147.3 -56.9 147.3 -58.1 147.3 C-71 147.4 -83.8 148.4 -96.6 149.5 C-97.8 145.1 -97.5 141.1 -97 136.7 C-96.9 135.9 -96.8 135.1 -96.8 134.4 C-96.6 132.8 -96.4 131.1 -96.2 129.5 C-95.9 127.1 -95.7 124.7 -95.5 122.3 C-94.5 113.8 -93.2 105.8 -90.6 97.6 C-89.6 94.5 -88.9 91.4 -88.1 88.3 C-86.6 82 -84.3 76.2 -81.6 70.3 C-80.8 67.9 -80.3 65.8 -79.8 63.3 C-78.7 58.2 -76.6 54.3 -73.9 49.9 C-73.7 49.6 -73.7 49.6 -72.6 47.8 C-68.6 41.1 -64.6 35.3 -57.6 31.5 C-56.1 30.2 -54.6 28.9 -53.1 27.5 C-50.1 24.7 -47.2 22.6 -43.6 20.5 C-42.8 20 -42 19.5 -41.1 19 C-39.5 18 -37.8 17.1 -36.2 16.1 C-32.6 13.9 -29 11.8 -25.6 9.3 C-22.5 7.4 -19.6 6.4 -16.1 5.4 C-12.3 4.1 -8.8 2.2 -5.2 0.3 C-2.6 -0.5 -2.6 -0.5 0 0 Z " fill="#CC2B2B" transform="translate(453.6328125,364.46875)"/>
<path d="M0 0 C3 5.3 3.8 11.4 5.1 17.3 C5.3 17.9 5.3 17.9 6 21 C7.8 29.2 8.7 35.5 6.5 43.7 C5.5 48.6 5.7 53.6 5.7 58.6 C5.7 59.7 5.7 60.9 5.7 62.1 C5.8 70.7 6.6 78.6 9 87 C9.4 88.2 9.7 89.4 10.1 90.7 C13.2 100.6 17.6 108.8 26.8 114.1 C30 115.4 33.2 115.8 36.5 116.3 C40.1 117.3 42.5 119.3 45.3 121.7 C47 123 47 123 50 124 C50 124.7 50 125.3 50 126 C51.6 125.7 53.1 125.4 54.7 125.1 C55.6 125 56.4 124.8 57.3 124.6 C60 124 60 124 62.4 123 C66.5 121.4 70.6 121.5 74.9 121.3 C77.9 121 79.6 120.6 82 119 C85.8 113 86.5 107.6 85.1 100.8 C84.9 100 84.7 99.2 84.5 98.3 C84 96 84 96 84 92 C83.3 92 82.7 92 82 92 C82 90.4 82 88.7 82 87 C85 87 87.9 87 91 87 C91 86.3 91 85.7 91 85 C91.9 84.6 92.9 84.2 93.8 83.8 C97.4 81.8 98.5 80.8 100 77 C101.2 69.1 97.7 63.8 94 57 C93.2 55.3 92.3 53.7 91.5 52 C91.1 51.2 90.7 50.4 90.3 49.6 C89.4 47.7 88.5 45.9 87.7 44 C85.1 38.5 82.8 34.6 78.2 30.6 C72.8 25.6 72.3 20.1 72 13 C76 12 79 12.1 83.1 12.8 C99.9 15.4 116.7 16.3 133.8 16.6 C135.7 16.7 137.7 16.7 139.7 16.7 C144.5 16.8 149.2 16.9 154 17 C154.4 38.3 153.5 58.5 149.4 79.4 C148.6 84.8 148.1 89.9 150.2 94.9 C154.3 99.7 154.3 99.7 158 100.3 C163.5 100.6 166.8 99.8 171 96 C172.7 92.5 173.4 89.1 174 85.2 C174.2 84.1 174.3 83 174.5 81.8 C174.6 81.2 174.6 81.2 175 78.2 C175.2 77 175.3 75.7 175.5 74.4 C176.9 64.3 177.9 54.1 178.6 43.9 C178.9 40.2 179.3 36.6 180 33 C180.3 33 180.7 33 181 33 C184.8 52.1 186.8 71.1 187.2 90.6 C187.2 91.3 187.2 92 187.3 92.7 C187.3 95.6 187.4 98.5 187.4 101.3 C187.4 103.5 187.5 105.6 187.5 107.8 C187.5 109 187.6 110.3 187.6 111.5 C188.1 116.2 189.5 119.6 192.9 122.8 C196.8 125 200.7 124.7 205 124 C209.3 121.8 211.9 118.2 214 114 C214.3 110.8 214.3 110.8 214.1 107.2 C214.1 106.9 214.1 106.9 214.1 105.3 C214 103.2 213.9 101.1 213.8 99 C213.8 97.5 213.7 96.1 213.6 94.6 C212.5 68.9 209.7 43 202.8 18.1 C201.9 14.8 201.4 11.4 201 8 C204.6 6.7 207.1 6 211 6 C214 16 216.4 26 218.4 36.2 C218.4 36.6 218.4 36.6 218.8 38.6 C228.4 88.3 235 140.3 234 191 C211.6 197.8 189.2 202.6 165.9 205.7 C165 205.8 164.2 205.9 163.2 206 C149 207.9 134.9 208.2 120.6 208.2 C119.7 208.2 118.8 208.2 117.8 208.2 C104.4 208.2 91.1 207.8 77.8 206.3 C74.9 206 71.9 205.7 69 205.5 C53.4 204.1 38.1 201.7 22.8 199.1 C21.7 198.9 20.7 198.7 19.7 198.5 C-11.4 193.3 -11.4 193.3 -18 190 C-18.4 177.1 -17.3 164.4 -16.3 151.6 C-14.9 134 -13.9 116.4 -13.1 98.8 C-9.4 14.1 -9.4 14.1 0 0 Z " fill="#CC2D2C" transform="translate(369,614)"/>
<path d="M0 0 C0.3 0.1 0.3 0.1 1.8 0.9 C10.3 4.7 18.3 5.4 27.2 2.5 C28.5 2 29.8 1.5 31 1 C31 1.3 31 1.3 31.2 3 C32.3 10.4 32.3 10.4 35.8 13.5 C36.8 14 37.9 14.5 39 15 C39.9 15.4 40.7 15.8 41.6 16.2 C50.6 18.2 59 17.6 67 13 C74.2 7.7 74.2 7.7 76 4 C79 5 79 5 81.1 8.2 C84.7 13.5 90.1 16 96 18 C103.2 18.6 109.3 17.8 116 15 C116.2 15.3 116.2 15.3 117.2 16.6 C122.6 23.2 127.4 26.7 136 27.8 C137.3 27.8 138.7 27.9 140 28 C139.5 38.3 137.8 48 135.8 58.1 C135.5 59.7 135.2 61.2 134.9 62.8 C132.3 75.8 129.5 88.8 126.7 101.8 C126 105.1 125.3 108.3 124.6 111.6 C124.1 113.7 123.7 115.8 123.2 117.9 C123.2 118.3 123.2 118.3 122.6 120.7 C121.7 125.3 120.6 129.6 119 134 C117.7 133.7 116.4 133.3 115 133 C114.7 131.7 114.3 130.4 114 129 C113.3 129 112.7 129 112 129 C111.9 127.3 111.9 125.5 111.9 123.8 C111.9 122.8 111.8 121.8 111.8 120.8 C112 117.9 112.7 116.5 114 114 C114 111.6 114 111.6 113.8 109 C113.7 106.3 113.7 106.3 114 104 C116.9 101.6 116.9 101.6 120 100 C120.9 97.8 120.9 97.8 121 96 C118.9 95.3 118.9 95.3 116 95 C115.2 95.5 114.4 95.9 113.5 96.4 C108.1 98.9 102.9 98.9 97 98 C91.8 95.7 88.2 92.6 85 88 C83.4 88.3 81.7 88.7 80 89 C80.5 93.6 82.4 96.3 85 100 C86.1 102.6 87 105 87.8 107.7 C89 110 89 110 91.6 111.2 C94.2 111.8 96.6 112.2 99.2 112.5 C100.5 112.7 101.7 112.8 103 113 C103.2 117.4 103.5 121.7 103.6 126.1 C103.7 127.6 103.8 129.1 103.9 130.6 C104.3 138.7 104.5 145.5 100.9 153 C99.7 155.6 99.7 157.8 99.8 160.6 C99.4 166 97.7 168.5 93.6 172 C73.4 187.2 73.4 187.2 63 186 C60.5 184 59.4 182 58.2 179 C56.7 175.8 56 175 52.9 173 C48.1 171.4 43 171.3 38 172 C34.6 173.7 32.4 175.7 29.6 178.2 C26.8 180.1 24.8 180.7 21.4 180.5 C9.6 178 -1.8 168.5 -10 160 C-9.4 159.8 -8.8 159.5 -8.2 159.2 C-4.9 157.4 -3.4 155.2 -2.3 151.6 C-1.4 146.7 -0.9 142.2 -1.1 137.2 C-1.2 130.7 0.6 126.4 5.1 121.7 C8.4 118.1 8.6 115.1 8.9 110.4 C9 107.3 9.7 104.8 11 102 C14.4 99.6 17.5 99.9 21.6 99.9 C29.7 99.4 34.1 96.2 40 91 C41.2 90 42.5 89 43.7 88 C44.1 87.7 44.1 87.7 46 86 C45.3 84 44.7 82 44 80 C40.6 80.4 38.3 81.4 35.4 83.1 C29.5 86.1 22.9 86 16.5 84.3 C10.3 81.9 5.7 77.7 1 73 C-0.7 73 -2.3 73 -4 73 C-3.5 76.7 -3.1 78.8 -1 82 C-1.3 84.8 -2.2 87.3 -3 90 C-3.7 90 -4.3 90 -5 90 C-5 91.3 -5.1 92.6 -5.1 94 C-5.2 95.7 -5.3 97.5 -5.4 99.2 C-5.4 99.6 -5.4 99.6 -5.5 101.8 C-5.8 108.2 -6.5 112.7 -10.9 117.5 C-16.5 123.5 -17.6 128.3 -18.2 136.3 C-18.3 137.2 -18.4 138.2 -18.4 139.1 C-18.6 141.4 -18.8 143.7 -19 146 C-20.3 146.3 -21.6 146.7 -23 147 C-38.7 125.1 -40.8 101.1 -36.5 75 C-36 71.5 -35.3 68 -34.7 64.6 C-34.5 63.7 -34.4 62.9 -34.2 62 C-32.6 53.4 -30.8 44.9 -28.6 36.4 C-27.8 33.3 -27.4 30.2 -27 27 C-26.4 26.8 -25.9 26.7 -25.3 26.5 C-16.8 23.8 -8.7 21.1 -4 13 C-2.4 8.7 -1.1 4.4 0 0 Z M60 33 C60 33.8 59.9 34.6 59.9 35.5 C59.8 36.6 59.7 37.6 59.6 38.8 C59.6 39.8 59.5 40.9 59.4 42 C59 44.8 58.3 46.5 57 49 C57.4 51.8 57.4 51.8 58 54 C61.9 52.5 63.2 50.7 65 47 C65.3 44 65.3 44 65.2 40.8 C65.2 39.8 65.2 38.7 65.2 37.6 C65 35 65 35 64 33 C62.7 33 61.4 33 60 33 Z M31.8 43.8 C27.5 45.6 23.9 46.1 19.3 46.2 C18.2 46.2 17.1 46.3 16 46.3 C13.7 46.3 11.3 46.4 9 46.4 C7.9 46.5 6.8 46.5 5.7 46.5 C4.7 46.5 3.7 46.6 2.7 46.6 C-0.4 47.1 -1.8 47.8 -4 50 C-4.7 55.9 -4.7 55.9 -2.7 58.9 C2.2 62.1 8.3 61.2 13.9 61.2 C15 61.3 16.1 61.3 17.2 61.3 C28.8 61.4 41.6 59.3 50.8 51.5 C52 50 52 50 52.4 47.1 C52 44 52 44 50.4 41.6 C47.9 39.9 46.2 39.4 43.2 39.5 C39.2 40.4 35.5 42.1 31.8 43.8 Z M87.6 49.9 C85.7 52.5 85.1 54.5 85.3 57.7 C87.9 66.3 98 73.3 105.6 77.4 C110.6 80 114.9 82.1 120.5 82.2 C121.3 82.3 122 82.3 122.8 82.3 C125.5 81.9 126.4 81.2 128 79 C128.6 73.8 128.6 73.8 126.8 71.5 C124.5 69.6 122.2 68.8 119.4 67.8 C111.4 64.5 105.7 60.3 100.4 53.6 C97.9 50.7 97.2 50.1 93.3 48.8 C90 49 90 49 87.6 49.9 Z M69 74 C67.4 78.1 68.6 81.9 69.4 86.1 C70.7 92.8 71.3 99.3 71.4 106.2 C71.4 107 71.4 107.7 71.4 108.5 C71.4 113.6 70.8 119.2 67 123 C63.9 123.4 61 123.5 58 123 C55.1 120.6 55.1 120.6 53 118 C52.3 117.3 51.7 116.7 51 116 C48.9 116.4 48.9 116.4 47 117 C46.6 119.1 46.6 119.1 47 122 C50.5 125.9 54.9 129.6 60.1 130.3 C65.2 130.3 68.8 130 73 127 C78.4 120.9 78.7 115 78.5 107.1 C78.5 106 78.5 104.9 78.5 103.8 C77.8 78.8 77.8 78.8 73 74 C71.7 74 70.4 74 69 74 Z M16 146 C16.3 147.3 16.7 148.6 17 150 C19.3 150.8 20.5 151.2 22.9 150.3 C23.5 149.9 24.1 149.6 24.8 149.2 C34.8 143.9 47.5 143.2 58.5 146.1 C64.6 148.3 69.9 151.8 73.2 157.4 C73.8 158.2 74.4 159.1 75 160 C77.8 160.4 77.8 160.4 80 160 C80.6 156.8 80.5 154.7 78.7 152 C72.2 144.2 63.7 138.9 53.5 137.7 C50.9 137.6 48.3 137.5 45.8 137.6 C44.8 137.6 43.9 137.6 43 137.6 C33.1 137.8 23.9 139.7 16 146 Z M40 155 C39.3 156.3 38.7 157.6 38 159 C41 160.7 43 161.2 46.4 161 C50.2 160.9 52.6 161.5 56 163 C58.3 162.6 58.3 162.6 60 162 C59.9 160.2 59.9 160.2 59 158 C53.5 153.7 46.6 154.7 40 155 Z " fill="#F8B695" transform="translate(515,215)"/>
<path d="M0 0 C1 0 1.9 0 3 0 C5.3 0 7.7 0 10.1 0.1 C11 2.7 11.3 4.5 11.5 7.2 C11.5 7.6 11.5 7.6 11.6 9.7 C11.7 10.1 11.7 10.1 11.8 12.4 C11.9 14.3 12.1 16.3 12.2 18.2 C12.4 21.2 12.6 24.2 12.7 27.2 C13.2 33.8 13.6 40.5 14.1 47.1 C14.2 47.5 14.2 47.5 14.3 49.5 C14.5 51.7 14.7 53.9 14.9 56.1 C15 56.7 15 56.7 15.3 59.8 C16.6 65 19.9 67.8 23.7 71.6 C28.6 76.6 31.3 81.4 34 87.8 C36.2 93 38.5 98 41.6 102.8 C43.9 106.4 45.1 108.8 44.1 113.1 C43.1 114.9 43.1 114.9 41.1 116.1 C36.5 116.6 34.3 116.8 30.3 114.4 C26.5 110.3 24.7 106.3 23.1 101.1 C22.1 101.1 21.1 101.1 20.1 101.1 C19.3 113 22 123.9 26.4 135 C28.3 139.8 28.8 144.1 27.1 149.1 C25.1 151.6 24.5 152 21.2 152.5 C17.4 152 16 150.7 13.1 148.1 C7.7 139.9 5.3 130.5 3.1 121.1 C1.8 120.7 0.5 120.4 -0.9 120.1 C-1.8 129.2 1.7 139.5 6.5 147.2 C8.1 150.1 8.1 150.1 8 152.4 C7.1 154.1 7.1 154.1 5.1 155.1 C1.5 155.5 -0.6 155.2 -3.9 153.6 C-12.8 146 -16.8 134.5 -17.9 123.1 C-19.2 122.7 -20.5 122.4 -21.9 122.1 C-22.2 129.1 -21.2 134.5 -18.9 141.1 C-18.5 142.3 -18.1 143.5 -17.7 144.7 C-17.4 145.5 -17.2 146.3 -16.9 147.1 C-22.8 146.3 -25.9 143.3 -29.9 139.1 C-40.4 124.2 -42 100.5 -39.4 82.9 C-39.1 81.4 -38.7 79.9 -38.4 78.4 C-36.9 71.2 -38.2 64.3 -39.8 57.2 C-40 56.3 -40.2 55.4 -40.4 54.5 C-41 51.6 -41.7 48.7 -42.3 45.8 C-47.6 22.2 -47.6 22.2 -47.9 11.1 C-38.3 5.3 -27.7 3.3 -16.9 1.1 C-15.9 0.9 -14.9 0.6 -13.9 0.4 C-9.3 -0.1 -4.7 -0 0 0 Z " fill="#F9B695" transform="translate(419.875,576.9375)"/>
<path d="M0 0 C0 0.7 0.1 1.4 0.1 2.1 C0.4 8.8 0.7 15.4 1 22.1 C1.2 25.5 1.3 28.9 1.5 32.4 C2.1 45.6 2.7 58.7 5 71.8 C8.9 93.9 6.5 113.9 -5.7 132.8 C-9.4 138 -13 142.4 -19 145 C-22.1 145.4 -22.1 145.4 -25 145 C-27.5 142.8 -27.9 141.5 -28.3 138.3 C-27.8 132.1 -24.6 126.9 -21 122 C-18.2 120.1 -16.4 119.7 -13 119 C-12 118.7 -11 118.3 -10 118 C-9.1 116 -9.1 116 -8 113 C-7.3 111.5 -6.7 110 -6 108.6 C-3.3 102.5 -1.7 97.8 -2 91 C-3.3 90.7 -4.6 90.3 -6 90 C-6.1 90.7 -6.3 91.5 -6.4 92.2 C-10.7 111.1 -10.7 111.1 -18 116 C-21.1 115.8 -21.1 115.8 -24 115 C-27.1 110.3 -26.4 105.5 -26 100 C-25.5 97.6 -24.8 95.4 -24 93 C-23.3 88.2 -25.2 85.9 -28 82 C-29.7 76.8 -29.3 71.3 -28 66 C-29.6 66 -31.3 66 -33 66 C-34.3 71.9 -35.6 77.9 -37 84 C-39.4 81.6 -39.5 80.5 -40.1 77.2 C-40.3 76.2 -40.5 75.2 -40.6 74.2 C-40.8 73.1 -41 72 -41.2 70.9 C-43.2 60.6 -45.5 50.4 -48 40.2 C-50.7 29.6 -50.7 29.6 -51 25 C-49.7 23.3 -48.3 21.7 -47 20 C-45.5 14.4 -46 10.4 -48 5 C-36.4 3.5 -24.9 2 -13.3 0.8 C-12.5 0.7 -11.8 0.6 -11 0.6 C-7.3 0.2 -3.7 -0 0 0 Z " fill="#F7B695" transform="translate(634,580)"/>
<path d="M0 0 C0.4 0 0.4 0 2.5 0 C43.8 0.1 43.8 0.1 51 7.2 C51.6 10.2 51.6 10.2 51.6 13.6 C51.6 14.8 51.6 16 51.6 17.3 C51.6 18.6 51.6 19.9 51.6 21.2 C51.6 22.5 51.6 23.7 51.6 25.1 C51.5 35.6 51.5 35.6 47 40.2 C43.8 41.8 40.4 41.4 37 41.5 C35.3 41.5 33.6 41.5 31.9 41.5 C31 41.6 30.1 41.6 29.2 41.6 C14.7 41.8 0.4 42.3 -13.9 43.7 C-15.2 43.8 -16.5 43.9 -17.8 44.1 C-23.9 44.7 -29.9 45.5 -35.9 46.8 C-40.9 47.8 -44.6 48.1 -49.2 45.3 C-51.8 43 -52.4 41.3 -52.7 37.8 C-52.8 36.1 -52.8 34.5 -52.8 32.8 C-52.8 27.2 -52.9 22.6 -55 17.2 C-55.5 13.6 -55.3 11.8 -53.5 8.6 C-41.2 -2.9 -15.6 -0 0 0 Z " fill="#E15655" transform="translate(398,518.75)"/>
<path d="M0 0 C6 0.6 11.8 1.5 17.7 2.8 C32.1 5.8 46.3 7.2 61 8 C61 9.2 61.1 10.3 61.1 11.5 C61.1 13.1 61.2 14.6 61.2 16.2 C61.3 17 61.3 17.7 61.3 18.5 C61.5 23.6 62.3 26.3 66 30 C65.1 30.3 64.2 30.5 63.3 30.8 C48.6 35.6 37.1 43.9 29.7 57.8 C26.8 63.6 25.5 69.7 24 76 C20 76.1 15.9 76.3 11.9 76.3 C10.5 76.4 9.1 76.4 7.8 76.5 C-3.6 76.9 -3.6 76.9 -7 74.7 C-11.1 70 -11.3 65 -11.3 59.1 C-10.8 53.9 -9 49.2 -7.1 44.4 C-3.6 34.5 -1.6 25.5 -1 15 C-0.9 13.5 -0.8 12.1 -0.7 10.6 C-0.4 7.1 -0.2 3.5 0 0 Z " fill="#F9B694" transform="translate(387,835)"/>
<path d="M0 0 C-0 0.7 -0.1 1.3 -0.1 2 C-0.3 5.1 -0.3 8.1 -0.4 11.2 C-0.5 12.2 -0.6 13.3 -0.6 14.4 C-0.8 22.1 -0.8 22.1 1.6 24.9 C3.5 26.2 3.5 26.2 7 28 C4.9 29.6 2.7 31.2 0.4 32.7 C-12.2 41.4 -20 53.1 -22.9 68.2 C-23.2 70.5 -23.6 72.7 -24 75 C-31.3 75 -38.5 75 -46 75 C-46 71.4 -46 67.7 -46 64 C-48 59.9 -48 59.9 -50 57 C-50 56.3 -50 55.7 -50 55 C-53.5 53.2 -57.1 51.8 -60.8 50.4 C-61.9 49.9 -63.1 49.5 -64.3 49 C-65.2 48.7 -66.1 48.3 -67 48 C-66.7 46.5 -66.4 45 -66.1 43.5 C-66 42.7 -65.8 41.8 -65.6 41 C-65.2 38.8 -64.6 36.6 -64 34.4 C-62.6 29.1 -62.5 23.9 -62.4 18.5 C-62.3 17.5 -62.3 16.5 -62.3 15.4 C-62.2 13 -62.1 10.5 -62 8 C-61.4 8 -60.7 7.9 -60.1 7.9 C-46.3 7.1 -32.7 5.7 -19.1 3.4 C-18.4 3.3 -17.7 3.2 -17 3.1 C-11.6 2.2 -5.4 0 0 0 Z " fill="#FAB795" transform="translate(570,836)"/>
<path d="M0 0 C0.7 0.3 1.4 0.6 2.2 0.9 C7.5 3.3 7.5 3.3 8.6 5.6 C7.8 5.7 7 5.9 6.1 6 C-6.1 8.6 -14.9 12.1 -22.4 22.6 C-26.3 29.3 -28.5 34.7 -28.4 42.6 C-27.9 42.6 -27.9 42.6 -25.6 42.6 C-17.1 42.6 -8.5 42.7 0 42.8 C4.4 42.8 8.8 42.9 13.2 42.9 C17.5 42.9 21.7 43 25.9 43 C27.6 43 29.2 43.1 30.8 43.1 C33.1 43.1 35.3 43.1 37.6 43.1 C38.9 43.1 40.2 43.2 41.5 43.2 C44.6 43.6 44.6 43.6 46.5 44.9 C48.2 47.5 48 49.5 47.6 52.6 C46.5 54.2 46.5 54.2 44.6 55.6 C42 55.9 42 55.9 38.8 55.9 C38.2 55.9 38.2 55.9 35.1 56 C33.7 56 32.4 56 31 56 C29.6 56 28.2 56 26.7 56 C22.9 56 19 56 15.1 56 C11.1 56 7 56 3 56 C-3.8 56 -10.6 56 -17.4 56 C-25.2 55.9 -33.1 55.9 -41 56 C-47.7 56 -54.5 56 -61.2 56 C-65.2 56 -69.3 56 -73.3 56 C-77.1 56 -80.9 56 -84.7 56 C-86.1 56 -87.4 56 -88.8 56 C-90.7 56 -92.6 56 -94.5 55.9 C-95.1 55.9 -95.1 55.9 -97.7 55.9 C-100.4 55.6 -100.4 55.6 -102.2 54.3 C-104.2 51.4 -103.7 48.9 -103.4 45.6 C-100.3 43.5 -99.7 43.3 -96.3 43.3 C-95.9 43.3 -95.9 43.3 -93.8 43.2 C-92.9 43.2 -92.1 43.2 -91.1 43.2 C-90.2 43.2 -89.3 43.1 -88.4 43.1 C-85.5 43.1 -82.6 43 -79.8 43 C-76.9 43 -74 42.9 -71.1 42.9 C-69.3 42.8 -67.5 42.8 -65.7 42.8 C-59.5 42.7 -59.5 42.7 -58.4 41.6 C-58.1 39.8 -57.9 38 -57.7 36.2 C-55.5 22.9 -47.9 12.8 -37.6 4.2 C-25.5 -4.4 -13.3 -6 0 0 Z " fill="#7F4E2B" transform="translate(474.375,873.4375)"/>
<path d="M0 0 C1.8 0.8 3.6 1.7 5.4 2.5 C6.3 3 7.2 3.4 8.2 3.8 C10.4 4.9 12.7 6 14.9 7 C14.9 7.4 14.9 7.7 14.9 8 C14.3 8.2 13.7 8.3 13.1 8.4 C4.6 10.6 -2 14.5 -6.9 21.9 C-10.3 27.9 -12.2 33.4 -12.1 40.3 C-12.1 41.2 -12.1 42.1 -12.1 43 C-12.1 43.3 -12.1 43.3 -12.1 45 C-11.3 45 -10.5 45 -9.8 45 C-2.6 45.1 4.5 45.2 11.6 45.3 C15.3 45.3 19 45.4 22.7 45.4 C26.2 45.4 29.7 45.4 33.3 45.5 C35.3 45.5 37.3 45.5 39.3 45.5 C39.9 45.5 39.9 45.5 43 45.6 C43.5 45.6 43.5 45.6 46.3 45.6 C48.9 46 48.9 46 50.8 47.4 C52.6 50 52.3 52 51.9 55 C50.3 57.2 49.5 57.9 46.8 58.4 C46.4 58.4 46.4 58.4 44.3 58.4 C43.3 58.4 42.3 58.4 41.3 58.4 C40.8 58.4 40.8 58.4 38.1 58.4 C37 58.4 35.9 58.4 34.8 58.4 C31.1 58.4 27.4 58.3 23.7 58.3 C21.2 58.3 18.6 58.3 16.1 58.3 C10 58.3 4 58.3 -2 58.2 C-8.9 58.2 -15.8 58.2 -22.7 58.2 C-36.8 58.2 -50.9 58.1 -65.1 58 C-65.1 54.1 -65.1 50.1 -65.1 46 C-57.5 45.7 -49.9 45.4 -42.1 45 C-41.9 42.8 -41.6 40.6 -41.4 38.3 C-39.8 24.7 -33.2 12.8 -22.5 4.2 C-14.8 -1.4 -9.1 -3.9 0 0 Z " fill="#764627" transform="translate(593.05859375,870.96875)"/>
<path d="M0 0 C4 7.3 5.3 16.5 3.4 24.6 C1.2 31.6 -1.9 37.7 -8 42 C-14.3 44.6 -22.2 46.7 -29 46 C-30 45.3 -31 44.7 -32.1 44 C-37 41 -42.4 41.2 -48 42 C-51.4 43.7 -53.3 45.1 -55.6 48.1 C-59.3 51 -62.7 50.5 -67.3 50.5 C-68.2 50.5 -69.2 50.5 -70.1 50.5 C-72.1 50.5 -74 50.4 -76 50.4 C-78.9 50.4 -81.9 50.4 -84.8 50.4 C-96.5 50.3 -108.1 49.6 -119.7 48.3 C-124.4 47.7 -129.2 47.3 -133.9 46.8 C-138.8 46.3 -143.1 45.2 -148 44 C-148.3 38.1 -148.7 32.1 -149 26 C-146.3 25.5 -143.5 25 -140.8 24.5 C-135.8 23.6 -135.8 23.6 -134 23 C-132.9 21.1 -132.9 21.1 -132 19 C-131.3 18.3 -130.7 17.7 -130 17 C-130.5 20.9 -131.6 23 -134 26 C-127.6 28.7 -121.1 30.6 -114.3 32.1 C-113.6 32.3 -113 32.4 -112.3 32.6 C-99.1 35.5 -85.8 36.4 -72.4 36.3 C-71.6 36.3 -70.9 36.3 -70.1 36.3 C-47.3 36.2 -23 33.7 -2.1 23.9 C0 23 0 23 2 23 C1.9 22.5 1.9 22.5 1.6 19.7 C1.4 18.3 1.2 16.9 1 15.4 C1 15.1 1 15.1 0.7 13.3 C0.1 8.8 -0.1 4.5 0 0 Z " fill="#A21F24" transform="translate(585,540)"/>
<path d="M0 0 C14.9 0.3 29.7 0.7 45 1 C45.1 6.2 45.1 11.3 45.2 16.6 C45.2 17.4 45.2 17.4 45.3 21.5 C45.3 32.9 43.8 43.1 40 54 C39.6 53.6 39.2 53.2 38.8 52.8 C34.3 48.8 29.9 46.2 24.5 43.8 C23.8 43.5 23.1 43.2 22.3 42.8 C20.2 41.9 18.1 40.9 16 40 C15.3 39.7 14.7 39.4 14 39.1 C11.3 38 8.8 36.9 5.9 36.1 C2 34.6 -0.2 33.1 -3 30 C-3 21 -3 21 0 0 Z " fill="#FBFBFB" transform="translate(457,827)"/>
<path d="M0 0 C1.9 3.5 1.8 6.7 1.6 10.6 C1.3 18.3 1.3 18.3 2.4 20.5 C2.5 22.3 2.6 24.1 2.6 25.9 C2.7 26.9 2.7 27.9 2.7 28.9 C2.4 31.5 2.4 31.5 1.1 33.3 C-9.6 40.9 -30.1 37.6 -42.6 37.5 C-43.1 33 -43.6 28.5 -44.1 23.9 C-44.3 22.7 -44.4 21.4 -44.5 20.1 C-44.7 18.8 -44.8 17.6 -45 16.3 C-45.1 15.2 -45.2 14 -45.3 12.9 C-45.6 9.4 -45.7 6 -45.6 2.5 C-41.1 1.9 -36.6 1.4 -32.1 0.8 C-30.5 0.6 -29 0.4 -27.5 0.2 C-4.7 -2.7 -4.7 -2.7 0 0 Z " fill="#E15756" transform="translate(647.61328125,525.4921875)"/>
<path d="M0 0 C0.5 0.1 0.5 0.1 2.8 0.3 C30.5 3.6 58.1 5.1 86 6 C86 10 86 14 86.1 17.9 C86.1 19.1 86.1 20.2 86.1 21.3 C86.1 27.6 85.8 33.7 85 40 C84.7 40 84.3 40 84 40 C84 33.4 84 26.8 84 20 C81.2 20 78.5 20.1 75.6 20.1 C55.1 20.3 35.1 20.1 14.8 17.4 C10.9 16.8 6.9 16.4 3 16 C3.3 20 3.7 23.9 4 28 C2 27 2 27 1.4 25.3 C0.9 22.7 0.8 20.2 0.7 17.6 C0.7 17.1 0.7 17.1 0.6 14.5 C0.5 13.4 0.5 12.3 0.4 11.2 C0.4 10.2 0.4 9.1 0.3 8 C0.2 5.3 0.1 2.7 0 0 Z " fill="#A31F24" transform="translate(439,611)"/>
<path d="M0 0 C1.7 0.6 3.4 1.3 5.1 1.9 C9.7 4 11.2 6.3 13 11 C13.5 15.2 13.4 16.4 11 20 C8.4 20.3 8.4 20.3 5.4 20.2 C4.9 20.2 4.9 20.2 2.3 20.1 C1.6 20.1 0.8 20 0 20 C-0 19.7 -0 19.7 -0.3 18.2 C-1.3 13 -2.6 9.2 -6 5 C-8.9 3.1 -10.6 2.5 -14 2 C-12.6 6.5 -10.4 8.8 -7 12 C-6 14 -6 14 -6 20 C-10.6 20 -15.2 20 -20 20 C-20.3 18.8 -20.5 17.6 -20.8 16.3 C-22.1 11.3 -23.6 8 -28 5 C-29.3 5 -30.6 5 -32 5 C-31.6 8.3 -30.9 9.1 -28.4 11.4 C-26 14 -26 14 -26 20 C-35.2 20 -44.5 20 -54 20 C-52.3 11.6 -48.9 5.2 -42 0 C-27 -8.3 -15.2 -7.3 0 0 Z " fill="#F4B697" transform="translate(506,891)"/>
<path d="M0 0 C1.1 -0 2.2 -0 3.4 -0 C6.5 0.2 8.7 0.9 11.6 2.2 C11.3 4.7 11 7.1 10.7 9.6 C10.6 10.3 10.5 10.9 10.4 11.7 C10 15.2 9.6 17.2 7.6 20.2 C7.1 19.5 6.7 18.7 6.3 17.9 C4.5 15.2 3.5 13.8 0.6 12.2 C-2.2 12 -4.7 12.1 -7.4 12.2 C-7.8 13.2 -8.1 14.2 -8.4 15.2 C-7.8 15.4 -7.2 15.6 -6.6 15.7 C-1.4 17.2 1.7 18.4 4.6 23.2 C8.5 31.9 6.3 41.2 4.6 50.2 C-1.6 50.8 -6.2 49.6 -11.4 46.2 C-17.5 40.9 -20.9 35.2 -21.8 27.1 C-22.1 19 -21.1 13.5 -15.8 7.3 C-10.7 2 -7.4 -0 0 0 Z " fill="#F5B697" transform="translate(448.4375,251.75)"/>
<path d="M0 0 C5.9 0.4 11.8 1.1 17.7 2 C32.8 4.3 47.9 5.6 63 7 C62.8 8.9 62.7 10.8 62.5 12.7 C62.4 13.8 62.4 14.9 62.3 16 C62 19.3 61.5 22.7 61 26 C60.8 25.7 60.8 25.7 60 24 C59.2 24 58.4 24 57.6 24.1 C38.6 24.4 18.1 22 0 16 C0 10.7 0 5.4 0 0 Z " fill="#D88669" transform="translate(388,819)"/>
<path d="M0 0 C2.5 0.9 4.8 1.9 7.2 3 C14.3 6.3 21.2 6.8 29 7 C26.6 10.8 26.6 10.8 24.2 11.7 C20.2 12.2 16.1 12.5 12 12.7 C9 13 9 13 6 14 C5.9 15 5.9 16 5.8 17 C5.3 24.7 4.2 30.5 -0.1 37 C-4.3 43.5 -4.9 48.7 -4.8 56.3 C-5.2 63.4 -8.4 67.9 -13 73 C-17.1 69.6 -20.8 66.3 -24 62 C-23.7 61.3 -23.3 60.7 -23 60 C-22.3 60 -21.7 60 -21 60 C-21.1 58.7 -21.1 57.4 -21.2 56 C-21.4 40.4 -21.4 40.4 -16.1 34.4 C-13.8 32.2 -11.4 30.1 -9 28 C-6.6 24.4 -6.7 21.5 -6.6 17.3 C-6.4 10.9 -5.6 6.4 -2 1 C-1.3 0.7 -0.7 0.3 0 0 Z " fill="#BADDEE" transform="translate(517,301)"/>
<path d="M0 0 C-0.3 6.3 -0.7 12.5 -1 19 C-1.2 18.5 -1.2 18.5 -2 16 C-2.6 16.2 -3.1 16.4 -3.7 16.6 C-10.7 18.8 -17.6 20.1 -24.8 21.1 C-25.9 21.3 -27 21.5 -28.1 21.6 C-39.7 23.4 -51.2 24.1 -63 24 C-63 18.7 -63 13.4 -63 8 C-61.7 7.9 -60.4 7.7 -59.1 7.6 C-54.2 7.1 -49.3 6.6 -44.5 6 C-42.4 5.8 -40.3 5.6 -38.2 5.4 C-17 3.1 -17 3.1 -7.5 0.6 C-5 0 -5 0 0 0 Z " fill="#D8876A" transform="translate(572,820)"/>
<path d="M0 0 C0.8 0.4 1.6 0.7 2.4 1.1 C14.7 6.7 14.7 6.7 17.9 12.2 C18.4 16 18.7 19.7 16.9 23.2 C13.3 23.2 9.7 23.2 5.9 23.2 C6 21.7 6.1 20.2 6.2 18.6 C6.2 13.5 5.5 10 1.9 6.2 C-3.6 2 -10.3 1.1 -17.1 0.2 C-16.7 1.8 -16.4 3.5 -16.1 5.2 C-15.3 5.4 -14.6 5.5 -13.8 5.7 C-2.9 8.4 -2.9 8.4 -0.1 12.2 C0.5 16 0.7 19.7 -1.1 23.2 C-12.6 23.2 -24.2 23.2 -36.1 23.2 C-36.1 14.9 -34 9.1 -28.1 3.2 C-17.7 -3.8 -11.4 -5.4 0 0 Z " fill="#EFB79B" transform="translate(623.0625,887.8125)"/>
<path d="M0 0 C1 0.3 2 0.7 3 1 C3 1.7 3 2.3 3 3 C2.3 3.2 1.6 3.4 0.9 3.6 C-2.4 5.2 -4.7 7.2 -7.4 9.8 C-9 11 -9 11 -11 11 C-11.2 11.7 -11.4 12.3 -11.6 13 C-13.5 17.1 -16.2 20.4 -19 24 C-19.5 24.7 -20 25.5 -20.6 26.2 C-21 26.8 -21.5 27.4 -22 28 C-22.7 28 -23.3 28 -24 28 C-24.2 28.5 -24.2 28.5 -25 31 C-35.1 40 -46.8 45.2 -60.2 45.1 C-61 45.1 -61.7 45.1 -62.5 45 C-64.3 45 -66.2 45 -68 45 C-66.6 42.4 -65.1 39.8 -63.7 37.2 C-62 34 -62 34 -60.9 30.9 C-59.6 27.5 -58.7 25.5 -56 23 C-51.4 21.6 -46.6 21.6 -41.8 21.4 C-35.3 21 -29.9 18.8 -24 16 C-23.5 15.7 -23.5 15.7 -20.7 14.4 C-13.7 10.9 -8.1 6.9 -2.2 1.6 C-1.5 1.1 -0.8 0.6 0 0 Z " fill="#A11E24" transform="translate(608,413)"/>
<path d="M0 0 C0 3.6 0 7.3 0 11 C-0.6 11 -0.6 11 -3.9 11.1 C-21 11.6 -45.1 12.5 -59 24 C-59.5 21.2 -60 18.5 -60.5 15.7 C-60.6 14.9 -60.8 14.1 -60.9 13.3 C-61.1 12.5 -61.2 11.8 -61.3 11 C-61.5 10.3 -61.6 9.6 -61.7 8.9 C-62 7 -62 7 -62 4 C-41.2 0.6 -21.1 -0.2 0 0 Z " fill="#D6856A" transform="translate(430,566)"/>
<path d="M0 0 C3.1 2.1 3.8 3.3 4.6 6.9 C3.9 10.3 2.9 11.7 0.2 13.8 C-10.7 19.9 -21.3 21.2 -33.6 21.2 C-34.7 21.3 -35.8 21.3 -37 21.3 C-38.1 21.3 -39.1 21.3 -40.3 21.3 C-41.2 21.3 -42.2 21.3 -43.2 21.4 C-46.8 20.9 -49.5 19.5 -52 17 C-52.3 13.6 -52.3 13.6 -52 10 C-49.9 7.8 -48.5 7.1 -45.4 6.6 C-44.5 6.6 -43.5 6.6 -42.6 6.6 C-41.5 6.6 -40.5 6.6 -39.4 6.6 C-38.8 6.6 -38.8 6.6 -36 6.6 C-26 6.3 -17.9 5.7 -8.9 0.9 C-5.8 -0.5 -3.3 -0.4 0 0 Z " fill="#0E0605" transform="translate(563,255)"/>
<path d="M0 0 C2.5 1 4.9 2 7.3 3.1 C15.4 6.7 22.4 6.8 31 5 C31.1 6.4 31.1 7.8 31.1 9.2 C31.1 10 31.2 10.8 31.2 11.6 C31 14.3 30.2 15.7 29 18 C28.6 20.8 28.6 20.8 28.4 23.8 C28.3 24.7 28.2 25.7 28.1 26.7 C28.1 27.5 28.1 28.2 28 29 C28.7 29 29.3 29 30 29 C30.3 29.6 30.6 30.3 30.9 30.9 C32 33 32 33 34 34 C33.4 38.5 31.6 42.2 29.4 46.2 C29.1 46.8 28.7 47.5 28.4 48.2 C20.7 62.2 20.7 62.2 15 65 C14.9 63.5 14.8 62.1 14.8 60.6 C14.7 59.8 14.7 59 14.6 58.2 C15 55.1 15.7 53.4 17 50.7 C20 43.5 19.4 36 19.2 28.4 C19.2 26.9 19.2 25.4 19.2 23.9 C19.2 20.3 19.1 16.6 19 13 C17 13 15 13.1 13.1 13.1 C9.7 12.9 7.8 12 5 10 C0 3.5 0 3.5 0 0 Z " fill="#BFDAE8" transform="translate(599,315)"/>
<path d="M0 0 C2.5 2.3 2.5 2.3 4.8 5.2 C11.2 12.6 18.2 16.5 27.2 20.1 C29 21 29 21 31 23 C31.6 28.3 31.6 28.3 29.7 30.7 C27 32.7 24.8 32.5 21.5 32.3 C9.3 30.7 -1.1 22 -9 13 C-11.5 9.2 -11.7 6.4 -11 2 C-7.9 -2.1 -4.6 -1.1 0 0 Z " fill="#0D0604" transform="translate(612,265)"/>
<path d="M0 0 C0 4 0 7.9 0 12 C-10.5 13.6 -21 14.8 -31.5 15.9 C-37 16.5 -42.5 17.2 -48 18 C-48 12.4 -46 9.2 -42.9 4.6 C-37.1 -0.6 -29.7 0.2 -22.3 0.2 C-20.7 0.2 -19.1 0.2 -17.5 0.1 C-11.7 -0 -5.8 0 0 0 Z " fill="#D58368" transform="translate(633,568)"/>
<path d="M0 0 C2.4 0.1 2.4 0.1 5 1 C9.7 10.5 9.3 22.5 9.4 32.9 C9.5 33.9 9.5 35 9.5 36.1 C9.6 43 8.6 47.8 4 53 C-0 55.9 -3.8 56.6 -8.7 56.4 C-13.9 55.5 -18.6 52 -22 48 C-22.2 45.3 -22.2 45.3 -22 43 C-20.3 42.2 -20.3 42.2 -18 42 C-15.4 44.3 -15.4 44.3 -13 47 C-10.6 49.4 -9.9 49.3 -6.6 49.4 C-2.3 49.3 -2.3 49.3 0 47.2 C2.1 42.4 2.2 37.8 2.2 32.6 C2.3 31.7 2.3 30.9 2.3 30.1 C2.2 22.5 1.2 15.1 -0 7.6 C-0.1 7.2 -0.1 7.2 -0.4 5 C-0.6 4.3 -0.7 3.5 -0.8 2.7 C-0.9 2.2 -0.9 1.6 -1 1 C-0.7 0.7 -0.3 0.3 0 0 Z " fill="#CB775C" transform="translate(584,289)"/>
<path d="M0 0 C3.9 3.9 2.8 10.7 3 16 C3 16.8 3.1 17.7 3.1 18.5 C3.2 21.2 3.3 23.9 3.3 26.6 C3.3 27 3.3 27 3.4 29.2 C3.4 33.3 3.3 35.4 1.2 39.1 C-1 41 -1 41 -4 41.6 C-7 41 -7 41 -9.1 39.2 C-12 34.2 -11.8 29.4 -11.8 23.7 C-11.9 22.6 -11.9 21.5 -12 20.3 C-12 15.6 -12.1 12.3 -9 8.5 C-6.6 6.4 -6.6 6.4 -4.1 4.6 C-2 3 -2 3 0 0 Z " fill="#8B5B35" transform="translate(573,692)"/>
<path d="M0 0 C7.5 -0.1 14.9 0.1 22.3 0.6 C23.3 0.6 24.2 0.6 25.2 0.7 C30.1 1 33.1 1.5 36.5 5.2 C38.8 8.3 40.3 11.6 42 15 C38 15 34 15 29.9 15.1 C28.6 15.1 27.2 15.1 25.8 15.1 C23.9 15.1 21.9 15.1 19.9 15.1 C19.3 15.1 19.3 15.1 16.3 15.1 C13.1 15 10.1 14.7 7 14 C5.4 11.9 5.4 11.9 4.2 9.2 C3.9 8.3 3.5 7.4 3.1 6.5 C2.7 5.7 2.4 4.9 2 4 C1.3 2.7 0.7 1.3 0 0 Z " fill="#8D5D35" transform="translate(467,595)"/>
<path d="M0 0 C2.1 -0.4 2.1 -0.4 5 0 C6.8 1.6 8.4 3.4 10.1 5.2 C16.2 11 23.8 12.3 31.9 12.3 C35.7 11.9 38.1 10.8 41.3 9 C43.5 7.7 45.5 7.1 48 7 C50 9 50 9 50.1 11.3 C48.2 16 44.1 18 39.7 20.1 C31.7 22.7 20.9 22.1 13.3 18.5 C7.8 14.9 2.7 10.5 -1 5 C-0.6 2.3 -0.6 2.3 0 0 Z " fill="#0D0807" transform="translate(511,287)"/>
<path d="M0 0 C2.5 4.6 3.2 9.4 4.1 14.6 C4.3 15.5 4.5 16.4 4.7 17.4 C7.7 33.7 7.7 33.7 4.4 40.2 C3.6 41 2.9 41.8 2.2 42.6 C1.5 43.4 0.8 44.3 0 45.1 C-2 47 -2 47 -5 48 C-7.5 28.5 -7.5 28.5 -8 22 C-8.1 21.2 -8.2 20.4 -8.3 19.5 C-8.9 11.9 -5.7 7.8 -1 2 C-0.7 1.3 -0.3 0.7 0 0 Z " fill="#8A5B36" transform="translate(567,648)"/>
<path d="M0 0 C3.1 2.6 6 5 8.1 8.6 C8.3 11.9 8.3 11.9 8.1 14.6 C5.7 14.8 5.7 14.8 3.1 14.6 C1.6 13 1.6 13 0.3 10.9 C-4.4 4 -11.1 1.5 -18.9 -0.4 C-30 -1.4 -41.4 -0.8 -50.9 5.6 C-53.1 5.2 -53.1 5.2 -54.9 4.6 C-55.3 3.2 -55.6 1.9 -55.9 0.6 C-40.2 -10.9 -15.8 -11.6 0 0 Z " fill="#130604" transform="translate(586.9375,360.4375)"/>
<path d="M0 0 C1.9 5.4 0.3 11.3 -0.4 16.8 C-0.7 18.9 -0.9 21 -1.2 23.1 C-1.3 24.4 -1.5 25.8 -1.7 27.1 C-1.9 28.3 -2 29.5 -2.2 30.7 C-3.1 34.4 -4.3 36.3 -7 39 C-10 39.6 -10 39.6 -13 39 C-15.4 37.2 -15.4 37.2 -17 34 C-17.1 31.3 -16.8 28.8 -16.5 26.1 C-16 23 -16 23 -15.9 19.6 C-15.3 11.2 -15.3 11.2 -11.5 7.7 C-8.6 5.9 -8.6 5.9 -5.6 4.4 C-3.2 3.1 -1.8 2 0 0 Z " fill="#8D5D37" transform="translate(540,670)"/>
<path d="M0 0 C5.7 1.8 11.1 4.1 16.6 6.4 C21 8.3 25.4 9.8 30 11 C28 15 26 19 24 23 C23.6 23.7 23.3 24.4 22.9 25.1 C21.2 28 20.2 28.9 16.9 30.1 C14 30 14 30 12.5 28.9 C10.5 26.4 9.5 23.9 8.3 21.1 C7.8 19.9 7.3 18.7 6.8 17.5 C6.3 16.3 5.8 15.1 5.3 13.9 C4.8 12.6 4.3 11.4 3.8 10.2 C0 1.2 0 1.2 0 0 Z " fill="#D58C72" transform="translate(516,424)"/>
<path d="M0 0 C3.8 2.1 6.3 4.7 8.4 8.4 C9.5 13.4 9.7 17.3 7.2 21.8 C3.2 27.6 3.2 27.6 -1.2 28.4 C-7.5 29.3 -7.5 29.3 -10 28 C-10 26 -10 26 -8.6 24.5 C-8 24 -7.5 23.5 -7 23 C-5.2 19.3 -5.5 15 -6 11 C-8.1 7.6 -9.7 6.2 -13 4 C-13 3.3 -13 2.7 -13 2 C-8.7 -0.8 -5 -0.9 0 0 Z " fill="#8C5E38" transform="translate(548,587)"/>
<path d="M0 0 C2.3 0.1 2.3 0.1 5 1 C6.3 2.7 7.7 4.3 9 6 C15.2 10.9 21.3 10.9 29 10 C32.5 8.4 32.5 8.4 35 7 C37.9 7.3 37.9 7.3 40 8 C40.2 8.7 40.2 8.7 41 12 C34.8 17.6 29.1 20.7 20.6 20.3 C12.2 19.2 5.8 15.1 0 9 C-2 6 -2 6 -1.7 3.4 C-1 1 -1 1 0 0 Z " fill="#100A0A" transform="translate(596,302)"/>
<path d="M0 0 C19.6 1.1 19.6 1.1 24.8 6.8 C27.4 10 29.1 12.9 30 17 C23 17.2 16.3 16.6 9.4 15.5 C8.9 15.4 8.9 15.4 6.6 15.1 C4.4 14.7 2.2 14.4 0 14 C0 9.4 0 4.8 0 0 Z " fill="#8B5D36" transform="translate(438,591)"/>
<path d="M0 0 C4 0 7.9 0 12 0 C13.7 11.3 14.5 22.6 15 34 C11.8 35.6 8.6 35.1 5 35 C5 34.6 5 34.6 4.9 32.5 C4.5 24.8 3.5 17.8 1.4 10.4 C0.3 6.7 0 4 0 0 Z " fill="#BE3537" transform="translate(590,529)"/>
<path d="M0 0 C2 2.4 2 2.4 2.6 6 C2 9.4 2 9.4 0.6 11.1 C-3.4 13.2 -7.3 12.8 -11.8 12.6 C-12.6 12.6 -13.5 12.6 -14.4 12.6 C-16.6 12.5 -18.8 12.5 -21 12.4 C-21.3 11.8 -21.7 11.1 -22 10.4 C-22.5 9.5 -22.9 8.6 -23.4 7.6 C-23.8 6.7 -24.3 5.8 -24.7 4.9 C-26 2.4 -26 2.4 -28 -0.6 C-25.3 -0.7 -22.7 -0.9 -20 -1.1 C-19.3 -1.1 -18.5 -1.2 -17.7 -1.2 C-3.9 -2 -3.9 -2 0 0 Z " fill="#8D5E37" transform="translate(535,597.5625)"/>
<path d="M0 0 C0.3 0 0.7 0 1 0 C1 18.5 1 37 1 56 C4 55.3 6.9 54.7 10 54 C13.5 53.8 13.5 53.8 16.6 53.9 C17.6 53.9 18.6 53.9 19.7 53.9 C20.5 54 21.2 54 22 54 C18.1 56.5 13.8 56.7 9.3 57.1 C8.5 57.2 7.8 57.3 7 57.4 C1.6 58 -3.6 58.1 -9 58 C-8.6 46.8 -6.7 36.1 -4.5 25.1 C-4 22.6 -3.5 20.1 -3.1 17.6 C-2.8 16.1 -2.5 14.6 -2.2 13.1 C-1.3 8.7 -0.6 4.4 0 0 Z " fill="#992327" transform="translate(600,465)"/>
<path d="M0 0 C0.7 0 1.3 0 2 0 C2.8 2.4 3.6 4.8 4.4 7.2 C4.7 7.9 4.9 8.6 5.1 9.3 C8.2 18.3 9.4 23.6 5.1 32.4 C2.3 37.8 2.3 37.8 0 39 C-1 34.8 -2 30.6 -2.9 26.4 C-3.2 25.3 -3.5 24.1 -3.8 22.9 C-5.1 17.3 -6.3 11.7 -7 6 C-6 5.4 -5.1 4.8 -4.1 4.1 C-1 2 -1 2 0 0 Z " fill="#8D5F38" transform="translate(557,615)"/>
<path d="M0 0 C0.3 0 0.7 0 1 0 C1.1 3.7 1.1 7.3 1 11 C1 12.1 1 13.3 1 14.4 C0.6 23.2 0.6 23.2 -2.1 26.9 C-2.5 27.3 -2.5 27.3 -5 29 C-5.3 29.3 -5.3 29.3 -7.1 30.6 C-12.7 35 -12.7 35 -14 35 C-13.8 31 -13.5 27.1 -13.2 23.1 C-13.1 20.8 -13 18.6 -13.1 16.2 C-13.1 12.3 -12.6 10.6 -9.8 7.8 C-7.3 5.7 -4.7 3.8 -2 2 C-1.3 1.3 -0.7 0.7 0 0 Z " fill="#8B5E38" transform="translate(542,638)"/>
<path d="M0 0 C0.4 -0 0.4 -0 2.4 -0 C4.4 0.2 4.4 0.2 6.4 2.2 C6.7 6.5 6.8 8.5 4.4 12.2 C1.2 13.4 1.2 13.4 -2.6 14.4 C-3.8 14.7 -5.1 15.1 -6.3 15.4 C-9.6 16.2 -9.6 16.2 -12.6 16.2 C-13.3 11.9 -13.9 7.6 -14.6 3.2 C-5.2 0 -5.2 0 0 0 Z " fill="#8F613A" transform="translate(575.625,588.8125)"/>
<path d="M0 0 C0.3 0 0.7 0 1 0 C1.3 1.2 1.5 2.4 1.8 3.6 C2.7 7.4 4.2 10.6 6 14 C7.2 16.9 7.1 17.7 6 20.7 C4.9 24.4 4.7 27.6 4.8 31.6 C4.7 32.8 4.7 34.1 4.7 35.4 C5 38.8 5.6 41 7 44 C7.7 44 8.3 44 9 44 C8.3 47.7 6.7 50.7 5 54 C4.7 54 4.3 54 4 54 C3.3 48.9 2.6 43.8 1.9 38.6 C1.7 36.9 1.4 35.2 1.2 33.4 C0.9 30.9 0.5 28.4 0.2 25.9 C0.1 25.1 -0 24.3 -0.1 23.5 C-0.3 22.1 -0.5 20.6 -0.7 19.1 C-0.9 17.7 -1.1 16.2 -1.3 14.8 C-1.8 10.9 -2.1 7.8 -1.1 4 C-0.9 3.2 -0.7 2.5 -0.5 1.7 C-0.3 1.1 -0.2 0.6 0 0 Z " fill="#D8AD96" transform="translate(598,655)"/>
<path d="M0 0 C0.7 0.3 1.3 0.7 2 1 C-2.8 5.4 -7.5 9.6 -13 13 C-14 13.7 -15 14.3 -16 15 C-18.3 15.2 -20.6 15.4 -22.9 15.5 C-30.8 15.8 -30.8 15.8 -34 18 C-34.8 20.4 -35 22.6 -35 25.2 C-35.2 32.9 -38.5 37.7 -44 43 C-44.7 43 -45.3 43 -46 43 C-44.9 40 -43.7 37.5 -42 34.8 C-39.7 30.9 -39.1 27.1 -38.4 22.7 C-38.1 20.1 -37.6 17.6 -37 15 C-33.5 12.7 -31.8 12.7 -27.6 12.5 C-21.9 12.2 -18 11.3 -13.2 8.1 C-10.1 6.1 -7.1 4.5 -3.7 2.9 C-2 2 -2 2 0 0 Z " fill="#DBC8BE" transform="translate(560,300)"/>
<path d="M0 0 C3.6 1.3 7.3 2.6 11 4 C11.8 11.8 11.8 11.8 9.6 15.1 C6.4 18.3 3 20.7 -1 23 C-1.1 15.2 -1.1 7.7 0 0 Z " fill="#865B39" transform="translate(532,618)"/>
<path d="M0 0 C0.7 0 1.3 0 2 0 C10.6 29.9 14.6 60.2 15.8 91.2 C15.8 91.9 15.8 92.6 15.8 93.4 C15.9 95.4 16 97.5 16 99.5 C16.1 100.7 16.1 101.9 16.2 103.2 C16 106 16 106 14 108 C14 107.7 14 107.7 13.9 106 C12.9 73.4 9.6 42.2 2 10.4 C1.2 6.9 0.5 3.5 0 0 Z " fill="#A93939" transform="translate(568,622)"/>
<path d="M0 0 C0.5 1.5 1 2.9 1.5 4.4 C1.8 5.2 2.1 6 2.3 6.8 C3 9 3 9 3 11 C-1.5 12.5 -5.2 13.2 -10 13 C-10.5 11.7 -11 10.5 -11.5 9.2 C-11.8 8.5 -12.1 7.8 -12.3 7 C-13 5 -13 5 -13 2 C-11.4 1.7 -9.8 1.3 -8.2 1 C-7.3 0.8 -6.4 0.6 -5.5 0.4 C-3 0 -3 0 0 0 Z " fill="#962024" transform="translate(577,609)"/>
<path d="M0 0 C2.7 2.7 2.4 4.6 2.6 8.4 C2.9 14.7 2.9 14.7 4 18 C4.1 19.4 4.2 20.7 4.2 22.1 C4.2 22.9 4.2 23.7 4.2 24.6 C4.3 25.4 4.3 26.3 4.3 27.2 C4.3 28.1 4.3 29.1 4.3 30 C4.4 32.9 4.4 35.8 4.5 38.8 C4.6 42.6 4.6 46.4 4.7 50.2 C4.7 51.1 4.7 52 4.8 52.9 C5 67 5 67 8 71 C12.6 73.8 17.8 73.2 23 73 C20.5 75.5 19.6 75.3 16.2 75.4 C12.6 75.4 10.4 75.1 7.5 72.8 C3.3 68.1 2.8 64.3 2.7 58.1 C2.6 57.8 2.6 57.8 2.6 56.1 C2.6 54.7 2.6 53.3 2.5 51.9 C2.3 39.7 1.8 27.7 0.7 15.6 C0.2 10.3 -0.1 5.2 0 0 Z " fill="#2F0101" transform="translate(553,664)"/>
<path d="M0 0 C2.9 2.9 3.2 6.2 4 10.1 C4.2 10.8 4.3 11.6 4.5 12.4 C4.9 13.9 5.2 15.4 5.5 17 C5.9 18.6 6.3 20.3 6.7 21.9 C7.7 26 8.3 29.8 8 34 C7.8 34.2 7.8 34.2 7 35 C2.3 50.2 5.4 67.5 7 83 C1.8 75.2 2.7 63.8 2.8 54.8 C2.7 53.6 2.7 52.5 2.7 51.4 C2.7 46.6 2.8 42.2 4 37.6 C6.1 29.8 4.3 23 2.5 15.3 C2 13.3 1.6 11.2 1.1 9.2 C0.9 8.3 0.7 7.4 0.5 6.5 C0 4 0 4 0 0 Z " fill="#340404" transform="translate(371,618)"/>
<path d="M0 0 C0.3 0 0.7 0 1 0 C1.4 3.4 0.8 5.7 -0.7 8.7 C-3.5 14.7 -5.1 21.1 -6.8 27.5 C-7.5 30.1 -8.2 32.7 -9.1 35.3 C-12.2 44.6 -13.1 54 -14 63.8 C-14.1 64.9 -14.2 66 -14.3 67.2 C-14.4 68.2 -14.5 69.2 -14.6 70.3 C-15 72.9 -15.7 74.7 -17 77 C-17.8 50.9 -10.5 23.7 0 0 Z " fill="#A4393A" transform="translate(373,427)"/>
<path d="M0 0 C0 0.7 0 1.3 0 2 C-3 3 -3 3 -6 3 C-7.4 3.6 -8.8 4.2 -10.1 4.8 C-13.2 6.2 -16.2 7.4 -19.4 8.4 C-27 10.8 -33.5 15.6 -40 20 C-40.8 20.5 -41.6 20.9 -42.4 21.4 C-49.1 25.6 -55.1 30.7 -61 36 C-61.7 35.7 -62.3 35.3 -63 35 C-49.8 20.3 -31.4 10.1 -13.2 2.9 C-12.4 2.6 -11.7 2.3 -10.9 2 C-7.2 0.6 -4 -0.4 0 0 Z " fill="#9F3636" transform="translate(455,363)"/>
<path d="M0 0 C4.6 0.2 6.5 0.5 9.8 3.8 C13.4 9 14.2 11.5 14 18 C12 18 10 18 8 18 C7.8 16.8 7.5 15.6 7.3 14.3 C6.3 10 4.2 8.1 1 5 C0.2 2.2 0.2 2.2 0 0 Z " fill="#77412D" transform="translate(492,893)"/>
<path d="M0 0 C5 -0.5 7.9 -0.6 11.9 2.6 C14.3 4.9 15 6 16 9.3 C16 13.6 15.6 17.8 15 22 C13.6 19.4 12.6 16.8 11.8 14 C10.2 9.7 8.1 8.1 4 6 C2.4 5.3 0.7 4.6 -1 4 C-0.7 2.7 -0.3 1.4 0 0 Z " fill="#CC7F64" transform="translate(441,263)"/>
<path d="M0 0 C2 0.3 2 0.3 12 2 C11.3 2.7 10.7 3.3 10 4 C6.4 3.6 6.4 3.6 3 3 C3 4.6 3 6.3 3 8 C3.7 8 4.3 8 5 8 C9.2 25.3 9.2 25.3 4.1 34.4 C2 37 2 37 -1 38 C-3.1 38.2 -5.2 38.3 -7.2 38.4 C-14.4 38.9 -14.4 38.9 -17.8 40.6 C-21.9 42.4 -24.6 42.2 -29 42 C-29 41.7 -29 41.3 -29 41 C-28.4 40.9 -27.8 40.8 -27.2 40.7 C-26.4 40.5 -25.6 40.4 -24.8 40.2 C-24 40 -23.2 39.9 -22.4 39.7 C-20 39 -20 39 -18.1 37.4 C-14.3 34.9 -9.8 36 -5.4 36.3 C-1.3 35.9 0.1 34.9 3 32 C6 27.4 5.7 22.3 5 17 C3.9 13.2 2.6 9.6 1.1 6 C0 3 0 3 0 0 Z " fill="#A6393A" transform="translate(448,698)"/>
<path d="M0 0 C10.2 0 20.5 0 31 0 C31 0.3 31 0.7 31 1 C28.4 1.2 28.4 1.2 15 2 C15.8 3.1 16.6 4.1 17.4 5.2 C19.5 8.1 20.7 10.4 21 14 C18.8 14.3 18.8 14.3 16 14 C13.8 11.6 13.8 11.6 11.8 8.6 C11.1 7.6 10.4 6.5 9.7 5.5 C9.4 5.1 9.4 5.1 8 3 C6 1 2.7 1.3 0 1 C0 0.7 0 0.3 0 0 Z " fill="#2E1909" transform="translate(493,596)"/>
<path d="M0 0 C0.7 0.3 1.3 0.7 2 1 C1.1 1.6 0.3 2.3 -0.6 2.9 C-16.9 15.2 -29.9 30.6 -37 50 C-37.8 47.7 -38.1 46.4 -37.4 44.1 C-37 43.4 -36.7 42.8 -36.3 42.1 C-36 41.4 -35.6 40.7 -35.2 40 C-34.9 39.2 -34.5 38.5 -34.1 37.8 C-33.9 37.4 -33.9 37.4 -32.9 35.5 C-31.9 33.7 -31 31.8 -30 30 C-29.3 30 -28.7 30 -28 30 C-27.9 29.5 -27.9 28.9 -27.8 28.4 C-26.7 25.1 -24.7 22.5 -22.6 19.8 C-22.1 19.2 -21.7 18.7 -21.2 18.1 C-10.1 4.1 -10.1 4.1 -3 3 C-3 2.3 -3 1.7 -3 1 C-2 0.7 -1 0.3 0 0 Z " fill="#320202" transform="translate(409,382)"/>
<path d="M0 0 C4.9 0.1 8.7 0.2 12.8 3.3 C13.6 5.5 13.6 5.5 13.8 7.3 C11.1 8.3 10.1 8.5 7.5 7.3 C4.4 6.2 2.2 6.1 -1.1 6.2 C-2 6.2 -3 6.2 -4 6.2 C-4.8 6.3 -5.5 6.3 -6.2 6.3 C-6.9 5 -7.6 3.7 -8.2 2.3 C-5.5 -0.4 -3.8 0 0 0 Z " fill="#D07F63" transform="translate(561.25,369.6875)"/>
<path d="M0 0 C0.3 0 0.7 0 1 0 C1 3 1 5.9 1 9 C1.7 8.9 2.3 8.9 3 8.8 C16.9 7.6 30.6 6.8 44.6 6.8 C45.9 6.8 47.1 6.8 48.5 6.8 C55.4 6.9 62.1 7.1 69 8 C69 8.3 69 8.7 69 9 C68.4 9 67.9 9 67.3 9 C61.3 9.1 55.2 9.2 49.2 9.3 C47 9.4 44.8 9.4 42.5 9.4 C27.9 9.6 13.5 10.4 -1 12 C-1.1 3.5 -1.1 3.5 -1 1 C-0.7 0.7 -0.3 0.3 0 0 Z " fill="#A4393A" transform="translate(356,504)"/>
<path d="M0 0 C2.6 -0.2 2.6 -0.2 5 0 C3.7 0.3 2.4 0.7 1 1 C0.9 1.7 0.8 2.4 0.6 3.1 C-2.7 22.1 -6.3 41.1 -10 60 C-10.3 60 -10.7 60 -11 60 C-11.5 51.9 -10 44.8 -8 37 C-6.3 30 -5.7 23.2 -5.3 16 C-5 13 -5 13 -3 10 C-2.8 8.8 -2.7 7.7 -2.5 6.5 C-2 3 -2 3 0 0 Z " fill="#AC3939" transform="translate(594,463)"/>
<path d="M0 0 C1.3 0 2.6 0 4 0 C6.1 4.2 5.4 9.4 5 14 C4 16.8 3.2 17.8 1 20 C-0.3 20 -1.6 20 -3 20 C-2.1 14.2 -2.1 14.2 -1 12 C-0.8 10 -0.6 7.9 -0.4 5.9 C-0.4 4.8 -0.3 3.7 -0.2 2.6 C-0.1 1.7 -0.1 0.9 0 0 Z " fill="#CB795C" transform="translate(575,248)"/>
<path d="M0 0 C4.8 0.4 6.9 2.4 10 6 C12.2 9.3 12.2 12.1 12 16 C10 16 8 16 6 16 C5.8 14.8 5.5 13.5 5.3 12.2 C4.3 8.1 2.7 6.3 -1 4 C-0.7 2.7 -0.3 1.4 0 0 Z " fill="#B77158" transform="translate(474,895)"/>
<path d="M0 0 C1 0.1 2 0.1 3 0.2 C4.4 0.3 5.8 0.4 7.2 0.4 C7.9 0.5 8.7 0.5 9.5 0.6 C13.9 0.8 18.3 1.1 22.7 1.3 C23.6 1.3 24.5 1.3 25.5 1.4 C27.4 1.5 29.2 1.5 31 1.6 C31.9 1.6 32.7 1.7 33.6 1.7 C34 1.7 34 1.7 35.9 1.8 C38 2 38 2 39.9 2.5 C42.1 3 44.1 3.2 46.4 3.2 C46.8 3.2 46.8 3.2 49 3.3 C49.5 3.3 49.5 3.3 51.8 3.3 C52.3 3.3 52.3 3.3 54.7 3.4 C57.7 3.4 60.7 3.5 63.8 3.6 C65.8 3.6 67.9 3.6 69.9 3.7 C74.9 3.8 80 3.9 85 4 C85 4.3 85 4.7 85 5 C56.4 5.5 28.4 5 0 1 C0 0.7 0 0.3 0 0 Z " fill="#2E0304" transform="translate(441,611)"/>
<path d="M0 0 C1.3 0.7 2.6 1.3 4 2 C4 3 4 4 4 5 C3.3 5 2.7 5 2 5 C1.9 5.6 1.8 6.2 1.6 6.8 C1 9 1 9 -0 10.7 C-1.1 13.3 -1.1 15.6 -1 18.4 C-0.9 27.6 -3.5 32.4 -9.8 38.9 C-10.2 39.3 -10.2 39.3 -12 41 C-12.3 40.3 -12.7 39.7 -13 39 C-12.5 38.5 -12 37.9 -11.5 37.4 C-10.9 36.7 -10.2 36 -9.6 35.2 C-8.9 34.6 -8.3 33.9 -7.6 33.1 C-5.2 30 -4.9 26.9 -4.7 23 C-4.7 22.2 -4.6 21.5 -4.6 20.7 C-4.5 19.1 -4.5 17.6 -4.4 16 C-4.1 10.2 -4.1 10.2 -3 8 C-2.3 8 -1.7 8 -1 8 C-0.7 5.4 -0.3 2.7 0 0 Z " fill="#D5CCC9" transform="translate(513,297)"/>
<path d="M0 0 C2.7 8.7 2 19.8 -2 28 C-3.5 30 -5 31.4 -7 33 C-8 32.7 -9 32.3 -10 32 C-8.8 29.5 -7.5 27.3 -5.9 25 C-2.4 19.6 -2.7 14 -2.5 7.7 C-2.2 2.2 -2.2 2.2 0 0 Z " fill="#DBC8BE" transform="translate(514,343)"/>
<path d="M0 0 C0.3 0 0.7 0 1 0 C0.5 8.6 -0.1 17.2 -1 25.8 C-2 35.5 -2.6 45.2 -3 55 C-4.6 55 -6.3 55 -8 55 C-7.7 54.3 -7.3 53.7 -7 53 C-6.3 53 -5.7 53 -5 53 C-5 52.6 -5 52.6 -5.1 50.8 C-5.2 43.1 -4.5 35.7 -3.6 28.1 C-2.5 19.8 -1.6 11.6 -1.2 3.2 C-1 1 -1 1 0 0 Z " fill="#A63939" transform="translate(444,460)"/>
<path d="M0 0 C0.9 0.4 1.9 0.7 2.9 1.1 C3.2 12.2 2.5 22.2 -0.1 33.1 C-0.5 33.1 -0.8 33.1 -1.1 33.1 C-1.1 31.9 -1 30.8 -0.9 29.6 C-0.3 20.4 0 11.3 -0.1 2.1 C-2.1 2.4 -4.1 2.7 -6.1 3.1 C-5.8 2.1 -5.5 1.1 -5.1 0.1 C-3.1 -0.9 -3.1 -0.9 0 0 Z " fill="#A63939" transform="translate(450.125,456.9375)"/>
</svg>
