<svg viewBox="0 0 100 100" xmlns="http://www.w3.org/2000/svg">
    
      <path d="M 31 32 C 20 12 80 12 69 32 Z" fill="#F8FAFC" />
    
    <circle cx="50" cx="50" cy="28" r="15" fill="#FDE68A" />
    
      <path d="M 33 32 C 33 58 67 58 67 32 Z" fill="#F8FAFC" />
    
    
      <!-- Sourcils inquiets -->
      <path d="M43 24 Q45 25 L47 23" stroke="#1E293B" stroke-width="1.2" stroke-linecap="round" fill="none" />
      <path d="M53 23 Q55 25 L57 24" stroke="#1E293B" stroke-width="1.2" stroke-linecap="round" fill="none" />
      <!-- Yeux écarquillés -->
      <circle cx="45" cy="28" r="2" fill="#1E293B" />
      <circle cx="44.4" cy="27.4" r="0.6" fill="#FFFFFF" />
      <circle cx="55" cy="28" r="2" fill="#1E293B" />
      <circle cx="54.4" cy="27.4" r="0.6" fill="#FFFFFF" />
      <!-- Blush discret -->
      <ellipse cx="41" cy="31" rx="1.8" ry="1" fill="#FDA4AF" opacity="0.5" />
      <ellipse cx="59" cy="31" rx="1.8" ry="1" fill="#FDA4AF" opacity="0.5" />
      <!-- Bouche inquiète et goutte de sueur -->
      <path d="M47 33 h6" stroke="#1E293B" stroke-width="1.8" stroke-linecap="round" />
      <path d="M61 21 Q63 28 L59 28" fill="#3B82F6" opacity="0.8" />
    
  </svg>