<svg viewBox="0 0 100 100" xmlns="http://www.w3.org/2000/svg">
    
      <!-- Jambes fléchies en l'air -->
      <rect x="36" y="65" width="7" height="15" rx="3.5" fill="#FDE68A" transform="rotate(-30 36 65)" />
      <rect x="57" y="65" width="7" height="15" rx="3.5" fill="#FDE68A" transform="rotate(30 57 65)" />
      <!-- Pieds -->
      <rect x="28" y="73" width="10" height="4" rx="2" fill="#9CA3AF" transform="rotate(-30 28 73)" />
      <rect x="62" y="73" width="10" height="4" rx="2" fill="#9CA3AF" transform="rotate(30 62 73)" />
      <!-- Bras levés de joie -->
      <rect x="22" y="28" width="7" height="22" rx="3.5" fill="#FDE68A" transform="rotate(45 22 28)" />
      <rect x="71" y="28" width="7" height="22" rx="3.5" fill="#FDE68A" transform="rotate(-45 71 28)" />
    
    
      <!-- Torse -->
      <rect x="31" y="38" width="38" height="30" rx="8" fill="#4B5563" />
    
    
      <rect x="42" y="52" width="16" height="20" rx="3" fill="#9CA3AF" />
      <line x1="50" y1="52" x2="50" y2="72" stroke="#4B5563" stroke-width="2" />
    
  </svg>