<svg viewBox="0 0 500 500" xmlns="http://www.w3.org/2000/svg">
    <!-- Ombre de contact propre style Duolingo (le composant CharacterRenderer applique aussi son ombre de sol) -->
    <ellipse cx="250" cy="425" rx="85" ry="11" fill="#E2E8F0" />
    
      <!-- Jambes en fuseau organiques -->
      <path d="M 215 340 L 205 420" fill="none" stroke="#FDBA74" stroke-width="24" stroke-linecap="round" />
      <path d="M 285 340 L 295 420" fill="none" stroke="#FDBA74" stroke-width="24" stroke-linecap="round" />
      <!-- Pieds en haricot style cartoon orientés vers l'extérieur -->
      <path d="M 170 412 C 170 425, 215 428, 215 410 C 215 398, 185 398, 170 412 Z" fill="#991B1B" />
      <path d="M 330 412 C 330 425, 285 428, 285 410 C 285 398, 315 398, 330 412 Z" fill="#991B1B" />
      <!-- Bras ballants avec courbes douces (écartés du corps) -->
      <path d="M 150 220 Q 115 275, 130 325" fill="none" stroke="#FDBA74" stroke-width="22" stroke-linecap="round" />
      <path d="M 350 220 Q 385 275, 370 325" fill="none" stroke="#FDBA74" stroke-width="22" stroke-linecap="round" />
    
    
      <!-- Tunique en forme de poire/cloche organique (Duolingo Style) -->
      <path d="M 175 210 C 150 245, 125 315, 150 350 C 175 365, 325 365, 350 350 C 375 315, 350 245, 325 210 Z" fill="#DC2626" />
      <!-- Ombre de volume nette sous le cou et drapés en bas -->
      <path d="M 150 350 C 175 365, 325 365, 350 350 C 340 310, 160 310, 150 350 Z" fill="#991B1B" opacity="0.25" />
      <path d="M 200 210 Q 250 230, 300 210 C 290 225, 210 225, 200 210 Z" fill="#991B1B" opacity="0.3" />
    
    
      <g id="tablets" transform="translate(100, 235) rotate(-6)">
        <rect x="0" y="0" width="75" height="95" rx="18" fill="#9CA3AF" stroke="#1E293B" stroke-width="6" />
        <line x1="37.5" y1="5" x2="37.5" y2="90" stroke="#4B5563" stroke-width="4.5" />
        <!-- Commandements hébraïques schématisés -->
        <path d="M 10 25 h 18" stroke="#374151" stroke-width="4.5" stroke-linecap="round" />
        <path d="M 10 45 h 15" stroke="#374151" stroke-width="4.5" stroke-linecap="round" />
        <path d="M 10 65 h 20" stroke="#374151" stroke-width="4.5" stroke-linecap="round" />
        <path d="M 47 25 h 18" stroke="#374151" stroke-width="4.5" stroke-linecap="round" />
        <path d="M 47 45 h 20" stroke="#374151" stroke-width="4.5" stroke-linecap="round" />
        <path d="M 47 65 h 15" stroke="#374151" stroke-width="4.5" stroke-linecap="round" />
      </g>
    
  </svg>