<svg viewBox="0 0 500 500" xmlns="http://www.w3.org/2000/svg">
    
      <path d="M 150 130 C 125 50 375 50 350 130 C 375 275 360 350 330 360 C 310 300 310 210 310 190 L 190 190 C 190 210 190 300 170 360 C 140 350 125 275 150 130 Z" fill="#7C3AED" />
      <path d="M 210 60 L 225 30 L 250 50 L 275 30 L 290 60 Z" fill="#FBBF24" />
    
    <circle cx="250" cy="130" r="75" fill="#FDE68A" />
    
    
      <!-- Sourcils levés -->
      <path d="M215 100 Q225 95 L235 105" stroke="#1E293B" stroke-width="6" stroke-linecap="round" fill="none" />
      <path d="M265 105 Q275 95 L285 100" stroke="#1E293B" stroke-width="6" stroke-linecap="round" fill="none" />
      <!-- Yeux plissés -->
      <path d="M215 130 Q225 115 L235 130" stroke="#1E293B" stroke-width="10" stroke-linecap="round" fill="none" />
      <path d="M265 130 Q275 115 L285 130" stroke="#1E293B" stroke-width="10" stroke-linecap="round" fill="none" />
      <!-- Blush -->
      <ellipse cx="205" cy="145" rx="12.5" ry="7.5" fill="#FDA4AF" opacity="0.7" />
      <ellipse cx="295" cy="145" rx="12.5" ry="7.5" fill="#FDA4AF" opacity="0.7" />
      <!-- Bouche riante -->
      <path d="M235 150 Q250 175 L265 150" fill="#EF4444" />
    
  </svg>