<svg viewBox="0 0 500 500" xmlns="http://www.w3.org/2000/svg">
    <path d="M 155 170 C 120 100, 150 40, 250 40 C 350 40, 380 100, 345 170 C 385 240, 360 320, 330 330 C 305 240, 305 180, 305 165 L 195 165 C 195 180, 195 240, 170 330 C 140 320, 115 240, 155 170 Z" fill="#1E293B" />
    <circle cx="250" cy="175" r="70" fill="#FED7AA" />
    
    <path d="M 195 120 L 210 80 L 235 100 L 250 75 L 265 100 L 290 80 L 305 120 Z" fill="#FBBF24" stroke="#1E293B" stroke-width="4.5" />
    
      <!-- Yeux joyeux arqués expressifs -->
      <path d="M208 179 Q225 155 L242 179" stroke="#1E293B" stroke-width="9" stroke-linecap="round" fill="none" />
      <path d="M258 179 Q275 155 L292 179" stroke="#1E293B" stroke-width="9" stroke-linecap="round" fill="none" />

      <!-- Blush plus prononcé de joie -->
      <ellipse cx="205" cy="201" rx="20" ry="12" fill="#FDA4AF" opacity="0.75" />
      <ellipse cx="295" cy="201" rx="20" ry="12" fill="#FDA4AF" opacity="0.75" />

      <!-- Bouche de joie ouverte avec langue rose style Duolingo -->
      <path d="M234 203 Q250 235 L266 203 Z" fill="#EF4444" stroke="#1E293B" stroke-width="6" stroke-linejoin="round" />
      <path d="M242 221 Q250 211 L258 221 Q250 231 L242 221" fill="#F472B6" />
    
  </svg>