<svg viewBox="0 0 500 500" xmlns="http://www.w3.org/2000/svg">
    <path d="M 160 175 C 120 50 380 50 340 175 C 380 280 350 350 320 360 C 300 280 305 200 305 180 L 195 180 C 195 200 200 280 180 360 C 150 350 120 280 160 175 Z" fill="#1E293B" />
    <circle cx="250" cy="175" r="70" fill="#FED7AA" />
    
    <path d="M 210 115 L 225 90 L 250 105 L 275 90 L 290 115 Z" fill="#FBBF24" />
    
      <path d="M214 183 Q228 197 L242 183" stroke="#1E293B" stroke-width="8" stroke-linecap="round" fill="none" />
      <path d="M258 183 Q272 197 L286 183" stroke="#1E293B" stroke-width="8" stroke-linecap="round" fill="none" />

      <path d="M234 210 Q250 197 L266 210" stroke="#1E293B" stroke-width="7" stroke-linecap="round" fill="none" />
      <path d="M228 187 v40 c0 6, 10 6, 10 0 v-40z" fill="#60A5FA" />
      <path d="M262 187 v40 c0 6, 10 6, 10 0 v-40z" fill="#60A5FA" />
    
  </svg>