<svg viewBox="0 0 500 500" xmlns="http://www.w3.org/2000/svg">
    <path d="M 155 170 C 120 100, 150 40, 250 40 C 350 40, 380 100, 345 170 C 385 240, 360 320, 330 330 C 305 240, 305 180, 305 165 L 195 165 C 195 180, 195 240, 170 330 C 140 320, 115 240, 155 170 Z" fill="#1E293B" />
    <circle cx="250" cy="175" r="70" fill="#FED7AA" />
    
    <path d="M 195 120 L 210 80 L 235 100 L 250 75 L 265 100 L 290 80 L 305 120 Z" fill="#FBBF24" stroke="#1E293B" stroke-width="4.5" />
    
      <!-- Yeux géants mignons avec double reflet asymétrique (60% du visage) -->
      <circle cx="225" cy="175" r="26" fill="#1E293B" />
      <circle cx="217" cy="167" r="8.5" fill="#FFFFFF" />
      <circle cx="233" cy="183" r="4" fill="#FFFFFF" />

      <circle cx="275" cy="175" r="26" fill="#1E293B" />
      <circle cx="267" cy="167" r="8.5" fill="#FFFFFF" />
      <circle cx="283" cy="183" r="4" fill="#FFFFFF" />

      <!-- Blush rose kawaii -->
      <ellipse cx="205" cy="201" rx="18" ry="10" fill="#FDA4AF" opacity="0.65" />
      <ellipse cx="295" cy="201" rx="18" ry="10" fill="#FDA4AF" opacity="0.65" />

      <!-- Bouche en léger sourire curieux -->
      <path d="M238 207 Q250 219 L262 207" stroke="#1E293B" stroke-width="6.5" stroke-linecap="round" fill="none" />
    
  </svg>