<svg viewBox="0 0 500 500" xmlns="http://www.w3.org/2000/svg">
    <path d="M 160 175 C 120 50 380 50 340 175 C 380 280 350 350 320 360 C 300 280 305 200 305 180 L 195 180 C 195 200 200 280 180 360 C 150 350 120 280 160 175 Z" fill="#1E293B" />
    <circle cx="250" cy="175" r="70" fill="#FED7AA" />
    
    <path d="M 210 115 L 225 90 L 250 105 L 275 90 L 290 115 Z" fill="#FBBF24" />
    
      <path d="M215 180 h25" stroke="#1E293B" stroke-width="8" stroke-linecap="round" />
      <path d="M260 180 h25" stroke="#1E293B" stroke-width="8" stroke-linecap="round" />

      <ellipse cx="208" cy="200" rx="14" ry="8" fill="#FDA4AF" opacity="0.5" />
      <ellipse cx="292" cy="200" rx="14" ry="8" fill="#FDA4AF" opacity="0.5" />

      <ellipse cx="250" cy="200" rx="12" ry="7" fill="#1E293B" />
      <path d="M300 145 Q310 175 L290 175 Z" fill="#3B82F6" stroke="#1E293B" stroke-width="4" stroke-linejoin="round" />
    
  </svg>