<svg viewBox="0 0 500 500" xmlns="http://www.w3.org/2000/svg">
    <path d="M 160 175 C 120 50 380 50 340 175 C 380 280 350 350 320 360 C 300 280 305 200 305 180 L 195 180 C 195 200 200 280 180 360 C 150 350 120 280 160 175 Z" fill="#1E293B" />
    <circle cx="250" cy="175" r="70" fill="#FED7AA" />
    
    <path d="M 210 115 L 225 90 L 250 105 L 275 90 L 290 115 Z" fill="#FBBF24" />
    
      <!-- Yeux géants mignons -->
      <circle cx="228" cy="175" r="22" fill="#1E293B" />
      <circle cx="222" cy="169" r="7" fill="#FFFFFF" />
      <circle cx="234" cy="181" r="3" fill="#FFFFFF" />

      <circle cx="272" cy="175" r="22" fill="#1E293B" />
      <circle cx="266" cy="169" r="7" fill="#FFFFFF" />
      <circle cx="278" cy="181" r="3" fill="#FFFFFF" />

      <ellipse cx="208" cy="200" rx="16" ry="9" fill="#FDA4AF" opacity="0.65" />
      <ellipse cx="292" cy="200" rx="16" ry="9" fill="#FDA4AF" opacity="0.65" />

      <path d="M238 205 Q250 217 L262 205" stroke="#1E293B" stroke-width="7" stroke-linecap="round" fill="none" />
    
  </svg>