<svg viewBox="0 0 500 500" xmlns="http://www.w3.org/2000/svg">
    
      <path d="M 150 130 C 125 50 375 50 350 130 C 375 275 360 350 330 360 C 310 300 310 210 310 190 L 190 190 C 190 210 190 300 170 360 C 140 350 125 275 150 130 Z" fill="#7C3AED" />
      <path d="M 210 60 L 225 30 L 250 50 L 275 30 L 290 60 Z" fill="#FBBF24" />
    
    <circle cx="250" cy="130" r="75" fill="#FDE68A" />
    
    
      <!-- Sourcils -->
      <path d="M215 110 Q225 105 L235 110" stroke="#1E293B" stroke-width="6" stroke-linecap="round" fill="none" />
      <path d="M265 110 Q275 105 L285 110" stroke="#1E293B" stroke-width="6" stroke-linecap="round" fill="none" />
      <!-- Yeux + Reflets -->
      <circle cx="225" cy="130" r="10" fill="#1E293B" />
      <circle cx="222" cy="127" r="3" fill="#FFFFFF" />
      <circle cx="275" cy="130" r="10" fill="#1E293B" />
      <circle cx="272" cy="127" r="3" fill="#FFFFFF" />
      <!-- Blush -->
      <ellipse cx="205" cy="145" rx="10" ry="6" fill="#FDA4AF" opacity="0.6" />
      <ellipse cx="295" cy="145" rx="10" ry="6" fill="#FDA4AF" opacity="0.6" />
      <!-- Bouche -->
      <path d="M240 155 Q250 165 L260 155" stroke="#1E293B" stroke-width="10" stroke-linecap="round" fill="none" />
    
  </svg>