<svg viewBox="0 0 500 500" xmlns="http://www.w3.org/2000/svg">
    <path d="M 155 170 C 120 100, 150 40, 250 40 C 350 40, 380 100, 345 170 C 385 240, 360 320, 330 330 C 305 240, 305 180, 305 165 L 195 165 C 195 180, 195 240, 170 330 C 140 320, 115 240, 155 170 Z" fill="#1E293B" />
    <circle cx="250" cy="175" r="70" fill="#FED7AA" />
    
    <path d="M 195 120 L 210 80 L 235 100 L 250 75 L 265 100 L 290 80 L 305 120 Z" fill="#FBBF24" stroke="#1E293B" stroke-width="4.5" />
    
      <!-- Yeux concentrés/plissés (effort) -->
      <path d="M210 179 L240 179" stroke="#1E293B" stroke-width="8.5" stroke-linecap="round" />
      <path d="M260 179 L290 179" stroke="#1E293B" stroke-width="8.5" stroke-linecap="round" />

      <ellipse cx="205" cy="201" rx="14" ry="8" fill="#FDA4AF" opacity="0.5" />
      <ellipse cx="295" cy="201" rx="14" ry="8" fill="#FDA4AF" opacity="0.5" />

      <ellipse cx="250" cy="201" rx="13" ry="7.5" fill="#1E293B" />
      <!-- Goutte de sueur bleue en relief 3D Flat -->
      <path d="M302 150 C315 180, 290 180, 292 165 Z" fill="#3B82F6" stroke="#1E293B" stroke-width="4.5" stroke-linejoin="round" />
    
  </svg>