<svg viewBox="0 0 500 500" xmlns="http://www.w3.org/2000/svg">
    <!-- Ombre nette au sol -->
    <ellipse cx="250" cy="450" rx="90" ry="12" fill="#E2E8F0" />
    
      <!-- Jambe arrière en course -->
      <path d="M200 340 L160 400" fill="none" stroke="#FED7AA" stroke-width="20" stroke-linecap="round" />
      <path d="M140 395 h40 c5 0, 5 15, 0 15 h-40 z" fill="#BE185D" transform="rotate(-15 140 395)" />
      <!-- Jambe avant en foulée -->
      <path d="M280 340 Q320 375, 300 420" fill="none" stroke="#FED7AA" stroke-width="20" stroke-linecap="round" />
      <path d="M285 415 h40 c5 0, 5 15, 0 15 h-40 z" fill="#BE185D" transform="rotate(10 285 415)" />
      <!-- Bras de course fléchis -->
      <path d="M140 230 Q90 260, 115 300" fill="none" stroke="#FED7AA" stroke-width="18" stroke-linecap="round" />
      <path d="M360 220 Q400 190, 385 155" fill="none" stroke="#FED7AA" stroke-width="18" stroke-linecap="round" />
    
    
      <path d="M150 215 h200 L370 360 H130 Z" fill="#EC4899" />
      <rect x="175" y="210" width="150" height="22" fill="#BE185D" rx="8" />
    
    
  </svg>