<svg viewBox="0 0 500 500" xmlns="http://www.w3.org/2000/svg">
    <!-- Ombre de contact propre style Duolingo (le composant CharacterRenderer applique aussi son ombre de sol) -->
    <ellipse cx="250" cy="425" rx="85" ry="11" fill="#E2E8F0" />
    
      <!-- Jambes rentrées vers l'intérieur (tristesse) -->
      <path d="M 215 340 L 230 410" fill="none" stroke="#FED7AA" stroke-width="24" stroke-linecap="round" />
      <path d="M 285 340 L 270 410" fill="none" stroke="#FED7AA" stroke-width="24" stroke-linecap="round" />
      <path d="M 200 405 C 200 418, 240 418, 240 400 C 240 390, 215 390, 200 405 Z" fill="#BE185D" />
      <path d="M 300 405 C 300 418, 260 418, 260 400 C 260 390, 285 390, 300 405 Z" fill="#BE185D" />
      <!-- Bras repliés vers le corps (abattement) -->
      <path d="M 145 220 Q 120 280, 140 330" fill="none" stroke="#FED7AA" stroke-width="20" stroke-linecap="round" />
      <path d="M 355 220 Q 380 280, 360 330" fill="none" stroke="#FED7AA" stroke-width="20" stroke-linecap="round" />
    
    
      <path d="M 175 210 H 325 L 365 350 C 365 365, 135 365, 135 350 Z" fill="#EC4899" />
      <!-- Ceinture dorée et drapés de la robe -->
      <path d="M 168 250 C 210 262, 290 262, 332 250 L 338 270 C 290 282, 210 282, 162 270 Z" fill="#FBBF24" stroke="#1E293B" stroke-width="4.5" />
      <path d="M 195 275 Q 250 330, 210 355" fill="none" stroke="#BE185D" stroke-width="5" stroke-linecap="round" opacity="0.4" />
      <path d="M 295 275 Q 250 330, 280 355" fill="none" stroke="#BE185D" stroke-width="5" stroke-linecap="round" opacity="0.4" />
    
    
  </svg>