<svg viewBox="0 0 500 500" xmlns="http://www.w3.org/2000/svg">
    <!-- Ombre de contact propre style Duolingo (le composant CharacterRenderer applique aussi son ombre de sol) -->
    <ellipse cx="250" cy="425" rx="85" ry="11" fill="#E2E8F0" />
    
      <!-- Jambes en plein mouvement asymétrique de course -->
      <path d="M 210 330 Q 165 375, 185 410" fill="none" stroke="#FED7AA" stroke-width="24" stroke-linecap="round" />
      <path d="M 155 405 C 155 418, 195 420, 195 405 C 195 392, 170 392, 155 405 Z" fill="#BE185D" transform="rotate(-15 155 405)" />
      
      <path d="M 285 330 Q 325 360, 290 415" fill="none" stroke="#FED7AA" stroke-width="24" stroke-linecap="round" />
      <path d="M 270 410 C 270 423, 310 425, 310 410 C 310 398, 285 398, 270 410 Z" fill="#BE185D" transform="rotate(15 270 410)" />
      
      <!-- Bras fléchis de façon dynamique -->
      <path d="M 145 210 Q 100 240, 130 285" fill="none" stroke="#FED7AA" stroke-width="20" stroke-linecap="round" />
      <path d="M 355 210 Q 380 180, 360 145" fill="none" stroke="#FED7AA" stroke-width="20" stroke-linecap="round" />
    
    
      <path d="M 175 210 H 325 L 365 350 C 365 365, 135 365, 135 350 Z" fill="#EC4899" />
      <!-- Ceinture dorée et drapés de la robe -->
      <path d="M 168 250 C 210 262, 290 262, 332 250 L 338 270 C 290 282, 210 282, 162 270 Z" fill="#FBBF24" stroke="#1E293B" stroke-width="4.5" />
      <path d="M 195 275 Q 250 330, 210 355" fill="none" stroke="#BE185D" stroke-width="5" stroke-linecap="round" opacity="0.4" />
      <path d="M 295 275 Q 250 330, 280 355" fill="none" stroke="#BE185D" stroke-width="5" stroke-linecap="round" opacity="0.4" />
    
    
  </svg>