<svg viewBox="0 0 500 500" xmlns="http://www.w3.org/2000/svg">
  <ellipse cx="250" cy="450" rx="80" ry="10" fill="#E2E8F0" />
  <g id="legs">
    <path d="M205 365 v35 h-10" fill="none" stroke="#64748B" stroke-width="16" stroke-linecap="round" stroke-linejoin="round" />
    <path d="M175 395 h35 c8 0, 8 16, 0 16 h-35 c-8 0, -8 -16, 0 -16z" fill="#FBBF24" />
    <path d="M295 365 v35 h10" fill="none" stroke="#64748B" stroke-width="16" stroke-linecap="round" stroke-linejoin="round" />
    <path d="M290 395 h35 c8 0, 8 16, 0 16 h-35 c-8 0, -8 -16, 0 -16z" fill="#FBBF24" />
  </g>
  <g id="arms">
    <path d="M140 250 Q115 300, 120 330" fill="none" stroke="#64748B" stroke-width="16" stroke-linecap="round" />
    <path d="M360 250 Q385 300, 380 330" fill="none" stroke="#64748B" stroke-width="16" stroke-linecap="round" />
  </g>
  <!-- Livre affaissé (plus bas, légèrement courbé vers le bas) -->
  <g id="book-body" transform="translate(0, 15) scale(0.98, 0.96) translate(5, 5)">
    <rect x="135" y="115" width="230" height="250" rx="35" fill="#3730A3" />
    <rect x="140" y="110" width="220" height="240" rx="32" fill="#4F46E5" />
    <path d="M140 110 v240 c0 17.67 14.33 32 32 32 h18 v-304 h-18 c-17.67 0 -32 14.33 -32 32z" fill="#3730A3" />
    <path d="M360 145 h12 v170 h-12z" fill="#E2E8F0" />
    <path d="M185 350 c40 8, 120 8, 175 0 v10 c-55 8, -135 8, -175 0z" fill="#FFFFFF" />
  </g>
</svg>