<svg viewBox="0 0 500 500" xmlns="http://www.w3.org/2000/svg">
        <ellipse cx="250" cy="450" rx="90" ry="12" fill="#E2E8F0" />
        <g id="legs">
          <path d="M200 360 v50" fill="none" stroke="#64748B" stroke-width="16" stroke-linecap="round" />
          <path d="M180 410 h35 c8 0, 8 16, 0 16 h-35 c-8 0, -8 -16, 0 -16z" fill="#FBBF24" />
          <path d="M180 426 h35 v2 h-35z" fill="#D97706" />
          <path d="M300 360 v50" fill="none" stroke="#64748B" stroke-width="16" stroke-linecap="round" />
          <path d="M285 410 h35 c8 0, 8 16, 0 16 h-35 c-8 0, -8 -16, 0 -16z" fill="#FBBF24" />
          <path d="M285 426 h35 v2 h-35z" fill="#D97706" />
        </g>
        <g id="arms">
          <path d="M140 240 C110 240, 95 260, 105 285" fill="none" stroke="#64748B" stroke-width="16" stroke-linecap="round" />
          <path d="M360 240 C390 240, 405 260, 395 285" fill="none" stroke="#64748B" stroke-width="16" stroke-linecap="round" />
        </g>
        <g id="book-body">
          <rect x="135" y="115" width="230" height="250" rx="35" fill="#3730A3" />
          <rect x="140" y="110" width="220" height="240" rx="32" fill="#4F46E5" />
          <path d="M140 110 v240 c0 17.67 14.33 32 32 32 h18 v-304 h-18 c-17.67 0 -32 14.33 -32 32z" fill="#3730A3" />
          <path d="M360 135 h12 v190 h-12z" fill="#FFFFFF" />
          <path d="M372 145 h4 v170 h-4z" fill="#E2E8F0" />
          <path d="M185 350 c40 8, 120 8, 175 0 v10 c-55 8, -135 8, -175 0z" fill="#FFFFFF" />
          <path d="M195 360 c30 5, 100 5, 150 0 v6 c-50 5, -120 5, -195 0z" fill="#E2E8F0" />
        </g>
      </svg>